<?xml version="1.0" standalone="no"?>
<!DOCTYPE svg PUBLIC "-//W3C//DTD SVG 1.1//EN" "http://www.w3.org/Graphics/SVG/1.1/DTD/svg11.dtd" >
<svg xmlns="http://www.w3.org/2000/svg">
<metadata>
Created by FontPrep 20130207 at Sun Jan 19 11:22:02 2014
 By Sappawish Siripon
Copyright (c) Kwang!!, 2005. All rights reserved.
</metadata>
<defs>
<font id="bb647f21162ba2a6bbb065731375be93" horiz-adv-x='1024' >
  <font-face 
    font-family="4805KwangMD_Influenza"
    font-weight="400"
    font-stretch="normal"
    units-per-em="2048"
    panose-1="2 0 0 0 0 0 0 0 0 0"
    ascent="1638"
    descent="-410"
    x-height="740"
    cap-height="1188.5"
    bbox="-911.558 -905.024 1256 1750.06"
    underline-thickness="35"
    underline-position="-78"
    unicode-range="U+0020-0E3E"
  />
<missing-glyph horiz-adv-x="1536" 
 />
    <glyph glyph-name=".notdef" horiz-adv-x="1536" 
 />
    <glyph glyph-name=".null" 
 />
    <glyph glyph-name="nonmarkingreturn" horiz-adv-x="579" 
 />
    <glyph glyph-name="space" unicode=" " horiz-adv-x="690" 
 />
    <glyph glyph-name="exclam" unicode="!" horiz-adv-x="266" 
d="M55.5 121q12.5 30 49.5 30q15 13 40 5t41 -19.5t26.5 -42.5t-13 -73.5t-95.5 -17.5q-48 16 -54.5 52t6 66zM93 732q0 230 3 459q6 36 37.5 37.5t41.5 -33.5q-3 -694 -1 -919q-1 -21 -12.5 -32t-37 -12t-29.5 40q-2 230 -2 460z" />
    <glyph glyph-name="quotedbl" unicode="&#x22;" horiz-adv-x="387" 
d="M234 1193q6 36 37.5 37.5t41.5 -33.5v-302q-1 -21 -12.5 -32t-37 -12t-29.5 40v302zM76 1189q0 21 12.5 31t27.5 10t27.5 -10t12.5 -31v-296q0 -21 -12.5 -31t-27.5 -10t-27.5 10t-12.5 31v296z" />
    <glyph glyph-name="numbersign" unicode="#" horiz-adv-x="1134" 
d="M476 556h147l47 129h-148zM1012 765q21 0 31 -12.5t10 -27.5t-10 -27.5t-31 -12.5h-256l-47 -129h313q21 0 31 -12.5t10 -27.5t-10 -27.5t-31 -12.5h-342l-158 -450q-13 -38 -51.5 -25t-24.5 53l148 422h-147l-160 -445q-13 -38 -51.5 -25t-24.5 53l150 417h-236
q-21 0 -31 12.5t-10 27.5t10 27.5t31 12.5h265l46 129h-300q-21 0 -31 12.5t-10 27.5t10 27.5t31 12.5h329l144 396q14 39 40 29.5t34.5 -24t1.5 -33.5l-134 -368h148l144 401q14 39 40 29.5t34.5 -24t1.5 -33.5l-134 -373h227z" />
    <glyph glyph-name="dollar" unicode="$" horiz-adv-x="920" 
d="M572 406v-6v6zM505 724q6 184 10 358q-111 20 -249 -40q-78 -32 -90 -79q-19 -75 99 -131t129 -61zM748.5 448q-10.5 18 -42.5 57t-125 95q-2 -40 -3.5 -79.5t-3.5 -79.5v25q-2 -45 -3 -88.5t-3 -85.5t-2 -81t-1 -63t0 -44t2 -49q81 23 159 84t62 118.5t-13.5 77t3.5 42
t-9 37.5q-10 16 -20.5 34zM596 1292v-158q16 -8 31 -17t39 -19t51.5 -19.5t62.5 -30.5t51 -83q0 -36 -30 -42t-48 25q-11 43 -70 61t-88 36q-5 -220 -11 -359q86 -45 144 -97t114 -142q14 -24 12.5 -71t7 -87.5t0.5 -76.5q-17 -82 -100 -147t-195 -91q-5 -141 -37 -166
q-30 -18 -51.5 1.5t-8.5 47.5l3.5 7t4.5 11t2 23t1.5 32.5t2.5 31.5q-96 -5 -138 20.5t-84.5 60t-111.5 117.5t-75.5 136.5t-7.5 87.5q6 36 37.5 37.5t41.5 -33.5q6 -78 17 -104q22 -52 108.5 -141t131.5 -97q45 -9 81 -6q0 197 18 602q-56 26 -111 50t-97 45
q-95 47 -149 103t-51 134q2 42 52.5 86t85.5 55q97 31 162 45t122 5q1 23 1 46v46l-13 60q6 36 28.5 37t35.5 -8t16 -35q12 -9 12 -19z" />
    <glyph glyph-name="percent" unicode="%" horiz-adv-x="930" 
d="M668 372q-30 4 -68 -29t-39 -55t7 -32t18 -22q12 -10 24 -22t21 -22q14 -5 28 -11q101 -43 125 2t-17 115q-40 69 -99 76zM282 925q12 -22 7 -39q30 -11 62 -24q32 -14 38 -9q7 4 17 10q53 34 55 73q6 96 -66 118q-13 6 -26 6t-27 2q-44 6 -60 2q-33 -6 -38 -37
q-4 -21 11 -51q15 -29 27 -51zM819 1164q28 24 53 6q24 -18 12 -53q-35 -41 -63 -127q-29 -87 -50 -118q-23 -34 -82 -95t-87 -105q-28 -46 -56 -108t-55 -112t-53 -88q-24 -39 -36 -59l-30 -50q-116 -194 -156 -207q-34 -6 -48 18t6 46q-2 8 8 13t16 13t12 18t92 140
t123 202q36 72 61 128q24 56 50 93q34 50 104 120q69 69 86 117q18 48 38 107t55 101zM586 119q-24 13 -27 35q-3 4 -6 6t-10 8q-64 60 -63 101q1 40 15 60q15 21 29 41t30 40q28 36 86 40q125 10 197 -115q71 -125 6 -208q-23 -28 -57 -40q-34 -13 -58 -9t-47 12t-47 17
t-48 12zM163 1020q0 126 168 122q81 -2 131 -32t76 -108q13 -38 6 -65q-12 -45 -22 -63q-37 -71 -108 -99q-16 -6 -32 -6q-26 0 -72 23q-47 23 -70 26q-40 21 -23 56l-2 4t-3 10q-2 10 -10 25t-18 30q-22 37 -21 77z" />
    <glyph glyph-name="ampersand" unicode="&#x26;" horiz-adv-x="1026" 
d="M473 249q23 23 49 41t49 38q-3 1 -3 2t-7 6q-7 4 -20 14t-27 20q-28 -77 -41 -121zM220 1068q-28 0 -35 -8q-11 -22 -25 -42q-62 -88 64 -265q70 -92 143 -156q72 -64 110 -95q20 50 33 88t28 76q80 202 36 270q-26 41 -59 67q-33 27 -49 33t-42 11t-54 9t-55 5
q-27 3 -47 5t-48 2zM544 449q62 -50 84 -64q130 130 184 161q54 30 82 34t40 -7t14 -25q4 -36 -38 -44q-71 -16 -214 -164q170 -106 197 -135q27 -30 57 -60t57 -36q48 -11 40 -46q-8 -36 -43 -31t-58 20q-23 16 -44 34q-20 18 -40 38t-45 42q-25 20 -57 38t-54 32
q-23 15 -38 25l-30 20q-26 -23 -56 -43t-50 -43q-21 -23 -32 -37t-27 -34q-16 -19 -55 -34q-48 -8 -54 39q15 115 82 293q-112 88 -159 141t-68 75t-34 36t-21 26q-8 10 -17 26t-23 40t-31 54t-21 44t-4 28q-2 15 -3 33t-5 46q-9 56 34 111q44 55 93 62q49 8 90 2t84 -14
q43 -6 79 -11t66 -17q59 -24 114 -101q6 -9 14 -19t16 -23q50 -80 -31 -301q-15 -41 -32 -91q-17 -51 -43 -120z" />
    <glyph glyph-name="quotesingle" unicode="'" horiz-adv-x="301" 
d="M86 1207q6 36 37.5 37.5t41.5 -33.5q1 -67 12.5 -203.5t13.5 -218.5q-1 -21 -12.5 -32t-37 -12t-29.5 40q-2 107 -13 211.5t-13 210.5z" />
    <glyph glyph-name="parenleft" unicode="(" horiz-adv-x="543" 
d="M450 -254q-12 0 -18 4q-4 4 -26 11q-108 40 -232 247q-203 342 -52 826q37 120 70 174q33 53 48 80q14 26 30 48q38 52 104 120q66 67 111 78q37 2 45 -27q9 -30 -23 -50q-45 -11 -119 -101q-73 -91 -120 -178q-107 -198 -130 -437t67 -421t198 -262q9 -6 21 -12t33 -16
t29 -29q7 -32 -8 -43q-16 -12 -28 -12z" />
    <glyph glyph-name="parenright" unicode=")" horiz-adv-x="541" 
d="M106 -277q-12 0 -29 12t-9 34q8 21 18 29t22 14l26 13q12 6 22 14q111 84 202 268t67 426t-138 458q-79 147 -196 247q-26 22 -43 26q-33 20 -23 51q10 30 46 28q76 -18 216 -198q19 -26 34 -53t33 -55q30 -47 62 -132q222 -568 -76 -990q-104 -147 -208 -184
q-2 -1 -8 -5t-18 -3z" />
    <glyph glyph-name="asterisk" unicode="*" horiz-adv-x="717" 
d="M505 645q-15 0 -31 11q-88 99 -128 147q-17 -19 -30.5 -34.5t-27.5 -31t-29 -31.5t-39 -40t-51 3t-2 56q62 59 109 114q-46 20 -85.5 41.5t-68.5 36.5t-17 50.5t60 22.5q34 -14 67.5 -33.5t87.5 -49.5v181q6 36 37.5 37.5t41.5 -33.5v-176q24 9 43 16.5t37 14t36.5 13.5
t39.5 15q39 15 53.5 -22.5t-16.5 -50.5q-30 -12 -74 -29t-95 -38q28 -32 56.5 -64.5t54.5 -64.5q20 -34 3 -47.5t-32 -13.5z" />
    <glyph glyph-name="plus" unicode="+" horiz-adv-x="905" 
d="M482 522q0 -4 -1 -8q200 -19 335 -22q35 -10 33.5 -41.5t-37.5 -37.5q-152 4 -335 21q-1 -38 2 -310q-1 -21 -12.5 -32t-37 -12t-29.5 40q-1 81 -3.5 161t0.5 161q-175 17 -327 21q-41 4 -40 29.5t12 37t32 12.5q150 -4 328 -21q0 31 22 133.5t26 163.5q6 36 37.5 37.5
t41.5 -33.5q-2 -60 -22.5 -157t-22.5 -118t-2 -25z" />
    <glyph glyph-name="comma" unicode="," horiz-adv-x="300" 
d="M82 75q-31 18 -25 48t42 30q23 -3 46 -3.5t53 -14.5t47 -41.5t19.5 -60.5t-6.5 -69.5t-21.5 -72.5t-25.5 -70.5t-18 -63.5q-12 -34 -43.5 -30.5t-35.5 39.5q2 15 3 29.5t7 29.5t43 103t11 121q-18 22 -52 23.5t-44 2.5z" />
    <glyph glyph-name="hyphen" unicode="-" horiz-adv-x="939" 
d="M135 457q-41 4 -40 29.5t12 37t32 12.5h677q35 -10 33.5 -41.5t-37.5 -37.5h-677z" />
    <glyph glyph-name="period" unicode="." horiz-adv-x="376" 
d="M292 28q4 -10 -9 -29t-21 -24q-18 -19 -40 -22t-42 -4q-21 -1 -35 6t-34 30q-33 38 -31 85q4 86 105 73q58 -7 72 -21q15 -14 23 -29q8 -55 12 -65z" />
    <glyph glyph-name="slash" unicode="/" horiz-adv-x="799" 
d="M704 1270q20 32 49.5 23.5t27.5 -45.5q-13 -65 -50 -121t-61 -88.5t-44 -61.5q-113 -164 -174.5 -331t-105.5 -281t-89 -226.5t-83 -230.5q2 -29 -6.5 -48.5t-40.5 -25.5q-44 6 -41.5 30t9.5 33q-2 34 10.5 66t41.5 116t68 179t71.5 179.5t107.5 275t159 299.5
t112.5 159.5t38.5 98.5z" />
    <glyph glyph-name="zero" unicode="0" horiz-adv-x="882" 
d="M680 983q-76 99 -188 89q-204 -18 -281 -134q-47 -71 -60 -155q-15 -85 -19 -149t0 -128q20 -323 236 -410q131 -52 244 40t149 233q23 88 -1 212q-23 123 -29 190q-5 67 -13 93t-10 34t-5 21q-4 13 -18 26t-5 38zM776 968q4 -22 4 -25q19 -48 25 -107q6 -58 9 -88t8 -60
q5 -32 13 -76q9 -44 13 -88q17 -164 -57 -297q-73 -134 -187 -191t-202 -31q-30 9 -62 16t-62 27t-54 47q-26 27 -48 55t-42 56q-22 28 -38 71t-28 95q-19 94 -18 211t15 173q29 122 57 190q28 69 99 117t110 60q40 12 80 19q93 16 158 5t130 -68q66 -57 77 -111z" />
    <glyph glyph-name="one" unicode="1" horiz-adv-x="456" 
d="M294 86v35q2 10 6 17l-4 70t-2 70v706q-43 -52 -105.5 -72t-148.5 -30q-36 4 -39.5 35.5t30.5 43.5q109 15 144 35t57 40t35 41.5t32 40.5q21 18 47.5 9.5t26.5 -23.5v-822l9 -202v-26q-4 -23 -19 -38q-20 -7 -28 -5h-2q-12 2 -14 5.5t-8 9.5t-8 23t-6 26q-3 8 -3 11z
" />
    <glyph glyph-name="two" unicode="2" horiz-adv-x="730" 
d="M125 670q-11 -34 -43 -30t-36 39q15 155 49 226q34 72 74 118q39 46 83 76t80 34q36 5 72 -3q78 -16 141 -69q62 -53 66 -116q1 -29 5 -57t-8 -84q-39 -186 -198 -483q-61 -114 -76 -144t-31 -61q265 25 343 -25q34 -23 16 -55t-44 -18q-27 14 -55 19q-29 5 -63 7
q-115 7 -265 -16q-47 6 -39 54q24 48 48 95t59 113t81 150t71 146q53 125 73 200t6 135t-47 89q-33 30 -75 38t-84 -5q-44 -13 -78 -46q-105 -102 -125 -327z" />
    <glyph glyph-name="three" unicode="3" horiz-adv-x="839" 
d="M129 311q0 3 1 -1t7 -13q6 -8 6 -18q5 -11 11 -23l14 -28t20 -42t28 -48q16 -24 36 -43t44 -26q25 -7 62 1q36 8 78 26q90 38 170 96q79 59 100 101q-31 97 -280 150q-25 6 -58 4q-33 -1 -37 -1v1q-35 6 -37 37t31 42q90 18 125 36q34 18 62 40t52 62t36 86q25 99 -4 187
q-40 127 -158 149q-55 10 -147 -35q-91 -45 -114 -81t-57 -14q-10 6 -17 19q-5 30 15 50q20 21 34 31l26 19q122 98 235 93t186 -86q71 -81 91 -194q10 -54 2 -86t-10 -50t-8 -48t-25 -57q-20 -26 -41 -57q-38 -56 -97 -88q1 -1 20 -7q244 -77 258 -200q7 -68 -132 -162
t-197 -118q-163 -65 -250 11q-50 43 -77 95q-27 53 -36 71t-15 29q-6 10 -14 27q-9 17 -13 36q-3 19 5 32q8 12 22 16q31 9 47 -23v2z" />
    <glyph glyph-name="four" unicode="4" horiz-adv-x="660" 
d="M137 413q204 -12 210 -12q-2 148 -4.5 294t-4.5 295q-27 -45 -65 -161.5t-60 -182.5t-42 -121t-34 -112zM427 317q2 -134 2 -268q-1 -21 -12.5 -32t-37 -12t-29.5 40q0 138 -2 276q-125 6 -259 16q-47 6 -39 54q14 69 38 134.5t48 139.5t51 155.5t47 133.5t34.5 73.5
t38.5 59t29 67.5q5 31 18 40t27 7.5t25 -13.5t10 -33q1 -191 4 -379t6 -379q84 -4 170 -6q35 -10 33.5 -41.5t-37.5 -37.5q-120 3 -165 5z" />
    <glyph glyph-name="five" unicode="5" horiz-adv-x="796" 
d="M648 446q0 107 -18 158t-45.5 81.5t-69.5 38.5t-73.5 4t-59.5 -14t-55 -23.5t-73.5 -32.5t-84.5 -17q-37 3 -45.5 9t-16.5 20q-12 57 -5 205t10 214q-40 6 -38.5 30.5t12.5 36t32 12.5q12 24 35.5 24t35.5 -24l448 -2q35 -10 33.5 -41.5t-37.5 -37.5q-63 0 -221.5 1.5
t-220.5 0.5q-6 -204 -10 -208q-6 -113 -1 -158q37 5 93 28.5t84 31.5t43.5 13t21.5 8l6 2l81 -1q9 0 14 0.5t21 -7.5t43 -15t48 -29t35.5 -52t27.5 -52t19 -52.5t10.5 -85.5t-3.5 -137t-23 -111t-54 -106.5t-110 -101.5q-80 -26 -121 -23.5t-70.5 9t-59.5 12.5t-42 13.5
t-24 17.5t-24 19.5t-25 19.5t-22.5 23.5t-17.5 29t-15 31.5t-17 32t-14.5 37t-7 42t-4 41.5t-3.5 40.5q-5 40 30.5 48t47.5 -32q6 -35 9 -71t15 -74t39.5 -70.5t82 -66t139.5 -24t134 72.5q81 104 81 262z" />
    <glyph glyph-name="six" unicode="6" horiz-adv-x="832" 
d="M190 418v-65q20 -111 100 -192q88 -89 205 -78t170 140q54 130 22 246q-24 92 -120 119q-95 28 -211 -8t-153 -116q-4 -10 -7 -22q-2 -11 -6 -24zM157 600v-62q25 24 49 48t56 42t70 28t80 23q96 29 212 -25t141 -155t-10 -255t-124 -198q-141 -75 -309 -6
q-148 62 -216 306q-53 191 -35 399q17 209 125 337q73 88 211 113q139 25 224 -47t108 -147q0 -36 -30 -42t-48 25q-45 78 -74 98q-47 34 -116 30q-220 -11 -292 -291q-20 -73 -21 -130t-1 -91z" />
    <glyph glyph-name="seven" unicode="7" horiz-adv-x="820" 
d="M176 1062.5q-52 15.5 -76 19.5t-33 17t-8.5 27t11.5 25t34 11t45.5 -8t58.5 -14t86.5 -7.5t99.5 0.5t104.5 1.5t97.5 4.5t78 10t70 -5q17 -11 22 -31q0 -58 -46.5 -134.5t-65.5 -110.5t-46.5 -71t-65.5 -95q-115 -176 -196.5 -340.5t-105.5 -333.5q-12 -34 -43.5 -30.5
t-35.5 39.5q36 254 161 461t195.5 314.5t92.5 148.5t35.5 61t22.5 46q-92 -13 -153 -12.5t-174 -3.5q-113 -5 -165 10.5z" />
    <glyph glyph-name="eight" unicode="8" horiz-adv-x="804" 
d="M575 169q-29 117 -133 222q-38 38 -64 63t-51 51q-11 -8 -21 -16q-10 -9 -26 -21q-104 -79 -121 -161q-22 -111 115 -181q38 -20 78 -32q124 -40 174 -10q16 10 33 18q1 8 5 16q14 34 11 51zM595 1044l-1 4q-57 38 -151 52q-93 14 -139 -10t-71 -68q-49 -91 -16 -203
q34 -113 122 -210q20 13 37 23q116 71 170 130q94 101 100 204q2 25 5 50v5q-35 -17 -56 23zM368 1186q32 6 56 0t55 -13q30 -6 85 -21t88 -53q10 4 19 4q100 -23 42 -211q-43 -140 -165 -236q-49 -39 -153 -106q29 -30 61 -60t59 -60t45 -56t32 -54t29 -60t27 -57t11 -41
t-5 -32t-12 -33q-6 -16 -10 -34t-30 -30q-81 -37 -125 -46t-90 8q-45 17 -64 23t-51 16q-32 11 -56 33q-26 23 -54 45t-44 43t-21 37t-9 33t-6 34t-6 35t2 40q8 20 20 40t26 40t31 48q16 29 116 102q-93 105 -123 206q-29 102 -24 136t7 63t12 54q22 55 66 101t86 51
q41 5 73 11z" />
    <glyph glyph-name="nine" unicode="9" horiz-adv-x="824" 
d="M644 809q-96 362 -376 237q-41 -16 -51 -24q-9 -8 -17.5 -24.5t-18 -38t-18 -45.5t-20.5 -57.5t-13 -58.5t18 -61t77.5 -93.5t219 -82t171 87.5t18.5 148q5 8 10 12zM342 3q-100 0 -197 75t-102 124q-6 49 29 57t47 -32q5 -38 35 -58.5t48 -32.5q44 -31 120 -49.5
t117 9.5t63 35t45.5 16t37.5 27t52 67.5t48.5 170t-3.5 219.5q-10 -30 -42 -60t-51 -48t-34 -23t-31.5 -7t-33 -3.5t-38.5 -5.5t-57.5 1t-95.5 26.5t-130.5 76t-85.5 104.5q-5 16 -26 70.5t2 111t39 88.5t26.5 61t32.5 51t88 50q155 65 289 1q101 -47 150.5 -183.5
t86 -400.5t-128.5 -424q-26 -24 -58 -36.5t-56 -24.5t-55 -32.5t-131 -20.5z" />
    <glyph glyph-name="colon" unicode=":" horiz-adv-x="320" 
d="M154 579q-21 0 -51 20q-100 68 -64 140q41 89 105 105q24 6 50 -6t34 -38q33 -24 31 -86q0 -125 -72 -134l-20 -1h-13zM175 53q-48 -27 -88 13q-49 33 -60 67t30 84q9 40 37 58q6 4 22 16t50 1q71 0 99 -35t18 -77q-28 -109 -108 -127z" />
    <glyph glyph-name="semicolon" unicode=";" horiz-adv-x="378" 
d="M208 130q-30 -4 -36 -10q-16 -26 -35 -22q-35 8 -39 41q8 41 65 68t101 -18q44 -44 44 -83q33 -97 -30 -239q-8 -17 -22 -29t-26 -26q-13 -14 -32 -16q-20 -3 -38 -8t-32 4q-14 8 -17 22q-13 43 49 55q35 7 54 49q18 42 23 82q12 96 -29 130zM334 602q-8 -45 -78 -65
q-33 -35 -105 -27q-133 15 -111 126q8 39 26 68q18 28 30 46t28 25q34 14 85 13t81 -45q56 -80 44 -141z" />
    <glyph glyph-name="less" unicode="&#x3c;" horiz-adv-x="721" 
d="M626 873q40 14 55 -18t-20 -54q-72 -40 -138 -90t-174 -130t-193 -147q26 -14 48 -34t93 -72t150 -139q80 -87 131 -101q40 -12 32 -47q-7 -35 -49 -31q-71 20 -143 92q-32 31 -60 63q-30 33 -60 59t-60 48t-52 40t-36 32q-28 27 -82 42q-24 13 -27 34t18 39
q70 57 142 111q73 54 143 106t138 104t144 93z" />
    <glyph glyph-name="equal" unicode="=" horiz-adv-x="740" 
d="M81 509q-41 4 -40 29.5t12 37t32 12.5q290 4 574 6q35 -10 33.5 -41.5t-37.5 -37.5q-144 -1 -286.5 -3t-287.5 -3zM63 287q-41 4 -40 29.5t12 37t32 12.5q149 2 296 9t296 9q35 -10 33.5 -41.5t-37.5 -37.5q-149 -2 -296 -9t-296 -9z" />
    <glyph glyph-name="greater" unicode="&#x3e;" horiz-adv-x="673" 
d="M36 813q-16 32 7 52t54 -1q49 -61 163 -138q30 -20 101 -69t110 -74l63 -39q13 -8 28 -14t37 -20q22 -13 27 -39q6 -25 -8 -41t-27 -20t-17 -5t-9 -3q-125 -105 -193 -175q-226 -233 -272 -221q-34 8 -32 42q2 16 18 30q91 61 220 195t207 190q-66 32 -127 76
q-61 43 -105 75t-75 53q-117 79 -170 146z" />
    <glyph glyph-name="question" unicode="?" horiz-adv-x="799" 
d="M382 190q49 -18 57 -79q21 -16 16 -56q0 -79 -62 -91t-121 31q-60 43 -51 101t60 85q52 27 101 9zM164 1010q-16 -10 -20 -24t-20 -20q-14 -6 -28 -3t-22 17q-9 14 -3 38t25 40q18 17 42 28q24 12 50 20t48 19l46 23t58 18t81 -1t93 -27q95 -40 166 -117t81 -162
q13 -111 -135 -227q-28 -22 -56 -42t-57 -44q-65 -53 -89 -100t-36 -145q-12 -35 -44 -31t-35 40q15 115 46 177q38 77 182 175q235 158 81 312q-89 89 -207 109q-72 11 -122 -21q-15 -10 -41 -18t-46 -16q-22 -8 -38 -18z" />
    <glyph glyph-name="at" unicode="@" horiz-adv-x="994" 
d="M563 522q-92 0 -178.5 -36.5t-80.5 -135t25 -120.5q29 -32 58.5 -30t47.5 22q15 44 31.5 60t34.5 32.5t24 36.5t12.5 49t16.5 50t23.5 34.5t19.5 37.5h-34zM609 600h17q2 2 3 4t13 12t32.5 4t27.5 -32q37 -13 54 -45q10 -38 -19 -52t-51 14l-6 -31q-1 16 -2.5 20.5
t-1.5 -10.5l-1 -74q-3 -23 -7.5 -46.5t-12 -61.5t-3.5 -80q6 -17 15 -33v-1q11 -3 51 -17.5t65 45.5t27 66l18 74q85 339 -73.5 360.5t-198.5 19.5q-174 -7 -273 -76t-134 -143t-27 -135q16 -125 76 -229t152 -139q27 -9 55.5 -10.5t60.5 -6.5q135 -21 169 1.5t66.5 30.5
t37.5 10q26 64 89.5 94t85.5 36q37 2 45.5 -27.5t-23.5 -49.5q-34 -7 -70 -32.5t-45 -36.5q11 -33 -6.5 -42t-29.5 -7q-18 -11 -38 -15.5t-37 -10.5t-27 -12t-38 -21.5t-156.5 -2t-163.5 25.5q-60 21 -123 79.5t-84 120.5q-21 61 -37 100.5t-24.5 64.5t-11 42.5t0.5 40.5
t10.5 58.5t13.5 71.5t7 39.5t21 27.5t40.5 49t35.5 41t28 26t32 20t49 23.5t77 37.5q99 49 202 35q47 -6 87 -9.5t99 -19.5t105 -62q47 -47 59.5 -98t13.5 -174.5t-38.5 -200.5t-52.5 -90t-25 -27.5t-38 -23.5q-68 -23 -124.5 -2t-73.5 96q-7 31 -3 70q-12 -12 -25 -23
t-22 -23t-13 -23t-18 -40.5t-70 -41t-76 0t-33.5 18.5t-33.5 19q-42 25 -53 150t81 212t268 79q32 -2 33 -2z" />
    <glyph glyph-name="A" unicode="A" horiz-adv-x="886" 
d="M510 1035l-76 -270q-52 -204 -77 -281q67 13 131 28t130 26q-48 131 -57 197q-9 65 -20 152q-11 86 -31 148zM738 472h-8q65 -164 100 -348q18 -103 -4 -123q-12 -11 -25 -11q-37 -1 -41 39q-21 193 -114 433q-82 -12 -160 -32t-159 -33q-22 -56 -48 -131
q-26 -76 -52 -116q-27 -40 -49 -62t-43 -44q-33 -18 -54 3t-3 54q18 20 38 40t42 49t44 90t40 105q-15 -2 -55 -5q-35 4 -39 36q-4 31 30 43l48 4t47 6q27 79 46 161t41 168t50 178t49 188q14 22 36 24t38 -21q74 -134 90 -280q15 -146 32 -205q17 -60 45 -133q8 1 18 1
t26 2q16 1 27 -10t13 -25q4 -36 -37 -44q-5 -1 -9 -1z" />
    <glyph glyph-name="B" unicode="B" horiz-adv-x="885" 
d="M442 1115h-226q-1 -107 -7 -435q37 0 96 16q58 16 155 39.5t126 121.5q20 70 -23 132q-77 126 -121 126zM208 600l-9 -594q312 15 476 159q102 93 101 145q-1 53 -52.5 135t-106.5 113q-124 70 -260 62q-40 -2 -75 -11.5t-74 -8.5zM176 1227q30 0 40 -33h34
q104 0 155.5 -9t114.5 -46q120 -71 145 -197t-69 -215q-30 -28 -74 -48q122 -33 164 -71q82 -72 138.5 -185.5t19.5 -173.5q-148 -243 -352.5 -280.5t-304.5 -42.5l-5 1q-30 -22 -45.5 -2t-16.5 34l17 1156h-60q-41 4 -40 29.5t12 37t32 12.5h57q8 33 38 33z" />
    <glyph glyph-name="C" unicode="C" horiz-adv-x="894" 
d="M807 1108q35 -10 33.5 -41.5t-37.5 -37.5q-107 13 -161.5 31.5t-130.5 39.5t-159 -25t-178 -179.5t-71 -395.5q19 -185 164 -316q103 -90 262 -103t225 111q19 35 24 75.5t14 78.5q20 32 49.5 23.5t27.5 -45.5q-5 -22 -8.5 -44.5t-17.5 -102t-140.5 -139.5t-204.5 -38.5
t-111 27.5t-53 16.5t-39.5 24t-39 28t-39.5 26.5t-36.5 30t-31 38.5t-28.5 42t-39 53.5t-43 93t-14 121t9 122t9 104t9.5 60.5t17.5 58.5q32 106 120.5 204t210.5 131q56 16 156 -10.5t155 -42t96 -19.5z" />
    <glyph glyph-name="D" unicode="D" horiz-adv-x="919" 
d="M162 1110q2 -269 6 -534.5t6 -534.5q64 8 188.5 20t288.5 149.5t153.5 299t-132.5 315t-280 213t-230 72.5zM95 -5q-1 283 -6 562.5t-6 561.5q-39 6 -36 41.5t44 37.5q147 -11 325 -88.5t257 -171.5q45 -51 142 -173q50 -59 64.5 -192t-18.5 -193q-34 -61 -50.5 -90.5
t-28.5 -49t-23.5 -33t-29.5 -29t-45.5 -37t-71.5 -59.5t-99.5 -59t-114 -32.5t-118 -17.5t-113.5 -13q-8 2 -11 3q-29 -22 -44.5 -2t-16.5 34z" />
    <glyph glyph-name="E" unicode="E" horiz-adv-x="931" 
d="M827 1082q-57 0 -113 -1t-104 9t-84.5 18.5t-95.5 11.5t-268 -14q16 -95 39 -135.5t29 -105.5t6 -171q117 -6 232.5 -14.5t233.5 -11.5q35 -10 33.5 -41.5t-37.5 -37.5q-117 2 -231.5 10.5t-230.5 14.5l-4 -199q0 -26 0.5 -52t-0.5 -75.5t-19.5 -80t-32 -52t-17.5 -38.5
q144 -60 338.5 -60t254.5 31.5t63 42.5q20 32 49.5 23.5t27.5 -45.5q-17 -61 -71.5 -77t-92.5 -30q-127 -44 -370 -9q-86 13 -115 17t-82 17t-71 38q-18 24 -13 51t18 54.5t28.5 54.5t20.5 41t6.5 41t-0.5 62t2 249q-17 1 -34.5 0.5t-36.5 1.5t-28.5 14.5t-9 26.5t11.5 25.5
t30 11.5h25q25 0 42 -1q0 195 -28.5 244t-44.5 160h-20q-41 4 -40 29.5t12 37t32 12.5h14q20 37 41.5 25.5t27.5 -21.5q76 6 151.5 12.5t135.5 3.5t99 -13t87 -19t103.5 -8.5t83.5 0.5t33 -2q6 -2 22 -18l1 -3q3 -3 3 -6.5t1 -5.5v-8q-8 -31 -37 -35h-6z" />
    <glyph glyph-name="F" unicode="F" horiz-adv-x="666" 
d="M192 580q-56 2 -109 2q-41 4 -40 29.5t12 37t42 12.5t91 -2q-5 42 -11.5 83.5t-17.5 132.5t-26 139q-49 57 -56.5 96t61.5 51q88 15 302.5 13.5t356.5 -3.5q35 -10 33.5 -41.5t-37.5 -37.5q-118 1 -234 2.5t-194 -0.5t-114.5 -3t-73.5 -6q50 -56 58.5 -151.5t17.5 -156.5
t12 -120q77 -2 153 -4.5t153 -3.5q35 -10 33.5 -41.5t-37.5 -37.5l-300 8q0 -87 -17.5 -267t-20.5 -234q-2 -55 -13.5 -66t-37 -12t-29.5 40q4 83 23.5 260t19.5 281z" />
    <glyph glyph-name="G" unicode="G" horiz-adv-x="987" 
d="M445 503v1l-1 1q-32 16 -26 46t48 31q95 2 184 -7q71 -2 140.5 -3t140.5 -3q35 -10 33.5 -41.5t-37.5 -37.5l-96 3q-2 -23 -13 -54q-12 -31 -13 -35.5t-7 -20.5q-7 -17 -43.5 -151.5t-156.5 -191.5t-328.5 88t-193.5 551q2 56 -1 101.5t9 89.5q23 87 128.5 178.5
t286.5 91.5t251.5 -57.5t90.5 -90t42.5 -67t42.5 -48.5q38 -26 20 -57.5t-56 -13.5q-29 18 -73 82t-105.5 127t-247.5 47q-185 -16 -248.5 -114t-61 -157.5t-0.5 -154.5t14 -161q29 -114 93.5 -209.5t187.5 -160t176 47t74 180.5t28 88t11 30t4.5 16.5t2.5 11.5
q-60 12 -122 18l-72 -1q-72 0 -99 7h-7z" />
    <glyph glyph-name="H" unicode="H" horiz-adv-x="742" 
d="M673 458q0 -120 4 -242.5t-11 -217.5q-12 -34 -43.5 -30.5t-35.5 39.5v8q11 79 9 179t-2 204t-3 232q-100 2 -199.5 6.5t-199.5 6.5q-8 -367 -9 -580q-1 -21 -12.5 -32t-37 -12t-29.5 40q0 148 9 595q-15 11 -14.5 29.5t15.5 29.5q2 103 5 397q6 36 37.5 37.5t41.5 -33.5
q-3 -289 -5 -392l396 -13q-9 342 -9 452q6 36 37.5 37.5t41.5 -33.5q2 -198 8 -392.5t6 -314.5z" />
    <glyph glyph-name="I" unicode="I" horiz-adv-x="252" 
d="M77 9l23 1142q6 36 37.5 37.5t41.5 -33.5q-2 -286 -11.5 -571t-11.5 -571q-1 -21 -12.5 -32t-37 -12t-29.5 40z" />
    <glyph glyph-name="J" unicode="J" horiz-adv-x="643" 
d="M445 981q-27 154 -30 251q6 36 37.5 37.5t41.5 -33.5q3 -69 15.5 -135.5t16.5 -132.5t5.5 -128.5t2 -125.5t1.5 -126t5 -126t10.5 -127t18 -275t-97 -316t-174 -101.5t-117.5 43.5q-127 100 -193 209t-96 141q-16 32 7 51.5t54 -0.5q30 -31 97 -131.5t159.5 -203t174.5 9
t93 253.5q11 143 3 241t-13.5 158t-9.5 146t-2.5 197.5t-8.5 222.5v1z" />
    <glyph glyph-name="K" unicode="K" horiz-adv-x="977" 
d="M888 1119q14 12 8 4.5t-12.5 -12.5t-16.5 -15q-94 -131 -236.5 -251t-208.5 -177q12 -9 24.5 -18.5t27.5 -23.5t31.5 -33t56.5 -67t95.5 -126.5t99.5 -140.5t76 -108.5t71 -85.5q20 -31 0.5 -54t-51.5 -7q-43 42 -76.5 90t-70.5 100t-75.5 108.5t-105.5 146t-160 162.5
q-3 1 -7 3q-10 -8 -19 -16.5t-26 -22.5t-42 -34.5t-49 -41.5q-6 -241 -8 -476q-1 -21 -12.5 -32t-37 -12t-29.5 40q1 201 6 402l-15 -18q-28 -32 -57.5 -10t-7.5 57q38 46 82 86q6 230 11 608q6 36 37.5 37.5t41.5 -33.5q-1 -200 -9 -544q11 8 20.5 17t60.5 52
q392 330 449.5 413t91.5 99t51.5 -12t-9.5 -54z" />
    <glyph glyph-name="L" unicode="L" horiz-adv-x="684" 
d="M89 1148q6 36 37.5 37.5t41.5 -33.5q4 -88 7 -120l28 -294q25 -263 10 -368q-14 -105 -41 -157.5t-37 -90.5q144 -10 286.5 -7.5t286.5 4.5q35 -10 33.5 -41.5t-37.5 -37.5q-296 -6 -436 -3t-189 17q-17 10 -27 27q-7 45 11.5 88.5t31 68t20.5 48.5q45 131 21.5 354
t-34 318t-13.5 190z" />
    <glyph glyph-name="M" unicode="M" horiz-adv-x="919" 
d="M199 1046q0 -8 1 -40q14 -20 27 -38t25 -38t21 -36t17 -30.5t17.5 -30t18.5 -30.5q71 -118 108 -105q43 15 76.5 64.5t87.5 101.5t74 82t35 72.5t41 61.5q14 18 26 38t30 36t39 10.5t28 -31.5q5 -46 -3 -91.5t-19 -119.5t-3.5 -197.5t7.5 -220.5t-2 -212.5t-4 -231.5
q-1 -21 -12.5 -32t-37 -12t-29.5 40l6 463q0 80 -5 158.5t-3 161.5t6 105q4 21 4.5 26t1.5 10q-7 -15 -13 -30t-24 -44t-54.5 -66.5t-66.5 -69.5t-52.5 -60.5t-49.5 -56.5q-50 -52 -113 -31t-99 69q-37 48 -59.5 87.5t-45.5 79.5q11 -717 11 -810q-1 -21 -12.5 -32t-37 -12
t-29.5 40q-1 236 -5.5 469.5t-6.5 469.5q-52 77 -58 114q-8 53 19.5 65t46.5 -11q25 32 45.5 14t24.5 -32v-87z" />
    <glyph glyph-name="N" unicode="N" horiz-adv-x="874" 
d="M693 329.5q0 30.5 -7 166.5t-1 208q7 83 39 202t35 183q8 41 44.5 37.5t34.5 -48.5q-3 -63 -35 -180.5t-38 -192.5q-6 -74 1 -216t7 -189t3 -82t10.5 -76t-13.5 -62q-32 -19 -59 8q-42 52 -107 173.5t-110 187t-83 125.5t-80 133t-70 113t-39 57t-25.5 38t-31.5 44
l-34 46l18 -956q-1 -21 -12.5 -32t-37 -12t-29.5 40q-2 266 -9.5 528t-9.5 527q-43 34 -25.5 62t51.5 18q15 6 31 -1.5t22 -29.5v-16q65 -71 116 -146t81 -121t72 -119t80 -133t70.5 -107t57.5 -89t44.5 -78t39.5 -72q-1 31 -1 61.5z" />
    <glyph glyph-name="O" unicode="O" horiz-adv-x="978" 
d="M646.5 1026.5q-24.5 20.5 -42.5 26.5t-22 9q-161 4 -259 -38.5t-161.5 -211t-49 -297t89 -262.5t152 -147t91 -21.5t22.5 -10.5q32 3 60 10q29 15 48 24.5t39.5 23t67.5 66.5q106 123 155.5 321.5t-17.5 336.5q-21 43 -55 72.5t-64 53.5t-54.5 44.5zM650 1140
q38 -11 33 -42q17 -12 32.5 -25t40.5 -33t59.5 -49.5t68.5 -86.5t46 -146t-11.5 -253.5t-161.5 -339.5t-294 -170q-18 1 -31.5 8t-29.5 11t-80 10.5t-187.5 194.5t-95 412.5t106.5 326.5q17 21 33.5 42t36.5 45t52.5 42.5t70 29.5t79 16t82 6.5t79 1t71.5 -0.5z" />
    <glyph glyph-name="P" unicode="P" horiz-adv-x="857" 
d="M185 1050q8 -244 27 -607q367 13 484 144.5t133 263t-91 181.5q-140 65 -314.5 44.5t-238.5 -26.5zM-20 1108q11 12 34 12t49 2h2l39 3v29q6 36 37.5 37.5t41.5 -33.5v-25q399 41 480 12t109 -39q63 -21 90 -73q25 -43 41 -75q31 -64 -21 -223t-185.5 -247.5t-265.5 -104
t-216 -18.5q6 -133 11 -346q-1 -21 -12.5 -32t-37 -12t-29.5 40q-5 212 -11 348h-6q-41 4 -40 29.5t11.5 37t30.5 12.5q-24 515 -26 602q-8 0 -98 -3q-41 4 -40 29.5t12 37.5z" />
    <glyph glyph-name="Q" unicode="Q" horiz-adv-x="1065" 
d="M710 109q-59 112 -73 166q-4 42 31 49.5t44 -24.5q16 -55 59 -138q67 67 100 132q34 66 50.5 106.5t16.5 78.5t-5 68t-10 59t-5.5 56.5t-6.5 79.5t-29.5 130t-54.5 123q-90 131 -134 133t-76 5q-87 8 -141.5 -10.5t-133.5 -88.5t-102.5 -145t-34.5 -112t-25 -77.5
t-32.5 -107.5t-8.5 -118q9 -51 17 -78t14 -51t8 -48t8.5 -64.5t35.5 -65.5q29 -24 53 -44t133.5 -88t301.5 74zM854 1164.5q0 -36.5 -29 -44.5q5 -5 8 -9t23 -24q48 -49 93 -166.5t46.5 -199t13.5 -155.5t7 -116q-9 -79 -66 -180t-137 -181q55 -90 93 -132q24 -34 5 -50
t-35 -16t-41 26t-83 120q-50 -35 -105 -51t-85 -25t-69 -9t-75 12q-89 30 -158.5 70t-107.5 93t-45.5 113.5t-13.5 86.5t-14.5 53.5t-15.5 65.5t-3 84.5t15 91.5t25.5 89.5t27.5 89.5q65 225 194 320t194 95t100 -3q11 12 27.5 13t30.5 -13q4 0 23 -7q50 -3 103.5 -4
t53.5 -37.5z" />
    <glyph glyph-name="R" unicode="R" horiz-adv-x="944" 
d="M200 1098l4 -585q24 0 122.5 34t170 44t141 25.5t120.5 57.5q105 86 120.5 205t-99.5 181q-138 73 -320 59.5t-259 -21.5zM206 210.5q0 -110.5 1 -222.5q-1 -21 -12.5 -32t-37 -12t-29.5 40q-1 112 -1.5 224t-1.5 224h-7q-30 4 -38 27q-2 4 -2 5v12q3 20 25 31q2 2 3 2
l16 2h3q-2 152 -5 578l-63 -7q-63 -7 -98 -9q-36 4 -39.5 35.5t30.5 43.5q86 6 170 15v90q6 36 37.5 37.5t41.5 -33.5v-86q202 20 342 16q139 -4 189 -25.5t85 -33.5t67 -42.5t42 -64.5q26 -94 34 -125q13 -55 -44.5 -169.5t-152 -152t-180.5 -53.5q8 -82 50 -150t64 -101.5
t39 -63.5t25.5 -44.5t14.5 -27.5t12 -29.5l14 -38.5t10.5 -42t3.5 -39q2 -37 -28.5 -43t-48.5 25q-2 17 -3.5 34t-11.5 54t-40.5 89t-91 145t-72.5 140q-12 48 -15 78q-11 -2 -23 -4t-32 -6t-48.5 -13.5t-82 -27.5t-91.5 -24l-21 -3q1 -112 1 -222.5z" />
    <glyph glyph-name="S" unicode="S" horiz-adv-x="885" 
d="M731 1122q66 -39 101 -76q30 -24 11 -53t-55 -12q-37 25 -67 48q-102 78 -205 58q-104 -20 -200 -80q-174 -111 98 -239q26 -12 48 -22t57 -28t91 -56t102 -82q222 -217 33 -446q-91 -112 -351 -91q-105 9 -145 25q-111 45 -142 84q-57 72 -79 162q-29 115 65 131
q21 1 33 -10t14 -25q4 -36 -38 -44q-1 -3 0 -13q2 -9 3 -16q18 -125 130 -174q95 -41 188 -44q253 -6 295 116q9 25 18 49q8 24 12 62t-16 84q-20 44 -58 82t-86 72t-98 62t-98 50t-72 34q-59 30 -110 78t-46 92q3 20 5 38q1 18 11 42t40 54q30 28 68 52t84 41q46 18 90 29
q94 23 149 14q54 -9 120 -48z" />
    <glyph glyph-name="T" unicode="T" horiz-adv-x="691" 
d="M735 1076q-136 0 -363 5v-1014q-1 -21 -12.5 -32t-37 -12t-29.5 40v1020q-82 2 -323 5q-41 4 -40 29.5t12 37t32 12.5q192 -1 382.5 -5.5t382.5 -6.5q35 -10 33.5 -41.5t-37.5 -37.5z" />
    <glyph glyph-name="U" unicode="U" horiz-adv-x="820" 
d="M435 114q27 0 46.5 -4t38.5 -2q48 48 89 110t51 88q45 115 25.5 429.5t-22.5 393.5q6 36 37.5 37.5t41.5 -33.5q5 -159 14.5 -316t8.5 -249q-3 -256 -34 -307q-32 -53 -91.5 -133t-78.5 -90q-18 -10 -32.5 -10.5t-29.5 1t-30.5 4t-32.5 2.5t-35.5 -3.5t-92 -13.5
t-172.5 102.5t-101.5 246.5t28 376.5t39.5 391.5q8 41 33 38.5t36 -14.5t10 -33q-7 -111 -34 -349t-29 -306q-1 -68 -1.5 -86t1.5 -86.5t88 -139t144 -58t85 12.5z" />
    <glyph glyph-name="V" unicode="V" horiz-adv-x="893" 
d="M61 1096q-16 32 7 52t54 -1q57 -66 116 -262t266 -708q48 173 84 347t60 264q22 90 28 114q6 22 14 52q53 187 93 218q31 12 50 -8t3 -48q3 2 -2 -5q-4 -7 -8 -16t-9 -21q-7 -17 -25 -66l-10 -28q-9 -24 -17 -55t-21 -81q-16 -61 -67 -289q-51 -229 -76 -327t-58 -174
q-31 -37 -67 -2q-34 44 -64 128t-70 186t-108 293t-80 229q-48 154 -93 208z" />
    <glyph glyph-name="W" unicode="W" horiz-adv-x="1034" 
d="M385 286q-1 -6 -1 -11q0 6 1 11zM384 130q0 -63 -9 -125q-12 -34 -43.5 -30.5t-35.5 39.5q0 105 -48 238t-96 293t-85 245t-52 116q-16 31 -30.5 56t-35 66.5t-22.5 93.5q6 36 37.5 37.5t41.5 -33.5q2 -55 67 -159t138 -342t97 -304q14 279 46 381t48 218.5t31 133.5
t36 32q36 14 54 -14t28.5 -55.5t17.5 -56.5t12 -59t29 -126t30 -112q5 -17 7 -23q1 -6 3 -12v5l50 -178t51 -180q1 15 5.5 42.5t5.5 32.5l9 60q12 85 44.5 219.5t57.5 243.5t34 283q8 41 44.5 37.5t34.5 -47.5q-3 -43 -4 -68.5t-7 -89t-36 -188.5t-68 -288t-41 -240.5
t-4 -97.5t4.5 -79.5t-24.5 -78.5q-57 -35 -73 25.5t-27 102t-14 53t-5 19.5t-9.5 32.5t-27.5 97.5q-21 73 -51 174.5t-51 179.5t-33 132.5t-26 108.5q-8 -38 -14 -77t-15 -82t-22.5 -88t-24.5 -112t-16.5 -152.5t-12.5 -173.5v-126zM650 633l-2 6zM644 652v-1v1z" />
    <glyph glyph-name="X" unicode="X" horiz-adv-x="850" 
d="M92 1062q-10 0 -23 -8q-25 -15 -47 7q-21 21 -3 53q19 24 71 27q96 4 128 -19q31 -23 111 -159t144 -259q19 45 39 89t66 139t162 247q28 24 53 6q24 -18 12 -53q-72 -91 -89 -120q-18 -28 -52 -87t-70 -143t-74 -170q104 -204 134 -278q28 -74 46 -115t35 -67t27 -46
q10 -21 15 -36q6 -16 15 -28q24 -33 -3 -60q-32 -19 -54 3q-21 23 -29 47t-20 47t-28 47t-26 50q-10 24 -18 48q-24 72 -136 298q-61 -123 -118 -201q-57 -77 -96 -131q-40 -54 -68 -92t-47 -83q-24 -28 -51 -14q-27 15 -21 49q30 68 134 205q105 137 137 195t50 93l34 70
q-84 156 -107 199q-24 44 -41 76q-66 126 -126 174q-26 2 -41 1t-25 -1z" />
    <glyph glyph-name="Y" unicode="Y" horiz-adv-x="660" 
d="M330 477.5q0 0.5 5 12.5t18 31t34 62t67 176.5t79.5 211.5t103.5 158q33 26 58 1t-1 -58q-78 -89 -122 -211.5t-67 -194.5t-45 -116t-33 -63t-21 -37t-15.5 -41t-17.5 -39l8 -381q-1 -21 -12.5 -32t-37 -12t-29.5 40q-1 100 -4 199t-4 199q-31 38 -67.5 114.5
t-53.5 105.5t-44 72t-53 85t-54.5 79.5t-74 104.5t-56.5 140q-4 42 31 49.5t47 -32.5q9 -55 38.5 -99.5t112 -151.5t200.5 -355q2 -5 4.5 -9.5t4.5 -9.5q1 1 1 1.5z" />
    <glyph glyph-name="Z" unicode="Z" horiz-adv-x="776" 
d="M280 1103.5q140 0.5 226 4.5t119.5 7t66.5 3q35 -10 34 -47q-12 -45 -57 -100.5t-99.5 -119.5t-158.5 -279q-105 -215 -130 -249.5t-35 -62.5t-9.5 -63.5t-2.5 -59.5t-8 -38.5t-7 -28.5q24 -22 67 -18t69 5q41 2 155.5 20.5t172 21.5t77.5 -11q36 -25 18.5 -56.5
t-55.5 -13.5q-9 4 -29.5 4t-43.5 -2.5t-44.5 -6t-50.5 -7.5t-176 -31t-196 17.5t-46.5 65t5.5 32.5t6.5 23t7.5 37t4 67t11 71q16 42 53 99.5t78.5 144t97.5 196t121.5 188.5t93.5 118q-42 -3 -54 -3l-565 -9q-41 4 -40 29.5t12 37t32 12.5q140 2 280 2.5z" />
    <glyph glyph-name="bracketleft" unicode="[" horiz-adv-x="452" 
d="M144 -190l-1 -58q-1 -58 1 -63q57 -6 113 0.5t95 8.5q61 2 64.5 -34.5t-37.5 -44.5q-11 -1 -37 -4t-86.5 -7.5t-117 2t-67.5 41.5q-12 36 -9.5 80.5t4.5 75.5t2.5 52.5t4.5 78.5t10.5 141t-3.5 430t-13.5 531.5t1.5 233.5t9 54.5t13 14.5q49 23 107 19.5t92.5 -8
t65.5 -6.5q35 -10 33.5 -41.5t-37.5 -37.5q-21 1 -92.5 9.5t-111.5 -0.5q-8 -129 5.5 -514t15.5 -532t-6.5 -241t-16.5 -188z" />
    <glyph glyph-name="backslash" unicode="\" horiz-adv-x="799" 
d="M-2 1240q-4 36 24 48t51 -19q102 -230 527 -967q12 -20 27 -46t54 -94t66 -96q26 -28 55 -63t39 -78q0 -36 -30 -42t-48 25q-8 35 -34 64q-27 29 -43 45q-16 15 -38 49t-154 260t-292 521t-204 393z" />
    <glyph glyph-name="bracketright" unicode="]" horiz-adv-x="481" 
d="M110 -312q8 0 26 -0.5t100.5 -2.5t96.5 23q18 30 14 169t1 495q8 651 -28 814q-14 -2 -29 -0.5t-37 2.5t-52 2.5t-51 1.5t-71 -2.5t-57 37.5q-4 28 17.5 42.5t40.5 2.5l231 -5q69 23 91 -61.5t24 -229t1.5 -213t-0.5 -148.5t-6 -562l-1 -91q0 -17 2.5 -46.5t6 -146.5
t-68.5 -140q-46 -15 -137 -20h-117q-36 7 -39 34q-3 28 15 37q19 8 27 8z" />
    <glyph glyph-name="asciicircum" unicode="^" horiz-adv-x="704" 
d="M114 585q-33 -18 -54 3t-3 54q38 44 67 94t86 145t148 271q17 28 43 24q26 -3 34 -36q8 -32 10 -52t8 -34t14 -28q7 -15 15 -28t41 -84t66 -141q34 -70 48 -112q15 -41 20 -51q27 -24 9 -54q-19 -29 -50 -13q-31 17 -75 139q-9 28 -29 66q-20 39 -52 111t-50 103
q-17 31 -30 60q-30 -57 -62 -112l-64 -110t-65 -111t-75 -104z" />
    <glyph glyph-name="underscore" unicode="_" horiz-adv-x="759" 
d="M699 -127l-631 20q-41 4 -40 29.5t12 37t32 12.5q158 -2 315.5 -10t315.5 -10q35 -10 33.5 -41.5t-37.5 -37.5z" />
    <glyph glyph-name="grave" unicode="`" horiz-adv-x="454" 
d="M380 898q-16 0 -31 15q-24 34 -108 98q-85 64 -131 81q-37 20 -24 54q13 33 53 21q116 -49 242 -171q61 -59 25 -89q-10 -9 -26 -9z" />
    <glyph glyph-name="a" unicode="a" horiz-adv-x="777" 
d="M406 88q114 62 172 390q10 60 22 117q-35 15 -75 19t-68 8t-43 6q-169 28 -240 -108q-71 -137 -25 -286q30 -97 109 -141q79 -43 148 -5zM706 163q14 -84 17 -135q-1 -21 -13 -32q-12 -12 -25 -12q-37 -1 -41 40q-2 24 -2 28t-12 67t-15 177q-43 -153 -88 -201
q-15 -17 -31 -35t-34 -36q-36 -36 -116 -36q-80 1 -112 27q-32 25 -59 41t-43 43q-16 25 -34 51t-25 61q-55 243 36 356q9 13 17 25q35 51 69 69t69 34q52 24 167 13t185 -34v1l1 1v1l4 52v11l3 -1q13 29 39 27q27 -2 37 -34l-1 -105q3 -5 7 -9t11 -15t12 -17t8 -19
q14 -16 6 -36q-8 -21 -26 -24t-22 -2q-3 -105 -3 -181t14 -161z" />
    <glyph glyph-name="b" unicode="b" horiz-adv-x="810" 
d="M84 1110q0 2 -1 3q1 -2 1 -3zM82 1120q0 -2 1 -4q-1 2 -1 4zM368.5 652q-92.5 -75 -133.5 -208.5t-45 -329.5q34 -2 142.5 -11t178.5 17q28 9 95 77.5t76 77.5q22 122 -2.5 166.5t-46.5 81.5t-29 58q-143 146 -235.5 71zM78 1139v6q8 36 39 37.5t41 -33.5
q20 -89 14 -201.5t-4 -169.5t3 -126.5t3 -139.5q17 45 35 74q19 28 30.5 46.5t25 34t60.5 51.5q77 59 196 13.5t162.5 -125.5t54.5 -118q27 -97 33.5 -156.5t-17.5 -94.5q-23 -35 -54 -60t-56 -48t-48 -47t-58 -38t-83 -17.5t-97.5 -2t-98 5.5t-85.5 7t-43 31q-14 9 -18 25
h-2v10q-7 63 -8.5 125.5t-7.5 266.5t-8 375l1 116q0 117 -7 138h1l-1 2v-2q-3 7 -3 15z" />
    <glyph glyph-name="c" unicode="c" horiz-adv-x="738" 
d="M636 612q4 -18 10 -35q6 -18 -2 -32t-21 -19q-33 -13 -53 24l-30 93q-16 4 -31 11t-45 2t-80 -33t-96 -70q-103 -93 -145 -201q-65 -170 81 -267q38 -25 72 -49q35 -24 79 -17q45 7 91 26t90 41t74 24q50 6 53 -31q4 -37 -33 -44q-38 -7 -99 -37q-119 -59 -217 -56
q-52 5 -80 25q-44 35 -83 63t-68 58q-61 67 -58 179q9 185 183 342q85 76 155 106t110 21q41 -10 71 -17t38 -17q10 -9 16 -24q6 -16 10 -32t8 -34z" />
    <glyph glyph-name="d" unicode="d" horiz-adv-x="721" 
d="M571 504q1 29 1.5 57t2.5 57q-20 37 -68 46q-115 20 -195.5 8.5t-169 -178.5t-24.5 -258t70 -101q14 -14 34 -18.5t32 -10.5t18.5 -12t13.5 -8t15 -1t16.5 4t16 6t16.5 7t30.5 9.5t35.5 17.5q28 23 61 88.5t35 100t10 60.5t23.5 58.5t25.5 67.5zM583 1018q0 105 8 113
q5 26 25.5 33.5t42.5 -7.5q30 -37 19 -169t-12 -155t-4 -61q8 -193 -12 -289v-22l-2 -183q-2 -184 30 -243q10 -34 -16 -50.5t-53 10.5q-37 67 -42 233q-18 -48 -50 -96t-49 -63q-31 -26 -106.5 -47.5t-92.5 -16.5q-18 6 -26 13.5t-22 13.5t-33.5 11.5t-33.5 14.5
t-21.5 19.5t-14 21.5t-12.5 22.5t-26 35.5t-37 68.5t-13 96.5q9 107 32.5 172.5t84.5 154.5q18 26 45 43.5t52 35.5q52 39 156 36.5t180 -46.5l3 52v248z" />
    <glyph glyph-name="e" unicode="e" horiz-adv-x="573" 
d="M196 427q30 0 65.5 -1t94.5 5t93 41q58 62 22 130.5t-100 84.5q-65 16 -138 -24.5t-77 -235.5h40zM80 437q-12 130 48.5 223t153.5 110q24 5 48 2.5t48 -4.5t45 -14t45 -24q67 -33 91 -143q9 -40 3 -59.5t-8 -33.5t-7.5 -23t-11.5 -18t-36.5 -56t-151.5 -48.5t-154 -1.5
l-35 -1q19 -197 91 -249t112 -17t41.5 112t14 88t34.5 12t32 -34q-13 -258 -129 -270q-112 -7 -183 74q-79 100 -81.5 186t-4.5 103q-36 10 -50 27q-14 28 2.5 46.5t42.5 12.5z" />
    <glyph glyph-name="f" unicode="f" horiz-adv-x="365" 
d="M98 5q0 206 23 741q-60 4 -97 6q-38 2 -47.5 14.5t-9 26.5t11.5 25.5t32 12.5q56 -2 113 -6q1 30 2 72.5t4.5 113.5t9.5 87q6 15 11 22t11 13.5t23 24.5q39 40 112.5 29t108.5 -44q35 -32 42 -56.5t12 -50.5q0 -36 -30 -42t-48 25q-2 10 -6.5 44t-73.5 42t-81 -25
t-14.5 -132.5t-3.5 -128.5q95 -6 129 -7q35 -10 33.5 -41.5t-37.5 -37.5q-32 1 -64 3l-64 4q-23 -483 -23 -722v-9l-1 -5q0 -5 -1 -6q-6 -23 -26 -30t-29 2q-18 9 -22 31v4z" />
    <glyph glyph-name="g" unicode="g" horiz-adv-x="752" 
d="M576 361q16 90 16 231q-11 51 -113 105.5t-192.5 24.5t-139 -165t-27 -279t91 -159t100.5 -21t58.5 -1.5t59 23t80.5 84.5q50 67 66 157zM671 727v-4q9 -117 3.5 -375t6.5 -371.5t12 -184.5t-36 -98q-61 -47 -101.5 -79t-96 -54t-191.5 12q-55 14 -117 100.5t-56 145.5
q2 15 5 29.5t6 33.5t16 27t21.5 12.5t15 7.5t17.5 7t25.5 -2t25.5 -28.5t-25 -44.5q-8 -3 -21 -11q-12 -79 62 -165.5t163 -54t127 65t58 48.5q36 30 9 241q-13 102 -8 201q-97 -170 -180.5 -168t-127.5 2t-96 29t-109 101t-45 211t49.5 249t128.5 163q92 53 157 45
q124 -15 223 -95q8 32 37 34t41 -30h1z" />
    <glyph glyph-name="h" unicode="h" horiz-adv-x="720" 
d="M558 92v43q1 25 0 49t0 56t10 164t-21 172t-54.5 102.5t-55.5 82.5q-6 3 -20 -8t-27 -17t-28 -13t-29 -14.5t-20.5 -20t-28.5 -68.5t-66.5 -154t-60.5 -209q-3 -104 -10 -160q-11 -32 -42 -30t-37 37v3q-2 75 9 147q0 17 0.5 34t2.5 79t1 168.5t-3.5 213t-5.5 213
t-4 213.5q6 36 37.5 37.5t41.5 -33.5q1 -163 6.5 -323t6.5 -321q13 29 25.5 57.5t20.5 47.5t24 69t55 67.5t61 27.5t38 22.5t38 16.5q43 8 76.5 -28t53.5 -80q20 -43 35 -71.5t36 -71.5t21 -74l-7 -282l2 -83q2 -83 -14 -109q-25 -29 -53.5 -13t-16.5 51q3 6 3 10z" />
    <glyph glyph-name="i" unicode="i" horiz-adv-x="289" 
d="M136 860q-6 0 -11 2h-6q-52 4 -79 25t-4 59q25 26 55 40q8 15 24 20t31 -5q33 2 44 -3t21 -26q11 -21 3 -42q-14 -21 -27 -39.5t-29 -24.5t-22 -6zM178 74q0 -12 -7 -20t-10 -10t-15 -5t-19 1t-15.5 6t-11.5 32v677q6 36 37.5 37.5t41.5 -33.5v-677z" />
    <glyph glyph-name="j" unicode="j" horiz-adv-x="289" 
d="M131 995q1 0 15 3t33 -5.5t36 -35t4.5 -78t-60.5 -76.5t-69.5 11.5t-25.5 55.5q-12 23 -2 54q5 34 28 57q17 14 27 14h14zM126 738q6 36 37.5 37.5t41.5 -33.5q8 -683 -47 -921q-22 -106 -38 -131t-57 -50q-42 -25 -53 -26t-25 7q-91 88 -121.5 134t-32.5 135
q6 36 37.5 37.5t41.5 -33.5q2 -66 22.5 -98.5t81.5 -91.5q7 4 15.5 7t18.5 23q24 51 54.5 215.5t23.5 788.5z" />
    <glyph glyph-name="k" unicode="k" horiz-adv-x="604" 
d="M537.5 24.5q-0.5 -0.5 -10.5 -6.5t-28 0t-24 22q-11 14 -24 26t-50 77t-96 149q-58 85 -70 104t-25 36q-21 -17 -48 -31q-4 -180 -6 -359q-1 -21 -12.5 -32t-37 -12t-29.5 40q2 175 6 349q-17 11 -17.5 31.5t19.5 33.5q13 476 16 702q6 36 37.5 37.5t41.5 -33.5
q-1 -203 -15 -660q4 4 7 6q5 20 27 25l95 95q94 95 138 120t61.5 27.5t34.5 7.5q37 2 45.5 -27.5t-23.5 -49.5q-14 -3 -27 -5.5t-27 -8.5q-21 -9 -67 -45t-87.5 -82t-72.5 -77q15 -20 29 -41t75 -111t98 -152q37 -63 68.5 -90.5t-1.5 -63.5q0 -1 -0.5 -1.5z" />
    <glyph glyph-name="l" unicode="l" horiz-adv-x="252" 
d="M108 1240q6 36 37.5 37.5t41.5 -33.5q4 -650 6 -1282q-1 -21 -12.5 -32t-37 -12t-29.5 40q-1 323 -3 641.5t-3 640.5z" />
    <glyph glyph-name="m" unicode="m" horiz-adv-x="1076" 
d="M1030 355q0 -65 0.5 -122t-2.5 -92t-4 -47.5t-3 -23.5t-2 -28v-4l-1 1q4 -36 -27 -44.5t-49 24.5q-5 12 -5 26t2 29t4.5 29.5t4.5 34.5t2 50v86q2 188 -14.5 278.5t-110.5 217.5q-8 -2 -18 -3.5t-28 -6.5t-33 -23t-33.5 -53t-42.5 -93t-62.5 -194.5t-38.5 -157.5v-99
q0 -32 1 -70t-4 -72q-12 -29 -38 -30.5t-36 20.5q-23 49 -6 178q3 19 3 24.5t2 93.5t-4 162q-7 73 -13 142t-49 127q-49 1 -116 -79q-132 -157 -151 -420q1 -45 1 -56v-125q-2 -34 -28.5 -41t-45.5 18l-5 -1v13q-6 36 -6 66v35l5 60v8l-5 588q6 36 37.5 37.5t41.5 -33.5
q0 -120 2 -240q17 37 35 63t29 42.5t29 38.5q47 56 88.5 82t112.5 24q16 0 23 -11q13 -14 26.5 -29t20.5 -37t19 -57.5t22 -148.5q65 191 92.5 229.5l37.5 52.5q21 30 92.5 48.5t94.5 -9.5q129 -156 141 -284.5t12 -193.5z" />
    <glyph glyph-name="n" unicode="n" horiz-adv-x="792" 
d="M740.5 355q0.5 -53 -3 -106t-8 -106t-5.5 -89q-2 -58 -38.5 -59.5t-40.5 39.5q13 286 13 339t-12 110t-13.5 81t-8.5 55t-44 70q-36 37 -68 49q-58 21 -117 -18.5t-92 -77.5q-61 -72 -93 -119.5t-36 -104.5v-2l11 -237v-1l2 -126q-4 -29 -10 -32t-11 -6t-14 -6
q-41 0 -44 40q0 56 -2 110v4q-2 30 -12.5 123t1.5 160q0 92 -20 194t-21 147q6 36 37.5 37.5t41.5 -33.5q2 -51 12 -100t18 -99q89 130 202 203q19 12 41 17t42 11t41 1.5t44 -7.5q53 -7 89 -55q76 -91 82.5 -124.5t8.5 -66t6 -48.5t8.5 -31t8.5 -49t4.5 -87z" />
    <glyph glyph-name="o" unicode="o" horiz-adv-x="842" 
d="M450 677q-33 0 -84 -9t-88 -43q-204 -190 -122 -364q14 -31 25 -57q23 -60 43 -86q53 -69 161 -67t199 56t126 142t-5 185q-39 98 -115 170q-35 34 -74 70q-33 3 -66 3zM533 751l3 -1q23 -2 88 -5q30 -9 34 -35q3 -26 -23 -39q73 -71 104 -126q31 -56 49 -132
q20 -77 18 -93t-6 -32l-8 -32l-8 -32q-3 -16 -10 -30t-16 -26q-9 -13 -19 -25q-11 -11 -27 -37q-36 -56 -130 -90t-159 -41q-65 -5 -93 1t-60 12q-97 17 -160 177q-22 53 -30 75q-49 123 -14 210q34 88 64 127q30 38 61 73q66 74 140 91q74 18 202 10z" />
    <glyph glyph-name="p" unicode="p" horiz-adv-x="824" 
d="M685 372.5q0 77.5 -58 177t-127 121t-141.5 11t-98.5 -12.5t-41.5 -2.5t-32.5 -3.5v-579q198 -7 330.5 46t150.5 109t18 133.5zM153 -360q-29 0 -38 36v6l-8 330q-41 8 -41 39t31 41q1 1 3 1h7v524q-22 -8 -39.5 6.5t-12.5 43.5q15 36 52 53v11q6 33 35 36.5t41 -25.5
q14 2 27 3t45 3t156.5 16.5t210.5 -75.5q85 -90 111 -189q26 -100 32.5 -167.5t-26.5 -120.5q-13 -20 -24 -41t-41 -47q-64 -56 -209 -90t-279 -30l8 -321l-1 -8q-1 -8 -3 -10q-12 -23 -26 -23q-2 -1 -5 -1z" />
    <glyph glyph-name="q" unicode="q" horiz-adv-x="801" 
d="M714 -373q76 35 29.5 95.5t-65.5 86.5q5 -148 36 -182zM610 642q0 2 1 11q-29 7 -61 9t-61 4.5t-69 1t-102 -30.5q-123 -58 -162.5 -196t25.5 -260q8 -15 16 -30.5t29 -49.5t61 -32.5t74 5.5t103 61t146 337v170zM786 -166q-9 0 -24 1q3 -4 5 -7t29 -39t34 -84
q10 -74 -20.5 -104.5t-90.5 -60.5q-25 -5 -40 10l-24 24t-17 18t-13.5 27t-21 107.5t-5.5 244.5t12 258q-74 -168 -174 -216q-36 -17 -112 -22t-114 24t-65 67.5t-56.5 110.5t-28.5 174t49 172q2 3 10 16.5t26.5 41.5t33.5 40q15 11 27.5 21.5t39 29.5t54.5 27
q27 8 51.5 15.5t66.5 17t110 -1.5q67 -11 78.5 -12.5t22.5 -3.5q27 42 66 14q44 -44 21 -157.5t-27 -127.5v-201q0 -44 -6 -167v14q-1 -8 -1 -13v-7q0 3 1 6l-5 -134l-1 -31q22 1 42.5 -4.5t48.5 -7.5t62 -1.5t69 0.5q35 -10 33.5 -41.5t-37.5 -37.5h-109z" />
    <glyph glyph-name="r" unicode="r" horiz-adv-x="548" 
d="M143 728q0 -6 5 -20t13 -30t14 -38t11 -38.5t8 -30.5q4 20 8 39.5t16 47.5t44.5 55.5t96.5 49t117 -29.5q53 -52 72 -104t24 -113q-1 -21 -12.5 -32t-25.5 -11.5t-26.5 9t-19 76.5t-51.5 102q-46 36 -93.5 13t-58.5 -59t-13.5 -61t-7.5 -45t-10 -35t-8 -38t0 -53t2 -144
t-13 -209q-12 -29 -38 -30.5t-40 27.5q-8 46 -5.5 94t0.5 104q-12 332 -49 397.5t-37 77.5t-2 18q-24 19 -14 45t42 26q40 -7 49 -47q2 -7 2 -13z" />
    <glyph glyph-name="s" unicode="s" horiz-adv-x="586" 
d="M523 659q31 -22 22 -42q-15 -37 -51 -33q-27 9 -63 40t-67 47q-30 16 -70 13t-74 -31q-3 -3 -9 -8q-41 -34 2 -64t90 -51q47 -22 64 -30q145 -72 171 -157q14 -43 10 -91q-6 -99 -54 -165q-47 -66 -123 -81q-138 -27 -228 53t-103 213q6 36 38 37t41 -33q12 -119 98 -172
t167 -10q80 43 84 173q2 77 -81 131q-36 24 -79 43t-83 39q-143 72 -110 163q22 59 77 91t104 31q102 -1 188 -83q16 -16 39 -23z" />
    <glyph glyph-name="t" unicode="t" horiz-adv-x="464" 
d="M289 731l20 -689q-1 -21 -12.5 -32t-37 -12t-29.5 40q-2 174 -8.5 346.5t-11.5 346.5h-118q-41 4 -40 29.5t12 37t32 12.5h112q-3 79 -3 159q6 36 37.5 37.5t41.5 -33.5q0 -82 3 -163h92q35 -10 33.5 -41.5t-37.5 -37.5h-86z" />
    <glyph glyph-name="u" unicode="u" horiz-adv-x="773" 
d="M693 553l-1 -49l-4 -160q-3 -160 26 -206t32 -72q15 -20 2 -42.5t-35 -18.5t-28.5 12.5t-10.5 14.5t-5 14t-4 14t-14 24t-24 87q-17 -42 -54 -96t-93.5 -80t-142 -18t-179.5 118.5t-101 240.5t37 263q11 35 27.5 68t20.5 62t17 38t27 7.5t25 -13t9 -41.5t-48 -142
q-81 -199 8 -372q33 -57 97 -109q136 -109 239 37q80 111 88 281q2 53 3 77.5t5 99.5t11 105q10 48 41 49.5t41 -34.5q6 -44 -12 -159z" />
    <glyph glyph-name="v" unicode="v" horiz-adv-x="618" 
d="M20 713q6 36 37.5 37.5t41.5 -33.5q13 -154 108 -366q14 -32 31 -63t27 -59t14.5 -52t9.5 -49q20 60 37.5 119t37.5 110t38 95t46 117t37 122t22 58t27 7.5t25 -13.5t10 -33q-19 -104 -65.5 -219t-57.5 -144q-53 -139 -78 -226.5t-45 -134.5q-18 -21 -39 -18t-34 27
q-8 20 -17 38.5t-15 44.5t-10.5 57t-15.5 62t-28.5 62t-45.5 95q-85 194 -98 359z" />
    <glyph glyph-name="w" unicode="w" horiz-adv-x="814" 
d="M284 24v-12q0 -36 -30 -42t-48 25q-2 16 -3 43t-8 69q-7 41 -17 83t-21 82t-21 83q-26 113 -56 199t-84 158q-16 32 7 52t54 -1q85 -114 131 -291q14 -52 29 -113t25 -97q0 73 32 209t40 168q6 33 28 67t61 6q9 -6 17 -12t18 -14q10 -9 23 -31q12 -23 23 -47
q12 -24 20 -48t27 -74q19 -51 82 -241q2 23 6 45t7 42q2 22 2 41t2 45t11 58q8 32 19 64q12 32 24 63t33 84t44 81q33 26 58 1t-1 -56q-27 -31 -40 -78q-14 -47 -39 -115t-28 -102q-3 -33 -3 -53q0 -21 -3 -43t-7 -46t-6 -48q-2 -28 4 -81t2 -83q-9 -27 -35 -32
q-27 -5 -46 14t-33 46q-14 26 -22 54t-20 62t-28 87q-66 210 -124 315q-65 -269 -69 -357t-20 -133q-17 -48 -17 -96z" />
    <glyph glyph-name="x" unicode="x" horiz-adv-x="630" 
d="M520 -41v10t-6 19t-22 48q-16 34 -35 66t-38 63t-37 62t-54 89q-4 -4 -7 -10t-14 -24t-33 -50q-92 -135 -111 -209q-13 -40 -49 -29t-27 50q9 40 29 78t42 76q22 36 46 72q55 81 76 124q-107 169 -212 290q-16 32 7 52t54 -1q92 -104 191 -255q5 12 11 26l16 36
q10 22 29 50t30 50q10 24 12 42t8 34q14 22 36 24t37 -21q6 -6 5 -25t-9 -29q-8 -55 -37 -96q-29 -43 -40 -67q-10 -24 -16 -42q-8 -26 -28 -66q52 -85 98 -167q46 -81 63 -108t46 -82t21 -79q-12 -38 -39 -39t-41 27q-2 5 -2 11z" />
    <glyph glyph-name="y" unicode="y" horiz-adv-x="691" 
d="M616 476l1 -292q0 -82 2.5 -187t-37.5 -187q-5 -10 -14 -17.5t-26 -22.5q-39 -34 -132 -52.5t-154 7t-65 57.5q-4 33 30 44q2 1 3.5 1t3.5 1q31 1 43 -22q30 -13 86 -12q57 2 94.5 15t55.5 41t22.5 73t5.5 85t1.5 57.5t0.5 37.5l-1 -1l-10 -8q-10 -8 -27.5 -22.5
t-58.5 -30.5t-92 -7t-81.5 13.5t-67.5 18t-72 73.5q-80 139 -69 312.5t12 240.5q6 36 37.5 37.5t41.5 -33.5q-1 -60 -12.5 -235.5t66.5 -292.5q30 -45 77 -48.5t70 -5.5q120 -8 160 105q18 53 25 130q-2 70 -2 141v215l1 7q4 7 7 14l2 2q1 2 3 3t13 9t29 -2l3 -1
q1 -1 5.5 -3t9.5 -14q5 -11 6 -12v-19z" />
    <glyph glyph-name="z" unicode="z" horiz-adv-x="655" 
d="M425 663q-11 0 -44 -2t-118 6t-170 12q-41 4 -40 29.5t12 37t32 12.5q74 -2 146.5 -10t145.5 -8l1 1h16q65 3 98 -7.5t36 -44.5q4 -27 -13 -50t-25 -37q-12 -22 -31.5 -61l-50.5 -101t-58 -124q-26 -62 -69.5 -162t-36.5 -145h1q78 4 154 10.5t125 8.5t61 -8.5
t14.5 -35.5t-38.5 -33q-63 -3 -194.5 -13.5t-168.5 -4.5q-17 10 -27 27q-2 14 -4.5 27.5t-2.5 37.5t10.5 62t25 76.5t30.5 75t44 102.5t60 129q31 62 40.5 82t18.5 37t20 40t22 34h-22z" />
    <glyph glyph-name="braceleft" unicode="{" horiz-adv-x="435" 
d="M122 239q0 26 -2 46t-12 34q-11 14 -59 44q-48 29 -63 63q-3 28 16 45q20 15 46 33q113 75 123 125q9 48 0 150q-16 194 -4 267q18 113 101 162q24 14 54 18t58 10q37 2 45 -27q9 -30 -23 -50q-23 -5 -47 -7t-43 -13q-32 -17 -46 -47q-13 -30 -21 -80q-11 -70 -1 -201
q10 -132 6 -180q-4 -49 -21 -73t-41 -46q-24 -23 -103 -79q7 -9 19 -15q87 -49 93 -109q3 -33 3 -53t9 -47q9 -25 23 -57t16 -62t6 -61q2 -29 2 -43l-2 -104q0 -32 -1 -78q-4 -194 83 -237q20 -8 41 -10q21 -1 41 -7q40 -11 32 -47q-8 -35 -49 -31q-15 3 -29 4t-39 6t-42 19
t-35 29t-36 39q-18 23 -28 63t-15 85q-4 46 -1 193t-11 185q-15 38 -29 78t-14 66z" />
    <glyph glyph-name="bar" unicode="|" horiz-adv-x="252" 
d="M80 1310q6 36 37.5 37.5t41.5 -33.5q2 -361 9 -719t9 -719q-1 -21 -12.5 -32t-37 -12t-29.5 40q-2 360 -9.5 719.5t-8.5 718.5z" />
    <glyph glyph-name="braceright" unicode="}" horiz-adv-x="435" 
d="M27 1165q-31 18 -25 48t42 30q29 -7 59 -11t55 -16t40.5 -33t35.5 -43t30.5 -62.5t13 -89.5t-4.5 -193t-2 -175q6 -32 24 -50t39 -34t39.5 -33t22.5 -39t-8.5 -42.5t-29.5 -39t-31.5 -35.5t-14.5 -33q1 -81 13.5 -333t-20.5 -323.5t-45 -99.5t-33 -45.5t-36 -32.5
t-28 -20t-27.5 -8t-30 -5t-32.5 -6t-30.5 5t-21 33.5t32.5 38.5q21 5 43 7.5t41 14.5q35 21 82.5 118.5t32.5 296t-17 243.5t-4 66.5t0 58.5t38 78.5t39 47.5q-70 59 -87 87.5t-26 53.5t-7.5 50t1.5 57t3.5 72t10.5 155t-34.5 171t-80 60.5t-62.5 9.5z" />
    <glyph glyph-name="asciitilde" unicode="~" horiz-adv-x="821" 
d="M136 570q-8 -22 -12 -38q-9 -34 -42 -31q-32 4 -36 40q18 107 104 197q86 91 185 44q44 -20 76 -63q33 -43 51 -69q67 -102 128 -119q55 29 78 64q23 34 27 98q8 41 44 37q14 -2 25 -13q12 -11 10 -35q-4 -59 -28 -114t-69 -80q-9 -4 -19 -12t-31 -20t-40 -6q-20 5 -39 8
t-57 36t-63 72q-25 40 -43 64q-72 96 -125 84q-75 -16 -124 -144z" />
    <glyph glyph-name="A0128" horiz-adv-x="665" 
d="M232 246q24 -2 47 9q25 10 29 31q0 2 1 4q-27 46 -45 56q-36 18 -79 -4q-6 -5 -12 -9t-10 -11q0 -8 -1 -15q-2 -7 2 -21t24 -26t44 -14zM415 248v194q0 20 -5 53t-37 46q-48 19 -111 14q-62 -5 -97 -5t-68 11q-35 20 -27 64q3 16 12 29q9 12 24 38t42 45q26 19 58 27
t66 8t70 -4q35 -4 69 -8t58 -4t34 2t19 4q8 2 18 4t29 4t31 -9t14 -25q4 -36 -38 -44q-23 -3 -49 -9q-26 -7 -57 -7q-32 0 -76 8q-183 35 -233 -53q37 0 77 3q153 11 219 -55q35 -32 37 -129q0 -23 2 -90t-7 -237v21q-1 -34 -1 -69q0 -100 -44 -100q-28 0 -41 27
q-24 122 -55 204q-62 -54 -151 -34q-89 19 -112 98q-5 15 -3 31t2 41q1 25 29 49t65 35q89 27 135 -17q30 -28 52 -61q30 -10 28 -45q0 -1 8 -20t14 -35z" />
    <glyph glyph-name="A0128" unicode="&#xf700;" horiz-adv-x="665" 
d="M232 246q24 -2 47 9q25 10 29 31q0 2 1 4q-27 46 -45 56q-36 18 -79 -4q-6 -5 -12 -9t-10 -11q0 -8 -1 -15q-2 -7 2 -21t24 -26t44 -14zM415 248v194q0 20 -5 53t-37 46q-48 19 -111 14q-62 -5 -97 -5t-68 11q-35 20 -27 64q3 16 12 29q9 12 24 38t42 45q26 19 58 27
t66 8t70 -4q35 -4 69 -8t58 -4t34 2t19 4q8 2 18 4t29 4t31 -9t14 -25q4 -36 -38 -44q-23 -3 -49 -9q-26 -7 -57 -7q-32 0 -76 8q-183 35 -233 -53q37 0 77 3q153 11 219 -55q35 -32 37 -129q0 -23 2 -90t-7 -237v21q-1 -34 -1 -69q0 -100 -44 -100q-28 0 -41 27
q-24 122 -55 204q-62 -54 -151 -34q-89 19 -112 98q-5 15 -3 31t2 41q1 25 29 49t65 35q89 27 135 -17q30 -28 52 -61q30 -10 28 -45q0 -1 8 -20t14 -35z" />
    <glyph glyph-name="A0128" unicode="&#x20ac;" horiz-adv-x="665" 
d="M232 246q24 -2 47 9q25 10 29 31q0 2 1 4q-27 46 -45 56q-36 18 -79 -4q-6 -5 -12 -9t-10 -11q0 -8 -1 -15q-2 -7 2 -21t24 -26t44 -14zM415 248v194q0 20 -5 53t-37 46q-48 19 -111 14q-62 -5 -97 -5t-68 11q-35 20 -27 64q3 16 12 29q9 12 24 38t42 45q26 19 58 27
t66 8t70 -4q35 -4 69 -8t58 -4t34 2t19 4q8 2 18 4t29 4t31 -9t14 -25q4 -36 -38 -44q-23 -3 -49 -9q-26 -7 -57 -7q-32 0 -76 8q-183 35 -233 -53q37 0 77 3q153 11 219 -55q35 -32 37 -129q0 -23 2 -90t-7 -237v21q-1 -34 -1 -69q0 -100 -44 -100q-28 0 -41 27
q-24 122 -55 204q-62 -54 -151 -34q-89 19 -112 98q-5 15 -3 31t2 41q1 25 29 49t65 35q89 27 135 -17q30 -28 52 -61q30 -10 28 -45q0 -1 8 -20t14 -35z" />
    <glyph glyph-name="A0129" 
d="M-737 1086h303q-42 42 -156.5 75.5t-167.5 -55.5q-4 -7 -7.5 -12.5t-6.5 -12.5q22 5 35 5zM-327 1086q35 -10 33.5 -41.5t-37.5 -37.5q-63 0 -129.5 -1.5t-111.5 -2t-104 -1.5t-79 2q-5 -2 -10 -2t-21 -4t-39 4t-31 32q-13 43 22 104t66 77q71 37 106 35q69 -4 151.5 -24
t123 -69.5t49.5 -70.5h11z" />
    <glyph glyph-name="A0129" unicode="&#xf701;" 
d="M-737 1086h303q-42 42 -156.5 75.5t-167.5 -55.5q-4 -7 -7.5 -12.5t-6.5 -12.5q22 5 35 5zM-327 1086q35 -10 33.5 -41.5t-37.5 -37.5q-63 0 -129.5 -1.5t-111.5 -2t-104 -1.5t-79 2q-5 -2 -10 -2t-21 -4t-39 4t-31 32q-13 43 22 104t66 77q71 37 106 35q69 -4 151.5 -24
t123 -69.5t49.5 -70.5h11z" />
    <glyph glyph-name="A0130" 
d="M-551 1027h303q-42 42 -156.5 75.5t-167.5 -55.5q-4 -7 -7.5 -12.5t-6.5 -12.5q23 5 35 5zM-226 1114q2 20 2 39v33q-1 34 12.5 44t24.5 13q28 1 40 -16.5t3 -37.5q-1 -41 -4 -81t-4 -81h11q35 -10 33.5 -41.5t-37.5 -37.5q-63 0 -129.5 -1.5t-111.5 -2t-104 -1.5t-79 2
q-5 -2 -10 -2.5t-21 -4.5t-39 5t-31 33q-13 43 22 103.5t66 76.5q71 37 106 35q62 -4 132 -24.5t118 -52.5z" />
    <glyph glyph-name="A0130" unicode="&#xf702;" 
d="M-551 1027h303q-42 42 -156.5 75.5t-167.5 -55.5q-4 -7 -7.5 -12.5t-6.5 -12.5q23 5 35 5zM-226 1114q2 20 2 39v33q-1 34 12.5 44t24.5 13q28 1 40 -16.5t3 -37.5q-1 -41 -4 -81t-4 -81h11q35 -10 33.5 -41.5t-37.5 -37.5q-63 0 -129.5 -1.5t-111.5 -2t-104 -1.5t-79 2
q-5 -2 -10 -2.5t-21 -4.5t-39 5t-31 33q-13 43 22 103.5t66 76.5q71 37 106 35q62 -4 132 -24.5t118 -52.5z" />
    <glyph glyph-name="A0130" unicode="&#x201a;" 
d="M-551 1027h303q-42 42 -156.5 75.5t-167.5 -55.5q-4 -7 -7.5 -12.5t-6.5 -12.5q23 5 35 5zM-226 1114q2 20 2 39v33q-1 34 12.5 44t24.5 13q28 1 40 -16.5t3 -37.5q-1 -41 -4 -81t-4 -81h11q35 -10 33.5 -41.5t-37.5 -37.5q-63 0 -129.5 -1.5t-111.5 -2t-104 -1.5t-79 2
q-5 -2 -10 -2.5t-21 -4.5t-39 5t-31 33q-13 43 22 103.5t66 76.5q71 37 106 35q62 -4 132 -24.5t118 -52.5z" />
    <glyph glyph-name="A0131" 
d="M-365.5 1157q-14.5 0 -18.5 -11q-34 -27 2 -56q20 -1 39 -3t38 -2q7 39 -19.5 55.5t-41 16.5zM-790 1089h303q-42 42 -156.5 75.5t-167.5 -55.5q-4 -7 -7.5 -12.5t-6.5 -12.5q23 5 35 5zM-384 1010q-63 0 -129.5 -1.5t-111.5 -2t-104 -1.5t-79 2q-5 -2 -10 -2.5t-21 -4.5
t-38.5 5t-30.5 33q-13 43 21.5 103.5t65.5 76.5q71 37 106 35q167 -10 250 -77q-1 0 6 -5q12 39 46.5 54t72.5 7.5t70.5 -36t38.5 -58.5q21 -108 -36 -126q-29 -10 -57.5 -7t-56.5 5h-3z" />
    <glyph glyph-name="A0131" unicode="&#xf703;" 
d="M-365.5 1157q-14.5 0 -18.5 -11q-34 -27 2 -56q20 -1 39 -3t38 -2q7 39 -19.5 55.5t-41 16.5zM-790 1089h303q-42 42 -156.5 75.5t-167.5 -55.5q-4 -7 -7.5 -12.5t-6.5 -12.5q23 5 35 5zM-384 1010q-63 0 -129.5 -1.5t-111.5 -2t-104 -1.5t-79 2q-5 -2 -10 -2.5t-21 -4.5
t-38.5 5t-30.5 33q-13 43 21.5 103.5t65.5 76.5q71 37 106 35q167 -10 250 -77q-1 0 6 -5q12 39 46.5 54t72.5 7.5t70.5 -36t38.5 -58.5q21 -108 -36 -126q-29 -10 -57.5 -7t-56.5 5h-3z" />
    <glyph glyph-name="A0131" unicode="&#x192;" 
d="M-365.5 1157q-14.5 0 -18.5 -11q-34 -27 2 -56q20 -1 39 -3t38 -2q7 39 -19.5 55.5t-41 16.5zM-790 1089h303q-42 42 -156.5 75.5t-167.5 -55.5q-4 -7 -7.5 -12.5t-6.5 -12.5q23 5 35 5zM-384 1010q-63 0 -129.5 -1.5t-111.5 -2t-104 -1.5t-79 2q-5 -2 -10 -2.5t-21 -4.5
t-38.5 5t-30.5 33q-13 43 21.5 103.5t65.5 76.5q71 37 106 35q167 -10 250 -77q-1 0 6 -5q12 39 46.5 54t72.5 7.5t70.5 -36t38.5 -58.5q21 -108 -36 -126q-29 -10 -57.5 -7t-56.5 5h-3z" />
    <glyph glyph-name="A0132" 
d="M-639 1026h303q-20 21 -64 41q-19 0 -31 13q-170 68 -229 -34q-4 -7 -7.5 -12.5t-6.5 -12.5q22 5 35 5zM-314 1113q2 20 2 39v34q-1 34 12.5 43.5t24.5 12.5q28 1 40 -16.5t3 -37.5q-1 -41 -4 -81t-4 -81h11q35 -10 33.5 -41.5t-37.5 -37.5q-63 0 -129.5 -1.5t-111.5 -2
t-104 -1.5t-79 2q-5 -2 -10 -2t-21 -4t-39 4t-31 32q-13 43 22 104t66 77q71 37 122 33t105 -19q-3 53 -1 71t12.5 27.5t32.5 10.5t32 -34q0 -26 1.5 -52t2.5 -52q33 -15 49 -27z" />
    <glyph glyph-name="A0132" unicode="&#xf704;" 
d="M-639 1026h303q-20 21 -64 41q-19 0 -31 13q-170 68 -229 -34q-4 -7 -7.5 -12.5t-6.5 -12.5q22 5 35 5zM-314 1113q2 20 2 39v34q-1 34 12.5 43.5t24.5 12.5q28 1 40 -16.5t3 -37.5q-1 -41 -4 -81t-4 -81h11q35 -10 33.5 -41.5t-37.5 -37.5q-63 0 -129.5 -1.5t-111.5 -2
t-104 -1.5t-79 2q-5 -2 -10 -2t-21 -4t-39 4t-31 32q-13 43 22 104t66 77q71 37 122 33t105 -19q-3 53 -1 71t12.5 27.5t32.5 10.5t32 -34q0 -26 1.5 -52t2.5 -52q33 -15 49 -27z" />
    <glyph glyph-name="A0132" unicode="&#x201e;" 
d="M-639 1026h303q-20 21 -64 41q-19 0 -31 13q-170 68 -229 -34q-4 -7 -7.5 -12.5t-6.5 -12.5q22 5 35 5zM-314 1113q2 20 2 39v34q-1 34 12.5 43.5t24.5 12.5q28 1 40 -16.5t3 -37.5q-1 -41 -4 -81t-4 -81h11q35 -10 33.5 -41.5t-37.5 -37.5q-63 0 -129.5 -1.5t-111.5 -2
t-104 -1.5t-79 2q-5 -2 -10 -2t-21 -4t-39 4t-31 32q-13 43 22 104t66 77q71 37 122 33t105 -19q-3 53 -1 71t12.5 27.5t32.5 10.5t32 -34q0 -26 1.5 -52t2.5 -52q33 -15 49 -27z" />
    <glyph glyph-name="A0133" unicode="&#x85;" horiz-adv-x="1040" 
d="M175 131q25 24 53 23q28 -2 46 -20q20 -18 25 -48t-10 -57q-15 -26 -33 -34t-40 -7q-47 2 -82 36q-35 33 -22 77q14 23 32 25q17 3 23 5h8zM908 168q61 -15 47 -78q4 -45 -33 -61q-40 -45 -87 -31q-25 6 -43 32t-22 54t8 54q20 41 88 28q13 3 23 -1q9 3 19 3zM568 140
q14 0 42 -1t48 -22t20 -49q1 -63 -59 -98q-59 -36 -121 20t-30 107q14 22 44 35q10 14 26 16t30 -8z" />
    <glyph glyph-name="A0133" unicode="&#x2026;" horiz-adv-x="1040" 
d="M175 131q25 24 53 23q28 -2 46 -20q20 -18 25 -48t-10 -57q-15 -26 -33 -34t-40 -7q-47 2 -82 36q-35 33 -22 77q14 23 32 25q17 3 23 5h8zM908 168q61 -15 47 -78q4 -45 -33 -61q-40 -45 -87 -31q-25 6 -43 32t-22 54t8 54q20 41 88 28q13 3 23 -1q9 3 19 3zM568 140
q14 0 42 -1t48 -22t20 -49q1 -63 -59 -98q-59 -36 -121 20t-30 107q14 22 44 35q10 14 26 16t30 -8z" />
    <glyph glyph-name="A0134" 
d="M-354 1450q0 -72 -11 -163q-11 -35 -43 -31t-36 40q25 167 -5 253q-4 36 24 48t51 -19q20 -56 20 -128z" />
    <glyph glyph-name="A0134" unicode="&#xf705;" 
d="M-354 1450q0 -72 -11 -163q-11 -35 -43 -31t-36 40q25 167 -5 253q-4 36 24 48t51 -19q20 -56 20 -128z" />
    <glyph glyph-name="A0134" unicode="&#x2020;" 
d="M-354 1450q0 -72 -11 -163q-11 -35 -43 -31t-36 40q25 167 -5 253q-4 36 24 48t51 -19q20 -56 20 -128z" />
    <glyph glyph-name="A0135" 
d="M-604.5 1581q-14.5 0 -35 -9t-20.5 -34q1 -45 45 -28.5t52 54.5q2 2 3 4q-5 2 -9.5 4.5t-12.5 5.5t-22.5 3zM-582 1328q0 27 15.5 43.5t39.5 38t13 70.5q-2 -2 -4 -3.5t-11 -9.5q-28 -25 -81.5 -37t-82.5 9q-51 38 -48.5 101t48.5 91q130 76 195 -8t67 -165
q3 -38 -18 -72q64 17 127 36t129 27q21 1 33 -10t14.5 -36t-38.5 -33q-56 -6 -181 -41t-176 -42q-37 4 -41 41z" />
    <glyph glyph-name="A0135" unicode="&#xf706;" 
d="M-604.5 1581q-14.5 0 -35 -9t-20.5 -34q1 -45 45 -28.5t52 54.5q2 2 3 4q-5 2 -9.5 4.5t-12.5 5.5t-22.5 3zM-582 1328q0 27 15.5 43.5t39.5 38t13 70.5q-2 -2 -4 -3.5t-11 -9.5q-28 -25 -81.5 -37t-82.5 9q-51 38 -48.5 101t48.5 91q130 76 195 -8t67 -165
q3 -38 -18 -72q64 17 127 36t129 27q21 1 33 -10t14.5 -36t-38.5 -33q-56 -6 -181 -41t-176 -42q-37 4 -41 41z" />
    <glyph glyph-name="A0135" unicode="&#x2021;" 
d="M-604.5 1581q-14.5 0 -35 -9t-20.5 -34q1 -45 45 -28.5t52 54.5q2 2 3 4q-5 2 -9.5 4.5t-12.5 5.5t-22.5 3zM-582 1328q0 27 15.5 43.5t39.5 38t13 70.5q-2 -2 -4 -3.5t-11 -9.5q-28 -25 -81.5 -37t-82.5 9q-51 38 -48.5 101t48.5 91q130 76 195 -8t67 -165
q3 -38 -18 -72q64 17 127 36t129 27q21 1 33 -10t14.5 -36t-38.5 -33q-56 -6 -181 -41t-176 -42q-37 4 -41 41z" />
    <glyph glyph-name="A0136" 
d="M-619 1368q-13 2 -27 -4q-14 -4 -24 -7q-12 -3 -25 -8q1 -7 5 -13t8 -16q4 -8 12 -16l17 -17q9 -1 19 -1t14 1q6 1 12 4l10 5q7 48 -1 59q-7 11 -20 13zM-715 1426q149 60 192 -46q31 -73 -15 -134q-30 -40 -105 -43t-119 101q-21 -4 -35 14q-15 18 -7 38q8 19 17 28
q-16 65 -13 99q2 35 4 59t10 68t27 60q21 17 53 24t48 -2l40 -32t34 -34t28 -38q13 -20 30 -38q9 11 28 43q20 32 30 47q20 21 49 17q29 -5 40 -21t17 -46t9 -62q2 -32 1 -63t-2 -52q-2 -21 -2 -41t-4 -42q34 7 109 46q157 83 187 89q36 -4 40 -35t-31 -45q-36 -4 -125 -49
t-145 -69t-78 -17q-23 6 -31 14t-10 19q-4 12 -2 23q2 10 3 22q3 12 5 23q21 91 1 193q-62 -116 -116 -74q-26 20 -50 53q-25 33 -38 47t-25 25l-24 20l-7 -2q-34 -89 -18 -187z" />
    <glyph glyph-name="A0136" unicode="&#xf707;" 
d="M-619 1368q-13 2 -27 -4q-14 -4 -24 -7q-12 -3 -25 -8q1 -7 5 -13t8 -16q4 -8 12 -16l17 -17q9 -1 19 -1t14 1q6 1 12 4l10 5q7 48 -1 59q-7 11 -20 13zM-715 1426q149 60 192 -46q31 -73 -15 -134q-30 -40 -105 -43t-119 101q-21 -4 -35 14q-15 18 -7 38q8 19 17 28
q-16 65 -13 99q2 35 4 59t10 68t27 60q21 17 53 24t48 -2l40 -32t34 -34t28 -38q13 -20 30 -38q9 11 28 43q20 32 30 47q20 21 49 17q29 -5 40 -21t17 -46t9 -62q2 -32 1 -63t-2 -52q-2 -21 -2 -41t-4 -42q34 7 109 46q157 83 187 89q36 -4 40 -35t-31 -45q-36 -4 -125 -49
t-145 -69t-78 -17q-23 6 -31 14t-10 19q-4 12 -2 23q2 10 3 22q3 12 5 23q21 91 1 193q-62 -116 -116 -74q-26 20 -50 53q-25 33 -38 47t-25 25l-24 20l-7 -2q-34 -89 -18 -187z" />
    <glyph glyph-name="A0136" unicode="&#x2c6;" 
d="M-619 1368q-13 2 -27 -4q-14 -4 -24 -7q-12 -3 -25 -8q1 -7 5 -13t8 -16q4 -8 12 -16l17 -17q9 -1 19 -1t14 1q6 1 12 4l10 5q7 48 -1 59q-7 11 -20 13zM-715 1426q149 60 192 -46q31 -73 -15 -134q-30 -40 -105 -43t-119 101q-21 -4 -35 14q-15 18 -7 38q8 19 17 28
q-16 65 -13 99q2 35 4 59t10 68t27 60q21 17 53 24t48 -2l40 -32t34 -34t28 -38q13 -20 30 -38q9 11 28 43q20 32 30 47q20 21 49 17q29 -5 40 -21t17 -46t9 -62q2 -32 1 -63t-2 -52q-2 -21 -2 -41t-4 -42q34 7 109 46q157 83 187 89q36 -4 40 -35t-31 -45q-36 -4 -125 -49
t-145 -69t-78 -17q-23 6 -31 14t-10 19q-4 12 -2 23q2 10 3 22q3 12 5 23q21 91 1 193q-62 -116 -116 -74q-26 20 -50 53q-25 33 -38 47t-25 25l-24 20l-7 -2q-34 -89 -18 -187z" />
    <glyph glyph-name="A0137" 
d="M-569 1499q74 -3 102 -5v91q6 36 37.5 37.5t41.5 -33.5v-101q108 -11 191 -13q35 -10 33.5 -41.5t-37.5 -37.5q-74 2 -187 11v-137q-1 -21 -12.5 -32t-37 -12t-29.5 40v148q-53 4 -90 6t-46.5 14.5t-9 26.5t11.5 25.5t32 12.5z" />
    <glyph glyph-name="A0137" unicode="&#xf708;" 
d="M-569 1499q74 -3 102 -5v91q6 36 37.5 37.5t41.5 -33.5v-101q108 -11 191 -13q35 -10 33.5 -41.5t-37.5 -37.5q-74 2 -187 11v-137q-1 -21 -12.5 -32t-37 -12t-29.5 40v148q-53 4 -90 6t-46.5 14.5t-9 26.5t11.5 25.5t32 12.5z" />
    <glyph glyph-name="A0137" unicode="&#x2030;" 
d="M-569 1499q74 -3 102 -5v91q6 36 37.5 37.5t41.5 -33.5v-101q108 -11 191 -13q35 -10 33.5 -41.5t-37.5 -37.5q-74 2 -187 11v-137q-1 -21 -12.5 -32t-37 -12t-29.5 40v148q-53 4 -90 6t-46.5 14.5t-9 26.5t11.5 25.5t32 12.5z" />
    <glyph glyph-name="A0138" 
d="M-487 1320q17 26 11 42t-25 20q-47 13 -79 -19q16 -23 43 -35t50 -8zM-671 1366l-5 42q0 43 22 72q22 28 40 54t63 40t97 16q52 3 102 0t83 -4q35 -10 33 -41q-1 -32 -37 -38q-25 1 -66 4q-185 14 -227 -47l-8 -10q128 44 165 -60q10 -28 10 -58q0 -88 -78 -96
q-14 -2 -40 -4q-26 -3 -62 24t-55 49q-17 1 -30 15t-10 27t3 15z" />
    <glyph glyph-name="A0138" unicode="&#xf709;" 
d="M-487 1320q17 26 11 42t-25 20q-47 13 -79 -19q16 -23 43 -35t50 -8zM-671 1366l-5 42q0 43 22 72q22 28 40 54t63 40t97 16q52 3 102 0t83 -4q35 -10 33 -41q-1 -32 -37 -38q-25 1 -66 4q-185 14 -227 -47l-8 -10q128 44 165 -60q10 -28 10 -58q0 -88 -78 -96
q-14 -2 -40 -4q-26 -3 -62 24t-55 49q-17 1 -30 15t-10 27t3 15z" />
    <glyph glyph-name="A0138" unicode="&#x160;" 
d="M-487 1320q17 26 11 42t-25 20q-47 13 -79 -19q16 -23 43 -35t50 -8zM-671 1366l-5 42q0 43 22 72q22 28 40 54t63 40t97 16q52 3 102 0t83 -4q35 -10 33 -41q-1 -32 -37 -38q-25 1 -66 4q-185 14 -227 -47l-8 -10q128 44 165 -60q10 -28 10 -58q0 -88 -78 -96
q-14 -2 -40 -4q-26 -3 -62 24t-55 49q-17 1 -30 15t-10 27t3 15z" />
    <glyph glyph-name="A0139" 
d="M-173 1019l9 359q6 36 37.5 37.5t41.5 -33.5q-1 -91 -4 -179.5t-5 -179.5q-1 -21 -12.5 -32t-37 -12t-29.5 40z" />
    <glyph glyph-name="A0139" unicode="&#xf70a;" 
d="M-173 1019l9 359q6 36 37.5 37.5t41.5 -33.5q-1 -91 -4 -179.5t-5 -179.5q-1 -21 -12.5 -32t-37 -12t-29.5 40z" />
    <glyph glyph-name="A0139" unicode="&#x2039;" 
d="M-173 1019l9 359q6 36 37.5 37.5t41.5 -33.5q-1 -91 -4 -179.5t-5 -179.5q-1 -21 -12.5 -32t-37 -12t-29.5 40z" />
    <glyph glyph-name="A0140" 
d="M-355 1291q-15 0 -36 -9t-21 -34q1 -45 45.5 -28.5t52.5 54.5q2 2 3 4q-5 2 -9 4.5t-12 5.5t-23 3zM-333 1038q0 27 15.5 43.5t39.5 38t13 70.5q-2 -2 -4 -3.5t-11 -9.5q-28 -25 -81.5 -37t-82.5 9q-51 38 -48.5 101t48.5 91q130 76 195 -8t67 -165q3 -38 -18 -72
q64 17 127 36t129 27q21 1 33 -10t14.5 -36t-38.5 -33q-56 -6 -181 -41t-176 -42q-37 4 -41 41z" />
    <glyph glyph-name="A0140" unicode="&#xf70b;" 
d="M-355 1291q-15 0 -36 -9t-21 -34q1 -45 45.5 -28.5t52.5 54.5q2 2 3 4q-5 2 -9 4.5t-12 5.5t-23 3zM-333 1038q0 27 15.5 43.5t39.5 38t13 70.5q-2 -2 -4 -3.5t-11 -9.5q-28 -25 -81.5 -37t-82.5 9q-51 38 -48.5 101t48.5 91q130 76 195 -8t67 -165q3 -38 -18 -72
q64 17 127 36t129 27q21 1 33 -10t14.5 -36t-38.5 -33q-56 -6 -181 -41t-176 -42q-37 4 -41 41z" />
    <glyph glyph-name="A0140" unicode="&#x152;" 
d="M-355 1291q-15 0 -36 -9t-21 -34q1 -45 45.5 -28.5t52.5 54.5q2 2 3 4q-5 2 -9 4.5t-12 5.5t-23 3zM-333 1038q0 27 15.5 43.5t39.5 38t13 70.5q-2 -2 -4 -3.5t-11 -9.5q-28 -25 -81.5 -37t-82.5 9q-51 38 -48.5 101t48.5 91q130 76 195 -8t67 -165q3 -38 -18 -72
q64 17 127 36t129 27q21 1 33 -10t14.5 -36t-38.5 -33q-56 -6 -181 -41t-176 -42q-37 4 -41 41z" />
    <glyph glyph-name="A0141" 
d="M-351 1150q-13 2 -27 -4q-14 -4 -24 -7q-12 -3 -25 -8q1 -7 5 -13t8 -16q4 -8 12 -16l17 -17q9 -1 19 -1t14 1q6 1 12 4l10 5q7 48 -1 59q-7 11 -20 13zM-447 1208q149 60 192 -46q31 -73 -15 -134q-30 -40 -105 -43t-119 101q-21 -4 -35 14q-15 18 -7 38q8 19 17 28
q-16 65 -13 99q2 35 4 59t10 68t27 60q21 17 53 24t48 -2l40 -32t34 -34t28 -38q13 -20 30 -38q9 11 28 43q20 32 30 47q20 21 49 17q29 -5 40 -21t17 -46t9 -62q2 -32 1 -63t-2 -52q-2 -21 -2 -41t-4 -42q34 7 109 46q157 83 187 89q36 -4 40 -35t-31 -45q-36 -4 -125 -49
t-145 -69t-78 -17q-23 6 -31 14t-10 19q-4 12 -2 23q2 10 3 22q3 12 5 23q21 91 1 193q-62 -116 -116 -74q-26 20 -50 53q-25 33 -38 47t-25 25l-24 20l-7 -2q-34 -89 -18 -187z" />
    <glyph glyph-name="A0141" unicode="&#xf70c;" 
d="M-351 1150q-13 2 -27 -4q-14 -4 -24 -7q-12 -3 -25 -8q1 -7 5 -13t8 -16q4 -8 12 -16l17 -17q9 -1 19 -1t14 1q6 1 12 4l10 5q7 48 -1 59q-7 11 -20 13zM-447 1208q149 60 192 -46q31 -73 -15 -134q-30 -40 -105 -43t-119 101q-21 -4 -35 14q-15 18 -7 38q8 19 17 28
q-16 65 -13 99q2 35 4 59t10 68t27 60q21 17 53 24t48 -2l40 -32t34 -34t28 -38q13 -20 30 -38q9 11 28 43q20 32 30 47q20 21 49 17q29 -5 40 -21t17 -46t9 -62q2 -32 1 -63t-2 -52q-2 -21 -2 -41t-4 -42q34 7 109 46q157 83 187 89q36 -4 40 -35t-31 -45q-36 -4 -125 -49
t-145 -69t-78 -17q-23 6 -31 14t-10 19q-4 12 -2 23q2 10 3 22q3 12 5 23q21 91 1 193q-62 -116 -116 -74q-26 20 -50 53q-25 33 -38 47t-25 25l-24 20l-7 -2q-34 -89 -18 -187z" />
    <glyph glyph-name="A0142" 
d="M-202 1000v39q2 26 2 50q-86 2 -139 10q-31 18 -25 48t42 30q60 -9 122 -9l-3 122q6 36 37.5 37.5t41.5 -33.5q1 -17 2.5 -50.5t3.5 -75.5q84 3 110 3q35 -10 33.5 -41.5t-37.5 -37.5l-105 -2q-3 -180 -48.5 -184.5t-52 20t1.5 36.5t11 24.5t3 13.5z" />
    <glyph glyph-name="A0142" unicode="&#xf70d;" 
d="M-202 1000v39q2 26 2 50q-86 2 -139 10q-31 18 -25 48t42 30q60 -9 122 -9l-3 122q6 36 37.5 37.5t41.5 -33.5q1 -17 2.5 -50.5t3.5 -75.5q84 3 110 3q35 -10 33.5 -41.5t-37.5 -37.5l-105 -2q-3 -180 -48.5 -184.5t-52 20t1.5 36.5t11 24.5t3 13.5z" />
    <glyph glyph-name="A0142" unicode="&#x17d;" 
d="M-202 1000v39q2 26 2 50q-86 2 -139 10q-31 18 -25 48t42 30q60 -9 122 -9l-3 122q6 36 37.5 37.5t41.5 -33.5q1 -17 2.5 -50.5t3.5 -75.5q84 3 110 3q35 -10 33.5 -41.5t-37.5 -37.5l-105 -2q-3 -180 -48.5 -184.5t-52 20t1.5 36.5t11 24.5t3 13.5z" />
    <glyph glyph-name="A0143" 
d="M-108 1026q16 26 10 42t-24 20q-47 13 -79 -19q16 -23 43 -35t50 -8zM-292 1072l-5 42q0 43 22 72q22 28 40 54t63 40t97 16q52 3 102 0t83 -4q35 -10 33 -41q-1 -32 -37 -38q-25 1 -66 4q-186 14 -228 -47q-4 -5 -7 -10q128 44 165 -60q10 -28 10 -58q0 -88 -78 -96
q-14 -2 -40 -4q-26 -3 -62 24t-55 49q-17 1 -30 15t-10 27t3 15z" />
    <glyph glyph-name="A0143" unicode="&#xf70e;" 
d="M-108 1026q16 26 10 42t-24 20q-47 13 -79 -19q16 -23 43 -35t50 -8zM-292 1072l-5 42q0 43 22 72q22 28 40 54t63 40t97 16q52 3 102 0t83 -4q35 -10 33 -41q-1 -32 -37 -38q-25 1 -66 4q-186 14 -228 -47q-4 -5 -7 -10q128 44 165 -60q10 -28 10 -58q0 -88 -78 -96
q-14 -2 -40 -4q-26 -3 -62 24t-55 49q-17 1 -30 15t-10 27t3 15z" />
    <glyph glyph-name="A0144" horiz-adv-x="903" 
d="M210 212q-11 -103 38 -142q26 -20 74.5 25.5t6.5 95.5t-119 21zM134 581q-34 0 -53 60q-18 60 119.5 145.5t260 -48.5t114 -282.5t-20.5 -220.5t-5 -102q115 -16 152 -3q20 66 26 182.5t6 410.5q6 36 37.5 37.5t41.5 -33.5q0 -381 -9.5 -472t-17.5 -125t-34.5 -64
t-118.5 -17q-11 2 -31 2.5t-57 4t-54 17.5t-21.5 46t-1.5 66.5t9 67t9 63.5q11 117 3 205.5t-71 148.5q-91 88 -159.5 54t-96.5 -62q17 2 35 5t48 1t49 -21.5t22.5 -48.5t-4.5 -64.5t-20.5 -70.5t-33 -82t-29.5 -83q18 2 37.5 2t50.5 -6.5t48 -24.5t28.5 -30.5t22.5 -40.5
t7 -67.5t-37.5 -89t-124.5 -55.5q-69 -5 -96 57.5t-27 68t-1 7.5l-1 -11q-12 -34 -43.5 -30.5t-35.5 39.5q6 32 12.5 61.5t26.5 49.5t43 37q11 60 62.5 191t26.5 133t-50 -3t-43 -5z" />
    <glyph glyph-name="A0144" unicode="&#xf70f;" horiz-adv-x="903" 
d="M210 212q-11 -103 38 -142q26 -20 74.5 25.5t6.5 95.5t-119 21zM134 581q-34 0 -53 60q-18 60 119.5 145.5t260 -48.5t114 -282.5t-20.5 -220.5t-5 -102q115 -16 152 -3q20 66 26 182.5t6 410.5q6 36 37.5 37.5t41.5 -33.5q0 -381 -9.5 -472t-17.5 -125t-34.5 -64
t-118.5 -17q-11 2 -31 2.5t-57 4t-54 17.5t-21.5 46t-1.5 66.5t9 67t9 63.5q11 117 3 205.5t-71 148.5q-91 88 -159.5 54t-96.5 -62q17 2 35 5t48 1t49 -21.5t22.5 -48.5t-4.5 -64.5t-20.5 -70.5t-33 -82t-29.5 -83q18 2 37.5 2t50.5 -6.5t48 -24.5t28.5 -30.5t22.5 -40.5
t7 -67.5t-37.5 -89t-124.5 -55.5q-69 -5 -96 57.5t-27 68t-1 7.5l-1 -11q-12 -34 -43.5 -30.5t-35.5 39.5q6 32 12.5 61.5t26.5 49.5t43 37q11 60 62.5 191t26.5 133t-50 -3t-43 -5z" />
    <glyph glyph-name="A0145" horiz-adv-x="392" 
d="M209 845q25 0 30 6t7 19t-4 27q-6 13 -14 19t-20 8t-24 2h-22t-14 2q-4 0 -5 -1q5 -37 23 -59t43 -23zM59 956v14q-2 78 77 152t158 89q21 1 33 -10q11 -11 13 -25q4 -36 -37 -44q-60 -10 -125 -82q-19 -21 -29 -42q109 3 158 -64t14 -123q-34 -55 -82 -57
q-145 -6 -174 149q-7 11 -7 24t1 19z" />
    <glyph glyph-name="A0145" unicode="&#x2018;" horiz-adv-x="392" 
d="M209 845q25 0 30 6t7 19t-4 27q-6 13 -14 19t-20 8t-24 2h-22t-14 2q-4 0 -5 -1q5 -37 23 -59t43 -23zM59 956v14q-2 78 77 152t158 89q21 1 33 -10q11 -11 13 -25q4 -36 -37 -44q-60 -10 -125 -82q-19 -21 -29 -42q109 3 158 -64t14 -123q-34 -55 -82 -57
q-145 -6 -174 149q-7 11 -7 24t1 19z" />
    <glyph glyph-name="A0146" horiz-adv-x="392" 
d="M189 1149q-25 0 -30 -6t-7 -19t4 -27q6 -13 14 -19t20 -8t24 -2h22t14 -2q4 0 5 1q-5 37 -23 59t-43 23zM339 1038v-14q2 -78 -77 -152t-158 -89q-21 -1 -33 10q-11 11 -13 25q-4 36 37 44q61 10 125 82q18 21 29 42q-109 -3 -158 64t-14 123q34 55 82 57q145 4 174 -149
q7 -11 7 -24t-1 -19z" />
    <glyph glyph-name="A0146" unicode="&#x2019;" horiz-adv-x="392" 
d="M189 1149q-25 0 -30 -6t-7 -19t4 -27q6 -13 14 -19t20 -8t24 -2h22t14 -2q4 0 5 1q-5 37 -23 59t-43 23zM339 1038v-14q2 -78 -77 -152t-158 -89q-21 -1 -33 10q-11 11 -13 25q-4 36 37 44q61 10 125 82q18 21 29 42q-109 -3 -158 64t-14 123q34 55 82 57q145 4 174 -149
q7 -11 7 -24t-1 -19z" />
    <glyph glyph-name="A0147" horiz-adv-x="684" 
d="M502 845q25 0 30 6t7.5 19t-4.5 27q-6 14 -14.5 19.5t-20 7.5t-24 2h-22.5t-13 1t-5 0q6 -37 23.5 -59.5t42.5 -22.5zM352 950v20q-2 78 76.5 152t158.5 89q21 1 33 -10t14.5 -36t-38.5 -33q-60 -10 -102 -56.5t-52 -67.5q109 3 158 -64.5t14.5 -122.5t-82.5 -57
q-145 -6 -174 149q-6 11 -6 24v13zM209 845q25 0 30 6t7.5 19t-4.5 27q-6 14 -14.5 19.5t-20 7.5t-23.5 2h-22t-13.5 1t-5.5 0q6 -37 23.5 -59.5t42.5 -22.5zM58 950l1 20q-2 78 76.5 152t158.5 89q21 1 33 -10t14.5 -36t-38.5 -33q-60 -10 -102 -56.5t-52 -67.5
q109 3 158 -64.5t14.5 -122.5t-82.5 -57q-145 -6 -174 149q-7 11 -7 24v13z" />
    <glyph glyph-name="A0147" unicode="&#x201c;" horiz-adv-x="684" 
d="M502 845q25 0 30 6t7.5 19t-4.5 27q-6 14 -14.5 19.5t-20 7.5t-24 2h-22.5t-13 1t-5 0q6 -37 23.5 -59.5t42.5 -22.5zM352 950v20q-2 78 76.5 152t158.5 89q21 1 33 -10t14.5 -36t-38.5 -33q-60 -10 -102 -56.5t-52 -67.5q109 3 158 -64.5t14.5 -122.5t-82.5 -57
q-145 -6 -174 149q-6 11 -6 24v13zM209 845q25 0 30 6t7.5 19t-4.5 27q-6 14 -14.5 19.5t-20 7.5t-23.5 2h-22t-13.5 1t-5.5 0q6 -37 23.5 -59.5t42.5 -22.5zM58 950l1 20q-2 78 76.5 152t158.5 89q21 1 33 -10t14.5 -36t-38.5 -33q-60 -10 -102 -56.5t-52 -67.5
q109 3 158 -64.5t14.5 -122.5t-82.5 -57q-145 -6 -174 149q-7 11 -7 24v13z" />
    <glyph glyph-name="A0148" horiz-adv-x="679" 
d="M480 1149q-25 0 -30 -6t-7.5 -19t4.5 -27q6 -14 14.5 -19.5t20 -7.5t24 -2h22.5t13 -1t5 0q-6 37 -23.5 59.5t-42.5 22.5zM630 1044v-20q2 -78 -76.5 -152t-158.5 -89q-21 -1 -33 10t-14.5 36t38.5 33q61 10 102 56.5t52 67.5q-109 -3 -158 64.5t-14.5 122.5t82.5 57
q145 4 174 -149q6 -11 6 -24v-13zM189 1149q-25 0 -30 -6t-7.5 -19t4.5 -27q6 -14 14.5 -19.5t20 -7.5t23.5 -2h22t13.5 -1t5.5 0q-6 37 -23.5 59.5t-42.5 22.5zM340 1044l-1 -20q2 -78 -76.5 -152t-158.5 -89q-21 -1 -33 10t-14.5 36t38.5 33q61 10 102 56.5t52 67.5
q-109 -3 -158 64.5t-14.5 122.5t82.5 57q145 4 174 -149q7 -11 7 -24v-13z" />
    <glyph glyph-name="A0148" unicode="&#x201d;" horiz-adv-x="679" 
d="M480 1149q-25 0 -30 -6t-7.5 -19t4.5 -27q6 -14 14.5 -19.5t20 -7.5t24 -2h22.5t13 -1t5 0q-6 37 -23.5 59.5t-42.5 22.5zM630 1044v-20q2 -78 -76.5 -152t-158.5 -89q-21 -1 -33 10t-14.5 36t38.5 33q61 10 102 56.5t52 67.5q-109 -3 -158 64.5t-14.5 122.5t82.5 57
q145 4 174 -149q6 -11 6 -24v-13zM189 1149q-25 0 -30 -6t-7.5 -19t4.5 -27q6 -14 14.5 -19.5t20 -7.5t23.5 -2h22t13.5 -1t5.5 0q-6 37 -23.5 59.5t-42.5 22.5zM340 1044l-1 -20q2 -78 -76.5 -152t-158.5 -89q-21 -1 -33 10t-14.5 36t38.5 33q61 10 102 56.5t52 67.5
q-109 -3 -158 64.5t-14.5 122.5t82.5 57q145 4 174 -149q7 -11 7 -24v-13z" />
    <glyph glyph-name="A0149" horiz-adv-x="702" 
d="M351 134q-106 0 -181 74t-75 181t75 182t181 75t181 -75t75 -181t-75 -181t-181 -75z" />
    <glyph glyph-name="A0149" unicode="&#x2022;" horiz-adv-x="702" 
d="M351 134q-106 0 -181 74t-75 181t75 182t181 75t181 -75t75 -181t-75 -181t-181 -75z" />
    <glyph glyph-name="A0150" horiz-adv-x="621" 
d="M88 450q-41 4 -40 29.5t12 37t32 12.5q386 5 438 14q35 -10 33.5 -41.5t-37.5 -37.5q-5 -1 -148.5 -7t-289.5 -7z" />
    <glyph glyph-name="A0150" unicode="&#x2013;" horiz-adv-x="621" 
d="M88 450q-41 4 -40 29.5t12 37t32 12.5q386 5 438 14q35 -10 33.5 -41.5t-37.5 -37.5q-5 -1 -148.5 -7t-289.5 -7z" />
    <glyph glyph-name="A0151" horiz-adv-x="932" 
d="M475 502h9q2 0 6 1q-2 -1 -6 -1h8t8 1h-10q146 8 169 13t169 6q35 -10 33.5 -41.5t-37.5 -37.5q4 -2 -235.5 -14.5t-479.5 -14.5q-41 4 -40 29.5t12 37t32 12.5q216 3 278 6t73 3h5h6z" />
    <glyph glyph-name="A0151" unicode="&#x2014;" horiz-adv-x="932" 
d="M475 502h9q2 0 6 1q-2 -1 -6 -1h8t8 1h-10q146 8 169 13t169 6q35 -10 33.5 -41.5t-37.5 -37.5q4 -2 -235.5 -14.5t-479.5 -14.5q-41 4 -40 29.5t12 37t32 12.5q216 3 278 6t73 3h5h6z" />
    <glyph glyph-name="A0152" 
d="M-401 1202q-13 65 -75 36l-4 -4q-4 -4 -12 -10q-8 -7 -7 -8l-6 -47q43 -9 85 17q12 8 19 16zM-580 1112q-33 33 -26 53q6 20 19 28q4 54 34 85q53 57 123 46q70 -10 101 -77t-19 -111q-51 -44 -128 -46q42 -52 122 -61t129 24q94 61 94 161q6 36 38 37t41 -33
q0 -141 -116 -224q-70 -50 -187 -43t-166 62q-48 56 -59 99z" />
    <glyph glyph-name="A0152" unicode="&#xf710;" 
d="M-401 1202q-13 65 -75 36l-4 -4q-4 -4 -12 -10q-8 -7 -7 -8l-6 -47q43 -9 85 17q12 8 19 16zM-580 1112q-33 33 -26 53q6 20 19 28q4 54 34 85q53 57 123 46q70 -10 101 -77t-19 -111q-51 -44 -128 -46q42 -52 122 -61t129 24q94 61 94 161q6 36 38 37t41 -33
q0 -141 -116 -224q-70 -50 -187 -43t-166 62q-48 56 -59 99z" />
    <glyph glyph-name="A0152" unicode="&#x2dc;" 
d="M-401 1202q-13 65 -75 36l-4 -4q-4 -4 -12 -10q-8 -7 -7 -8l-6 -47q43 -9 85 17q12 8 19 16zM-580 1112q-33 33 -26 53q6 20 19 28q4 54 34 85q53 57 123 46q70 -10 101 -77t-19 -111q-51 -44 -128 -46q42 -52 122 -61t129 24q94 61 94 161q6 36 38 37t41 -33
q0 -141 -116 -224q-70 -50 -187 -43t-166 62q-48 56 -59 99z" />
    <glyph glyph-name="A0153" 
d="M-255 1075h-35q-74 -1 -102 -13q-64 -28 6 -114q48 -61 138 -21q65 30 91 78q-26 6 -49 10q-20 11 -24 28t4 31q-14 1 -29 1zM-181 1152q26 -8 32 -28t-7 -36q80 -10 82 -76q1 -57 -63 -110q-65 -52 -118 -63q-52 -13 -74 -7t-43 10q-22 4 -38 17t-32 33t-30 45
q-29 59 -27 107q5 122 249 110q34 -2 69 -2z" />
    <glyph glyph-name="A0153" unicode="&#xf711;" 
d="M-255 1075h-35q-74 -1 -102 -13q-64 -28 6 -114q48 -61 138 -21q65 30 91 78q-26 6 -49 10q-20 11 -24 28t4 31q-14 1 -29 1zM-181 1152q26 -8 32 -28t-7 -36q80 -10 82 -76q1 -57 -63 -110q-65 -52 -118 -63q-52 -13 -74 -7t-43 10q-22 4 -38 17t-32 33t-30 45
q-29 59 -27 107q5 122 249 110q34 -2 69 -2z" />
    <glyph glyph-name="A0153" unicode="&#x2122;" 
d="M-255 1075h-35q-74 -1 -102 -13q-64 -28 6 -114q48 -61 138 -21q65 30 91 78q-26 6 -49 10q-20 11 -24 28t4 31q-14 1 -29 1zM-181 1152q26 -8 32 -28t-7 -36q80 -10 82 -76q1 -57 -63 -110q-65 -52 -118 -63q-52 -13 -74 -7t-43 10q-22 4 -38 17t-32 33t-30 45
q-29 59 -27 107q5 122 249 110q34 -2 69 -2z" />
    <glyph glyph-name="A0154" 
d="M-212 1257q0 -8 3 -17t70 7q-3 54 -27.5 58t-34.5 -6q-10 -11 -11 -12l-1 -14q1 -8 1 -16zM-427 1196v-18q60 119 125 23t81.5 -113.5t27.5 -15.5t16.5 8t9.5 14.5t6.5 18t5.5 17.5t8 34q-104 -23 -132.5 30.5t-3.5 118.5t71 73t80 -8q58 -27 69 -113q20 0 31.5 -11
t14 -35.5t-38.5 -32.5q-2 -1 -2.5 -0.5t-2.5 -0.5q-10 -125 -53 -159t-72 -36t-53.5 13.5t-44.5 39t-37.5 50.5t-34.5 48q-2 -5 -3.5 -8.5t-2.5 -7t-3.5 -7.5t-6.5 -16q-32 -81 -87 -91q-26 3 -40 28q-8 37 -7 76.5t0 79.5t-3 85.5t9 77.5t26 49t48 45t93 43.5t124 17
t129 -5.5t125 -9q35 -10 33.5 -41.5t-37.5 -37.5q-28 1 -68 5t-213 13.5t-183.5 -74.5t-7 -117.5t3.5 -49.5z" />
    <glyph glyph-name="A0154" unicode="&#xf712;" 
d="M-212 1257q0 -8 3 -17t70 7q-3 54 -27.5 58t-34.5 -6q-10 -11 -11 -12l-1 -14q1 -8 1 -16zM-427 1196v-18q60 119 125 23t81.5 -113.5t27.5 -15.5t16.5 8t9.5 14.5t6.5 18t5.5 17.5t8 34q-104 -23 -132.5 30.5t-3.5 118.5t71 73t80 -8q58 -27 69 -113q20 0 31.5 -11
t14 -35.5t-38.5 -32.5q-2 -1 -2.5 -0.5t-2.5 -0.5q-10 -125 -53 -159t-72 -36t-53.5 13.5t-44.5 39t-37.5 50.5t-34.5 48q-2 -5 -3.5 -8.5t-2.5 -7t-3.5 -7.5t-6.5 -16q-32 -81 -87 -91q-26 3 -40 28q-8 37 -7 76.5t0 79.5t-3 85.5t9 77.5t26 49t48 45t93 43.5t124 17
t129 -5.5t125 -9q35 -10 33.5 -41.5t-37.5 -37.5q-28 1 -68 5t-213 13.5t-183.5 -74.5t-7 -117.5t3.5 -49.5z" />
    <glyph glyph-name="A0154" unicode="&#x161;" 
d="M-212 1257q0 -8 3 -17t70 7q-3 54 -27.5 58t-34.5 -6q-10 -11 -11 -12l-1 -14q1 -8 1 -16zM-427 1196v-18q60 119 125 23t81.5 -113.5t27.5 -15.5t16.5 8t9.5 14.5t6.5 18t5.5 17.5t8 34q-104 -23 -132.5 30.5t-3.5 118.5t71 73t80 -8q58 -27 69 -113q20 0 31.5 -11
t14 -35.5t-38.5 -32.5q-2 -1 -2.5 -0.5t-2.5 -0.5q-10 -125 -53 -159t-72 -36t-53.5 13.5t-44.5 39t-37.5 50.5t-34.5 48q-2 -5 -3.5 -8.5t-2.5 -7t-3.5 -7.5t-6.5 -16q-32 -81 -87 -91q-26 3 -40 28q-8 37 -7 76.5t0 79.5t-3 85.5t9 77.5t26 49t48 45t93 43.5t124 17
t129 -5.5t125 -9q35 -10 33.5 -41.5t-37.5 -37.5q-28 1 -68 5t-213 13.5t-183.5 -74.5t-7 -117.5t3.5 -49.5z" />
    <glyph glyph-name="A0155" 
d="M-348 1209l6 247q6 36 37.5 37.5t41.5 -33.5q-2 -122 -6 -247q-1 -21 -12.5 -32t-37 -12t-29.5 40z" />
    <glyph glyph-name="A0155" unicode="&#xf713;" 
d="M-348 1209l6 247q6 36 37.5 37.5t41.5 -33.5q-2 -122 -6 -247q-1 -21 -12.5 -32t-37 -12t-29.5 40z" />
    <glyph glyph-name="A0155" unicode="&#x203a;" 
d="M-348 1209l6 247q6 36 37.5 37.5t41.5 -33.5q-2 -122 -6 -247q-1 -21 -12.5 -32t-37 -12t-29.5 40z" />
    <glyph glyph-name="A0156" 
d="M-559 1473q-15 0 -36 -9t-21 -34q1 -45 45.5 -28.5t52.5 54.5q2 2 3 4q-5 2 -9 4.5t-12 5.5t-23 3zM-537 1220q0 27 15.5 43.5t39.5 38t13 70.5q-2 -2 -4 -3.5t-11 -9.5q-28 -25 -81.5 -37t-82.5 9q-51 38 -48.5 101t48.5 91q130 76 195 -8t67 -165q3 -38 -18 -72
q64 17 127 36t129 27q21 1 33 -10t14.5 -36t-38.5 -33q-56 -6 -181 -41t-176 -42q-37 4 -41 41z" />
    <glyph glyph-name="A0156" unicode="&#xf714;" 
d="M-559 1473q-15 0 -36 -9t-21 -34q1 -45 45.5 -28.5t52.5 54.5q2 2 3 4q-5 2 -9 4.5t-12 5.5t-23 3zM-537 1220q0 27 15.5 43.5t39.5 38t13 70.5q-2 -2 -4 -3.5t-11 -9.5q-28 -25 -81.5 -37t-82.5 9q-51 38 -48.5 101t48.5 91q130 76 195 -8t67 -165q3 -38 -18 -72
q64 17 127 36t129 27q21 1 33 -10t14.5 -36t-38.5 -33q-56 -6 -181 -41t-176 -42q-37 4 -41 41z" />
    <glyph glyph-name="A0156" unicode="&#x153;" 
d="M-559 1473q-15 0 -36 -9t-21 -34q1 -45 45.5 -28.5t52.5 54.5q2 2 3 4q-5 2 -9 4.5t-12 5.5t-23 3zM-537 1220q0 27 15.5 43.5t39.5 38t13 70.5q-2 -2 -4 -3.5t-11 -9.5q-28 -25 -81.5 -37t-82.5 9q-51 38 -48.5 101t48.5 91q130 76 195 -8t67 -165q3 -38 -18 -72
q64 17 127 36t129 27q21 1 33 -10t14.5 -36t-38.5 -33q-56 -6 -181 -41t-176 -42q-37 4 -41 41z" />
    <glyph glyph-name="A0157" 
d="M-463 1346q-13 2 -27 -4q-14 -4 -24 -7q-12 -3 -25 -8q1 -7 5 -13t8 -16q4 -8 12 -16l17 -17q9 -1 19 -1t14 1q6 1 12 4l10 5q7 48 -1 59q-7 11 -20 13zM-559 1404q149 60 192 -46q31 -73 -15 -134q-30 -40 -105 -43t-119 101q-21 -4 -35 14q-15 18 -7 38q8 19 17 28
q-16 65 -13 99q2 35 4 59t10 68t27 60q21 17 53 24t48 -2l40 -32t34 -34t28 -38q13 -20 30 -38q9 11 28 43q20 32 30 47q20 21 49 17q29 -5 40 -21t17 -46t9 -62q2 -32 1 -63t-2 -52q-2 -21 -2 -41t-4 -42q34 7 109 46q157 83 187 89q36 -4 40 -35t-31 -45q-36 -4 -125 -49
t-145 -69t-78 -17q-23 6 -31 14t-10 19q-4 12 -2 23q2 10 3 22q3 12 5 23q21 91 1 193q-62 -116 -116 -74q-26 20 -50 53q-25 33 -38 47t-25 25l-24 20l-7 -2q-34 -89 -18 -187z" />
    <glyph glyph-name="A0157" unicode="&#xf715;" 
d="M-463 1346q-13 2 -27 -4q-14 -4 -24 -7q-12 -3 -25 -8q1 -7 5 -13t8 -16q4 -8 12 -16l17 -17q9 -1 19 -1t14 1q6 1 12 4l10 5q7 48 -1 59q-7 11 -20 13zM-559 1404q149 60 192 -46q31 -73 -15 -134q-30 -40 -105 -43t-119 101q-21 -4 -35 14q-15 18 -7 38q8 19 17 28
q-16 65 -13 99q2 35 4 59t10 68t27 60q21 17 53 24t48 -2l40 -32t34 -34t28 -38q13 -20 30 -38q9 11 28 43q20 32 30 47q20 21 49 17q29 -5 40 -21t17 -46t9 -62q2 -32 1 -63t-2 -52q-2 -21 -2 -41t-4 -42q34 7 109 46q157 83 187 89q36 -4 40 -35t-31 -45q-36 -4 -125 -49
t-145 -69t-78 -17q-23 6 -31 14t-10 19q-4 12 -2 23q2 10 3 22q3 12 5 23q21 91 1 193q-62 -116 -116 -74q-26 20 -50 53q-25 33 -38 47t-25 25l-24 20l-7 -2q-34 -89 -18 -187z" />
    <glyph glyph-name="A0158" 
d="M-327 1450q0 28 -1 57q6 36 37.5 37.5t41.5 -33.5q1 -30 1.5 -59.5t1.5 -58.5h157q35 -10 33.5 -41.5t-37.5 -37.5h-151q2 -68 2 -112q-1 -65 -38 -66.5t-41 39.5q0 69 -2 139h-144q-41 4 -40 29.5t12 37t32 12.5h137q-1 29 -1 57z" />
    <glyph glyph-name="A0158" unicode="&#xf716;" 
d="M-327 1450q0 28 -1 57q6 36 37.5 37.5t41.5 -33.5q1 -30 1.5 -59.5t1.5 -58.5h157q35 -10 33.5 -41.5t-37.5 -37.5h-151q2 -68 2 -112q-1 -65 -38 -66.5t-41 39.5q0 69 -2 139h-144q-41 4 -40 29.5t12 37t32 12.5h137q-1 29 -1 57z" />
    <glyph glyph-name="A0158" unicode="&#x17e;" 
d="M-327 1450q0 28 -1 57q6 36 37.5 37.5t41.5 -33.5q1 -30 1.5 -59.5t1.5 -58.5h157q35 -10 33.5 -41.5t-37.5 -37.5h-151q2 -68 2 -112q-1 -65 -38 -66.5t-41 39.5q0 69 -2 139h-144q-41 4 -40 29.5t12 37t32 12.5h137q-1 29 -1 57z" />
    <glyph glyph-name="A0159" 
d="M-186 1308q16 26 10 42t-24 20q-47 13 -79 -19q16 -23 43 -35t50 -8zM-370 1354l-5 42q0 43 22 72q22 28 40 54t63 40t97 16q52 3 102 0t83 -4q35 -10 33 -41q-1 -32 -37 -38q-25 1 -66 4q-186 14 -228 -47q-4 -5 -7 -10q128 44 165 -60q10 -28 10 -58q0 -88 -78 -96
q-14 -2 -40 -4q-26 -3 -62 24t-55 49q-17 1 -30 15t-10 27t3 15z" />
    <glyph glyph-name="A0159" unicode="&#xf717;" 
d="M-186 1308q16 26 10 42t-24 20q-47 13 -79 -19q16 -23 43 -35t50 -8zM-370 1354l-5 42q0 43 22 72q22 28 40 54t63 40t97 16q52 3 102 0t83 -4q35 -10 33 -41q-1 -32 -37 -38q-25 1 -66 4q-186 14 -228 -47q-4 -5 -7 -10q128 44 165 -60q10 -28 10 -58q0 -88 -78 -96
q-14 -2 -40 -4q-26 -3 -62 24t-55 49q-17 1 -30 15t-10 27t3 15z" />
    <glyph glyph-name="A0159" unicode="&#x178;" 
d="M-186 1308q16 26 10 42t-24 20q-47 13 -79 -19q16 -23 43 -35t50 -8zM-370 1354l-5 42q0 43 22 72q22 28 40 54t63 40t97 16q52 3 102 0t83 -4q35 -10 33 -41q-1 -32 -37 -38q-25 1 -66 4q-186 14 -228 -47q-4 -5 -7 -10q128 44 165 -60q10 -28 10 -58q0 -88 -78 -96
q-14 -2 -40 -4q-26 -3 -62 24t-55 49q-17 1 -30 15t-10 27t3 15z" />
    <glyph glyph-name="def___Copyright__C__2005_http___webnaipol.atspace.com_All_Rights_Reserved." unicode="&#xa0;" horiz-adv-x="772" 
 />
    <glyph glyph-name="def___Copyright__C__2005_http___webnaipol.atspace.com_All_Rights_Reserved." unicode="&#xe00;" horiz-adv-x="772" 
 />
    <glyph glyph-name="kokai" unicode="&#xa1;" horiz-adv-x="642" 
d="M148 508q-11 0 -25.5 -0.5t-32.5 6.5q-37 14 -34 70q3 100 194 192q72 35 189.5 -27t132.5 -202t15 -230l-8 -272q-1 -21 -12.5 -32t-37 -12t-29.5 40q1 45 5.5 107t6 180t-35 232.5t-142.5 145.5l-30 3q-145 -55 -165 -122q60 1 79 -19t26.5 -48.5t10 -65t2 -78
t-3 -79.5t-5 -69.5t-3.5 -49.5t1.5 -74t-21.5 -86t-53.5 -10.5t-11.5 54.5v2q5 83 8.5 171t6.5 148t-1 79t-5.5 27t-3.5 16q-6 3 -17 3z" />
    <glyph glyph-name="kokai" unicode="&#xe01;" horiz-adv-x="642" 
d="M148 508q-11 0 -25.5 -0.5t-32.5 6.5q-37 14 -34 70q3 100 194 192q72 35 189.5 -27t132.5 -202t15 -230l-8 -272q-1 -21 -12.5 -32t-37 -12t-29.5 40q1 45 5.5 107t6 180t-35 232.5t-142.5 145.5l-30 3q-145 -55 -165 -122q60 1 79 -19t26.5 -48.5t10 -65t2 -78
t-3 -79.5t-5 -69.5t-3.5 -49.5t1.5 -74t-21.5 -86t-53.5 -10.5t-11.5 54.5v2q5 83 8.5 171t6.5 148t-1 79t-5.5 27t-3.5 16q-6 3 -17 3z" />
    <glyph glyph-name="khokhai" unicode="&#xa2;" horiz-adv-x="532" 
d="M252 585l1 6q4 7 12 14q-4 43 -21 66q-29 42 -68 17.5t-32 -75.5q6 -51 51.5 -46.5t50 10.5t6.5 8zM267.5 133q-2.5 25 -6.5 57t-4.5 71.5t1 80t3.5 80t3 74.5q-53 -22 -112 -4.5t-76 67.5q-33 104 15 162q9 10 18 20.5t27 20.5q42 24 100.5 6.5t80.5 -60.5
q21 -43 26.5 -89.5t5 -98.5t-13 -187t19.5 -219q51 136 36 355t-16 262q6 36 37.5 37.5t41.5 -33.5q2 -62 6 -132t8.5 -192.5t-5.5 -181.5q-19 -115 -36.5 -166t-55.5 -53q-15 0 -37 12t-36.5 29t-21 37t-9 45z" />
    <glyph glyph-name="khokhai" unicode="&#xe02;" horiz-adv-x="532" 
d="M252 585l1 6q4 7 12 14q-4 43 -21 66q-29 42 -68 17.5t-32 -75.5q6 -51 51.5 -46.5t50 10.5t6.5 8zM267.5 133q-2.5 25 -6.5 57t-4.5 71.5t1 80t3.5 80t3 74.5q-53 -22 -112 -4.5t-76 67.5q-33 104 15 162q9 10 18 20.5t27 20.5q42 24 100.5 6.5t80.5 -60.5
q21 -43 26.5 -89.5t5 -98.5t-13 -187t19.5 -219q51 136 36 355t-16 262q6 36 37.5 37.5t41.5 -33.5q2 -62 6 -132t8.5 -192.5t-5.5 -181.5q-19 -115 -36.5 -166t-55.5 -53q-15 0 -37 12t-36.5 29t-21 37t-9 45z" />
    <glyph glyph-name="khokhuat" unicode="&#xa3;" horiz-adv-x="661" 
d="M222 496q-19 -2 -63 -37q11 -26 27 -42t28 -9t22.5 38t-14.5 50zM555 342v-169q0 -169 -81.5 -182t-103.5 38.5t-34 84.5t-10.5 83.5t3.5 92.5t3.5 65.5t2.5 45.5t2 46.5t3 52.5t1.5 53t0.5 37t1 15t1 8q-8 -4 -15.5 -7.5t-21.5 -10.5t-25.5 -7.5t-21 5.5t-24 24
t-70.5 65q-24 -67 -24 -134q47 36 84 32q37 -5 54 -22t26 -41.5t9 -53.5t-13 -73t-56 -60q-42 -17 -108.5 22.5t-71 150t7.5 150.5t21 76.5t35 51.5q26 10 54 -10t56 -48.5t59 -54.5q7 4 9.5 7.5t7 9t25.5 14.5q20 8 40 4t30 -19t13 -38t2 -48t-3.5 -49.5t-4.5 -65.5
t-4 -105.5t-4 -112.5t-3.5 -69.5t0.5 -49t35 -76.5q40 66 36.5 133t-3.5 105q0 79 10 224t11 205q6 36 37.5 37.5t41.5 -33.5q-5 -191 -13 -294q-7 -104 -7 -105z" />
    <glyph glyph-name="khokhuat" unicode="&#xe03;" horiz-adv-x="661" 
d="M222 496q-19 -2 -63 -37q11 -26 27 -42t28 -9t22.5 38t-14.5 50zM555 342v-169q0 -169 -81.5 -182t-103.5 38.5t-34 84.5t-10.5 83.5t3.5 92.5t3.5 65.5t2.5 45.5t2 46.5t3 52.5t1.5 53t0.5 37t1 15t1 8q-8 -4 -15.5 -7.5t-21.5 -10.5t-25.5 -7.5t-21 5.5t-24 24
t-70.5 65q-24 -67 -24 -134q47 36 84 32q37 -5 54 -22t26 -41.5t9 -53.5t-13 -73t-56 -60q-42 -17 -108.5 22.5t-71 150t7.5 150.5t21 76.5t35 51.5q26 10 54 -10t56 -48.5t59 -54.5q7 4 9.5 7.5t7 9t25.5 14.5q20 8 40 4t30 -19t13 -38t2 -48t-3.5 -49.5t-4.5 -65.5
t-4 -105.5t-4 -112.5t-3.5 -69.5t0.5 -49t35 -76.5q40 66 36.5 133t-3.5 105q0 79 10 224t11 205q6 36 37.5 37.5t41.5 -33.5q-5 -191 -13 -294q-7 -104 -7 -105z" />
    <glyph glyph-name="khokhwai" unicode="&#xa4;" horiz-adv-x="648" 
d="M364 382.5q-14 6.5 -40 -11.5t-48 -51q2 -4 4 -7.5t4 -10.5q5 -16 54 -25.5t58 18.5t-4.5 54.5t-27.5 33zM165 264q75 214 201 201q43 -5 71 -37t37 -73q-19 204 -70 306q-6 13 -16.5 22t-19.5 20q-10 2 -19.5 4.5t-28.5 -3.5q-42 -12 -75.5 -59t-56.5 -127t-23 -254z
M87 74v85q-7 492 137 580q22 14 43 28.5t55 20.5t66.5 -6t104.5 -93t72 -652q-1 -21 -12.5 -32t-37 -12t-29.5 40q0 143 -8 271q-4 -59 -48 -97t-107.5 -12.5t-83.5 42.5q-13 -48 -21 -91q-12 -72 -23.5 -100t-42.5 -44q-35 -5 -53 26q-12 43 -12 46z" />
    <glyph glyph-name="khokhwai" unicode="&#xe04;" horiz-adv-x="648" 
d="M364 382.5q-14 6.5 -40 -11.5t-48 -51q2 -4 4 -7.5t4 -10.5q5 -16 54 -25.5t58 18.5t-4.5 54.5t-27.5 33zM165 264q75 214 201 201q43 -5 71 -37t37 -73q-19 204 -70 306q-6 13 -16.5 22t-19.5 20q-10 2 -19.5 4.5t-28.5 -3.5q-42 -12 -75.5 -59t-56.5 -127t-23 -254z
M87 74v85q-7 492 137 580q22 14 43 28.5t55 20.5t66.5 -6t104.5 -93t72 -652q-1 -21 -12.5 -32t-37 -12t-29.5 40q0 143 -8 271q-4 -59 -48 -97t-107.5 -12.5t-83.5 42.5q-13 -48 -21 -91q-12 -72 -23.5 -100t-42.5 -44q-35 -5 -53 26q-12 43 -12 46z" />
    <glyph glyph-name="khokhon" unicode="&#xa5;" horiz-adv-x="669" 
d="M203 328q85 -34 99.5 -29.5t25.5 6.5q25 34 -1 82.5t-66 30.5q-39 -19 -58 -90zM191 245q-8 -87 -16 -195v-4h-1v-12q-12 -33 -42.5 -31t-36.5 37v3q0 83 -13.5 289.5t38.5 375.5q11 32 52 54q122 73 154.5 7.5t37.5 -85.5q94 98 181.5 74.5t59 -324t-30.5 -320.5v-2
l-2 -17l-1 -58q-1 -21 -12.5 -32t-37 -12t-29.5 40q2 84 9 165t13.5 212.5t-25.5 272.5q-49 -21 -104 -99q-1 -2 -1 -4v-6q0 -36 -30 -42t-48 25q-4 17 -9 78t-42 78h-7q-6 -4 -8 -5l-33 -18q-4 -4 -10 -8q-44 -86 -39 -255q10 13 18 19t39.5 41t95.5 12t94 -86t10.5 -119
t-57 -65.5t-72.5 -10.5q-35 -2 -95 27z" />
    <glyph glyph-name="khokhon" unicode="&#xe05;" horiz-adv-x="669" 
d="M203 328q85 -34 99.5 -29.5t25.5 6.5q25 34 -1 82.5t-66 30.5q-39 -19 -58 -90zM191 245q-8 -87 -16 -195v-4h-1v-12q-12 -33 -42.5 -31t-36.5 37v3q0 83 -13.5 289.5t38.5 375.5q11 32 52 54q122 73 154.5 7.5t37.5 -85.5q94 98 181.5 74.5t59 -324t-30.5 -320.5v-2
l-2 -17l-1 -58q-1 -21 -12.5 -32t-37 -12t-29.5 40q2 84 9 165t13.5 212.5t-25.5 272.5q-49 -21 -104 -99q-1 -2 -1 -4v-6q0 -36 -30 -42t-48 25q-4 17 -9 78t-42 78h-7q-6 -4 -8 -5l-33 -18q-4 -4 -10 -8q-44 -86 -39 -255q10 13 18 19t39.5 41t95.5 12t94 -86t10.5 -119
t-57 -65.5t-72.5 -10.5q-35 -2 -95 27z" />
    <glyph glyph-name="khorakang" unicode="&#xa6;" horiz-adv-x="789" 
d="M349 78q0 -2 2 -2zM190 678q-14 -32 -22 -57q49 11 82 -3q-17 11 -31.5 28t-28.5 32zM341 88.5q1 0.5 7 2.5q43 13 68 85q-112 77 -114.5 26t16.5 -81l21 -31q1 -2 2 -1.5zM155 516q0 -6 -2 -12q8 -47 29.5 -72.5t35.5 -31t22 10.5q17 33 18 68.5t-20 53.5q-40 34 -85 -6
q2 -5 2 -11zM314 297q24 0 41 -2t38 -14q22 -13 29 -16.5t14 -7.5q36 211 16.5 287t-37.5 95q-25 28 -56 18t-48 -32q-18 -22 -42 -16q70 -41 66.5 -148t-70.5 -133q-64 -24 -119.5 27t-64 92.5t-10.5 49.5q-16 24 -1 53q7 104 82 216q28 24 52 6t39.5 -34.5t31.5 -32.5
q48 46 126 30t98 -74q38 -106 36 -214.5t-16 -171.5q-14 -62 -14 -66q67 -54 92 -80q6 96 28 284.5t25 310.5q6 36 37.5 37.5t41.5 -33.5q-4 -134 -20.5 -265t-23.5 -209t-8.5 -101t-2.5 -39t2 -57.5t-18 -53.5q-20 -12 -41 -11q-23 12 -37 33t-31 40q-11 10 -29 26.5
t-40 34.5q-43 -103 -142 -122q-36 -7 -58 28t-34 52q-31 45 -24 111t59 96q9 6 33 6z" />
    <glyph glyph-name="khorakang" unicode="&#xe06;" horiz-adv-x="789" 
d="M349 78q0 -2 2 -2zM190 678q-14 -32 -22 -57q49 11 82 -3q-17 11 -31.5 28t-28.5 32zM341 88.5q1 0.5 7 2.5q43 13 68 85q-112 77 -114.5 26t16.5 -81l21 -31q1 -2 2 -1.5zM155 516q0 -6 -2 -12q8 -47 29.5 -72.5t35.5 -31t22 10.5q17 33 18 68.5t-20 53.5q-40 34 -85 -6
q2 -5 2 -11zM314 297q24 0 41 -2t38 -14q22 -13 29 -16.5t14 -7.5q36 211 16.5 287t-37.5 95q-25 28 -56 18t-48 -32q-18 -22 -42 -16q70 -41 66.5 -148t-70.5 -133q-64 -24 -119.5 27t-64 92.5t-10.5 49.5q-16 24 -1 53q7 104 82 216q28 24 52 6t39.5 -34.5t31.5 -32.5
q48 46 126 30t98 -74q38 -106 36 -214.5t-16 -171.5q-14 -62 -14 -66q67 -54 92 -80q6 96 28 284.5t25 310.5q6 36 37.5 37.5t41.5 -33.5q-4 -134 -20.5 -265t-23.5 -209t-8.5 -101t-2.5 -39t2 -57.5t-18 -53.5q-20 -12 -41 -11q-23 12 -37 33t-31 40q-11 10 -29 26.5
t-40 34.5q-43 -103 -142 -122q-36 -7 -58 28t-34 52q-31 45 -24 111t59 96q9 6 33 6z" />
    <glyph glyph-name="ngo_ngu" unicode="&#xa7;" horiz-adv-x="511" 
d="M352 573q-11 91 -35 116q-25 26 -42.5 25.5t-41 -20t-21 -70.5t57 -68t61.5 -4t21 21zM435 510v-41q0 -158 -5 -216t-6.5 -88.5t-11 -72t-54.5 -84.5q-24 -15 -49 -2q-123 123 -179.5 208.5t-62.5 101.5q-4 36 24.5 48t50.5 -19q19 -52 95.5 -143t90.5 -104q22 63 22 112
t5.5 120t3.5 145q-63 -25 -121.5 6.5t-75.5 53.5q-35 52 -29.5 127t54.5 102t73 27.5t48 -1.5q48 -3 84 -69t39.5 -138t3.5 -73z" />
    <glyph glyph-name="ngo_ngu" unicode="&#xe07;" horiz-adv-x="511" 
d="M352 573q-11 91 -35 116q-25 26 -42.5 25.5t-41 -20t-21 -70.5t57 -68t61.5 -4t21 21zM435 510v-41q0 -158 -5 -216t-6.5 -88.5t-11 -72t-54.5 -84.5q-24 -15 -49 -2q-123 123 -179.5 208.5t-62.5 101.5q-4 36 24.5 48t50.5 -19q19 -52 95.5 -143t90.5 -104q22 63 22 112
t5.5 120t3.5 145q-63 -25 -121.5 6.5t-75.5 53.5q-35 52 -29.5 127t54.5 102t73 27.5t48 -1.5q48 -3 84 -69t39.5 -138t3.5 -73z" />
    <glyph glyph-name="chochan" unicode="&#xa8;" horiz-adv-x="588" 
d="M312 354l2 5q-20 47 -35 62q-28 28 -70 38q-43 9 -57 -26t0 -65t42 -43q28 -14 60 -9q34 5 58 38zM423 278q1 4 3 26t6 60t8 97q3 60 -10 103q-25 80 -50 113q-24 33 -60 31q-36 -1 -60 -2q-24 -2 -44 -14q-23 -14 -43 -39q-20 -26 -33 -33q-32 -6 -48 18q-15 24 7 48
q21 30 43 46t40 31q19 15 96 23t108 -10q30 -20 46 -38q103 -116 83 -340q-4 -44 -9 -88t-7 -88q-3 -44 -7 -74t-7 -42q-13 -54 -14 -78q-13 -34 -43 -30q-31 4 -36 37v3q0 30 -10 59t-17 53q-5 24 -11 56t-13 64q-67 -50 -133 -36q-16 4 -34 8q-28 6 -67 53q-39 48 -39 95
q-1 48 12 82q26 68 112 67q87 -1 133 -50q46 -48 66 -104t31 -114q1 3 1 7z" />
    <glyph glyph-name="chochan" unicode="&#xe08;" horiz-adv-x="588" 
d="M312 354l2 5q-20 47 -35 62q-28 28 -70 38q-43 9 -57 -26t0 -65t42 -43q28 -14 60 -9q34 5 58 38zM423 278q1 4 3 26t6 60t8 97q3 60 -10 103q-25 80 -50 113q-24 33 -60 31q-36 -1 -60 -2q-24 -2 -44 -14q-23 -14 -43 -39q-20 -26 -33 -33q-32 -6 -48 18q-15 24 7 48
q21 30 43 46t40 31q19 15 96 23t108 -10q30 -20 46 -38q103 -116 83 -340q-4 -44 -9 -88t-7 -88q-3 -44 -7 -74t-7 -42q-13 -54 -14 -78q-13 -34 -43 -30q-31 4 -36 37v3q0 30 -10 59t-17 53q-5 24 -11 56t-13 64q-67 -50 -133 -36q-16 4 -34 8q-28 6 -67 53q-39 48 -39 95
q-1 48 12 82q26 68 112 67q87 -1 133 -50q46 -48 66 -104t31 -114q1 3 1 7z" />
    <glyph glyph-name="choching" unicode="&#xa9;" horiz-adv-x="728" 
d="M628 80q22 22 14 37q-28 9 -75 -2q20 -42 61 -35zM152.5 325q13.5 -10 29.5 -8t38 15t42 13q7 3 15 3q-16 90 -85 87q-47 -2 -60 -19t-11.5 -34t10 -32t22 -25zM553 204q0 -4 1 -9q110 25 150.5 -26t7 -112.5t-113.5 -57.5t-108 93q-38 -14 -112 -46t-101 -31t-42 27
q-6 31 45 201q3 18 3 25q-4 -2 -14 -2q-54 -23 -71 -28q-32 -8 -76.5 12t-74 97.5t26.5 122.5q13 11 23 20.5t51 18.5t134.5 -13.5t80.5 -230.5q-2 -40 -13.5 -77t-21.5 -76q115 48 147 59q-7 65 -2.5 143t5.5 104t2.5 44t1.5 46q3 149 -92 184t-147.5 -7t-56.5 -64.5
t-8 -37.5t-18.5 -21.5t-28 -2.5t-22.5 17.5t-5 29.5t6 29t10 36t50 54q96 70 205 56t161 -126q30 -63 26.5 -169t-7.5 -166t-3 -86t1 -30z" />
    <glyph glyph-name="choching" unicode="&#xe09;" horiz-adv-x="728" 
d="M628 80q22 22 14 37q-28 9 -75 -2q20 -42 61 -35zM152.5 325q13.5 -10 29.5 -8t38 15t42 13q7 3 15 3q-16 90 -85 87q-47 -2 -60 -19t-11.5 -34t10 -32t22 -25zM553 204q0 -4 1 -9q110 25 150.5 -26t7 -112.5t-113.5 -57.5t-108 93q-38 -14 -112 -46t-101 -31t-42 27
q-6 31 45 201q3 18 3 25q-4 -2 -14 -2q-54 -23 -71 -28q-32 -8 -76.5 12t-74 97.5t26.5 122.5q13 11 23 20.5t51 18.5t134.5 -13.5t80.5 -230.5q-2 -40 -13.5 -77t-21.5 -76q115 48 147 59q-7 65 -2.5 143t5.5 104t2.5 44t1.5 46q3 149 -92 184t-147.5 -7t-56.5 -64.5
t-8 -37.5t-18.5 -21.5t-28 -2.5t-22.5 17.5t-5 29.5t6 29t10 36t50 54q96 70 205 56t161 -126q30 -63 26.5 -169t-7.5 -166t-3 -86t1 -30z" />
    <glyph glyph-name="chochang" unicode="&#xaa;" horiz-adv-x="599" 
d="M251 614v3q-2 11 -2.5 22t-6.5 27q-12 35 -46.5 37t-70.5 -17q1 -13 -6 -41t2.5 -46.5t20.5 -33.5q69 0 97 13q3 19 13 30q-1 2 -1 6zM360 76q18 61 10 285q0 21 -6 42q-20 10 -28 18q-8 3 -15 9l-1 -21q-3 -42 -10 -136.5t20 -186.5q20 -8 30 -10zM141.5 484
q-54.5 0 -71 28t-24.5 57t-12 41t-2.5 26t6 28.5t10.5 28.5t11 26q15 38 78 62.5t119 -16t63 -74t9 -41.5q25 -12 20 -51q-4 -39 -32 -67v-8q0 -9 1 -15q16 17 58.5 44t59.5 47q34 38 43.5 85t9.5 110q6 36 37.5 37.5t41.5 -33.5q0 -219 -69.5 -261.5t-90.5 -58.5
q35 -26 42 -94q18 -185 -0.5 -276.5t-36 -107.5t-33.5 -15t-26 5.5t-41 16.5t-45 29q-15 16 -23 45.5t-11 65t-2.5 74.5t2.5 76t6 90t-1 108q-42 -12 -96.5 -12z" />
    <glyph glyph-name="chochang" unicode="&#xe0a;" horiz-adv-x="599" 
d="M251 614v3q-2 11 -2.5 22t-6.5 27q-12 35 -46.5 37t-70.5 -17q1 -13 -6 -41t2.5 -46.5t20.5 -33.5q69 0 97 13q3 19 13 30q-1 2 -1 6zM360 76q18 61 10 285q0 21 -6 42q-20 10 -28 18q-8 3 -15 9l-1 -21q-3 -42 -10 -136.5t20 -186.5q20 -8 30 -10zM141.5 484
q-54.5 0 -71 28t-24.5 57t-12 41t-2.5 26t6 28.5t10.5 28.5t11 26q15 38 78 62.5t119 -16t63 -74t9 -41.5q25 -12 20 -51q-4 -39 -32 -67v-8q0 -9 1 -15q16 17 58.5 44t59.5 47q34 38 43.5 85t9.5 110q6 36 37.5 37.5t41.5 -33.5q0 -219 -69.5 -261.5t-90.5 -58.5
q35 -26 42 -94q18 -185 -0.5 -276.5t-36 -107.5t-33.5 -15t-26 5.5t-41 16.5t-45 29q-15 16 -23 45.5t-11 65t-2.5 74.5t2.5 76t6 90t-1 108q-42 -12 -96.5 -12z" />
    <glyph glyph-name="soso" unicode="&#xab;" horiz-adv-x="648" 
d="M575 773q1 1 -1 1zM143 680q47 6 91 -11q-4 8 -7 16.5t-10 18.5t-33 4.5t-41 -28.5zM123 581q0 -96 29.5 -94.5t41 5.5t21.5 7q27 66 -3 93q-12 12 -47.5 10t-41.5 -21zM508 286.5q0 22.5 -6.5 67t-32 80t-39.5 54.5l-4 -264q0 -16 -6.5 -65t9.5 -79q7 0 13 -2t18 2
q25 8 36.5 62t11.5 88v56.5zM617 791q0 -105 -136 -235q23 -30 39 -52q73 -103 71.5 -250.5t-47 -201t-90.5 -53.5t-71.5 17.5t-34.5 48t-4.5 70.5t3.5 85l4 312q0 41 2.5 81t-2.5 80q-10 -5 -18.5 -13t-23 -21.5t-33.5 -15.5h-2q30 -30 36.5 -120.5t-110.5 -109.5
q-2 0 -8.5 -1.5t-30.5 -5.5t-53 17q-30 21 -43.5 49t-21 79.5t14 122t66.5 96.5t90.5 19t70.5 -43q55 37 94 32t47 -54q9 -49 7 -97q18 20 61.5 67t43.5 96q-14 19 -4 40t40 23q25 -2 36.5 -20t6.5 -42z" />
    <glyph glyph-name="soso" unicode="&#xe0b;" horiz-adv-x="648" 
d="M575 773q1 1 -1 1zM143 680q47 6 91 -11q-4 8 -7 16.5t-10 18.5t-33 4.5t-41 -28.5zM123 581q0 -96 29.5 -94.5t41 5.5t21.5 7q27 66 -3 93q-12 12 -47.5 10t-41.5 -21zM508 286.5q0 22.5 -6.5 67t-32 80t-39.5 54.5l-4 -264q0 -16 -6.5 -65t9.5 -79q7 0 13 -2t18 2
q25 8 36.5 62t11.5 88v56.5zM617 791q0 -105 -136 -235q23 -30 39 -52q73 -103 71.5 -250.5t-47 -201t-90.5 -53.5t-71.5 17.5t-34.5 48t-4.5 70.5t3.5 85l4 312q0 41 2.5 81t-2.5 80q-10 -5 -18.5 -13t-23 -21.5t-33.5 -15.5h-2q30 -30 36.5 -120.5t-110.5 -109.5
q-2 0 -8.5 -1.5t-30.5 -5.5t-53 17q-30 21 -43.5 49t-21 79.5t14 122t66.5 96.5t90.5 19t70.5 -43q55 37 94 32t47 -54q9 -49 7 -97q18 20 61.5 67t43.5 96q-14 19 -4 40t40 23q25 -2 36.5 -20t6.5 -42z" />
    <glyph glyph-name="cho_cher" unicode="&#xac;" horiz-adv-x="922" 
d="M302 152q-9 13 -27 37t-79 3q5 -70 45 -102q19 -15 46.5 -9.5t25.5 32.5q-2 26 -11 39zM543 124q21 18 27 106q-48 58 -109 67q-10 -34 18.5 -100.5t63.5 -72.5zM836 548q0 -3 -1 -63t-1 -111.5t-2 -95.5t-2.5 -71t-2.5 -49t-2.5 -39.5t-3.5 -44.5t-15 -42t-34.5 -13.5
t-63 39.5t-54.5 57.5t-17 23.5q-14 -56 -43.5 -80t-81.5 -12q-51 11 -93 89t-41 131t16.5 78.5t35.5 29.5q57 11 85 -5t41 -23l18 -12q5 238 -107 319q-74 50 -180 32t-144 -96q29 -8 38 -9q38 -4 73 -22t30 -54t-21.5 -68.5t-24.5 -54.5t-18.5 -45.5t-16.5 -62.5
q99 17 138.5 -33t48 -103.5t-8.5 -78.5q-74 -106 -156 -51.5t-89.5 86.5t-11.5 42t-6 18q-34 10 -27 40q7 31 24 45q9 86 41.5 158.5t43.5 99.5q-18 -1 -30 3q1 0 17 1l-1 1h-16q-11 2 -60.5 10t-51.5 67q-2 60 108.5 144.5t221.5 48.5t160 -84q77 -75 95.5 -191.5
t8.5 -240.5q25 -30 47.5 -61t47.5 -60q10 155 10 585q6 36 37.5 37.5t41.5 -33.5v-176z" />
    <glyph glyph-name="cho_cher" unicode="&#xe0c;" horiz-adv-x="922" 
d="M302 152q-9 13 -27 37t-79 3q5 -70 45 -102q19 -15 46.5 -9.5t25.5 32.5q-2 26 -11 39zM543 124q21 18 27 106q-48 58 -109 67q-10 -34 18.5 -100.5t63.5 -72.5zM836 548q0 -3 -1 -63t-1 -111.5t-2 -95.5t-2.5 -71t-2.5 -49t-2.5 -39.5t-3.5 -44.5t-15 -42t-34.5 -13.5
t-63 39.5t-54.5 57.5t-17 23.5q-14 -56 -43.5 -80t-81.5 -12q-51 11 -93 89t-41 131t16.5 78.5t35.5 29.5q57 11 85 -5t41 -23l18 -12q5 238 -107 319q-74 50 -180 32t-144 -96q29 -8 38 -9q38 -4 73 -22t30 -54t-21.5 -68.5t-24.5 -54.5t-18.5 -45.5t-16.5 -62.5
q99 17 138.5 -33t48 -103.5t-8.5 -78.5q-74 -106 -156 -51.5t-89.5 86.5t-11.5 42t-6 18q-34 10 -27 40q7 31 24 45q9 86 41.5 158.5t43.5 99.5q-18 -1 -30 3q1 0 17 1l-1 1h-16q-11 2 -60.5 10t-51.5 67q-2 60 108.5 144.5t221.5 48.5t160 -84q77 -75 95.5 -191.5
t8.5 -240.5q25 -30 47.5 -61t47.5 -60q10 155 10 585q6 36 37.5 37.5t41.5 -33.5v-176z" />
    <glyph glyph-name="yoying" unicode="&#xad;" horiz-adv-x="897" 
d="M479 -137.5q0 -17.5 11 -34.5v-1q8 4 22 4q32 0 44.5 7.5t11.5 35.5t-22 34t-36 1t-23 -17t-8 -29.5zM210 212q-11 -103 38 -142q26 -20 74.5 25.5t6.5 95.5t-119 21zM557.5 -14.5q37.5 -7.5 66.5 -36.5t23 -76q-7 -47 -23 -75q71 18 75.5 49t7.5 51t16 29t27 7.5t25 -13
t9 -37.5q-12 -151 -130.5 -166t-189.5 29t-67 134q2 42 27.5 68t60.5 35t72.5 1.5zM134 581q-34 0 -53 60q-18 60 119.5 145.5t260 -48.5t114 -282.5t-20.5 -220.5t-5 -102q115 -16 152 -3q20 66 26 182.5t6 410.5q6 36 37.5 37.5t41.5 -33.5q0 -381 -9.5 -472t-17.5 -125
t-34.5 -64t-118.5 -17q-11 2 -31 2.5t-57 4t-54 17.5t-21.5 46t-1.5 66.5t9 67t9 63.5q11 117 3 205.5t-71 148.5q-91 88 -159.5 54t-96.5 -62q17 2 35 5t48 1t49 -21.5t22.5 -48.5t-4.5 -64.5t-20.5 -70.5t-33 -82t-29.5 -83q18 2 37.5 2t50.5 -6.5t48 -24.5t28.5 -30.5
t22.5 -40.5t7 -67.5t-37.5 -89t-124.5 -55.5q-69 -5 -96 57.5t-27 68t-1 7.5l-1 -11q-12 -34 -43.5 -30.5t-35.5 39.5q6 32 12.5 61.5t26.5 49.5t43 37q11 60 62.5 191t26.5 133t-50 -3t-43 -5z" />
    <glyph glyph-name="yoying" unicode="&#xe0d;" horiz-adv-x="897" 
d="M479 -137.5q0 -17.5 11 -34.5v-1q8 4 22 4q32 0 44.5 7.5t11.5 35.5t-22 34t-36 1t-23 -17t-8 -29.5zM210 212q-11 -103 38 -142q26 -20 74.5 25.5t6.5 95.5t-119 21zM557.5 -14.5q37.5 -7.5 66.5 -36.5t23 -76q-7 -47 -23 -75q71 18 75.5 49t7.5 51t16 29t27 7.5t25 -13
t9 -37.5q-12 -151 -130.5 -166t-189.5 29t-67 134q2 42 27.5 68t60.5 35t72.5 1.5zM134 581q-34 0 -53 60q-18 60 119.5 145.5t260 -48.5t114 -282.5t-20.5 -220.5t-5 -102q115 -16 152 -3q20 66 26 182.5t6 410.5q6 36 37.5 37.5t41.5 -33.5q0 -381 -9.5 -472t-17.5 -125
t-34.5 -64t-118.5 -17q-11 2 -31 2.5t-57 4t-54 17.5t-21.5 46t-1.5 66.5t9 67t9 63.5q11 117 3 205.5t-71 148.5q-91 88 -159.5 54t-96.5 -62q17 2 35 5t48 1t49 -21.5t22.5 -48.5t-4.5 -64.5t-20.5 -70.5t-33 -82t-29.5 -83q18 2 37.5 2t50.5 -6.5t48 -24.5t28.5 -30.5
t22.5 -40.5t7 -67.5t-37.5 -89t-124.5 -55.5q-69 -5 -96 57.5t-27 68t-1 7.5l-1 -11q-12 -34 -43.5 -30.5t-35.5 39.5q6 32 12.5 61.5t26.5 49.5t43 37q11 60 62.5 191t26.5 133t-50 -3t-43 -5z" />
    <glyph glyph-name="yoying" unicode="&#xde;" horiz-adv-x="897" 
d="M479 -137.5q0 -17.5 11 -34.5v-1q8 4 22 4q32 0 44.5 7.5t11.5 35.5t-22 34t-36 1t-23 -17t-8 -29.5zM210 212q-11 -103 38 -142q26 -20 74.5 25.5t6.5 95.5t-119 21zM557.5 -14.5q37.5 -7.5 66.5 -36.5t23 -76q-7 -47 -23 -75q71 18 75.5 49t7.5 51t16 29t27 7.5t25 -13
t9 -37.5q-12 -151 -130.5 -166t-189.5 29t-67 134q2 42 27.5 68t60.5 35t72.5 1.5zM134 581q-34 0 -53 60q-18 60 119.5 145.5t260 -48.5t114 -282.5t-20.5 -220.5t-5 -102q115 -16 152 -3q20 66 26 182.5t6 410.5q6 36 37.5 37.5t41.5 -33.5q0 -381 -9.5 -472t-17.5 -125
t-34.5 -64t-118.5 -17q-11 2 -31 2.5t-57 4t-54 17.5t-21.5 46t-1.5 66.5t9 67t9 63.5q11 117 3 205.5t-71 148.5q-91 88 -159.5 54t-96.5 -62q17 2 35 5t48 1t49 -21.5t22.5 -48.5t-4.5 -64.5t-20.5 -70.5t-33 -82t-29.5 -83q18 2 37.5 2t50.5 -6.5t48 -24.5t28.5 -30.5
t22.5 -40.5t7 -67.5t-37.5 -89t-124.5 -55.5q-69 -5 -96 57.5t-27 68t-1 7.5l-1 -11q-12 -34 -43.5 -30.5t-35.5 39.5q6 32 12.5 61.5t26.5 49.5t43 37q11 60 62.5 191t26.5 133t-50 -3t-43 -5z" />
    <glyph glyph-name="dochada" unicode="&#xae;" horiz-adv-x="697" 
d="M359 -151q-66 36 -111.5 18t-61 -36t-2.5 -31t44 -16q52 -7 73 8t58 57zM258 208q-18 4 -30 2t-33 -4t-35 -18q-26 -29 -7.5 -70t48.5 -49q24 -7 37 44.5t20 94.5zM256 -299q-64 0 -121.5 38.5t-30.5 106.5q13 32 33 47t32.5 25t30.5 22q75 49 212 -33v2q8 41 33 38.5
t41 -20t-11 -66.5q40 -38 68 -75v6q-2 88 -9 173.5t-9 154.5t-1 121.5t-0.5 190t-41 191t-53.5 62.5q-78 78 -147.5 29.5t-87 -94.5t-18.5 -76q20 7 39.5 14t45.5 11q51 8 68.5 -24.5t17.5 -90t-4 -161.5l-1 -23q8 -4 44.5 -20.5t43.5 -29.5q8 -28 -31 -40.5t-65 2.5
q-26 -189 -76 -190.5t-72 -3.5t-47.5 19.5t-56.5 73.5t-12 104t40 65.5t49 30.5t108 8q8 101 -3 199q-19 0 -79 -22.5t-89 25.5q-10 60 28.5 151.5t88.5 122.5q14 8 28 18t39 14q79 13 147.5 -8t115.5 -118q68 -141 62 -342t11.5 -399t-1.5 -282q-10 -26 -31 -30.5t-35 10.5
t-18.5 26t-12.5 24t-25 41t-19 29l-48 49q-80 -85 -114 -90.5t-56 -5.5z" />
    <glyph glyph-name="dochada" unicode="&#xe0e;" horiz-adv-x="697" 
d="M359 -151q-66 36 -111.5 18t-61 -36t-2.5 -31t44 -16q52 -7 73 8t58 57zM258 208q-18 4 -30 2t-33 -4t-35 -18q-26 -29 -7.5 -70t48.5 -49q24 -7 37 44.5t20 94.5zM256 -299q-64 0 -121.5 38.5t-30.5 106.5q13 32 33 47t32.5 25t30.5 22q75 49 212 -33v2q8 41 33 38.5
t41 -20t-11 -66.5q40 -38 68 -75v6q-2 88 -9 173.5t-9 154.5t-1 121.5t-0.5 190t-41 191t-53.5 62.5q-78 78 -147.5 29.5t-87 -94.5t-18.5 -76q20 7 39.5 14t45.5 11q51 8 68.5 -24.5t17.5 -90t-4 -161.5l-1 -23q8 -4 44.5 -20.5t43.5 -29.5q8 -28 -31 -40.5t-65 2.5
q-26 -189 -76 -190.5t-72 -3.5t-47.5 19.5t-56.5 73.5t-12 104t40 65.5t49 30.5t108 8q8 101 -3 199q-19 0 -79 -22.5t-89 25.5q-10 60 28.5 151.5t88.5 122.5q14 8 28 18t39 14q79 13 147.5 -8t115.5 -118q68 -141 62 -342t11.5 -399t-1.5 -282q-10 -26 -31 -30.5t-35 10.5
t-18.5 26t-12.5 24t-25 41t-19 29l-48 49q-80 -85 -114 -90.5t-56 -5.5z" />
    <glyph glyph-name="topatak" unicode="&#xaf;" horiz-adv-x="773" 
d="M138 -197q28 -13 82 39v2q-8 5 -16.5 11.5t-18.5 10.5q-19 9 -36.5 -17.5t-10.5 -45.5zM233 169l-37 -1q-36 -2 -63 -18q-11 -7 26.5 -41.5t51.5 -25.5q20 21 22 86zM232 251v1q4 159 1 284q-20 -3 -57.5 -10.5t-57.5 37.5q-28 79 66 155q95 76 144 90q108 30 212.5 -10
t120.5 -143q15 -103 15 -212q0 -145 -4.5 -288.5t-0.5 -231t3 -145.5t-1.5 -92t-8.5 -57t-16 -30t-24 -10t-32 11t-33.5 42t-47.5 95.5t-36 73.5q-6 7 -10.5 -3t-11 -26t-14.5 -35.5t-23 -57.5t-28.5 -46.5t-31.5 -8.5t-34 14t-28 34t-21 43t-17 42q-34 -31 -53 -35.5
t-28 -6t-25 -4.5q-34 -6 -66.5 22t-29.5 61q7 68 46 108.5t102 32.5q32 -3 72 -43q8 11 24 31q28 24 52.5 5.5t12.5 -52.5q-11 -14 -22 -27t-22 -27q8 -20 15.5 -40t15.5 -39q33 107 48.5 132t43.5 31t52 -8t41.5 -39.5t31 -57t27.5 -57.5l-4 261l6 357q0 194 -10 247
t-35.5 77t-59 35.5t-114 11.5t-181.5 -132q80 12 95.5 -4.5t18.5 -41.5t3 -75v-86q0 -87 -2 -148v-16q39 -18 45 -61q-1 -24 -15.5 -35.5t-31.5 -7.5q-10 -107 -67 -129q-57 -23 -125 31t-66 111l12 43q18 39 80 49t89 10z" />
    <glyph glyph-name="topatak" unicode="&#xe0f;" horiz-adv-x="773" 
d="M138 -197q28 -13 82 39v2q-8 5 -16.5 11.5t-18.5 10.5q-19 9 -36.5 -17.5t-10.5 -45.5zM233 169l-37 -1q-36 -2 -63 -18q-11 -7 26.5 -41.5t51.5 -25.5q20 21 22 86zM232 251v1q4 159 1 284q-20 -3 -57.5 -10.5t-57.5 37.5q-28 79 66 155q95 76 144 90q108 30 212.5 -10
t120.5 -143q15 -103 15 -212q0 -145 -4.5 -288.5t-0.5 -231t3 -145.5t-1.5 -92t-8.5 -57t-16 -30t-24 -10t-32 11t-33.5 42t-47.5 95.5t-36 73.5q-6 7 -10.5 -3t-11 -26t-14.5 -35.5t-23 -57.5t-28.5 -46.5t-31.5 -8.5t-34 14t-28 34t-21 43t-17 42q-34 -31 -53 -35.5
t-28 -6t-25 -4.5q-34 -6 -66.5 22t-29.5 61q7 68 46 108.5t102 32.5q32 -3 72 -43q8 11 24 31q28 24 52.5 5.5t12.5 -52.5q-11 -14 -22 -27t-22 -27q8 -20 15.5 -40t15.5 -39q33 107 48.5 132t43.5 31t52 -8t41.5 -39.5t31 -57t27.5 -57.5l-4 261l6 357q0 194 -10 247
t-35.5 77t-59 35.5t-114 11.5t-181.5 -132q80 12 95.5 -4.5t18.5 -41.5t3 -75v-86q0 -87 -2 -148v-16q39 -18 45 -61q-1 -24 -15.5 -35.5t-31.5 -7.5q-10 -107 -67 -129q-57 -23 -125 31t-66 111l12 43q18 39 80 49t89 10z" />
    <glyph glyph-name="thothan" unicode="&#xb0;" horiz-adv-x="622" 
d="M111 -210q37 -9 67 8q-35 66 -67 -8zM504 -319.5q0 3.5 1 8.5q-50 -11 -69 -10q11 -10 18 -22.5t13 -22.5t9.5 -16.5t8.5 -12.5q3 6 5 12.5t6 18.5t6 27q2 14 2 17.5zM447 -243l60 12q-6 71 -26.5 65t-48.5 -40t15 -37zM208.5 246.5q23.5 -1.5 47 8.5t26.5 21.5t4 13.5
q-27 46 -54.5 60t-69.5 -8q-6 -5 -12 -9t-10 -11q0 -8 -1 -15t3 -21t23.5 -26t43 -13.5zM273 -225q40 -124 49 -133q15 14 28.5 31.5t32.5 22.5q-26 13 -33 42.5t4 71.5t63 81.5t100 16.5q78 -37 73.5 -153t-26.5 -163.5t-39 -63.5q-29 -26 -60 -8t-48 44q-17 25 -27 39
q-65 -81 -107.5 -34.5t-76.5 154.5q-44 -25 -74 -19q-55 12 -89.5 29.5t-7.5 84t80.5 86.5t84.5 -10t42 -48q36 29 68 37q37 2 45.5 -27.5t-23.5 -49.5q-28 -7 -59 -31zM392 248v107q0 107 -5 140t-37 46q-48 19 -110.5 14.5t-97.5 -5t-68 10.5q-35 20 -30 50t14.5 42.5
t24.5 38.5t42 45t58.5 27t66 8t69.5 -3.5t69 -8t58 -4.5t34 2t19 4t18.5 4t28.5 4t31 -9t14.5 -36t-38.5 -33q-23 -3 -48.5 -9.5t-57.5 -6.5q-31 0 -144.5 21.5t-164.5 -66.5q37 0 133.5 7t162.5 -59q34 -32 35.5 -92t3.5 -127t-7 -237v21q-1 -34 -1 -101.5t-35.5 -67.5
t-49.5 27q-24 122 -55 204q-62 -54 -151 -34.5t-112 98.5q-5 15 -3.5 31t2.5 41t29 49t91 43t109 -25q30 -28 52 -61q30 -10 28 -45q0 -1 8 -20t14 -35z" />
    <glyph glyph-name="thothan" unicode="&#xe10;" horiz-adv-x="622" 
d="M111 -210q37 -9 67 8q-35 66 -67 -8zM504 -319.5q0 3.5 1 8.5q-50 -11 -69 -10q11 -10 18 -22.5t13 -22.5t9.5 -16.5t8.5 -12.5q3 6 5 12.5t6 18.5t6 27q2 14 2 17.5zM447 -243l60 12q-6 71 -26.5 65t-48.5 -40t15 -37zM208.5 246.5q23.5 -1.5 47 8.5t26.5 21.5t4 13.5
q-27 46 -54.5 60t-69.5 -8q-6 -5 -12 -9t-10 -11q0 -8 -1 -15t3 -21t23.5 -26t43 -13.5zM273 -225q40 -124 49 -133q15 14 28.5 31.5t32.5 22.5q-26 13 -33 42.5t4 71.5t63 81.5t100 16.5q78 -37 73.5 -153t-26.5 -163.5t-39 -63.5q-29 -26 -60 -8t-48 44q-17 25 -27 39
q-65 -81 -107.5 -34.5t-76.5 154.5q-44 -25 -74 -19q-55 12 -89.5 29.5t-7.5 84t80.5 86.5t84.5 -10t42 -48q36 29 68 37q37 2 45.5 -27.5t-23.5 -49.5q-28 -7 -59 -31zM392 248v107q0 107 -5 140t-37 46q-48 19 -110.5 14.5t-97.5 -5t-68 10.5q-35 20 -30 50t14.5 42.5
t24.5 38.5t42 45t58.5 27t66 8t69.5 -3.5t69 -8t58 -4.5t34 2t19 4t18.5 4t28.5 4t31 -9t14.5 -36t-38.5 -33q-23 -3 -48.5 -9.5t-57.5 -6.5q-31 0 -144.5 21.5t-164.5 -66.5q37 0 133.5 7t162.5 -59q34 -32 35.5 -92t3.5 -127t-7 -237v21q-1 -34 -1 -101.5t-35.5 -67.5
t-49.5 27q-24 122 -55 204q-62 -54 -151 -34.5t-112 98.5q-5 15 -3.5 31t2.5 41t29 49t91 43t109 -25q30 -28 52 -61q30 -10 28 -45q0 -1 8 -20t14 -35z" />
    <glyph glyph-name="thonangmonto" unicode="&#xb1;" horiz-adv-x="862" 
d="M143 478.5q0 -3.5 -4 -11.5q42 -55 94 -43q4 1 12 7q-18 35 -54 44.5t-47 8.5q-1 -2 -1 -5.5zM378 253q0 34 4 174t-24 243q-11 -13 -17 -24q-6 -10 -17.5 -27.5t-25.5 -32t-31 -22.5t-36 0t-29 24t-17.5 34t-14.5 36.5t-20 31.5q-6 -16 -20 -43t-12 -82
q50 12 115.5 -20.5t92.5 -84t-20 -92.5q-47 -39 -117 -27t-99 52q-52 69 -52 180t42 165t89 39t63.5 -56.5t21.5 -52.5q13 15 20 28q21 38 64.5 64t77.5 -8t37 -112.5t5 -102t2 -42.5q48 146 85 193q14 18 27.5 37t25.5 26q20 11 80 17q18 2 72 -47.5t33 -344.5
q-7 -90 -17 -178t-18 -178q-14 -36 -46 -32.5t-36 42.5q4 59 31 286t2.5 287t-40.5 78q-40 -5 -90 -134t-94 -339q-3 -16 -7 -33t-8 -36q5 -64 -6 -109q-17 -50 -65 -27q-35 29 -14 135q3 81 3 115z" />
    <glyph glyph-name="thonangmonto" unicode="&#xe11;" horiz-adv-x="862" 
d="M143 478.5q0 -3.5 -4 -11.5q42 -55 94 -43q4 1 12 7q-18 35 -54 44.5t-47 8.5q-1 -2 -1 -5.5zM378 253q0 34 4 174t-24 243q-11 -13 -17 -24q-6 -10 -17.5 -27.5t-25.5 -32t-31 -22.5t-36 0t-29 24t-17.5 34t-14.5 36.5t-20 31.5q-6 -16 -20 -43t-12 -82
q50 12 115.5 -20.5t92.5 -84t-20 -92.5q-47 -39 -117 -27t-99 52q-52 69 -52 180t42 165t89 39t63.5 -56.5t21.5 -52.5q13 15 20 28q21 38 64.5 64t77.5 -8t37 -112.5t5 -102t2 -42.5q48 146 85 193q14 18 27.5 37t25.5 26q20 11 80 17q18 2 72 -47.5t33 -344.5
q-7 -90 -17 -178t-18 -178q-14 -36 -46 -32.5t-36 42.5q4 59 31 286t2.5 287t-40.5 78q-40 -5 -90 -134t-94 -339q-3 -16 -7 -33t-8 -36q5 -64 -6 -109q-17 -50 -65 -27q-35 29 -14 135q3 81 3 115z" />
    <glyph glyph-name="thoputao" unicode="&#xb2;" horiz-adv-x="958" 
d="M561 103q9 35 7 78q-28 17 -51 23q-8 -46 44 -101zM215.5 602q37.5 0 47.5 -2q-6 9 -15 23.5t-45.5 65t-49.5 -31.5q-9 -50 -5 -110q30 55 67.5 55zM225.5 421.5q36.5 -28.5 89.5 -32.5q7 86 -57 128q-23 15 -46 -26t13.5 -69.5zM199 140q28 44 53 81t44 90
q-36 5 -70.5 15.5t-59.5 41.5q2 -30 3 -60t6 -58t12 -55t12 -55zM868.5 320.5q0.5 -49.5 0.5 -141.5t-3 -155q-9 -20 -25 -30q-31 -12 -60 17q-29 17 -63.5 48t-70.5 62q-10 -109 -84 -112q-49 -2 -91.5 79.5t-30.5 148.5t100 43q13 -3 26 -9q12 312 -9 344.5t-43 33.5
t-49 -19t-53.5 -59t-46.5 -59q21 -41 25 -65q3 -25 3.5 -28t0.5 -6q21 15 41.5 3t20.5 -42q-12 -50 -75 -65q-17 -51 -45.5 -97.5t-44.5 -73.5t-53 -97.5t-89 -18.5q-18 25 -24 69t-16 84t-15 100.5t-11 120.5t-12 114t-4 94q4 80 31 130.5t88 43.5q69 -8 74 -16l86 -145
q43 72 111.5 98t116.5 4q89 -41 73 -435v14q-2 -40 -2 -79q38 -26 144 -113q1 32 1 34l-1 138q0 136 7 256t8 198q6 36 37.5 37.5t41.5 -33.5q-1 -81 -5.5 -161.5t-7.5 -142.5t-2.5 -111.5zM647 274v-4v4z" />
    <glyph glyph-name="thoputao" unicode="&#xe12;" horiz-adv-x="958" 
d="M561 103q9 35 7 78q-28 17 -51 23q-8 -46 44 -101zM215.5 602q37.5 0 47.5 -2q-6 9 -15 23.5t-45.5 65t-49.5 -31.5q-9 -50 -5 -110q30 55 67.5 55zM225.5 421.5q36.5 -28.5 89.5 -32.5q7 86 -57 128q-23 15 -46 -26t13.5 -69.5zM199 140q28 44 53 81t44 90
q-36 5 -70.5 15.5t-59.5 41.5q2 -30 3 -60t6 -58t12 -55t12 -55zM868.5 320.5q0.5 -49.5 0.5 -141.5t-3 -155q-9 -20 -25 -30q-31 -12 -60 17q-29 17 -63.5 48t-70.5 62q-10 -109 -84 -112q-49 -2 -91.5 79.5t-30.5 148.5t100 43q13 -3 26 -9q12 312 -9 344.5t-43 33.5
t-49 -19t-53.5 -59t-46.5 -59q21 -41 25 -65q3 -25 3.5 -28t0.5 -6q21 15 41.5 3t20.5 -42q-12 -50 -75 -65q-17 -51 -45.5 -97.5t-44.5 -73.5t-53 -97.5t-89 -18.5q-18 25 -24 69t-16 84t-15 100.5t-11 120.5t-12 114t-4 94q4 80 31 130.5t88 43.5q69 -8 74 -16l86 -145
q43 72 111.5 98t116.5 4q89 -41 73 -435v14q-2 -40 -2 -79q38 -26 144 -113q1 32 1 34l-1 138q0 136 7 256t8 198q6 36 37.5 37.5t41.5 -33.5q-1 -81 -5.5 -161.5t-7.5 -142.5t-2.5 -111.5zM647 274v-4v4z" />
    <glyph glyph-name="nonen" unicode="&#xb3;" horiz-adv-x="1064" 
d="M281 175q10 -70 40.5 -93.5t62.5 -19.5q57 7 14.5 68t-117.5 45zM843 280q4 -65 5 -68l14 -140q63 63 67.5 126t-3.5 83q-8 3 -25 10.5t-58 -11.5zM765 374q0 2 19 157t21 217q6 36 37.5 37.5t41.5 -33.5q-4 -98 -17 -194t-21 -193q61 19 122.5 -13.5t46 -124.5
t-64.5 -169.5t-77.5 -79t-46.5 -1.5t-33 27q-9 37 -11.5 70.5t-5.5 62.5t-4.5 47.5t-3.5 38.5q-104 -100 -157 -240q-19 -23 -44.5 -16t-29.5 38q0 91 8.5 181t4.5 155q-4 73 -35 176t-69 140q-63 61 -115 40t-98 -61q-46 -39 -62.5 -52t-27.5 -29q124 25 141 -66
q11 -61 3.5 -132.5t-8.5 -100.5q46 6 91.5 -10.5t75.5 -51.5q75 -75 53.5 -134t-80.5 -71t-107 3q-93 29 -107 162q-32 -9 -45.5 5.5t-16 36.5t31.5 34q19 3 27 5q2 55 7.5 108t2.5 90t-8 46q-5 8 -12 5.5t-12 -4.5t-16.5 -4t-19.5 -4q-77 -14 -89 25t-7 50q5 10 9 17.5
t10 19.5t39 47t68 61t96 72t175 -4.5t150 -219t32 -237.5q-3 -68 -4.5 -90t-2.5 -45q67 100 145 156v50z" />
    <glyph glyph-name="nonen" unicode="&#xe13;" horiz-adv-x="1064" 
d="M281 175q10 -70 40.5 -93.5t62.5 -19.5q57 7 14.5 68t-117.5 45zM843 280q4 -65 5 -68l14 -140q63 63 67.5 126t-3.5 83q-8 3 -25 10.5t-58 -11.5zM765 374q0 2 19 157t21 217q6 36 37.5 37.5t41.5 -33.5q-4 -98 -17 -194t-21 -193q61 19 122.5 -13.5t46 -124.5
t-64.5 -169.5t-77.5 -79t-46.5 -1.5t-33 27q-9 37 -11.5 70.5t-5.5 62.5t-4.5 47.5t-3.5 38.5q-104 -100 -157 -240q-19 -23 -44.5 -16t-29.5 38q0 91 8.5 181t4.5 155q-4 73 -35 176t-69 140q-63 61 -115 40t-98 -61q-46 -39 -62.5 -52t-27.5 -29q124 25 141 -66
q11 -61 3.5 -132.5t-8.5 -100.5q46 6 91.5 -10.5t75.5 -51.5q75 -75 53.5 -134t-80.5 -71t-107 3q-93 29 -107 162q-32 -9 -45.5 5.5t-16 36.5t31.5 34q19 3 27 5q2 55 7.5 108t2.5 90t-8 46q-5 8 -12 5.5t-12 -4.5t-16.5 -4t-19.5 -4q-77 -14 -89 25t-7 50q5 10 9 17.5
t10 19.5t39 47t68 61t96 72t175 -4.5t150 -219t32 -237.5q-3 -68 -4.5 -90t-2.5 -45q67 100 145 156v50z" />
    <glyph glyph-name="dodek" unicode="&#xb4;" horiz-adv-x="666" 
d="M333 360q0 14 -6 33.5t-17.5 35.5t-26.5 26t-41.5 8.5t-39 -48t14 -60.5t43.5 -24t71 1q2 14 2 28zM197 86q78 72 116 165q-121 -10 -162 56q-3 5 -6.5 10t-6.5 11q20 -176 59 -242zM415.5 265q-6.5 0 -12.5 -1q-23 -87 -85 -165q-11 -14 -26 -34t-64 -66t-106 52.5
t-67.5 331.5t65.5 308t192.5 92t190.5 -57q28 -28 40 -63t29 -87t25 -155q8 -102 4.5 -204.5t-5.5 -205.5q-1 -22 -13 -33t-26.5 -12t-27 9.5t-15.5 31.5q1 59 8 229t-30 324.5t-178 139.5q-140 -15 -158 -97.5t-21 -130.5q44 74 118.5 74t116.5 -64q43 -64 45 -136l3 1
q21 1 33.5 -10t15 -37t-39.5 -34q-5 -1 -11.5 -1z" />
    <glyph glyph-name="dodek" unicode="&#xe14;" horiz-adv-x="666" 
d="M333 360q0 14 -6 33.5t-17.5 35.5t-26.5 26t-41.5 8.5t-39 -48t14 -60.5t43.5 -24t71 1q2 14 2 28zM197 86q78 72 116 165q-121 -10 -162 56q-3 5 -6.5 10t-6.5 11q20 -176 59 -242zM415.5 265q-6.5 0 -12.5 -1q-23 -87 -85 -165q-11 -14 -26 -34t-64 -66t-106 52.5
t-67.5 331.5t65.5 308t192.5 92t190.5 -57q28 -28 40 -63t29 -87t25 -155q8 -102 4.5 -204.5t-5.5 -205.5q-1 -22 -13 -33t-26.5 -12t-27 9.5t-15.5 31.5q1 59 8 229t-30 324.5t-178 139.5q-140 -15 -158 -97.5t-21 -130.5q44 74 118.5 74t116.5 -64q43 -64 45 -136l3 1
q21 1 33.5 -10t15 -37t-39.5 -34q-5 -1 -11.5 -1z" />
    <glyph glyph-name="totao" unicode="&#xb5;" horiz-adv-x="715" 
d="M331 398q0 18 -5 46.5t-23 42.5q-40 32 -76 18.5t-21 -67.5q12 -62 55.5 -67t67.5 -5q2 14 2 32zM207 126q13 26 46.5 82.5t48.5 86.5q-106 5 -127 40.5t-25 40.5q15 -97 32 -148t25 -102zM216 580q48 0 62 -4t20.5 -5t12.5 -4q-51 90 -89.5 131.5t-67.5 -29.5
q-20 -52 -16 -153q30 64 78 64zM365 526q49 -60 37 -163q10 1 17 1.5t8 4.5q16 2 28.5 -22t3.5 -34q-18 -21 -31 -25t-44 6q-15 -39 -38.5 -76.5t-35.5 -59.5t-18.5 -32t-19 -31t-36 -77t-53.5 -26q-37 37 -53.5 104t-17.5 70l-20 109q-47 207 -15 383q12 82 75.5 112
t127.5 -26q31 -28 74 -113q83 135 186 112q46 -10 76 -80q29 -70 27 -175.5t-8.5 -181.5t-14.5 -151.5t-10 -122.5t-12.5 -57t-23 -11t-24 8t-13.5 28q2 68 9 135.5t26.5 254t-35 263t-148.5 -110.5q-10 -13 -24 -16z" />
    <glyph glyph-name="totao" unicode="&#xe15;" horiz-adv-x="715" 
d="M331 398q0 18 -5 46.5t-23 42.5q-40 32 -76 18.5t-21 -67.5q12 -62 55.5 -67t67.5 -5q2 14 2 32zM207 126q13 26 46.5 82.5t48.5 86.5q-106 5 -127 40.5t-25 40.5q15 -97 32 -148t25 -102zM216 580q48 0 62 -4t20.5 -5t12.5 -4q-51 90 -89.5 131.5t-67.5 -29.5
q-20 -52 -16 -153q30 64 78 64zM365 526q49 -60 37 -163q10 1 17 1.5t8 4.5q16 2 28.5 -22t3.5 -34q-18 -21 -31 -25t-44 6q-15 -39 -38.5 -76.5t-35.5 -59.5t-18.5 -32t-19 -31t-36 -77t-53.5 -26q-37 37 -53.5 104t-17.5 70l-20 109q-47 207 -15 383q12 82 75.5 112
t127.5 -26q31 -28 74 -113q83 135 186 112q46 -10 76 -80q29 -70 27 -175.5t-8.5 -181.5t-14.5 -151.5t-10 -122.5t-12.5 -57t-23 -11t-24 8t-13.5 28q2 68 9 135.5t26.5 254t-35 263t-148.5 -110.5q-10 -13 -24 -16z" />
    <glyph glyph-name="thothung" unicode="&#xb6;" horiz-adv-x="698" 
d="M198 29l2 -2q-1 2 -2 2.5t0 -0.5zM216 143q2 -5 2.5 -9.5t2.5 -9.5t5 -13t8 -13t12.5 -8.5t11.5 -7.5t6.5 -7.5t5.5 -7.5q39 -9 54 18t-9 74.5t-99 -16.5zM205 255q0 -11 1 -22q57 34 108 14q14 -5 27.5 -9t31.5 -24t28 -53t4.5 -82.5t-58 -83.5t-122.5 4q-7 4 -13 12
q-7 8 -7 9t-1 2q-65 38 -68.5 109t-5.5 89t-2 24v-6q-19 74 -1 152.5t33.5 103t24.5 40.5q-12 1 -28 -0.5t-43 -3t-48 13.5t-23 37t13 53.5t64.5 75t77.5 58.5q60 30 169 23t148 -56q18 -23 36.5 -44.5t43.5 -75.5t28 -182q2 -129 -6 -223.5t-13 -189.5q-12 -34 -43.5 -30.5
t-35.5 39.5q3 62 22 258t-38 321q-38 88 -121 100q-164 22 -250 -94q97 11 124 -31q21 -31 6 -63t-27.5 -50t-28.5 -57t-11 -93q4 -54 4 -65z" />
    <glyph glyph-name="thothung" unicode="&#xe16;" horiz-adv-x="698" 
d="M198 29l2 -2q-1 2 -2 2.5t0 -0.5zM216 143q2 -5 2.5 -9.5t2.5 -9.5t5 -13t8 -13t12.5 -8.5t11.5 -7.5t6.5 -7.5t5.5 -7.5q39 -9 54 18t-9 74.5t-99 -16.5zM205 255q0 -11 1 -22q57 34 108 14q14 -5 27.5 -9t31.5 -24t28 -53t4.5 -82.5t-58 -83.5t-122.5 4q-7 4 -13 12
q-7 8 -7 9t-1 2q-65 38 -68.5 109t-5.5 89t-2 24v-6q-19 74 -1 152.5t33.5 103t24.5 40.5q-12 1 -28 -0.5t-43 -3t-48 13.5t-23 37t13 53.5t64.5 75t77.5 58.5q60 30 169 23t148 -56q18 -23 36.5 -44.5t43.5 -75.5t28 -182q2 -129 -6 -223.5t-13 -189.5q-12 -34 -43.5 -30.5
t-35.5 39.5q3 62 22 258t-38 321q-38 88 -121 100q-164 22 -250 -94q97 11 124 -31q21 -31 6 -63t-27.5 -50t-28.5 -57t-11 -93q4 -54 4 -65z" />
    <glyph glyph-name="thothahan" unicode="&#xb7;" horiz-adv-x="816" 
d="M122 590q81 -66 177 -19q-11 95 -56 130t-99 -4q-55 -39 -44 -69t22 -38zM630 772q35 0 52 -16t24.5 -33t17.5 -35t12.5 -41t13 -98t-13.5 -431q-4 -69 -5 -50l-1 -47q-1 -21 -12.5 -32t-37 -12t-29.5 40q1 42 5.5 98t19 262t-43.5 310q-62 -25 -129 -137
q-106 -178 -112 -311t-6 -211q-3 -22 -15 -34t-32 -10q-19 3 -29 25q-1 2 -1 3l-2 12v468q-63 -23 -113.5 -14t-115.5 51q-43 27 -45 74t4 61t12 30t22 34q46 49 111 64.5t113 -38.5q81 -89 85 -159t5 -96q56 128 133.5 200.5t112.5 72.5z" />
    <glyph glyph-name="thothahan" unicode="&#xe17;" horiz-adv-x="816" 
d="M122 590q81 -66 177 -19q-11 95 -56 130t-99 -4q-55 -39 -44 -69t22 -38zM630 772q35 0 52 -16t24.5 -33t17.5 -35t12.5 -41t13 -98t-13.5 -431q-4 -69 -5 -50l-1 -47q-1 -21 -12.5 -32t-37 -12t-29.5 40q1 42 5.5 98t19 262t-43.5 310q-62 -25 -129 -137
q-106 -178 -112 -311t-6 -211q-3 -22 -15 -34t-32 -10q-19 3 -29 25q-1 2 -1 3l-2 12v468q-63 -23 -113.5 -14t-115.5 51q-43 27 -45 74t4 61t12 30t22 34q46 49 111 64.5t113 -38.5q81 -89 85 -159t5 -96q56 128 133.5 200.5t112.5 72.5z" />
    <glyph glyph-name="thothong" unicode="&#xb8;" horiz-adv-x="711" 
d="M526 752l38 -1q37 -1 40 0q20 26 47.5 16t25.5 -44q-14 -63 -89.5 -55t-119 17.5t-106 19t-125.5 -3t-92 -72.5h149q173 0 263 -35q78 -31 61.5 -173t-8 -207t12 -138.5t-99.5 -77.5l-58 1q-42 2 -86 2l-96 -4q-96 -4 -116 39q-7 15 8 67t17 76t1.5 66t-2 84t-4 83.5
t-3.5 83.5q6 36 37.5 37.5t41.5 -33.5q1 -42 5 -97.5t8 -153.5t-20 -175l4 -1h9q17 0 32 1.5t49 4.5t85.5 -0.5t103.5 0.5q4 25 -1.5 73t-7.5 86t2.5 99t4.5 95t1.5 58t-17.5 32q-89 38 -246.5 31t-204.5 13.5t12 112.5q92 150 267 111.5t177 -38.5z" />
    <glyph glyph-name="thothong" unicode="&#xe18;" horiz-adv-x="711" 
d="M526 752l38 -1q37 -1 40 0q20 26 47.5 16t25.5 -44q-14 -63 -89.5 -55t-119 17.5t-106 19t-125.5 -3t-92 -72.5h149q173 0 263 -35q78 -31 61.5 -173t-8 -207t12 -138.5t-99.5 -77.5l-58 1q-42 2 -86 2l-96 -4q-96 -4 -116 39q-7 15 8 67t17 76t1.5 66t-2 84t-4 83.5
t-3.5 83.5q6 36 37.5 37.5t41.5 -33.5q1 -42 5 -97.5t8 -153.5t-20 -175l4 -1h9q17 0 32 1.5t49 4.5t85.5 -0.5t103.5 0.5q4 25 -1.5 73t-7.5 86t2.5 99t4.5 95t1.5 58t-17.5 32q-89 38 -246.5 31t-204.5 13.5t12 112.5q92 150 267 111.5t177 -38.5z" />
    <glyph glyph-name="nonu" unicode="&#xb9;" horiz-adv-x="889" 
d="M226 563q17 12 19 26t3 23.5t2 13.5q-48 81 -104 58q-51 -18 -36 -59q14 -40 35 -55.5t42.5 -17t38.5 10.5zM705 292q-42 -8 -83 -31q18 -113 43.5 -143t33.5 -40t32 -14q7 8 12.5 13.5t14.5 21t10.5 58t-9 93t-54.5 42.5zM848 170q0 -152 -75 -175.5t-122 17.5
q-17 17 -33 40.5t-32 45.5t-25.5 63t-11.5 49q-18 -15 -34.5 -30.5t-49.5 -44.5t-57 -57q-24 -29 -30 -35.5t-14 -16.5q-16 -21 -41.5 -14t-28.5 46q-3 40 10.5 175.5t-11.5 284.5q-49 -43 -161.5 -24t-95.5 176q6 42 46 71t90 27q101 -4 162 -128t50 -359q-2 -69 -5 -93
q-3 -23 -3 -28l76 76l88 64q-3 125 10.5 235t18.5 201q8 41 44.5 37.5t34.5 -48.5t-16.5 -170t-14.5 -208q115 62 173 -2.5t58 -174.5z" />
    <glyph glyph-name="nonu" unicode="&#xe19;" horiz-adv-x="889" 
d="M226 563q17 12 19 26t3 23.5t2 13.5q-48 81 -104 58q-51 -18 -36 -59q14 -40 35 -55.5t42.5 -17t38.5 10.5zM705 292q-42 -8 -83 -31q18 -113 43.5 -143t33.5 -40t32 -14q7 8 12.5 13.5t14.5 21t10.5 58t-9 93t-54.5 42.5zM848 170q0 -152 -75 -175.5t-122 17.5
q-17 17 -33 40.5t-32 45.5t-25.5 63t-11.5 49q-18 -15 -34.5 -30.5t-49.5 -44.5t-57 -57q-24 -29 -30 -35.5t-14 -16.5q-16 -21 -41.5 -14t-28.5 46q-3 40 10.5 175.5t-11.5 284.5q-49 -43 -161.5 -24t-95.5 176q6 42 46 71t90 27q101 -4 162 -128t50 -359q-2 -69 -5 -93
q-3 -23 -3 -28l76 76l88 64q-3 125 10.5 235t18.5 201q8 41 44.5 37.5t34.5 -48.5t-16.5 -170t-14.5 -208q115 62 173 -2.5t58 -174.5z" />
    <glyph glyph-name="bobaimai" unicode="&#xba;" horiz-adv-x="776" 
d="M282 609q3 54 -19.5 80.5t-58.5 22.5t-53 -17.5t-26.5 -41t19 -63t65.5 -30.5q38 5 52 14.5t21 34.5zM622 87l4 649q6 36 37.5 37.5t41.5 -33.5q0 -140 -2 -346t-0.5 -253.5t-1.5 -94.5q-9 -20 -25 -30q-64 -16 -146 -12.5t-109 4.5t-52 -0.5t-48 3.5q-17 10 -27 27
q-5 44 1.5 219.5t5.5 256.5q-50 -44 -124 -29.5t-113.5 77.5t-4.5 151q17 43 97 71.5t129 -3t57 -49.5q14 -32 25.5 -69t11.5 -45l-8 -529q188 -6 251 -2z" />
    <glyph glyph-name="bobaimai" unicode="&#xe1a;" horiz-adv-x="776" 
d="M282 609q3 54 -19.5 80.5t-58.5 22.5t-53 -17.5t-26.5 -41t19 -63t65.5 -30.5q38 5 52 14.5t21 34.5zM622 87l4 649q6 36 37.5 37.5t41.5 -33.5q0 -140 -2 -346t-0.5 -253.5t-1.5 -94.5q-9 -20 -25 -30q-64 -16 -146 -12.5t-109 4.5t-52 -0.5t-48 3.5q-17 10 -27 27
q-5 44 1.5 219.5t5.5 256.5q-50 -44 -124 -29.5t-113.5 77.5t-4.5 151q17 43 97 71.5t129 -3t57 -49.5q14 -32 25.5 -69t11.5 -45l-8 -529q188 -6 251 -2z" />
    <glyph glyph-name="popla_taklom" unicode="&#xbb;" horiz-adv-x="769" 
d="M282 609q3 54 -19.5 80.5t-58.5 22.5t-53 -17.5t-26.5 -41t19 -63t65.5 -30.5q38 5 52 14.5t21 34.5zM704 616l-2 -382q-1 -47 0.5 -94t-1.5 -94q-9 -20 -25 -30q-64 -16 -146 -12.5t-109 4.5t-52 -0.5t-48 3.5q-17 10 -27 27q-5 44 1.5 219.5t5.5 256.5
q-50 -44 -124 -29.5t-113.5 77.5t-4.5 151q17 43 97 71.5t129 -3t57 -49.5q14 -32 25.5 -69t11.5 -45l-8 -529q188 -6 251 -2v17v92l4 797q6 36 37.5 37.5t41.5 -33.5v-7z" />
    <glyph glyph-name="popla_taklom" unicode="&#xe1b;" horiz-adv-x="769" 
d="M282 609q3 54 -19.5 80.5t-58.5 22.5t-53 -17.5t-26.5 -41t19 -63t65.5 -30.5q38 5 52 14.5t21 34.5zM704 616l-2 -382q-1 -47 0.5 -94t-1.5 -94q-9 -20 -25 -30q-64 -16 -146 -12.5t-109 4.5t-52 -0.5t-48 3.5q-17 10 -27 27q-5 44 1.5 219.5t5.5 256.5
q-50 -44 -124 -29.5t-113.5 77.5t-4.5 151q17 43 97 71.5t129 -3t57 -49.5q14 -32 25.5 -69t11.5 -45l-8 -529q188 -6 251 -2v17v92l4 797q6 36 37.5 37.5t41.5 -33.5v-7z" />
    <glyph glyph-name="popeuang" unicode="&#xbc;" horiz-adv-x="707" 
d="M190 692.5q-9 -4.5 -24 -31.5t-12 -80q98 12 125.5 44.5t25.5 52.5q-8 6 -13 14t-25 18t-60 -7q-8 -6 -17 -10.5zM652 46q0 -36 -30 -42t-53 31q-23 38 -46 79.5t-44 82.5t-40.5 83t-41.5 86q-25 -44 -53 -132t-45.5 -131t-46.5 -78t-65 -1q-22 24 -24.5 56.5t-3.5 53
t-5 42.5t-29.5 122t-40.5 200q-22 9 -29 21t-11.5 21.5t-7.5 18t-6 24.5t12.5 30t34.5 9q3 63 23.5 100.5t65.5 65.5q213 46 229 -125q2 -13 -6 -27t-16.5 -29t-23.5 -27q-101 -77 -183 -90q13 -81 34.5 -160t34.5 -160q9 24 22.5 64.5t30.5 83.5t36.5 80.5t40.5 54.5
t40.5 11.5t38.5 -27.5t63 -109t63 -105l-13 513q6 36 37.5 37.5t41.5 -33.5q2 -174 9 -346.5t7 -347.5z" />
    <glyph glyph-name="popeuang" unicode="&#xe1c;" horiz-adv-x="707" 
d="M190 692.5q-9 -4.5 -24 -31.5t-12 -80q98 12 125.5 44.5t25.5 52.5q-8 6 -13 14t-25 18t-60 -7q-8 -6 -17 -10.5zM652 46q0 -36 -30 -42t-53 31q-23 38 -46 79.5t-44 82.5t-40.5 83t-41.5 86q-25 -44 -53 -132t-45.5 -131t-46.5 -78t-65 -1q-22 24 -24.5 56.5t-3.5 53
t-5 42.5t-29.5 122t-40.5 200q-22 9 -29 21t-11.5 21.5t-7.5 18t-6 24.5t12.5 30t34.5 9q3 63 23.5 100.5t65.5 65.5q213 46 229 -125q2 -13 -6 -27t-16.5 -29t-23.5 -27q-101 -77 -183 -90q13 -81 34.5 -160t34.5 -160q9 24 22.5 64.5t30.5 83.5t36.5 80.5t40.5 54.5
t40.5 11.5t38.5 -27.5t63 -109t63 -105l-13 513q6 36 37.5 37.5t41.5 -33.5q2 -174 9 -346.5t7 -347.5z" />
    <glyph glyph-name="fofa" unicode="&#xbd;" horiz-adv-x="762" 
d="M220 692.5q-9 -4.5 -24 -31.5t-12 -80q98 12 125.5 44.5t25.5 52.5q-8 6 -13 14t-25 18t-60 -7q-8 -6 -17 -10.5zM682 46q0 -36 -30 -42t-53 31q-23 38 -46 79.5t-44 82.5t-40.5 83t-41.5 86q-25 -44 -53 -132t-45.5 -131t-46.5 -78t-65 -1q-22 24 -24.5 56.5t-3.5 53
t-5 42.5t-29.5 122t-40.5 200q-22 9 -29 21t-11.5 21.5t-7.5 18t-6 24.5t12.5 30t34.5 9q3 63 23.5 100.5t65.5 65.5q213 46 229 -125q2 -13 -6 -27t-16.5 -29t-23.5 -27q-101 -77 -183 -90q13 -81 34.5 -160t34.5 -160q9 24 22.5 64.5t30.5 83.5t36.5 80.5t40.5 54.5
t40.5 11.5t38.5 -27.5t63 -109t63 -105q-1 43 -1 47l4 708q6 36 37.5 37.5t41.5 -33.5q1 -58 1 -63v-40l-1 -133v-700z" />
    <glyph glyph-name="fofa" unicode="&#xe1d;" horiz-adv-x="762" 
d="M220 692.5q-9 -4.5 -24 -31.5t-12 -80q98 12 125.5 44.5t25.5 52.5q-8 6 -13 14t-25 18t-60 -7q-8 -6 -17 -10.5zM682 46q0 -36 -30 -42t-53 31q-23 38 -46 79.5t-44 82.5t-40.5 83t-41.5 86q-25 -44 -53 -132t-45.5 -131t-46.5 -78t-65 -1q-22 24 -24.5 56.5t-3.5 53
t-5 42.5t-29.5 122t-40.5 200q-22 9 -29 21t-11.5 21.5t-7.5 18t-6 24.5t12.5 30t34.5 9q3 63 23.5 100.5t65.5 65.5q213 46 229 -125q2 -13 -6 -27t-16.5 -29t-23.5 -27q-101 -77 -183 -90q13 -81 34.5 -160t34.5 -160q9 24 22.5 64.5t30.5 83.5t36.5 80.5t40.5 54.5
t40.5 11.5t38.5 -27.5t63 -109t63 -105q-1 43 -1 47l4 708q6 36 37.5 37.5t41.5 -33.5q1 -58 1 -63v-40l-1 -133v-700z" />
    <glyph glyph-name="popan" unicode="&#xbe;" horiz-adv-x="852" 
d="M283 601q-24 63 -63 88q-38 25 -68 6.5t-32 -57.5q-2 -61 43.5 -72.5t73.5 4.5q29 16 46 31zM404 2q-10 -8 -29 -8t-33 27q-15 64 -13 112.5t2 79.5v118q0 118 -22 191q-132 -85 -201 -18.5t-71.5 128.5t31 94t61.5 43t95 11t101 -83q2 -4 4 -7.5t4 -7.5q2 4 2.5 6.5
t0.5 0.5q12 35 45.5 28.5t30.5 -45.5t-19 -58q-15 -20 -19 -26q29 -88 31.5 -195.5t3.5 -141.5q12 42 25 82.5t23 72.5t22 87.5t53 88.5q26 10 46 -5q21 -16 32.5 -38t19 -47t18.5 -80t50 -166l-6 336q0 2 0.5 11.5t1.5 35t5 52.5t6 82q6 35 38.5 37.5t42.5 -32.5
q-2 -50 -7.5 -95t-6.5 -104t1.5 -125.5t6 -178t-13.5 -223.5q-12 -29 -38 -30.5t-40 27.5q-6 45 -31.5 101.5t-39.5 97.5t-30 99.5t-33 118.5q-15 -63 -36.5 -123.5t-33.5 -102.5t-17 -56t-10 -27t-9.5 -27t-12 -41t-11 -34t-6.5 -21q-4 -14 -14 -22z" />
    <glyph glyph-name="popan" unicode="&#xe1e;" horiz-adv-x="852" 
d="M283 601q-24 63 -63 88q-38 25 -68 6.5t-32 -57.5q-2 -61 43.5 -72.5t73.5 4.5q29 16 46 31zM404 2q-10 -8 -29 -8t-33 27q-15 64 -13 112.5t2 79.5v118q0 118 -22 191q-132 -85 -201 -18.5t-71.5 128.5t31 94t61.5 43t95 11t101 -83q2 -4 4 -7.5t4 -7.5q2 4 2.5 6.5
t0.5 0.5q12 35 45.5 28.5t30.5 -45.5t-19 -58q-15 -20 -19 -26q29 -88 31.5 -195.5t3.5 -141.5q12 42 25 82.5t23 72.5t22 87.5t53 88.5q26 10 46 -5q21 -16 32.5 -38t19 -47t18.5 -80t50 -166l-6 336q0 2 0.5 11.5t1.5 35t5 52.5t6 82q6 35 38.5 37.5t42.5 -32.5
q-2 -50 -7.5 -95t-6.5 -104t1.5 -125.5t6 -178t-13.5 -223.5q-12 -29 -38 -30.5t-40 27.5q-6 45 -31.5 101.5t-39.5 97.5t-30 99.5t-33 118.5q-15 -63 -36.5 -123.5t-33.5 -102.5t-17 -56t-10 -27t-9.5 -27t-12 -41t-11 -34t-6.5 -21q-4 -14 -14 -22z" />
    <glyph glyph-name="fofun" unicode="&#xbf;" horiz-adv-x="869" 
d="M283 601q-24 63 -63 88q-38 25 -68 6.5t-32 -57.5q-2 -61 43.5 -72.5t73.5 4.5q29 16 46 31zM404 2q-10 -8 -29 -8t-33 27q-15 64 -13 112.5t2 79.5v118q0 118 -22 191q-132 -85 -201 -18.5t-71.5 128.5t31 94t61.5 43t95 11t101 -83q2 -4 4 -7.5t4 -7.5q2 4 2.5 6.5
t0.5 0.5q12 35 45.5 28.5t30.5 -45.5t-19 -58q-15 -20 -19 -26q29 -88 31.5 -195.5t3.5 -141.5q12 42 25 82.5t23 72.5t22 87.5t53 88.5q26 10 46 -5q21 -16 32.5 -38t19 -47t18.5 -80t50 -166l-6 336q0 2 0.5 11.5t1.5 35t2 33.5q1 9 3.5 34.5t5.5 60t6 73.5t5.5 73.5
t4 59.5t3.5 39t13.5 23.5t34 11t32.5 -33.5l-32 -426q-1 -67 1.5 -133.5t6 -178t-13.5 -223.5q-12 -29 -38 -30.5t-40 27.5q-6 45 -31.5 101.5t-39.5 97.5t-30 99.5t-33 118.5q-15 -63 -36.5 -123.5t-33.5 -102.5t-17 -56t-10 -27t-9.5 -27t-12 -41t-11 -34t-6.5 -21
q-4 -14 -14 -22z" />
    <glyph glyph-name="fofun" unicode="&#xe1f;" horiz-adv-x="869" 
d="M283 601q-24 63 -63 88q-38 25 -68 6.5t-32 -57.5q-2 -61 43.5 -72.5t73.5 4.5q29 16 46 31zM404 2q-10 -8 -29 -8t-33 27q-15 64 -13 112.5t2 79.5v118q0 118 -22 191q-132 -85 -201 -18.5t-71.5 128.5t31 94t61.5 43t95 11t101 -83q2 -4 4 -7.5t4 -7.5q2 4 2.5 6.5
t0.5 0.5q12 35 45.5 28.5t30.5 -45.5t-19 -58q-15 -20 -19 -26q29 -88 31.5 -195.5t3.5 -141.5q12 42 25 82.5t23 72.5t22 87.5t53 88.5q26 10 46 -5q21 -16 32.5 -38t19 -47t18.5 -80t50 -166l-6 336q0 2 0.5 11.5t1.5 35t2 33.5q1 9 3.5 34.5t5.5 60t6 73.5t5.5 73.5
t4 59.5t3.5 39t13.5 23.5t34 11t32.5 -33.5l-32 -426q-1 -67 1.5 -133.5t6 -178t-13.5 -223.5q-12 -29 -38 -30.5t-40 27.5q-6 45 -31.5 101.5t-39.5 97.5t-30 99.5t-33 118.5q-15 -63 -36.5 -123.5t-33.5 -102.5t-17 -56t-10 -27t-9.5 -27t-12 -41t-11 -34t-6.5 -21
q-4 -14 -14 -22z" />
    <glyph glyph-name="posumpao" unicode="&#xc0;" horiz-adv-x="678" 
d="M238 73q15 20 22.5 41t-4.5 55q-27 18 -67 12t-45 -19q-5 -12 -6.5 -17.5t-2 -10.5t-1 -11t-1.5 -16l12 -26q54 -23 93 -8zM335 142q0 -94 -56 -130.5t-143.5 -3t-71.5 153.5t192 87q-10 112 -23 166q-14 55 -15.5 62.5t-4.5 15.5q-14 -2 -51.5 -17t-63.5 -11
q-17 10 -28 33q-12 23 -10 42t16 47.5t47.5 71.5t96.5 84t108 42q45 2 75.5 2.5t129 -47t85.5 -341.5t-14 -370q-1 -21 -12.5 -32t-37 -12t-29.5 40q1 72 9 268t-21.5 270t-33.5 79t-18 29t-43 36t-73.5 5t-105.5 -58.5t-91 -98.5q90 31 123 -6t50 -184t14 -169v-54z" />
    <glyph glyph-name="posumpao" unicode="&#xe20;" horiz-adv-x="678" 
d="M238 73q15 20 22.5 41t-4.5 55q-27 18 -67 12t-45 -19q-5 -12 -6.5 -17.5t-2 -10.5t-1 -11t-1.5 -16l12 -26q54 -23 93 -8zM335 142q0 -94 -56 -130.5t-143.5 -3t-71.5 153.5t192 87q-10 112 -23 166q-14 55 -15.5 62.5t-4.5 15.5q-14 -2 -51.5 -17t-63.5 -11
q-17 10 -28 33q-12 23 -10 42t16 47.5t47.5 71.5t96.5 84t108 42q45 2 75.5 2.5t129 -47t85.5 -341.5t-14 -370q-1 -21 -12.5 -32t-37 -12t-29.5 40q1 72 9 268t-21.5 270t-33.5 79t-18 29t-43 36t-73.5 5t-105.5 -58.5t-91 -98.5q90 31 123 -6t50 -184t14 -169v-54z" />
    <glyph glyph-name="moma" unicode="&#xc1;" horiz-adv-x="715" 
d="M261 98q42 30 45 196q-42 27 -67 20q-39 -11 -27 -93t28 -99.5t21 -23.5zM206 574q26 1 44.5 14.5t38.5 26.5q-39 137 -159 91q-27 -39 -1 -86.5t77 -45.5zM305 391q0 34 0.5 68.5t-1.5 69.5q-2 -1 -12 -8q-30 -21 -93 -29t-109 49.5t-56 139t88 106.5q222 57 245.5 -132
t18.5 -320q68 -53 116.5 -113.5t65.5 -80.5l1 5v602q6 36 37.5 37.5t41.5 -33.5v-589q0 -18 -2.5 -36.5t-1.5 -34.5t3.5 -30.5t-0.5 -30.5q-13 -34 -51 -30q-30 15 -53.5 43.5t-63 80.5t-98.5 106q-13 -190 -101 -218q-51 -16 -95 48.5t-54 162t37 137.5q11 9 20.5 19
t39.5 16t77 -14v9z" />
    <glyph glyph-name="moma" unicode="&#xe21;" horiz-adv-x="715" 
d="M261 98q42 30 45 196q-42 27 -67 20q-39 -11 -27 -93t28 -99.5t21 -23.5zM206 574q26 1 44.5 14.5t38.5 26.5q-39 137 -159 91q-27 -39 -1 -86.5t77 -45.5zM305 391q0 34 0.5 68.5t-1.5 69.5q-2 -1 -12 -8q-30 -21 -93 -29t-109 49.5t-56 139t88 106.5q222 57 245.5 -132
t18.5 -320q68 -53 116.5 -113.5t65.5 -80.5l1 5v602q6 36 37.5 37.5t41.5 -33.5v-589q0 -18 -2.5 -36.5t-1.5 -34.5t3.5 -30.5t-0.5 -30.5q-13 -34 -51 -30q-30 15 -53.5 43.5t-63 80.5t-98.5 106q-13 -190 -101 -218q-51 -16 -95 48.5t-54 162t37 137.5q11 9 20.5 19
t39.5 16t77 -14v9z" />
    <glyph glyph-name="yoyak" unicode="&#xc2;" horiz-adv-x="686" 
d="M279 700q-20 17 -51 17q-32 0 -60 -12t-39 -60q-7 -15 7 -54q13 -18 56.5 -18t91.5 41t-5 86zM626 299q2 -91 1.5 -171.5t-17 -98.5t-104.5 -29t-183 8q-140 35 -105.5 158t73.5 192h-13q-122 0 -198 95q-45 63 -33.5 169.5t81.5 147.5q55 36 120 19t97 -52t34.5 -78
t-20 -75.5t-83 -64.5t-135.5 -13q36 -70 140 -74q65 5 92 -3q46 -29 16 -66.5t-54 -89.5t-30 -87q-6 -36 -12 -57t8 -34q14 -12 55 -18q42 -7 64 -6t46 3t45.5 4t33.5 3q10 73 6.5 148.5t-5.5 160.5t-4.5 179.5t-4.5 190.5q6 33 37 34.5t41 -30.5q2 -127 5.5 -250.5
t5.5 -214.5z" />
    <glyph glyph-name="yoyak" unicode="&#xe22;" horiz-adv-x="686" 
d="M279 700q-20 17 -51 17q-32 0 -60 -12t-39 -60q-7 -15 7 -54q13 -18 56.5 -18t91.5 41t-5 86zM626 299q2 -91 1.5 -171.5t-17 -98.5t-104.5 -29t-183 8q-140 35 -105.5 158t73.5 192h-13q-122 0 -198 95q-45 63 -33.5 169.5t81.5 147.5q55 36 120 19t97 -52t34.5 -78
t-20 -75.5t-83 -64.5t-135.5 -13q36 -70 140 -74q65 5 92 -3q46 -29 16 -66.5t-54 -89.5t-30 -87q-6 -36 -12 -57t8 -34q14 -12 55 -18q42 -7 64 -6t46 3t45.5 4t33.5 3q10 73 6.5 148.5t-5.5 160.5t-4.5 179.5t-4.5 190.5q6 33 37 34.5t41 -30.5q2 -127 5.5 -250.5
t5.5 -214.5z" />
    <glyph glyph-name="roreua" unicode="&#xc3;" horiz-adv-x="601" 
d="M348 214q-24 0 -43 -9.5t-41 -32.5t-16.5 -56.5t62 -31.5t68 26t16.5 42q-8 8 -9 24t-7 27t-30 11zM221 700q-13 0 -58 -59l14 2l21 3q128 13 184 -41q40 -34 48 -53q83 -179 53.5 -346.5t-87.5 -189.5q-46 -17 -106 -14q-121 6 -125 149q0 56 81 114.5t158 17.5
q3 152 -41 222t-127 60t-104 -10t-76.5 12.5t23.5 107t113 103.5t70 6.5t45 -2.5l161 -3h20t21 -1q24 9 41 -10.5t10 -40.5q-8 -22 -19.5 -27.5t-24.5 -6.5t-49 3t-246 4z" />
    <glyph glyph-name="roreua" unicode="&#xe23;" horiz-adv-x="601" 
d="M348 214q-24 0 -43 -9.5t-41 -32.5t-16.5 -56.5t62 -31.5t68 26t16.5 42q-8 8 -9 24t-7 27t-30 11zM221 700q-13 0 -58 -59l14 2l21 3q128 13 184 -41q40 -34 48 -53q83 -179 53.5 -346.5t-87.5 -189.5q-46 -17 -106 -14q-121 6 -125 149q0 56 81 114.5t158 17.5
q3 152 -41 222t-127 60t-104 -10t-76.5 12.5t23.5 107t113 103.5t70 6.5t45 -2.5l161 -3h20t21 -1q24 9 41 -10.5t10 -40.5q-8 -22 -19.5 -27.5t-24.5 -6.5t-49 3t-246 4z" />
    <glyph glyph-name="ru" unicode="&#xc4;" horiz-adv-x="670" 
d="M197 170q0 -8 -1.5 -20.5t0 -36t10.5 -29.5q18 -12 82 -4q11 11 12 13q18 40 8.5 67t-30.5 38.5t-45 6t-36 -31.5v-3zM310 809.5q35 -0.5 109.5 -23.5t124 -134.5t50 -242.5t-1.5 -165t-4 -79t-5 -89t-17 -190t-19 -231q-12 -34 -43.5 -30.5t-35.5 39.5q6 95 16.5 191
t32.5 343.5t-20.5 351t-69.5 134.5t-91 43q-10 2 -21 1.5t-18 -0.5t-13 -1q20 4 -17.5 -8t-45.5 -16q-8 -3 -18.5 -14t-20.5 -24.5t-19.5 -27t-17.5 -21.5q21 -4 43 -5t50 -15t35 -40.5t0 -56.5t-21.5 -60.5t-22.5 -58.5t-11 -61q-4 -33 -4.5 -33.5t-0.5 -1.5
q61 10 126.5 -33.5t50.5 -144.5t-103.5 -110t-122.5 16.5t-40 55.5t-6.5 58t2.5 56t7.5 56.5t8.5 72.5t14 78t28 71t16 66q-19 10 -59.5 14t-61.5 14t-23 28t-2.5 25.5t4 19t56.5 71t68 71.5q16 11 33.5 16t41.5 15t59 9.5z" />
    <glyph glyph-name="ru" unicode="&#xe24;" horiz-adv-x="670" 
d="M197 170q0 -8 -1.5 -20.5t0 -36t10.5 -29.5q18 -12 82 -4q11 11 12 13q18 40 8.5 67t-30.5 38.5t-45 6t-36 -31.5v-3zM310 809.5q35 -0.5 109.5 -23.5t124 -134.5t50 -242.5t-1.5 -165t-4 -79t-5 -89t-17 -190t-19 -231q-12 -34 -43.5 -30.5t-35.5 39.5q6 95 16.5 191
t32.5 343.5t-20.5 351t-69.5 134.5t-91 43q-10 2 -21 1.5t-18 -0.5t-13 -1q20 4 -17.5 -8t-45.5 -16q-8 -3 -18.5 -14t-20.5 -24.5t-19.5 -27t-17.5 -21.5q21 -4 43 -5t50 -15t35 -40.5t0 -56.5t-21.5 -60.5t-22.5 -58.5t-11 -61q-4 -33 -4.5 -33.5t-0.5 -1.5
q61 10 126.5 -33.5t50.5 -144.5t-103.5 -110t-122.5 16.5t-40 55.5t-6.5 58t2.5 56t7.5 56.5t8.5 72.5t14 78t28 71t16 66q-19 10 -59.5 14t-61.5 14t-23 28t-2.5 25.5t4 19t56.5 71t68 71.5q16 11 33.5 16t41.5 15t59 9.5z" />
    <glyph glyph-name="loling" unicode="&#xc5;" horiz-adv-x="682" 
d="M594 52q0 1 -1 2zM205 82q25 -5 57 46q14 22 10 44q-3 22 -26 40q-23 19 -64 3q-7 -87 23 -133zM102 168l-12 8q-12 8 -7 35t21 46q22 165 140 235q40 24 75 26q55 2 89 -29q67 -60 129 -221q-5 382 -133 443q-83 37 -205 -85q-37 -37 -52 -64t-24 -41q-1 -9 -12 -21
t-33 -10t-32 19q-8 19 -2 33t12 26t13 23t14 19t18 24q38 54 119 113t145 51q19 -2 37 -4t50 -16q30 -14 60 -53t51 -89q53 -133 53 -367v-105q2 -102 -24 -148q-18 -21 -39 -18t-29 20q-8 18 -9 28q0 10 -5 26t-7 36q-3 22 -11 47q-81 237 -152 284q-8 0 -23 -5t-23 -7
q-64 -17 -98 -128q110 7 146 -79q10 -22 10 -56t-23 -80t-63 -66q-41 -20 -60 -17q-19 1 -39 7t-32 26q-13 20 -19 46q-6 24 -8 48t-4 32z" />
    <glyph glyph-name="loling" unicode="&#xe25;" horiz-adv-x="682" 
d="M594 52q0 1 -1 2zM205 82q25 -5 57 46q14 22 10 44q-3 22 -26 40q-23 19 -64 3q-7 -87 23 -133zM102 168l-12 8q-12 8 -7 35t21 46q22 165 140 235q40 24 75 26q55 2 89 -29q67 -60 129 -221q-5 382 -133 443q-83 37 -205 -85q-37 -37 -52 -64t-24 -41q-1 -9 -12 -21
t-33 -10t-32 19q-8 19 -2 33t12 26t13 23t14 19t18 24q38 54 119 113t145 51q19 -2 37 -4t50 -16q30 -14 60 -53t51 -89q53 -133 53 -367v-105q2 -102 -24 -148q-18 -21 -39 -18t-29 20q-8 18 -9 28q0 10 -5 26t-7 36q-3 22 -11 47q-81 237 -152 284q-8 0 -23 -5t-23 -7
q-64 -17 -98 -128q110 7 146 -79q10 -22 10 -56t-23 -80t-63 -66q-41 -20 -60 -17q-19 1 -39 7t-32 26q-13 20 -19 46q-6 24 -8 48t-4 32z" />
    <glyph glyph-name="lu" unicode="&#xc6;" horiz-adv-x="703" 
d="M186 88q19 -2 43.5 9t24.5 33q-16 5 -25 24q-11 35 -46.5 24t-48 -23.5t-6.5 -28.5t22.5 -26t35.5 -12zM256 249q0 170 -5 249q-26 8 -84.5 1t-80.5 -2q-25 14 -27 44q-4 59 72.5 133.5t144.5 92.5t100 16t52 -4t32 -8t23.5 -14.5t23 -18t27.5 -19.5t48 -77t38.5 -106.5
t9.5 -81t2.5 -81t1.5 -89.5t-3 -133.5t-13 -169t-16.5 -169t-12.5 -153.5q-12 -34 -43.5 -30.5t-35.5 39.5q3 61 11 136t21.5 220.5t14.5 346.5t-75.5 285t-177.5 35t-148 -115q67 5 103 2.5t52 -21t20 -77.5t4 -62v-91q1 -39 1 -71v-68q-1 -74 -17.5 -110.5t-86.5 -64.5
t-153 46q-31 28 -33 66q-1 38 20 69t73 58.5t117 -10.5v7z" />
    <glyph glyph-name="lu" unicode="&#xe26;" horiz-adv-x="703" 
d="M186 88q19 -2 43.5 9t24.5 33q-16 5 -25 24q-11 35 -46.5 24t-48 -23.5t-6.5 -28.5t22.5 -26t35.5 -12zM256 249q0 170 -5 249q-26 8 -84.5 1t-80.5 -2q-25 14 -27 44q-4 59 72.5 133.5t144.5 92.5t100 16t52 -4t32 -8t23.5 -14.5t23 -18t27.5 -19.5t48 -77t38.5 -106.5
t9.5 -81t2.5 -81t1.5 -89.5t-3 -133.5t-13 -169t-16.5 -169t-12.5 -153.5q-12 -34 -43.5 -30.5t-35.5 39.5q3 61 11 136t21.5 220.5t14.5 346.5t-75.5 285t-177.5 35t-148 -115q67 5 103 2.5t52 -21t20 -77.5t4 -62v-91q1 -39 1 -71v-68q-1 -74 -17.5 -110.5t-86.5 -64.5
t-153 46q-31 28 -33 66q-1 38 20 69t73 58.5t117 -10.5v7z" />
    <glyph glyph-name="wowain" unicode="&#xc7;" horiz-adv-x="520" 
d="M307 73q30 13 40 35t12 53q-11 42 -58 54t-78 -30q-11 -15 -9 -29t3 -31q33 -62 90 -52zM148 204q16 35 56 64q41 29 86 25q46 -4 84 -33q26 185 7 316q-6 36 -15 50q-8 14 -17 26t-35 28t-56 22q-109 24 -134 -68q-3 -12 -4 -25q-2 -13 -6 -29q-9 -33 -39 -30
q-30 4 -34 38q19 135 72 161q19 9 37 19q42 24 130 7t122 -67q6 -8 20 -26q29 -38 37 -138q8 -101 1 -180q-8 -80 -11 -120q-21 -272 -189 -240q-56 11 -86 52q-30 42 -36 78t10 70z" />
    <glyph glyph-name="wowain" unicode="&#xe27;" horiz-adv-x="520" 
d="M307 73q30 13 40 35t12 53q-11 42 -58 54t-78 -30q-11 -15 -9 -29t3 -31q33 -62 90 -52zM148 204q16 35 56 64q41 29 86 25q46 -4 84 -33q26 185 7 316q-6 36 -15 50q-8 14 -17 26t-35 28t-56 22q-109 24 -134 -68q-3 -12 -4 -25q-2 -13 -6 -29q-9 -33 -39 -30
q-30 4 -34 38q19 135 72 161q19 9 37 19q42 24 130 7t122 -67q6 -8 20 -26q29 -38 37 -138q8 -101 1 -180q-8 -80 -11 -120q-21 -272 -189 -240q-56 11 -86 52q-30 42 -36 78t10 70z" />
    <glyph glyph-name="sosala" unicode="&#xc8;" horiz-adv-x="674" 
d="M274 410q-14 -20 -9 -44.5t27 -32.5q73 -27 94.5 9t11.5 58q-15 35 -63.5 36t-60.5 -26zM532 225v164q0 164 -61 249q-65 -46 -107 -54q-62 -12 -72.5 23.5t29.5 49.5q39 8 83 33q-58 31 -182.5 -4.5t-81.5 -371.5q20 116 91 164t143.5 29t100 -86t-17 -118t-99.5 -51
q-12 -7 -60 -2q-49 5 -81 33q-6 -36 -6.5 -68t-1.5 -85t-16 -108q-12 -34 -43.5 -30.5t-35.5 39.5q2 84 -6.5 105.5t-29 72t-26 220.5t61 247t134 93.5t132.5 7.5t98 -30q47 47 60 96q20 32 49.5 23.5t27.5 -45.5q-19 -67 -83 -133q82 -112 80.5 -255t-0.5 -195t-1 -103
q-1 -52 -1.5 -59.5t-1.5 -14.5t-2.5 -15t-5.5 -23q-7 -32 -37 -29.5t-38 34.5h-1l5 76q3 53 3 121z" />
    <glyph glyph-name="sosala" unicode="&#xe28;" horiz-adv-x="674" 
d="M274 410q-14 -20 -9 -44.5t27 -32.5q73 -27 94.5 9t11.5 58q-15 35 -63.5 36t-60.5 -26zM532 225v164q0 164 -61 249q-65 -46 -107 -54q-62 -12 -72.5 23.5t29.5 49.5q39 8 83 33q-58 31 -182.5 -4.5t-81.5 -371.5q20 116 91 164t143.5 29t100 -86t-17 -118t-99.5 -51
q-12 -7 -60 -2q-49 5 -81 33q-6 -36 -6.5 -68t-1.5 -85t-16 -108q-12 -34 -43.5 -30.5t-35.5 39.5q2 84 -6.5 105.5t-29 72t-26 220.5t61 247t134 93.5t132.5 7.5t98 -30q47 47 60 96q20 32 49.5 23.5t27.5 -45.5q-19 -67 -83 -133q82 -112 80.5 -255t-0.5 -195t-1 -103
q-1 -52 -1.5 -59.5t-1.5 -14.5t-2.5 -15t-5.5 -23q-7 -32 -37 -29.5t-38 34.5h-1l5 76q3 53 3 121z" />
    <glyph glyph-name="sorusi" unicode="&#xc9;" horiz-adv-x="908" 
d="M572 427.5q3 14.5 -3 37.5t-28 33q-44 21 -57 -16.5t10 -78.5q52 -3 63.5 3.5t14.5 21zM280 613q5 111 -93 96q-53 -9 -63.5 -48t24 -81.5t79.5 -17t53 50.5zM539 86q75 0 137 4v167q-180 -6 -231 76q-48 54 -46.5 135t77.5 106q76 24 128 -23t50.5 -116t-57.5 -98
q40 -9 80 -3q1 103 2 204.5t1 200.5q6 36 37.5 37.5t41.5 -33.5q0 -183 -2 -371q31 29 34 63t8 54q20 32 49.5 23.5t28.5 -41.5q-3 -69 -22 -100q-39 -66 -99 -96v-38q-1 -47 0.5 -94t-1.5 -94q-9 -20 -25 -30q-54 -14 -136 -14t-141 2t-84 0.5t-48 3.5q-17 10 -27 27
q-5 44 1.5 219.5t5.5 256.5q-49 -43 -126 -30t-120 76.5t-8 151.5q27 67 114.5 75t125 -10.5t49.5 -34.5q21 -27 36 -75t7 -271t-8 -307q93 -3 168 -3z" />
    <glyph glyph-name="sorusi" unicode="&#xe29;" horiz-adv-x="908" 
d="M572 427.5q3 14.5 -3 37.5t-28 33q-44 21 -57 -16.5t10 -78.5q52 -3 63.5 3.5t14.5 21zM280 613q5 111 -93 96q-53 -9 -63.5 -48t24 -81.5t79.5 -17t53 50.5zM539 86q75 0 137 4v167q-180 -6 -231 76q-48 54 -46.5 135t77.5 106q76 24 128 -23t50.5 -116t-57.5 -98
q40 -9 80 -3q1 103 2 204.5t1 200.5q6 36 37.5 37.5t41.5 -33.5q0 -183 -2 -371q31 29 34 63t8 54q20 32 49.5 23.5t28.5 -41.5q-3 -69 -22 -100q-39 -66 -99 -96v-38q-1 -47 0.5 -94t-1.5 -94q-9 -20 -25 -30q-54 -14 -136 -14t-141 2t-84 0.5t-48 3.5q-17 10 -27 27
q-5 44 1.5 219.5t5.5 256.5q-49 -43 -126 -30t-120 76.5t-8 151.5q27 67 114.5 75t125 -10.5t49.5 -34.5q21 -27 36 -75t7 -271t-8 -307q93 -3 168 -3z" />
    <glyph glyph-name="soseua" unicode="&#xca;" horiz-adv-x="711" 
d="M269.5 174.5q-11.5 1.5 -31.5 -0.5t-28 -21t-1 -38.5t26 -35t33 -14.5q30 2 46 17t11 39q-6 23 -14.5 32.5t-19 14.5t-22 6.5zM625 503.5q0 -84.5 -4.5 -133.5t-8.5 -104t-2.5 -112.5t1.5 -97.5q0 -57 -29 -62.5t-47 24.5q-27 107 -88.5 196.5t-74.5 109.5
q-20 30 -46 56.5t-39 21.5q-29 -11 -51 -58.5t-29 -107.5q37 12 85 0q48 -11 72.5 -34t36 -65.5t-27 -94.5t-99.5 -44q-82 14 -120 69.5t-30 133.5q32 243 143 272q79 20 151 -88q73 -108 117 -180q0 21 -0.5 41t1.5 48t7 73t7.5 123t-30.5 134q-1 0 -1 2q-55 -35 -95 -43
q-59 -12 -69.5 21.5t19.5 42.5q67 21 95 39q-76 60 -189.5 30t-149.5 -120q-7 -16 -8.5 -33.5t-6.5 -35.5q-10 -37 -45 -27t-27 47q32 159 127 207q97 50 197 44.5t166 -63.5q56 53 71 117q18 30 47 21.5t27 -43.5q-20 -86 -96 -156q43 -86 43 -170.5z" />
    <glyph glyph-name="soseua" unicode="&#xe2a;" horiz-adv-x="711" 
d="M269.5 174.5q-11.5 1.5 -31.5 -0.5t-28 -21t-1 -38.5t26 -35t33 -14.5q30 2 46 17t11 39q-6 23 -14.5 32.5t-19 14.5t-22 6.5zM625 503.5q0 -84.5 -4.5 -133.5t-8.5 -104t-2.5 -112.5t1.5 -97.5q0 -57 -29 -62.5t-47 24.5q-27 107 -88.5 196.5t-74.5 109.5
q-20 30 -46 56.5t-39 21.5q-29 -11 -51 -58.5t-29 -107.5q37 12 85 0q48 -11 72.5 -34t36 -65.5t-27 -94.5t-99.5 -44q-82 14 -120 69.5t-30 133.5q32 243 143 272q79 20 151 -88q73 -108 117 -180q0 21 -0.5 41t1.5 48t7 73t7.5 123t-30.5 134q-1 0 -1 2q-55 -35 -95 -43
q-59 -12 -69.5 21.5t19.5 42.5q67 21 95 39q-76 60 -189.5 30t-149.5 -120q-7 -16 -8.5 -33.5t-6.5 -35.5q-10 -37 -45 -27t-27 47q32 159 127 207q97 50 197 44.5t166 -63.5q56 53 71 117q18 30 47 21.5t27 -43.5q-20 -86 -96 -156q43 -86 43 -170.5z" />
    <glyph glyph-name="hohib" unicode="&#xcb;" horiz-adv-x="804" 
d="M552 684q-9 -42 57 -105q87 87 61 139q-21 31 -55.5 24t-49 -20.5t-14 -25t0.5 -12.5zM244 567q18 15 40 46q-34 83 -74.5 90t-67.5 -8q-40 -35 -17 -82.5t62 -53.5q39 -7 57 8zM306 433q0 48 -3 86q-57 -45 -100.5 -37.5t-93 34.5t-61.5 80q-13 53 -1 91.5t54 74
t125 14.5t116 -106q57 -111 36 -384q18 22 80.5 95.5t105.5 133.5q-54 57 -78 93.5t-15 84.5q16 91 103 113t157 -33q59 -59 21.5 -125t-59.5 -89.5t-31 -36.5q52 -71 60 -142t8 -129t-3.5 -114t-4.5 -87q-2 -52 -38.5 -53.5t-40.5 39.5q1 37 8 192t-38 224
q-46 -61 -94.5 -119.5t-78.5 -96.5t-42 -65.5t-32.5 -79.5t-42.5 -71q-14 -8 -26.5 -8t-27.5 11.5t-11 31.5t7.5 33.5t7 27.5t7 27t7.5 33t8.5 65t7.5 94.5t3 97.5z" />
    <glyph glyph-name="hohib" unicode="&#xe2b;" horiz-adv-x="804" 
d="M552 684q-9 -42 57 -105q87 87 61 139q-21 31 -55.5 24t-49 -20.5t-14 -25t0.5 -12.5zM244 567q18 15 40 46q-34 83 -74.5 90t-67.5 -8q-40 -35 -17 -82.5t62 -53.5q39 -7 57 8zM306 433q0 48 -3 86q-57 -45 -100.5 -37.5t-93 34.5t-61.5 80q-13 53 -1 91.5t54 74
t125 14.5t116 -106q57 -111 36 -384q18 22 80.5 95.5t105.5 133.5q-54 57 -78 93.5t-15 84.5q16 91 103 113t157 -33q59 -59 21.5 -125t-59.5 -89.5t-31 -36.5q52 -71 60 -142t8 -129t-3.5 -114t-4.5 -87q-2 -52 -38.5 -53.5t-40.5 39.5q1 37 8 192t-38 224
q-46 -61 -94.5 -119.5t-78.5 -96.5t-42 -65.5t-32.5 -79.5t-42.5 -71q-14 -8 -26.5 -8t-27.5 11.5t-11 31.5t7.5 33.5t7 27.5t7 27t7.5 33t8.5 65t7.5 94.5t3 97.5z" />
    <glyph glyph-name="lochula" unicode="&#xcc;" horiz-adv-x="1027" 
d="M234 598q12 8 20 11l14 7t8 5q-28 60 -44 74q-16 13 -38 17t-44 -8q-20 -12 -26 -30q-16 -48 36 -81q35 -21 74 5zM742 767q30 0 59 3q5 103 -49 142q-37 26 -107 -13q-27 -15 -41 -37t-2 -40q14 -20 36 -32t48 -18t56 -5zM800 52q0 -57 -31 -63t-48 28v3q-20 98 -78 213
q-15 32 -35 73q-42 85 -90 189q-17 -69 -23 -110q-5 -40 -15 -73t-20 -69q-39 -134 -54 -216v-5h-2q-14 -31 -35 -27q-38 6 -42 41q0 57 1 121t-1 171t-14 158q-11 50 -11 54q-90 -52 -174 -20q-40 16 -65 54q-26 38 -24 88q1 50 21 72q20 23 61 44t89 15q48 -7 75 -33
t48 -57q17 5 34 -7q31 -21 4 -74q33 -99 33 -288q13 46 20 92q6 46 14 77q8 30 11 48q12 72 43 96q27 9 49 -6q15 -17 21 -39t15 -44q10 -22 22 -46t29 -63q18 -37 42 -87t36 -76t15 -31q11 107 32 212t29 159t11 63q-62 -5 -95 2q-32 5 -60 11t-36 14q-9 8 -19 14
q-50 38 -58 61q-27 86 39 150t159 59q93 -4 134 -93q23 -50 23 -126q13 2 19 5l21 6q23 25 44 31q36 2 44 -27t-21 -49q-5 -5 -9 -11t-14 -11q-10 -7 -20 -11t-20 -7t-22 -5t-27 -3q-7 -46 -15 -89q-8 -42 -17 -90t-17 -111t-14 -127q-12 -128 -12 -230z" />
    <glyph glyph-name="lochula" unicode="&#xe2c;" horiz-adv-x="1027" 
d="M234 598q12 8 20 11l14 7t8 5q-28 60 -44 74q-16 13 -38 17t-44 -8q-20 -12 -26 -30q-16 -48 36 -81q35 -21 74 5zM742 767q30 0 59 3q5 103 -49 142q-37 26 -107 -13q-27 -15 -41 -37t-2 -40q14 -20 36 -32t48 -18t56 -5zM800 52q0 -57 -31 -63t-48 28v3q-20 98 -78 213
q-15 32 -35 73q-42 85 -90 189q-17 -69 -23 -110q-5 -40 -15 -73t-20 -69q-39 -134 -54 -216v-5h-2q-14 -31 -35 -27q-38 6 -42 41q0 57 1 121t-1 171t-14 158q-11 50 -11 54q-90 -52 -174 -20q-40 16 -65 54q-26 38 -24 88q1 50 21 72q20 23 61 44t89 15q48 -7 75 -33
t48 -57q17 5 34 -7q31 -21 4 -74q33 -99 33 -288q13 46 20 92q6 46 14 77q8 30 11 48q12 72 43 96q27 9 49 -6q15 -17 21 -39t15 -44q10 -22 22 -46t29 -63q18 -37 42 -87t36 -76t15 -31q11 107 32 212t29 159t11 63q-62 -5 -95 2q-32 5 -60 11t-36 14q-9 8 -19 14
q-50 38 -58 61q-27 86 39 150t159 59q93 -4 134 -93q23 -50 23 -126q13 2 19 5l21 6q23 25 44 31q36 2 44 -27t-21 -49q-5 -5 -9 -11t-14 -11q-10 -7 -20 -11t-20 -7t-22 -5t-27 -3q-7 -46 -15 -89q-8 -42 -17 -90t-17 -111t-14 -127q-12 -128 -12 -230z" />
    <glyph glyph-name="o_ang" unicode="&#xcd;" horiz-adv-x="642" 
d="M175 342q2 -18 39 -32q72 -26 106 20q19 26 17 54q-4 53 -46 68t-77 -20q-31 -26 -36 -58zM272 72q158 0 203 16q53 225 29 406t-98 211q-86 34 -181 -11q-94 -46 -107 -118q-8 -47 -25 -55q-15 -7 -29 -3t-23 18t-5 34q9 46 17 68q8 23 38 57q29 33 83 61t112 38
q234 40 286 -214q45 -222 -22 -519q-6 -21 -10 -33t-21 -18t-41 -10t-54 -4q-29 -2 -56 -2h-49h-45q-24 0 -56 2t-60 24q-28 21 -42 49q-12 28 -18 59t-6 63q0 33 1 67q3 114 26 173q37 98 139 104t141 -77q40 -84 -13 -174q-29 -53 -101 -63t-115 26q-5 -131 33 -159
q27 -16 69 -16z" />
    <glyph glyph-name="o_ang" unicode="&#xe2d;" horiz-adv-x="642" 
d="M175 342q2 -18 39 -32q72 -26 106 20q19 26 17 54q-4 53 -46 68t-77 -20q-31 -26 -36 -58zM272 72q158 0 203 16q53 225 29 406t-98 211q-86 34 -181 -11q-94 -46 -107 -118q-8 -47 -25 -55q-15 -7 -29 -3t-23 18t-5 34q9 46 17 68q8 23 38 57q29 33 83 61t112 38
q234 40 286 -214q45 -222 -22 -519q-6 -21 -10 -33t-21 -18t-41 -10t-54 -4q-29 -2 -56 -2h-49h-45q-24 0 -56 2t-60 24q-28 21 -42 49q-12 28 -18 59t-6 63q0 33 1 67q3 114 26 173q37 98 139 104t141 -77q40 -84 -13 -174q-29 -53 -101 -63t-115 26q-5 -131 33 -159
q27 -16 69 -16z" />
    <glyph glyph-name="honokhuktato" unicode="&#xce;" horiz-adv-x="650" 
d="M175 342q2 -18 39 -32q72 -26 106 20q19 26 17 54q-4 53 -46 68t-77 -20q-31 -26 -36 -58zM274 -6q-24 0 -56 2t-60 24q-28 21 -42 49q-12 28 -18 59t-6 63q0 33 1 67q3 114 26 173q37 98 139 104t141 -77q40 -84 -13 -174q-29 -53 -101 -63t-115 26q-5 -131 33 -159
q27 -16 69 -16q158 0 203 16q49 216 29 408q-8 70 -29 126q-65 -33 -149 -41q-36 3 -40 35q-4 31 31 44q59 5 114 29q-55 43 -155 22t-144 -95q-10 -16 -13 -34t-8 -36t-19 -26q-14 -6 -28 -2t-23 18t-5 34q9 46 17 68q8 23 38 57q29 33 83 61t112 38q136 23 210 -53
q2 -1 2 -2t1 -2q34 37 40 73t19 45t27 7t25 -13q11 -12 10 -33q-15 -88 -77 -146q89 -188 17 -564q-11 -58 -20 -81q-16 -35 -221 -31h-45z" />
    <glyph glyph-name="honokhuktato" unicode="&#xe2e;" horiz-adv-x="650" 
d="M175 342q2 -18 39 -32q72 -26 106 20q19 26 17 54q-4 53 -46 68t-77 -20q-31 -26 -36 -58zM274 -6q-24 0 -56 2t-60 24q-28 21 -42 49q-12 28 -18 59t-6 63q0 33 1 67q3 114 26 173q37 98 139 104t141 -77q40 -84 -13 -174q-29 -53 -101 -63t-115 26q-5 -131 33 -159
q27 -16 69 -16q158 0 203 16q49 216 29 408q-8 70 -29 126q-65 -33 -149 -41q-36 3 -40 35q-4 31 31 44q59 5 114 29q-55 43 -155 22t-144 -95q-10 -16 -13 -34t-8 -36t-19 -26q-14 -6 -28 -2t-23 18t-5 34q9 46 17 68q8 23 38 57q29 33 83 61t112 38q136 23 210 -53
q2 -1 2 -2t1 -2q34 37 40 73t19 45t27 7t25 -13q11 -12 10 -33q-15 -88 -77 -146q89 -188 17 -564q-11 -58 -20 -81q-16 -35 -221 -31h-45z" />
    <glyph glyph-name="paiyannoi" unicode="&#xcf;" horiz-adv-x="593" 
d="M135 611q6 0 17.5 -2t33.5 -4t29 7q14 16 4 57t-36 35t-46 -35t-14 -60q6 2 12 2zM434 666.5q0 51.5 2 71.5v2q8 34 38.5 35.5t40.5 -33.5q5 -48 3.5 -97.5t-2.5 -138.5t-3 -217.5t-2 -258.5q-1 -21 -12.5 -32t-37 -12t-29.5 40q0 117 1.5 231.5t2.5 230.5
q-20 -26 -59.5 -47t-73.5 -23q-76 -3 -156 43t-104 124t46.5 153.5t148.5 37.5q47 -21 61 -102.5t-21 -112.5q-35 -32 -89 -32q113 -73 179 6.5t66 131z" />
    <glyph glyph-name="paiyannoi" unicode="&#xe2f;" horiz-adv-x="593" 
d="M135 611q6 0 17.5 -2t33.5 -4t29 7q14 16 4 57t-36 35t-46 -35t-14 -60q6 2 12 2zM434 666.5q0 51.5 2 71.5v2q8 34 38.5 35.5t40.5 -33.5q5 -48 3.5 -97.5t-2.5 -138.5t-3 -217.5t-2 -258.5q-1 -21 -12.5 -32t-37 -12t-29.5 40q0 117 1.5 231.5t2.5 230.5
q-20 -26 -59.5 -47t-73.5 -23q-76 -3 -156 43t-104 124t46.5 153.5t148.5 37.5q47 -21 61 -102.5t-21 -112.5q-35 -32 -89 -32q113 -73 179 6.5t66 131z" />
    <glyph glyph-name="sara_a" unicode="&#xd0;" horiz-adv-x="650" 
d="M255 262q-13 65 -75 36q-1 0 -4.5 -3.5t-11 -10t-7.5 -8.5l-6 -47q43 -10 70 7t34 26zM76 172q-33 33 -26.5 53t19.5 28q4 54 34 85q53 57 123.5 46.5t100.5 -77.5q31 -67 -19.5 -111t-127.5 -46q42 -52 122 -61t129 24q94 61 94 161q6 36 37.5 37.5t41.5 -33.5
q0 -141 -116 -224q-70 -50 -187.5 -43t-165.5 62q-48 56 -59 99zM255 701q-13 65 -75 36q-1 0 -4.5 -3.5t-11 -10t-7.5 -8.5l-6 -47q43 -10 70 7t34 26zM76 611q-33 33 -26.5 53t19.5 28q4 54 34 85q53 57 123.5 46.5t100.5 -77.5q31 -67 -19.5 -111t-127.5 -46
q42 -52 122 -61t129 24q94 61 94 161q6 36 37.5 37.5t41.5 -33.5q0 -141 -116 -224q-70 -50 -187.5 -43t-165.5 62q-48 56 -59 99z" />
    <glyph glyph-name="sara_a" unicode="&#xe30;" horiz-adv-x="650" 
d="M255 262q-13 65 -75 36q-1 0 -4.5 -3.5t-11 -10t-7.5 -8.5l-6 -47q43 -10 70 7t34 26zM76 172q-33 33 -26.5 53t19.5 28q4 54 34 85q53 57 123.5 46.5t100.5 -77.5q31 -67 -19.5 -111t-127.5 -46q42 -52 122 -61t129 24q94 61 94 161q6 36 37.5 37.5t41.5 -33.5
q0 -141 -116 -224q-70 -50 -187.5 -43t-165.5 62q-48 56 -59 99zM255 701q-13 65 -75 36q-1 0 -4.5 -3.5t-11 -10t-7.5 -8.5l-6 -47q43 -10 70 7t34 26zM76 611q-33 33 -26.5 53t19.5 28q4 54 34 85q53 57 123.5 46.5t100.5 -77.5q31 -67 -19.5 -111t-127.5 -46
q42 -52 122 -61t129 24q94 61 94 161q6 36 37.5 37.5t41.5 -33.5q0 -141 -116 -224q-70 -50 -187.5 -43t-165.5 62q-48 56 -59 99z" />
    <glyph glyph-name="maihan_a_kas" unicode="&#xd1;" 
d="M-140 1057q-13 65 -75 36q-1 1 -5 -3t-10 -11q-8 -7 -8 -8l-6 -47q43 -10 85 16q12 8 19 17zM-319 967q-33 33 -26 53q6 20 19 28q4 54 34 85q53 57 123 46q70 -10 101 -77t-19 -111q-51 -44 -128 -46q42 -52 122 -61t129 24q94 61 94 161q6 36 38 37t41 -33
q0 -141 -116 -224q-70 -50 -187 -43t-166 62q-48 56 -59 99z" />
    <glyph glyph-name="maihan_a_kas" unicode="&#xe31;" 
d="M-140 1057q-13 65 -75 36q-1 1 -5 -3t-10 -11q-8 -7 -8 -8l-6 -47q43 -10 85 16q12 8 19 17zM-319 967q-33 33 -26 53q6 20 19 28q4 54 34 85q53 57 123 46q70 -10 101 -77t-19 -111q-51 -44 -128 -46q42 -52 122 -61t129 24q94 61 94 161q6 36 38 37t41 -33
q0 -141 -116 -224q-70 -50 -187 -43t-166 62q-48 56 -59 99z" />
    <glyph glyph-name="sara_aa" unicode="&#xd2;" horiz-adv-x="495" 
d="M31 514q4 114 59.5 188.5t136.5 78t119 -22.5t81 -109t29 -311t-16 -268q-3 -62 -39.5 -63.5t-40.5 39.5q2 59 20 342t-93 314t-143 -52.5t-34 -128.5t-38.5 -46.5t-40.5 39.5z" />
    <glyph glyph-name="sara_aa" unicode="&#xe32;" horiz-adv-x="495" 
d="M31 514q4 114 59.5 188.5t136.5 78t119 -22.5t81 -109t29 -311t-16 -268q-3 -62 -39.5 -63.5t-40.5 39.5q2 59 20 342t-93 314t-143 -52.5t-34 -128.5t-38.5 -46.5t-40.5 39.5z" />
    <glyph glyph-name="sara_um" unicode="&#xd3;" horiz-adv-x="530" 
d="M-97 943q30 49 -5 75.5t-82.5 12t-43.5 -63.5q25 -54 67.5 -48t63.5 24zM-102 1100q81 -28 90 -78q11 -54 -8.5 -93.5t-79 -74t-143.5 18.5t-69.5 108t38.5 83t70 38.5t102 -2.5zM48 513q4 114 59.5 188.5t136 78.5t118.5 -22t81.5 -109.5t29.5 -312t-16 -268.5
q-3 -62 -39.5 -63t-40.5 40q2 59 20 342t-93 314t-143 -52.5t-34 -128.5t-38.5 -46.5t-40.5 39.5z" />
    <glyph glyph-name="sara_um" unicode="&#xe33;" horiz-adv-x="530" 
d="M-97 943q30 49 -5 75.5t-82.5 12t-43.5 -63.5q25 -54 67.5 -48t63.5 24zM-102 1100q81 -28 90 -78q11 -54 -8.5 -93.5t-79 -74t-143.5 18.5t-69.5 108t38.5 83t70 38.5t102 -2.5zM48 513q4 114 59.5 188.5t136 78.5t118.5 -22t81.5 -109.5t29.5 -312t-16 -268.5
q-3 -62 -39.5 -63t-40.5 40q2 59 20 342t-93 314t-143 -52.5t-34 -128.5t-38.5 -46.5t-40.5 39.5z" />
    <glyph glyph-name="sara_i" unicode="&#xd4;" 
d="M-496 1060h303q-42 42 -156.5 75.5t-167.5 -55.5q-4 -7 -7.5 -12.5t-6.5 -12.5q23 5 35 5zM-86 1060q35 -10 33.5 -41.5t-37.5 -37.5q-62 0 -129 -1.5t-112 -2t-104 -1.5t-79 2q-5 -2 -10 -2t-21 -4t-38.5 4t-30.5 32q-13 43 21.5 104t65.5 77q71 37 106 35
q69 -4 151.5 -24t123 -69.5t49.5 -70.5h11z" />
    <glyph glyph-name="sara_i" unicode="&#xe34;" 
d="M-496 1060h303q-42 42 -156.5 75.5t-167.5 -55.5q-4 -7 -7.5 -12.5t-6.5 -12.5q23 5 35 5zM-86 1060q35 -10 33.5 -41.5t-37.5 -37.5q-62 0 -129 -1.5t-112 -2t-104 -1.5t-79 2q-5 -2 -10 -2t-21 -4t-38.5 4t-30.5 32q-13 43 21.5 104t65.5 77q71 37 106 35
q69 -4 151.5 -24t123 -69.5t49.5 -70.5h11z" />
    <glyph glyph-name="sara_ii" unicode="&#xd5;" 
d="M-505 1023h303q-42 42 -156.5 75.5t-167.5 -55.5q-4 -7 -7.5 -12.5t-6.5 -12.5q23 5 35 5zM-180 1110q2 20 2 39v33q-1 34 12.5 44t24.5 13q28 1 40 -16.5t3 -37.5q-1 -41 -4 -81t-4 -81h11q35 -10 33.5 -41.5t-37.5 -37.5q-62 0 -129 -1.5t-112 -2t-104 -1.5t-79 2
q-5 -2 -10 -2.5t-21 -4.5t-39 5t-31 33q-13 43 22 103.5t66 76.5q71 37 106 35q62 -4 132 -24.5t118 -52.5z" />
    <glyph glyph-name="sara_ii" unicode="&#xe35;" 
d="M-505 1023h303q-42 42 -156.5 75.5t-167.5 -55.5q-4 -7 -7.5 -12.5t-6.5 -12.5q23 5 35 5zM-180 1110q2 20 2 39v33q-1 34 12.5 44t24.5 13q28 1 40 -16.5t3 -37.5q-1 -41 -4 -81t-4 -81h11q35 -10 33.5 -41.5t-37.5 -37.5q-62 0 -129 -1.5t-112 -2t-104 -1.5t-79 2
q-5 -2 -10 -2.5t-21 -4.5t-39 5t-31 33q-13 43 22 103.5t66 76.5q71 37 106 35q62 -4 132 -24.5t118 -52.5z" />
    <glyph glyph-name="uni0E36" unicode="&#xd6;" 
d="M-151.5 1166q-14.5 0 -18.5 -11q-34 -27 2 -56q20 -1 39 -3t38 -2q7 39 -19.5 55.5t-41 16.5zM-576 1098h303q-42 42 -156.5 75.5t-167.5 -55.5q-4 -7 -7.5 -12.5t-6.5 -12.5q22 5 35 5zM-170 1019q-62 0 -129 -1.5t-112 -2t-104 -1.5t-79 2q-5 -2 -10 -2t-21 -4t-38.5 4
t-30.5 32q-13 43 21.5 104t65.5 77q71 37 106 35q167 -10 250 -77q-1 0 6 -5q12 39 46.5 54t72.5 7.5t70.5 -35.5t38.5 -58q21 -108 -36 -127q-29 -10 -57.5 -7t-56.5 5h-3z" />
    <glyph glyph-name="uni0E36" unicode="&#xe36;" 
d="M-151.5 1166q-14.5 0 -18.5 -11q-34 -27 2 -56q20 -1 39 -3t38 -2q7 39 -19.5 55.5t-41 16.5zM-576 1098h303q-42 42 -156.5 75.5t-167.5 -55.5q-4 -7 -7.5 -12.5t-6.5 -12.5q22 5 35 5zM-170 1019q-62 0 -129 -1.5t-112 -2t-104 -1.5t-79 2q-5 -2 -10 -2t-21 -4t-38.5 4
t-30.5 32q-13 43 21.5 104t65.5 77q71 37 106 35q167 -10 250 -77q-1 0 6 -5q12 39 46.5 54t72.5 7.5t70.5 -35.5t38.5 -58q21 -108 -36 -127q-29 -10 -57.5 -7t-56.5 5h-3z" />
    <glyph glyph-name="uni0E37" unicode="&#xd7;" 
d="M-505 1023h303q-42 42 -156.5 75.5t-167.5 -55.5q-4 -7 -7.5 -12.5t-6.5 -12.5q23 5 35 5zM-178 1149v33q-1 34 12.5 44t24.5 13q28 1 40 -16.5t3 -37.5q-1 -41 -4 -81t-4 -81h11q35 -10 33.5 -41.5t-37.5 -37.5q-62 0 -129 -1.5t-112 -2t-104 -1.5t-79 2q-5 -2 -10 -2.5
t-21 -4.5t-39 5t-31 33q-13 43 22 103.5t66 76.5q71 37 120 33t103 -18v81q6 36 37.5 37.5t41.5 -33.5v-113q30 -13 54 -29q2 20 2 39z" />
    <glyph glyph-name="uni0E37" unicode="&#xe37;" 
d="M-505 1023h303q-42 42 -156.5 75.5t-167.5 -55.5q-4 -7 -7.5 -12.5t-6.5 -12.5q23 5 35 5zM-178 1149v33q-1 34 12.5 44t24.5 13q28 1 40 -16.5t3 -37.5q-1 -41 -4 -81t-4 -81h11q35 -10 33.5 -41.5t-37.5 -37.5q-62 0 -129 -1.5t-112 -2t-104 -1.5t-79 2q-5 -2 -10 -2.5
t-21 -4.5t-39 5t-31 33q-13 43 22 103.5t66 76.5q71 37 120 33t103 -18v81q6 36 37.5 37.5t41.5 -33.5v-113q30 -13 54 -29q2 20 2 39z" />
    <glyph glyph-name="sara_u" unicode="&#xd8;" 
d="M-221 -131q-20 0 -37 -4t-24.5 -6.5t-13 -5.5t-10.5 -7.5t-13 -10.5q29 -29 60 -31t68 6q1 2 1 10t8 20q-19 29 -39 29zM-82 -250l-4 -220q-1 -21 -12.5 -32t-37 -12t-29.5 40l1 203v6q-77 -34 -151.5 -2t-86 79.5t20.5 75.5q11 9 19 16.5t26 17.5q51 30 143.5 22
t101.5 -99.5t9 -94.5z" />
    <glyph glyph-name="sara_u" unicode="&#xe38;" 
d="M-221 -131q-20 0 -37 -4t-24.5 -6.5t-13 -5.5t-10.5 -7.5t-13 -10.5q29 -29 60 -31t68 6q1 2 1 10t8 20q-19 29 -39 29zM-82 -250l-4 -220q-1 -21 -12.5 -32t-37 -12t-29.5 40l1 203v6q-77 -34 -151.5 -2t-86 79.5t20.5 75.5q11 9 19 16.5t26 17.5q51 30 143.5 22
t101.5 -99.5t9 -94.5z" />
    <glyph glyph-name="sara_uu" unicode="&#xd9;" 
d="M-360 -220l28 5v6q-2 7 -10 15t-19 12t-21 2t-19 -9q-16 -14 8 -23q23 -8 33 -8zM-345 -427q3 32 9 64t10 64q-64 -11 -122 28t-34 103q12 32 44 48t66 17t66 -14t44 -45t14 -60q4 -30 2 -60t-6 -62q-5 -30 -9 -60q13 -2 27 -5t26 7t18 28q6 20 10 45q2 25 2 53t-2 53
q-2 27 -4 49t0 38t12 26q11 10 24 10q31 1 41 -34q1 -26 5 -66t4 -110q1 -70 -21 -105q-38 -63 -96 -74q-57 -12 -113 28q-14 16 -17 34z" />
    <glyph glyph-name="sara_uu" unicode="&#xe39;" 
d="M-360 -220l28 5v6q-2 7 -10 15t-19 12t-21 2t-19 -9q-16 -14 8 -23q23 -8 33 -8zM-345 -427q3 32 9 64t10 64q-64 -11 -122 28t-34 103q12 32 44 48t66 17t66 -14t44 -45t14 -60q4 -30 2 -60t-6 -62q-5 -30 -9 -60q13 -2 27 -5t26 7t18 28q6 20 10 45q2 25 2 53t-2 53
q-2 27 -4 49t0 38t12 26q11 10 24 10q31 1 41 -34q1 -26 5 -66t4 -110q1 -70 -21 -105q-38 -63 -96 -74q-57 -12 -113 28q-14 16 -17 34z" />
    <glyph glyph-name="pintu" unicode="&#xda;" 
d="M-107 -189l1 1zM-111 -196q-4 10 -14 18q-11 14 -23 25t-20 25q-61 11 -92 8q-46 -60 -16 -93t65 -30q35 4 51 12q16 7 27 17t22 18zM-131 -53q34 -10 34 -39q9 -14 22 -26t32 -33q19 -22 12 -58q-12 -62 -100 -97q-88 -34 -155 4q-12 8 -34 20q-22 14 -36 46t-11 68
q5 81 62 116q37 26 131 5q22 -5 43 -6z" />
    <glyph glyph-name="pintu" unicode="&#xe3a;" 
d="M-107 -189l1 1zM-111 -196q-4 10 -14 18q-11 14 -23 25t-20 25q-61 11 -92 8q-46 -60 -16 -93t65 -30q35 4 51 12q16 7 27 17t22 18zM-131 -53q34 -10 34 -39q9 -14 22 -26t32 -33q19 -22 12 -58q-12 -62 -100 -97q-88 -34 -155 4q-12 8 -34 20q-22 14 -36 46t-11 68
q5 81 62 116q37 26 131 5q22 -5 43 -6z" />
    <glyph glyph-name="def___Copyright__C__2005_http___webnaipol.atspace.com_All_Rights_Reserved." unicode="&#xdb;" 
 />
    <glyph glyph-name="def___Copyright__C__2005_http___webnaipol.atspace.com_All_Rights_Reserved." unicode="&#xe3b;" 
 />
    <glyph glyph-name="def___Copyright__C__2005_http___webnaipol.atspace.com_All_Rights_Reserved." unicode="&#xdc;" 
 />
    <glyph glyph-name="def___Copyright__C__2005_http___webnaipol.atspace.com_All_Rights_Reserved." unicode="&#xe3c;" 
 />
    <glyph glyph-name="def___Copyright__C__2005_http___webnaipol.atspace.com_All_Rights_Reserved." unicode="&#xdd;" 
 />
    <glyph glyph-name="def___Copyright__C__2005_http___webnaipol.atspace.com_All_Rights_Reserved." unicode="&#xe3d;" 
 />
    <glyph glyph-name="baht" unicode="&#xdf;" horiz-adv-x="1021" 
d="M650.5 1063.5q-58.5 35.5 -119.5 50.5q0 -138 2 -278q5 3 10.5 6.5t17.5 9.5t33.5 19.5t54 40t46.5 71.5t-44.5 80.5zM304 747q98 31 150 52q-1 83 -1.5 164.5t-1.5 164.5q-74 8 -150 -3zM455 523q0 77 -1 155q-94 3 -117 -5t-32 -10q1 -130 1.5 -257.5t1.5 -256.5
q28 8 55 17t46 13t28.5 5t18.5 2v182q-1 78 -1 155zM534 419q0 -7 1 -93t1 -131q4 2 7.5 2.5t20.5 6.5t43 24t57 33q87 42 138 80.5t79 94.5q49 96 -17.5 171.5t-329.5 70.5v-259zM536 12q0 -12 -1 -36t-2 -68.5t6 -59.5q13 -32 -14 -49t-54 10q-18 29 -18 33l4 166v100
q-37 -7 -61 -15t-48.5 -15t-48.5 -14q-20 -26 -48 -12q-35 -8 -88 -11.5t-68.5 -5t-24.5 -1.5h-12q-36 4 -39.5 35.5t30.5 43.5q37 8 86.5 6t93.5 9q-1 131 -1.5 259.5t-2.5 259.5q-28 8 -29.5 36t28.5 40q-2 194 -2 384q-48 -14 -72.5 -30.5t-41.5 -26.5q-34 -6 -48.5 21
t13.5 51q17 10 52.5 33t99.5 38q8 23 30 26.5t37 -15.5q38 5 78.5 5t80.5 -3q-1 60 -1 64v175q6 36 37.5 37.5t41.5 -33.5l1 -254q204 -38 234 -147.5t-45.5 -178t-161.5 -111.5q371 -6 413.5 -150t-37.5 -244.5t-153 -136.5q-26 -13 -61 -28.5t-86 -47t-97 -35.5v-104z" />
    <glyph glyph-name="baht" unicode="&#xe3f;" horiz-adv-x="1021" 
d="M650.5 1063.5q-58.5 35.5 -119.5 50.5q0 -138 2 -278q5 3 10.5 6.5t17.5 9.5t33.5 19.5t54 40t46.5 71.5t-44.5 80.5zM304 747q98 31 150 52q-1 83 -1.5 164.5t-1.5 164.5q-74 8 -150 -3zM455 523q0 77 -1 155q-94 3 -117 -5t-32 -10q1 -130 1.5 -257.5t1.5 -256.5
q28 8 55 17t46 13t28.5 5t18.5 2v182q-1 78 -1 155zM534 419q0 -7 1 -93t1 -131q4 2 7.5 2.5t20.5 6.5t43 24t57 33q87 42 138 80.5t79 94.5q49 96 -17.5 171.5t-329.5 70.5v-259zM536 12q0 -12 -1 -36t-2 -68.5t6 -59.5q13 -32 -14 -49t-54 10q-18 29 -18 33l4 166v100
q-37 -7 -61 -15t-48.5 -15t-48.5 -14q-20 -26 -48 -12q-35 -8 -88 -11.5t-68.5 -5t-24.5 -1.5h-12q-36 4 -39.5 35.5t30.5 43.5q37 8 86.5 6t93.5 9q-1 131 -1.5 259.5t-2.5 259.5q-28 8 -29.5 36t28.5 40q-2 194 -2 384q-48 -14 -72.5 -30.5t-41.5 -26.5q-34 -6 -48.5 21
t13.5 51q17 10 52.5 33t99.5 38q8 23 30 26.5t37 -15.5q38 5 78.5 5t80.5 -3q-1 60 -1 64v175q6 36 37.5 37.5t41.5 -33.5l1 -254q204 -38 234 -147.5t-45.5 -178t-161.5 -111.5q371 -6 413.5 -150t-37.5 -244.5t-153 -136.5q-26 -13 -61 -28.5t-86 -47t-97 -35.5v-104z" />
    <glyph glyph-name="sara_e" unicode="&#xe0;" horiz-adv-x="383" 
d="M164 174q-6 -6 -9 -8q14 -53 37 -74q24 -22 44.5 -19.5t34.5 16t18.5 33.5t-2.5 32q-18 31 -85 36q-28 3 -38 -16zM133 388.5q0 -65.5 7 -131.5q55 19 147 -3.5t83 -111.5t-64.5 -127.5t-99.5 -18t-54 24.5t-19 15t-16.5 23.5t-13.5 25.5t-19 36t-19 93q-9 117 -11 188
t8.5 192.5t14.5 197.5q8 41 44.5 37.5t33.5 -57.5t-8.5 -120t-9.5 -132t-4 -131.5z" />
    <glyph glyph-name="sara_e" unicode="&#xe40;" horiz-adv-x="383" 
d="M164 174q-6 -6 -9 -8q14 -53 37 -74q24 -22 44.5 -19.5t34.5 16t18.5 33.5t-2.5 32q-18 31 -85 36q-28 3 -38 -16zM133 388.5q0 -65.5 7 -131.5q55 19 147 -3.5t83 -111.5t-64.5 -127.5t-99.5 -18t-54 24.5t-19 15t-16.5 23.5t-13.5 25.5t-19 36t-19 93q-9 117 -11 188
t8.5 192.5t14.5 197.5q8 41 44.5 37.5t33.5 -57.5t-8.5 -120t-9.5 -132t-4 -131.5z" />
    <glyph glyph-name="sara_ae" unicode="&#xe1;" horiz-adv-x="701" 
d="M489 179q-6 -6 -9 -8q14 -53 37 -74q24 -22 44.5 -19.5t34.5 16t18.5 33.5t-2.5 32q-18 31 -85 36q-28 3 -38 -16zM458 393.5q0 -65.5 7 -131.5q55 19 147 -3.5t83 -111.5t-64.5 -127.5t-99 -18t-53.5 24.5t-19.5 15t-17 23.5t-13.5 25.5t-19 36t-19 93q-9 117 -11 188
t8.5 192.5t14.5 197.5q8 41 44.5 37.5t33.5 -57.5t-8.5 -120t-9.5 -132t-4 -131.5zM164 174q-6 -6 -9 -8q14 -53 37 -74q24 -22 44.5 -19.5t34.5 16t18.5 33.5t-2.5 32q-18 31 -85 36q-28 3 -38 -16zM133 388.5q0 -65.5 7 -131.5q55 19 147 -3.5t83 -111.5t-64.5 -127.5
t-99.5 -18t-54 24.5t-19 15t-16.5 23.5t-13.5 25.5t-19 36t-19 93q-9 117 -11 188t8.5 192.5t14.5 197.5q8 41 44.5 37.5t33.5 -57.5t-8.5 -120t-9.5 -132t-4 -131.5z" />
    <glyph glyph-name="sara_ae" unicode="&#xe41;" horiz-adv-x="701" 
d="M489 179q-6 -6 -9 -8q14 -53 37 -74q24 -22 44.5 -19.5t34.5 16t18.5 33.5t-2.5 32q-18 31 -85 36q-28 3 -38 -16zM458 393.5q0 -65.5 7 -131.5q55 19 147 -3.5t83 -111.5t-64.5 -127.5t-99 -18t-53.5 24.5t-19.5 15t-17 23.5t-13.5 25.5t-19 36t-19 93q-9 117 -11 188
t8.5 192.5t14.5 197.5q8 41 44.5 37.5t33.5 -57.5t-8.5 -120t-9.5 -132t-4 -131.5zM164 174q-6 -6 -9 -8q14 -53 37 -74q24 -22 44.5 -19.5t34.5 16t18.5 33.5t-2.5 32q-18 31 -85 36q-28 3 -38 -16zM133 388.5q0 -65.5 7 -131.5q55 19 147 -3.5t83 -111.5t-64.5 -127.5
t-99.5 -18t-54 24.5t-19 15t-16.5 23.5t-13.5 25.5t-19 36t-19 93q-9 117 -11 188t8.5 192.5t14.5 197.5q8 41 44.5 37.5t33.5 -57.5t-8.5 -120t-9.5 -132t-4 -131.5z" />
    <glyph glyph-name="sara_o" unicode="&#xe2;" horiz-adv-x="431" 
d="M327.5 200q-6.5 15 -23.5 17t-29 -12q-13 -14 -16.5 -21.5t-22.5 -17.5q4 -14 10 -36t20.5 -28.5t27.5 1.5t23.5 26t13.5 37t-3.5 34zM56.5 1375.5q-53.5 36.5 -81.5 19t-50 -20.5q-22 -2 -38.5 22.5t21.5 97.5t74 83.5t58 11.5t33.5 2t30.5 0t71 -11.5t70 -8.5v1
q22 36 54 20.5t18 -55.5q-4 -8 -8 -16.5t-18 -20.5q-24 -21 -122.5 -3.5t-128.5 12.5t-49 -32q31 0 78 -20q82 -36 109.5 -78.5t48.5 -106.5q22 -63 25.5 -120.5t2.5 -218.5t-20 -378.5t-16 -293.5q22 20 36 29q28 19 71 5t62 -48q32 -59 17 -120q-14 -62 -99 -107.5
t-130.5 74t-23 493.5t22.5 511q0 136 -33 189q-32 52 -85.5 88.5z" />
    <glyph glyph-name="sara_o" unicode="&#xe42;" horiz-adv-x="431" 
d="M327.5 200q-6.5 15 -23.5 17t-29 -12q-13 -14 -16.5 -21.5t-22.5 -17.5q4 -14 10 -36t20.5 -28.5t27.5 1.5t23.5 26t13.5 37t-3.5 34zM56.5 1375.5q-53.5 36.5 -81.5 19t-50 -20.5q-22 -2 -38.5 22.5t21.5 97.5t74 83.5t58 11.5t33.5 2t30.5 0t71 -11.5t70 -8.5v1
q22 36 54 20.5t18 -55.5q-4 -8 -8 -16.5t-18 -20.5q-24 -21 -122.5 -3.5t-128.5 12.5t-49 -32q31 0 78 -20q82 -36 109.5 -78.5t48.5 -106.5q22 -63 25.5 -120.5t2.5 -218.5t-20 -378.5t-16 -293.5q22 20 36 29q28 19 71 5t62 -48q32 -59 17 -120q-14 -62 -99 -107.5
t-130.5 74t-23 493.5t22.5 511q0 136 -33 189q-32 52 -85.5 88.5z" />
    <glyph glyph-name="sara_ai_maimaun" unicode="&#xe3;" horiz-adv-x="501" 
d="M384 238q-10 28 -22 34q-26 12 -124 -42q34 -126 102 -130q24 -2 37.5 22.5t15 56t-8.5 59.5zM332 976.5q56 134.5 56 279.5q0 144 -58 241.5t-137.5 125t-141.5 -74.5t-47.5 -157.5t33.5 -72.5q67 -32 117.5 11.5t23.5 104.5q-13 4 -23.5 12.5t-23.5 11.5
q-31 17 -19 47.5t49 30.5q51 -14 74 -40t26 -76t-18.5 -93t-74 -82.5t-135 -7.5t-101.5 147q-10 62 31 161.5t95 133.5q53 35 106.5 34t123 -40t129.5 -160t50 -227q-4 -43 -5 -125t-64 -230q-17 -41 -32 -76.5t-88 -209.5t-58 -323q0 -2 0.5 -5t0.5 -6q79 47 113 48t62 -12
t48.5 -48t30 -101.5t-42 -132.5t-148.5 -32q-43 15 -68.5 54.5t-33 67.5t-11.5 43q-28 -11 -44 -0.5t-23.5 35t32.5 38.5q3 1 6.5 1.5t7.5 2.5l-4 16t-8 30q-13 52 12.5 170.5t75.5 234.5t106 250.5z" />
    <glyph glyph-name="sara_ai_maimaun" unicode="&#xe43;" horiz-adv-x="501" 
d="M384 238q-10 28 -22 34q-26 12 -124 -42q34 -126 102 -130q24 -2 37.5 22.5t15 56t-8.5 59.5zM332 976.5q56 134.5 56 279.5q0 144 -58 241.5t-137.5 125t-141.5 -74.5t-47.5 -157.5t33.5 -72.5q67 -32 117.5 11.5t23.5 104.5q-13 4 -23.5 12.5t-23.5 11.5
q-31 17 -19 47.5t49 30.5q51 -14 74 -40t26 -76t-18.5 -93t-74 -82.5t-135 -7.5t-101.5 147q-10 62 31 161.5t95 133.5q53 35 106.5 34t123 -40t129.5 -160t50 -227q-4 -43 -5 -125t-64 -230q-17 -41 -32 -76.5t-88 -209.5t-58 -323q0 -2 0.5 -5t0.5 -6q79 47 113 48t62 -12
t48.5 -48t30 -101.5t-42 -132.5t-148.5 -32q-43 15 -68.5 54.5t-33 67.5t-11.5 43q-28 -11 -44 -0.5t-23.5 35t32.5 38.5q3 1 6.5 1.5t7.5 2.5l-4 16t-8 30q-13 52 12.5 170.5t75.5 234.5t106 250.5z" />
    <glyph glyph-name="sara_ai_maimalai" unicode="&#xe4;" horiz-adv-x="468" 
d="M373 128q2 44 -49 67q-52 23 -93 3q8 -22 22 -44t23 -38t24 -20t31 -4q40 2 42 36zM133 365q0 103 8 191t21 176q12 88 28 174q16 87 24 139q8 53 14 83q4 30 10 67q32 212 32 279q-13 -10 -33 -36q-67 -87 -99 -106q-32 -20 -59 7q-33 63 -56 117t-54 109q-4 39 29 49
t47 -27q21 -33 39 -71t43 -82q19 22 41 50t59 67q38 40 76 40q32 -9 39 -35q4 -20 5 -38t3 -36t0 -52t-7 -74q-12 -97 -71 -446t-59 -553q0 -43 4 -82q25 9 53 9t64 -6t65 -30q29 -26 42 -59q29 -74 -13 -134t-137 -38q-33 10 -53 24q-20 15 -22 19l-9 18q-9 14 -17 31
t-16 31q-19 -4 -35 10t-11 42q7 18 14 30q-9 39 -9 143z" />
    <glyph glyph-name="sara_ai_maimalai" unicode="&#xe44;" horiz-adv-x="468" 
d="M373 128q2 44 -49 67q-52 23 -93 3q8 -22 22 -44t23 -38t24 -20t31 -4q40 2 42 36zM133 365q0 103 8 191t21 176q12 88 28 174q16 87 24 139q8 53 14 83q4 30 10 67q32 212 32 279q-13 -10 -33 -36q-67 -87 -99 -106q-32 -20 -59 7q-33 63 -56 117t-54 109q-4 39 29 49
t47 -27q21 -33 39 -71t43 -82q19 22 41 50t59 67q38 40 76 40q32 -9 39 -35q4 -20 5 -38t3 -36t0 -52t-7 -74q-12 -97 -71 -446t-59 -553q0 -43 4 -82q25 9 53 9t64 -6t65 -30q29 -26 42 -59q29 -74 -13 -134t-137 -38q-33 10 -53 24q-20 15 -22 19l-9 18q-9 14 -17 31
t-16 31q-19 -4 -35 10t-11 42q7 18 14 30q-9 39 -9 143z" />
    <glyph glyph-name="lakklangyao" unicode="&#xe5;" horiz-adv-x="521" 
d="M360 -322q12 234 12 485.5t-5 300.5q-10 94 -23 160t-90.5 87.5t-109.5 -62t-33 -117.5q-3 -56 -39.5 -57.5t-40.5 39.5q4 114 59.5 188.5t136.5 78t119 -22.5t53.5 -55.5t31 -92.5t18 -169t3.5 -288t-12 -448q-3 -65 -39.5 -66.5t-40.5 39.5z" />
    <glyph glyph-name="lakklangyao" unicode="&#xe45;" horiz-adv-x="521" 
d="M360 -322q12 234 12 485.5t-5 300.5q-10 94 -23 160t-90.5 87.5t-109.5 -62t-33 -117.5q-3 -56 -39.5 -57.5t-40.5 39.5q4 114 59.5 188.5t136.5 78t119 -22.5t53.5 -55.5t31 -92.5t18 -169t3.5 -288t-12 -448q-3 -65 -39.5 -66.5t-40.5 39.5z" />
    <glyph glyph-name="maiyamok" unicode="&#xe6;" horiz-adv-x="690" 
d="M166 578q16 -26 42 -40t49 -11t35 14.5t7 26t-29 21.5t-52.5 7t-51.5 -18zM198 778q-32 -4 -47.5 -45.5t-10.5 -78.5q76 43 137 20t87 -67.5t15.5 -76.5t-31.5 -50t-55 -28t-55 -5t-34.5 8t-29.5 8t-28 19t-22 21t-12 12q-15 -2 -35 13.5t-1 55.5q-31 90 -8 148
q12 28 25 56q26 56 103.5 71t120.5 -22t89 -111q47 67 79.5 99t80.5 25q27 -7 34 -34q16 -152 9 -309t-9 -267t-6 -261.5t-7 -304.5q-1 -21 -12.5 -32t-37 -12t-29.5 40q5 270 13 540t5 540q-25 -25 -44.5 -55.5t-45.5 -63.5t-63 2q-9 12 -52.5 83.5t-78.5 67.5
q-12 -2 -44 -6z" />
    <glyph glyph-name="maiyamok" unicode="&#xe46;" horiz-adv-x="690" 
d="M166 578q16 -26 42 -40t49 -11t35 14.5t7 26t-29 21.5t-52.5 7t-51.5 -18zM198 778q-32 -4 -47.5 -45.5t-10.5 -78.5q76 43 137 20t87 -67.5t15.5 -76.5t-31.5 -50t-55 -28t-55 -5t-34.5 8t-29.5 8t-28 19t-22 21t-12 12q-15 -2 -35 13.5t-1 55.5q-31 90 -8 148
q12 28 25 56q26 56 103.5 71t120.5 -22t89 -111q47 67 79.5 99t80.5 25q27 -7 34 -34q16 -152 9 -309t-9 -267t-6 -261.5t-7 -304.5q-1 -21 -12.5 -32t-37 -12t-29.5 40q5 270 13 540t5 540q-25 -25 -44.5 -55.5t-45.5 -63.5t-63 2q-9 12 -52.5 83.5t-78.5 67.5
q-12 -2 -44 -6z" />
    <glyph glyph-name="maithaiku" unicode="&#xe7;" 
d="M-241 1387q0 -8 3 -17t70 7q-3 54 -27.5 58t-34.5 -6q-10 -11 -11 -12l-1 -14q1 -8 1 -16zM-456 1326v-18q60 119 125 23t81.5 -113.5t27.5 -15.5t16.5 8t9.5 14.5t6.5 18t5.5 17.5t8 34q-104 -23 -132.5 30.5t-3.5 118.5t70.5 73t79.5 -8q58 -27 70 -113q20 0 31.5 -11
t14 -35.5t-38.5 -32.5q-2 -1 -2.5 -0.5t-2.5 -0.5q-10 -125 -53 -159t-72 -36t-53.5 13.5t-44.5 39t-37.5 50.5t-34.5 48q-2 -5 -3.5 -8.5t-2.5 -7t-3 -7.5t-6 -16q-32 -81 -88 -91q-26 3 -40 28q-8 37 -7 76.5t0 79.5t-3 85.5t9 77.5t26 49t48 45t93 43.5t124 17t129 -5.5
t125 -9q35 -10 33.5 -41.5t-37.5 -37.5q-28 1 -68 5t-213 13.5t-183.5 -74.5t-7 -117.5t3.5 -49.5z" />
    <glyph glyph-name="maithaiku" unicode="&#xe47;" 
d="M-241 1387q0 -8 3 -17t70 7q-3 54 -27.5 58t-34.5 -6q-10 -11 -11 -12l-1 -14q1 -8 1 -16zM-456 1326v-18q60 119 125 23t81.5 -113.5t27.5 -15.5t16.5 8t9.5 14.5t6.5 18t5.5 17.5t8 34q-104 -23 -132.5 30.5t-3.5 118.5t70.5 73t79.5 -8q58 -27 70 -113q20 0 31.5 -11
t14 -35.5t-38.5 -32.5q-2 -1 -2.5 -0.5t-2.5 -0.5q-10 -125 -53 -159t-72 -36t-53.5 13.5t-44.5 39t-37.5 50.5t-34.5 48q-2 -5 -3.5 -8.5t-2.5 -7t-3 -7.5t-6 -16q-32 -81 -88 -91q-26 3 -40 28q-8 37 -7 76.5t0 79.5t-3 85.5t9 77.5t26 49t48 45t93 43.5t124 17t129 -5.5
t125 -9q35 -10 33.5 -41.5t-37.5 -37.5q-28 1 -68 5t-213 13.5t-183.5 -74.5t-7 -117.5t3.5 -49.5z" />
    <glyph glyph-name="mai_ek" unicode="&#xe8;" 
d="M-173 1596q6 36 37.5 37.5t41.5 -33.5v-231q-1 -21 -12.5 -32t-37 -12t-29.5 40v231z" />
    <glyph glyph-name="mai_ek" unicode="&#xe48;" 
d="M-173 1596q6 36 37.5 37.5t41.5 -33.5v-231q-1 -21 -12.5 -32t-37 -12t-29.5 40v231z" />
    <glyph glyph-name="mai_to" unicode="&#xe9;" 
d="M-346.5 1589q-14.5 0 -35 -9t-20.5 -34q1 -45 45 -28.5t52 54.5q2 2 3 4q-5 2 -9.5 4.5t-12.5 5.5t-22.5 3zM-324 1336q0 27 15.5 43.5t39.5 38t13 70.5q-2 -2 -4 -3.5t-11 -9.5q-28 -25 -81.5 -37t-82.5 9q-51 38 -48.5 101t48.5 91q130 76 195 -8t67 -165
q3 -38 -18 -72q64 17 127 36t129 27q21 1 33 -10t14.5 -36t-38.5 -33q-56 -6 -181 -41t-176 -42q-37 4 -41 41z" />
    <glyph glyph-name="mai_to" unicode="&#xe49;" 
d="M-346.5 1589q-14.5 0 -35 -9t-20.5 -34q1 -45 45 -28.5t52 54.5q2 2 3 4q-5 2 -9.5 4.5t-12.5 5.5t-22.5 3zM-324 1336q0 27 15.5 43.5t39.5 38t13 70.5q-2 -2 -4 -3.5t-11 -9.5q-28 -25 -81.5 -37t-82.5 9q-51 38 -48.5 101t48.5 91q130 76 195 -8t67 -165
q3 -38 -18 -72q64 17 127 36t129 27q21 1 33 -10t14.5 -36t-38.5 -33q-56 -6 -181 -41t-176 -42q-37 4 -41 41z" />
    <glyph glyph-name="mai_tri" unicode="&#xea;" 
d="M-364 1420q-12 2 -26 -2t-26 -8q-12 -3 -24 -8q2 -8 6 -14t7 -14q5 -8 13 -17q8 -8 16 -17h18h16q6 1 10 4q6 3 11 5q7 48 -1 59q-7 10 -20 12zM-460 1479q149 61 192 -45q30 -73 -16 -135q-30 -40 -104 -43q-75 -3 -119 101q-21 -4 -35 14q-15 18 -7 38q8 19 17 28
q-16 65 -13 99t5 58t9 69q8 44 27 60q21 17 53 24t48 -2q20 -15 40 -31q21 -16 35 -34t27 -40q13 -20 30 -37q9 11 28 43q20 32 30 47q20 21 49 17q29 -5 40 -21q12 -16 18 -46t8 -62t1 -63t-2 -52q-1 -22 -1 -42t-5 -41q34 7 109 46q157 83 187 89q35 -4 39 -35t-30 -45
q-36 -4 -125 -49t-145 -69t-78 -17q-22 5 -30 13t-12 20t-2 23t4 23t4 22q21 91 2 193q-62 -115 -116 -73q-26 20 -50 52q-25 34 -38 48t-25 24l-24 20l-7 -2q-34 -89 -18 -187z" />
    <glyph glyph-name="mai_tri" unicode="&#xe4a;" 
d="M-364 1420q-12 2 -26 -2t-26 -8q-12 -3 -24 -8q2 -8 6 -14t7 -14q5 -8 13 -17q8 -8 16 -17h18h16q6 1 10 4q6 3 11 5q7 48 -1 59q-7 10 -20 12zM-460 1479q149 61 192 -45q30 -73 -16 -135q-30 -40 -104 -43q-75 -3 -119 101q-21 -4 -35 14q-15 18 -7 38q8 19 17 28
q-16 65 -13 99t5 58t9 69q8 44 27 60q21 17 53 24t48 -2q20 -15 40 -31q21 -16 35 -34t27 -40q13 -20 30 -37q9 11 28 43q20 32 30 47q20 21 49 17q29 -5 40 -21q12 -16 18 -46t8 -62t1 -63t-2 -52q-1 -22 -1 -42t-5 -41q34 7 109 46q157 83 187 89q35 -4 39 -35t-30 -45
q-36 -4 -125 -49t-145 -69t-78 -17q-22 5 -30 13t-12 20t-2 23t4 23t4 22q21 91 2 193q-62 -115 -116 -73q-26 20 -50 52q-25 34 -38 48t-25 24l-24 20l-7 -2q-34 -89 -18 -187z" />
    <glyph glyph-name="mai_chuttawa" unicode="&#xeb;" 
d="M-181 1458q0 -2 -1 -33q18 1 69.5 1t73.5 -37q8 -29 -10 -45.5t-42 -6.5q-2 1 -6.5 1.5t-23.5 3.5t-41 3h-22q-1 -32 -1.5 -62.5t-1.5 -56.5q-2 -48 -38.5 -49.5t-40.5 39.5q1 33 1 66t1 66q-28 1 -55.5 1.5t-52.5 2.5t-34.5 14t-9 26t11.5 25.5t32 12.5l110 -3
q2 58 2 116q6 36 37.5 37.5t41.5 -33.5v-89z" />
    <glyph glyph-name="mai_chuttawa" unicode="&#xe4b;" 
d="M-181 1458q0 -2 -1 -33q18 1 69.5 1t73.5 -37q8 -29 -10 -45.5t-42 -6.5q-2 1 -6.5 1.5t-23.5 3.5t-41 3h-22q-1 -32 -1.5 -62.5t-1.5 -56.5q-2 -48 -38.5 -49.5t-40.5 39.5q1 33 1 66t1 66q-28 1 -55.5 1.5t-52.5 2.5t-34.5 14t-9 26t11.5 25.5t32 12.5l110 -3
q2 58 2 116q6 36 37.5 37.5t41.5 -33.5v-89z" />
    <glyph glyph-name="thanthakhat" unicode="&#xec;" 
d="M-110 1311q16 25 10 41t-24 21q-47 13 -79 -19q16 -22 43 -34t50 -9zM-294 1356l-5 43q0 43 22 72t40 55t63 38q45 14 97 17t102 0t83 -4q35 -10 33 -41q-1 -32 -37 -38q-25 1 -66 4q-186 14 -228 -47q-4 -5 -7 -10q128 43 165 -61q10 -28 10 -56q0 -88 -78 -96
q-14 -2 -40 -5t-62 24t-55 49q-17 1 -30 15t-10 27q3 12 3 14z" />
    <glyph glyph-name="thanthakhat" unicode="&#xe4c;" 
d="M-110 1311q16 25 10 41t-24 21q-47 13 -79 -19q16 -22 43 -34t50 -9zM-294 1356l-5 43q0 43 22 72t40 55t63 38q45 14 97 17t102 0t83 -4q35 -10 33 -41q-1 -32 -37 -38q-25 1 -66 4q-186 14 -228 -47q-4 -5 -7 -10q128 43 165 -61q10 -28 10 -56q0 -88 -78 -96
q-14 -2 -40 -5t-62 24t-55 49q-17 1 -30 15t-10 27q3 12 3 14z" />
    <glyph glyph-name="nikkahit" unicode="&#xed;" 
d="M-135 1006q0 28 12 51q-11 11 -23 19t-22 21q-15 -1 -31 -1t-42 -6q-26 -5 -43 -24q-30 -32 31 -87t97 -33q6 4 14 7q7 25 7 53zM-77 1123q63 -49 34 -83q-14 -17 -16 -76q-1 -58 -36 -77q-62 -32 -101 -25q-39 6 -77 32q-37 26 -49 41t-25 31q-34 42 -24 89q3 11 7 29
t16 34t50 34t80 24q103 17 139 -35q3 -12 2 -18z" />
    <glyph glyph-name="nikkahit" unicode="&#xe4d;" 
d="M-135 1006q0 28 12 51q-11 11 -23 19t-22 21q-15 -1 -31 -1t-42 -6q-26 -5 -43 -24q-30 -32 31 -87t97 -33q6 4 14 7q7 25 7 53zM-77 1123q63 -49 34 -83q-14 -17 -16 -76q-1 -58 -36 -77q-62 -32 -101 -25q-39 6 -77 32q-37 26 -49 41t-25 31q-34 42 -24 89q3 11 7 29
t16 34t50 34t80 24q103 17 139 -35q3 -12 2 -18z" />
    <glyph glyph-name="yamakkan" unicode="&#xee;" 
d="M-191 1292h3q20 0 31 -11t12.5 -24.5t-7.5 -26.5t-28 -17h-2q-51 -6 -109 -23q-59 -16 -71.5 -22.5t-26.5 -6.5q-6 -4 -12 -10q7 -41 13 -50t18 -19q32 -27 95 -28.5t82 40.5q22 36 54 20.5t17 -52.5q-25 -63 -95.5 -78t-116.5 -3t-59.5 21t-38.5 25t-33 44
q-15 55 -18 82.5t21 51.5t41 28.5t27 8.5t3 0l-10 -5q4 1 16 5q-43 34 -11 139.5t237 100t257 -5.5q35 -10 33.5 -41.5t-37.5 -37.5q-42 0 -191 3.5t-192.5 -38t-48.5 -53.5q18 -26 132 -18q8 1 15 1z" />
    <glyph glyph-name="yamakkan" unicode="&#xe4e;" 
d="M-191 1292h3q20 0 31 -11t12.5 -24.5t-7.5 -26.5t-28 -17h-2q-51 -6 -109 -23q-59 -16 -71.5 -22.5t-26.5 -6.5q-6 -4 -12 -10q7 -41 13 -50t18 -19q32 -27 95 -28.5t82 40.5q22 36 54 20.5t17 -52.5q-25 -63 -95.5 -78t-116.5 -3t-59.5 21t-38.5 25t-33 44
q-15 55 -18 82.5t21 51.5t41 28.5t27 8.5t3 0l-10 -5q4 1 16 5q-43 34 -11 139.5t237 100t257 -5.5q35 -10 33.5 -41.5t-37.5 -37.5q-42 0 -191 3.5t-192.5 -38t-48.5 -53.5q18 -26 132 -18q8 1 15 1z" />
    <glyph glyph-name="fongman" unicode="&#xef;" horiz-adv-x="862" 
d="M430 223q-86 0 -145 59t-59 146t59 146t145 59t146 -59.5t60 -145.5t-60 -145.5t-146 -59.5zM717 428q0 120 -83.5 203t-203.5 83t-203 -83t-83 -203t83.5 -203.5t203.5 -83.5t203 83.5t83 203.5zM431 92q-141 0 -238.5 97.5t-97.5 238.5t97.5 238t238.5 97t238.5 -97
t97.5 -238t-97.5 -238.5t-238.5 -97.5z" />
    <glyph glyph-name="fongman" unicode="&#xe4f;" horiz-adv-x="862" 
d="M430 223q-86 0 -145 59t-59 146t59 146t145 59t146 -59.5t60 -145.5t-60 -145.5t-146 -59.5zM717 428q0 120 -83.5 203t-203.5 83t-203 -83t-83 -203t83.5 -203.5t203.5 -83.5t203 83.5t83 203.5zM431 92q-141 0 -238.5 97.5t-97.5 238.5t97.5 238t238.5 97t238.5 -97
t97.5 -238t-97.5 -238.5t-238.5 -97.5z" />
    <glyph glyph-name="th_zero" unicode="&#xf0;" horiz-adv-x="788" 
d="M543 712q-21 -10 -111.5 18t-123.5 6q-67 -45 -100 -80q-34 -36 -61.5 -104.5t-36 -204.5t88 -199.5t220.5 -84t168.5 68.5t64.5 166q51 198 7.5 279.5t-59.5 96.5t-31 33q-8 2 -14 3t-10 2h-2zM505.5 787q5.5 0 10.5 -1q25 25 52 2q70 -9 147 -140t13 -370
q-74 -291 -297 -291q-41 0 -80 9.5t-77 17.5q-83 18 -131 85q-19 28 -41.5 53.5t-38.5 83.5q-39 141 -20 244.5t116 242.5q85 118 193.5 99t145.5 -34q2 -1 7.5 -1zM498 788v1h-1z" />
    <glyph glyph-name="th_zero" unicode="&#xe50;" horiz-adv-x="788" 
d="M543 712q-21 -10 -111.5 18t-123.5 6q-67 -45 -100 -80q-34 -36 -61.5 -104.5t-36 -204.5t88 -199.5t220.5 -84t168.5 68.5t64.5 166q51 198 7.5 279.5t-59.5 96.5t-31 33q-8 2 -14 3t-10 2h-2zM505.5 787q5.5 0 10.5 -1q25 25 52 2q70 -9 147 -140t13 -370
q-74 -291 -297 -291q-41 0 -80 9.5t-77 17.5q-83 18 -131 85q-19 28 -41.5 53.5t-38.5 83.5q-39 141 -20 244.5t116 242.5q85 118 193.5 99t145.5 -34q2 -1 7.5 -1zM498 788v1h-1z" />
    <glyph glyph-name="th_one" unicode="&#xf1;" horiz-adv-x="778" 
d="M166 466q-24 -24 -28 -36t-14 -20q51 -154 114 -169q35 -8 123 20q74 26 67.5 94.5t-67 124t-110.5 43.5t-93 -63zM30 451.5q0 19.5 4 39t11 38.5t19 53t58 68.5t131 66.5t176 20q316 -39 307 -358q-7 -163 -128 -270t-326 -120q-36 4 -39.5 35.5t30.5 43.5q119 9 250 71
t136 258t-155 242t-240.5 2.5t-104.5 -70.5q105 73 220 -5t131 -206q8 -57 -33 -112.5t-98 -63.5q-14 -2 -34.5 -7t-62.5 -12.5t-75 1.5q-34 8 -61.5 39t-48 70t-36 78t-23.5 59t-8 39.5z" />
    <glyph glyph-name="th_one" unicode="&#xe51;" horiz-adv-x="778" 
d="M166 466q-24 -24 -28 -36t-14 -20q51 -154 114 -169q35 -8 123 20q74 26 67.5 94.5t-67 124t-110.5 43.5t-93 -63zM30 451.5q0 19.5 4 39t11 38.5t19 53t58 68.5t131 66.5t176 20q316 -39 307 -358q-7 -163 -128 -270t-326 -120q-36 4 -39.5 35.5t30.5 43.5q119 9 250 71
t136 258t-155 242t-240.5 2.5t-104.5 -70.5q105 73 220 -5t131 -206q8 -57 -33 -112.5t-98 -63.5q-14 -2 -34.5 -7t-62.5 -12.5t-75 1.5q-34 8 -61.5 39t-48 70t-36 78t-23.5 59t-8 39.5z" />
    <glyph glyph-name="th_two" unicode="&#xf2;" horiz-adv-x="893" 
d="M325.5 546q-18.5 0 -23.5 -12t-6.5 -24t-3.5 -24q9 -20 11 -30q8 -6 9 -7l27 -27q47 -39 102 1q0 59 -48.5 91t-67 32zM154 1094l-2 -466q-3 -467 -6.5 -491t-1.5 -44q41 -24 90.5 -23t89.5 1t99 6.5t98 2.5t100 -12.5t103 1.5q-2 32 1 66.5t7 159.5t6 198q0 73 0.5 119
t-8.5 87q-64 25 -151 -42q-6 -8 -25.5 -26.5t-21.5 -35.5q-9 -25 -28 -30t-38 10q-2 0 -3 3l3 -3q-4 7 -11 17.5t-15 64.5t-60.5 68.5t-80.5 -12.5q-27 -26 -25 -101q55 28 120 -3t96 -86t31 -73t-1 -41t-14 -36q-93 -80 -152.5 -49.5t-72.5 43.5q-12 12 -14.5 14t-3.5 4
l-21 20q-46 54 -48.5 193t53.5 176q55 37 116.5 33.5t110.5 -48.5q21 -18 33 -58q88 79 180 81t114 -41q23 -51 19.5 -120t-3.5 -92l-12 -482q-2 -28 -25 -43q-48 -22 -106.5 -17t-92.5 9.5t-66 4.5l-153 -8l-4 -1h-142q-138 0 -147 53.5t-4.5 82t4.5 42.5l1 230q1 60 1 64
l1 34v104l1 154l2 334q6 36 37.5 37.5t41.5 -33.5z" />
    <glyph glyph-name="th_two" unicode="&#xe52;" horiz-adv-x="893" 
d="M325.5 546q-18.5 0 -23.5 -12t-6.5 -24t-3.5 -24q9 -20 11 -30q8 -6 9 -7l27 -27q47 -39 102 1q0 59 -48.5 91t-67 32zM154 1094l-2 -466q-3 -467 -6.5 -491t-1.5 -44q41 -24 90.5 -23t89.5 1t99 6.5t98 2.5t100 -12.5t103 1.5q-2 32 1 66.5t7 159.5t6 198q0 73 0.5 119
t-8.5 87q-64 25 -151 -42q-6 -8 -25.5 -26.5t-21.5 -35.5q-9 -25 -28 -30t-38 10q-2 0 -3 3l3 -3q-4 7 -11 17.5t-15 64.5t-60.5 68.5t-80.5 -12.5q-27 -26 -25 -101q55 28 120 -3t96 -86t31 -73t-1 -41t-14 -36q-93 -80 -152.5 -49.5t-72.5 43.5q-12 12 -14.5 14t-3.5 4
l-21 20q-46 54 -48.5 193t53.5 176q55 37 116.5 33.5t110.5 -48.5q21 -18 33 -58q88 79 180 81t114 -41q23 -51 19.5 -120t-3.5 -92l-12 -482q-2 -28 -25 -43q-48 -22 -106.5 -17t-92.5 9.5t-66 4.5l-153 -8l-4 -1h-142q-138 0 -147 53.5t-4.5 82t4.5 42.5l1 230q1 60 1 64
l1 34v104l1 154l2 334q6 36 37.5 37.5t41.5 -33.5z" />
    <glyph glyph-name="th_three" unicode="&#xf3;" horiz-adv-x="780" 
d="M179 148q-3 -7 -7 -17t-14 -19q35 -82 79 -79t91 50q17 18 6 37q-11 18 -36 32q-63 34 -114 10q-2 -7 -5 -14zM410 149q8 -21 8 -59t-26 -58t-44 -38q-19 -18 -41 -24q-47 -16 -63 -16q-120 -5 -170 157q-39 118 -14 305t98 278q14 17 38 24t44 1t39 -11q19 -4 39 -12
q38 -14 64 -74q26 -59 37 -114q9 24 17 51t22 72q15 45 35 65t32 30l32 28q20 18 40 4q19 -14 29 -22q10 -6 18 -14t16 -24q7 -16 13 -38q7 -22 11 -46t8 -46t4 -39q2 -17 10 -99t-2 -161q-10 -80 -18 -133q-8 -54 -6 -86t2 -41v-17q-12 -34 -43 -31q-31 4 -37 47
q-9 16 -1 34q-1 54 7 106q49 300 -26 522q-36 -35 -63 -109q-27 -75 -41 -118t-32 -75q-33 -37 -67 -3q-23 29 -37 108t-24 97q-20 36 -51 61q-32 25 -54 2q-42 -45 -64 -173q-23 -128 -17 -232q63 56 199 -2q17 -7 30 -19q13 -13 27 -25t22 -33z" />
    <glyph glyph-name="th_three" unicode="&#xe53;" horiz-adv-x="780" 
d="M179 148q-3 -7 -7 -17t-14 -19q35 -82 79 -79t91 50q17 18 6 37q-11 18 -36 32q-63 34 -114 10q-2 -7 -5 -14zM410 149q8 -21 8 -59t-26 -58t-44 -38q-19 -18 -41 -24q-47 -16 -63 -16q-120 -5 -170 157q-39 118 -14 305t98 278q14 17 38 24t44 1t39 -11q19 -4 39 -12
q38 -14 64 -74q26 -59 37 -114q9 24 17 51t22 72q15 45 35 65t32 30l32 28q20 18 40 4q19 -14 29 -22q10 -6 18 -14t16 -24q7 -16 13 -38q7 -22 11 -46t8 -46t4 -39q2 -17 10 -99t-2 -161q-10 -80 -18 -133q-8 -54 -6 -86t2 -41v-17q-12 -34 -43 -31q-31 4 -37 47
q-9 16 -1 34q-1 54 7 106q49 300 -26 522q-36 -35 -63 -109q-27 -75 -41 -118t-32 -75q-33 -37 -67 -3q-23 29 -37 108t-24 97q-20 36 -51 61q-32 25 -54 2q-42 -45 -64 -173q-23 -128 -17 -232q63 56 199 -2q17 -7 30 -19q13 -13 27 -25t22 -33z" />
    <glyph glyph-name="th_four" unicode="&#xf4;" horiz-adv-x="940" 
d="M658 435q-26 0 -63 -9t-46 -5q-14 -22 10 -95q9 5 54 7t67 13q22 10 24 22t-6 24t-19 22zM69 288q0 6 11 32q34 78 56 105q67 85 322 187q255 103 309 163q13 17 19 37t14 41q22 36 54 20q32 -15 20 -46q-39 -105 -63 -128t-63 -43l-34 -17q-35 -16 -69 -32t-74 -34
t-93 -38q-213 -80 -278 -157q-85 -101 -34 -202q22 -43 65 -73q43 -29 91 -33t87 0q41 4 81 10q40 8 80 17t81 16q-84 55 -126 110q-41 55 -51 129q-2 20 -6 46q-7 51 28 84q36 32 73 34t48 -4q51 10 67 1t26 -17t18 -17t14 -16t24 -25q17 -18 19 -63q1 -45 -17 -65
q-45 -49 -165 -58q39 -48 95 -78t103 -52l1 -1q78 -5 113 -21q35 -18 55 -28t42 -18q26 -18 22 -36q-6 -34 -38 -40q-75 0 -162 40q-26 12 -56 26l-31 -1q-63 -5 -127 -17q-324 -64 -422 -3q-86 53 -101 120q-7 27 -13 61t-10 56t-5 28z" />
    <glyph glyph-name="th_four" unicode="&#xe54;" horiz-adv-x="940" 
d="M658 435q-26 0 -63 -9t-46 -5q-14 -22 10 -95q9 5 54 7t67 13q22 10 24 22t-6 24t-19 22zM69 288q0 6 11 32q34 78 56 105q67 85 322 187q255 103 309 163q13 17 19 37t14 41q22 36 54 20q32 -15 20 -46q-39 -105 -63 -128t-63 -43l-34 -17q-35 -16 -69 -32t-74 -34
t-93 -38q-213 -80 -278 -157q-85 -101 -34 -202q22 -43 65 -73q43 -29 91 -33t87 0q41 4 81 10q40 8 80 17t81 16q-84 55 -126 110q-41 55 -51 129q-2 20 -6 46q-7 51 28 84q36 32 73 34t48 -4q51 10 67 1t26 -17t18 -17t14 -16t24 -25q17 -18 19 -63q1 -45 -17 -65
q-45 -49 -165 -58q39 -48 95 -78t103 -52l1 -1q78 -5 113 -21q35 -18 55 -28t42 -18q26 -18 22 -36q-6 -34 -38 -40q-75 0 -162 40q-26 12 -56 26l-31 -1q-63 -5 -127 -17q-324 -64 -422 -3q-86 53 -101 120q-7 27 -13 61t-10 56t-5 28z" />
    <glyph glyph-name="th_five" unicode="&#xf5;" horiz-adv-x="834" 
d="M474 90q4 0 6 3zM592 349q-14 -18 -34 -16q-33 -18 -41 -26t5 -21t58 -49q48 14 55 58q6 44 -43 54zM435 740q-58 0 -120 -55q67 -41 183 -18q-2 16 -8 31t-10 31q-23 11 -45 11zM866 62v-1q26 -22 19 -41q-14 -34 -47 -32v-1l-1 1h-3q-22 7 -43 15q-79 30 -126 30
q-130 1 -153 -11q-22 -12 -52 -20q-73 -19 -228 20q-155 38 -185 130q-25 88 34 191q21 36 42 39h2q44 38 106 70t97 50q92 46 135 86q-168 -6 -211 44q-16 20 -27 38t5 44q11 12 21 24q11 12 39 32q28 19 76 36q48 16 92 12q98 -10 118 -128q100 44 109 126q3 26 9 51
q20 32 50 23t27 -45q-7 -29 -11 -61t-27 -72q-47 -81 -164 -110q-36 -89 -215 -177q-112 -55 -126 -65q-15 -11 -40 -33t-38 -24q-2 -5 -3 -9t-12 -28q-11 -25 -15 -53q-10 -55 72 -95q60 -29 181 -37l40 -2q24 -1 35 2q10 5 12 5t2 1q-1 1 18 6l28 9q26 7 54 7t54 2h5
q-23 17 -46 33t-42 29q-53 39 -79 65t-25 61q1 34 20 56t49 34t36 15q7 10 18 16l1 2q26 22 48 8q99 -9 112 -115q9 -75 -41 -119l-8 -8t-8 -5q50 -33 62 -44t32 -23t52 -26q32 -12 47 -20t17 -8z" />
    <glyph glyph-name="th_five" unicode="&#xe55;" horiz-adv-x="834" 
d="M474 90q4 0 6 3zM592 349q-14 -18 -34 -16q-33 -18 -41 -26t5 -21t58 -49q48 14 55 58q6 44 -43 54zM435 740q-58 0 -120 -55q67 -41 183 -18q-2 16 -8 31t-10 31q-23 11 -45 11zM866 62v-1q26 -22 19 -41q-14 -34 -47 -32v-1l-1 1h-3q-22 7 -43 15q-79 30 -126 30
q-130 1 -153 -11q-22 -12 -52 -20q-73 -19 -228 20q-155 38 -185 130q-25 88 34 191q21 36 42 39h2q44 38 106 70t97 50q92 46 135 86q-168 -6 -211 44q-16 20 -27 38t5 44q11 12 21 24q11 12 39 32q28 19 76 36q48 16 92 12q98 -10 118 -128q100 44 109 126q3 26 9 51
q20 32 50 23t27 -45q-7 -29 -11 -61t-27 -72q-47 -81 -164 -110q-36 -89 -215 -177q-112 -55 -126 -65q-15 -11 -40 -33t-38 -24q-2 -5 -3 -9t-12 -28q-11 -25 -15 -53q-10 -55 72 -95q60 -29 181 -37l40 -2q24 -1 35 2q10 5 12 5t2 1q-1 1 18 6l28 9q26 7 54 7t54 2h5
q-23 17 -46 33t-42 29q-53 39 -79 65t-25 61q1 34 20 56t49 34t36 15q7 10 18 16l1 2q26 22 48 8q99 -9 112 -115q9 -75 -41 -119l-8 -8t-8 -5q50 -33 62 -44t32 -23t52 -26q32 -12 47 -20t17 -8z" />
    <glyph glyph-name="th_six" unicode="&#xf6;" horiz-adv-x="731" 
d="M188 132q18 -2 26 17q13 23 11 49q-3 26 -32 35q-25 12 -46 -9t-16 -41q6 -19 15 -31t42 -20zM93 597v7q-1 2 -3 11t-6 15q-2 6 -4 20q-2 16 -19 41q-17 26 -19 42q-2 4 -10 8t-21 28q-58 42 -70 42q-37 20 -24 53q19 49 117 -11q43 -27 49 -49q27 -24 30 -35
q5 -11 7 -20q6 -20 19 -34q14 -14 20 -58q11 -26 13 -52t6 -43q3 -17 4 -22t7 -31q94 80 151 103t160 12q23 -2 43 -14q21 -12 35 -21q24 -13 41 -36q18 -23 32 -41q15 -18 23 -52t7 -72q-2 -76 -34 -152q-89 -212 -379 -190q-108 9 -134 26q-47 23 -68 66q-20 43 -9 80
q11 36 40 60t70 30t66 -7q73 -38 61 -114q-6 -39 -13 -65q171 -9 245 66q76 76 74 199q-2 129 -126 161q-86 22 -159 -37q-31 -25 -59 -54t-66 -48q-54 -10 -79 78q-8 29 -11 55t-5 38t-2 17z" />
    <glyph glyph-name="th_six" unicode="&#xe56;" horiz-adv-x="731" 
d="M188 132q18 -2 26 17q13 23 11 49q-3 26 -32 35q-25 12 -46 -9t-16 -41q6 -19 15 -31t42 -20zM93 597v7q-1 2 -3 11t-6 15q-2 6 -4 20q-2 16 -19 41q-17 26 -19 42q-2 4 -10 8t-21 28q-58 42 -70 42q-37 20 -24 53q19 49 117 -11q43 -27 49 -49q27 -24 30 -35
q5 -11 7 -20q6 -20 19 -34q14 -14 20 -58q11 -26 13 -52t6 -43q3 -17 4 -22t7 -31q94 80 151 103t160 12q23 -2 43 -14q21 -12 35 -21q24 -13 41 -36q18 -23 32 -41q15 -18 23 -52t7 -72q-2 -76 -34 -152q-89 -212 -379 -190q-108 9 -134 26q-47 23 -68 66q-20 43 -9 80
q11 36 40 60t70 30t66 -7q73 -38 61 -114q-6 -39 -13 -65q171 -9 245 66q76 76 74 199q-2 129 -126 161q-86 22 -159 -37q-31 -25 -59 -54t-66 -48q-54 -10 -79 78q-8 29 -11 55t-5 38t-2 17z" />
    <glyph glyph-name="th_seven" unicode="&#xf7;" horiz-adv-x="1089" 
d="M334 116q-11 49 -61 90t-98 22q12 -85 35.5 -113.5t43.5 -26.5q62 4 80 28zM947 691v15q11 43 43 37q20 0 35 -30q0 -2 1 -93t-21 -163q-52 -166 -142 -243.5t-123 -122.5t-65 -75q-23 -14 -43 -4.5t-23 36.5q0 118 10 235t9 183t-31 132q-5 10 -8.5 20t-8.5 21
q-108 -81 -108 -93v-264q0 -34 -28.5 -42.5t-47.5 20.5l-3 -1v9q-14 46 -16.5 92t-8.5 76t-15.5 54.5t-32 68.5t-57.5 61.5t-60 -46.5q-45 -113 -37 -259q61 13 144 -40t98.5 -111t1 -79t-32.5 -43t-58 -26.5t-79.5 -10t-76.5 41t-52 98.5l-1 1q-34 13 -26 51q2 9 3.5 18.5
t3.5 18.5q-24 172 36 369q21 63 64 83q43 21 68 18q48 -6 92.5 -51t68.5 -107q27 77 78 127t76 53q25 4 32 2t17 -10q17 -20 27.5 -43.5t24.5 -54.5q42 -92 31 -242t-15 -222q9 11 18 21.5t32 34.5t109 104t91.5 198.5t5.5 176.5z" />
    <glyph glyph-name="th_seven" unicode="&#xe57;" horiz-adv-x="1089" 
d="M334 116q-11 49 -61 90t-98 22q12 -85 35.5 -113.5t43.5 -26.5q62 4 80 28zM947 691v15q11 43 43 37q20 0 35 -30q0 -2 1 -93t-21 -163q-52 -166 -142 -243.5t-123 -122.5t-65 -75q-23 -14 -43 -4.5t-23 36.5q0 118 10 235t9 183t-31 132q-5 10 -8.5 20t-8.5 21
q-108 -81 -108 -93v-264q0 -34 -28.5 -42.5t-47.5 20.5l-3 -1v9q-14 46 -16.5 92t-8.5 76t-15.5 54.5t-32 68.5t-57.5 61.5t-60 -46.5q-45 -113 -37 -259q61 13 144 -40t98.5 -111t1 -79t-32.5 -43t-58 -26.5t-79.5 -10t-76.5 41t-52 98.5l-1 1q-34 13 -26 51q2 9 3.5 18.5
t3.5 18.5q-24 172 36 369q21 63 64 83q43 21 68 18q48 -6 92.5 -51t68.5 -107q27 77 78 127t76 53q25 4 32 2t17 -10q17 -20 27.5 -43.5t24.5 -54.5q42 -92 31 -242t-15 -222q9 11 18 21.5t32 34.5t109 104t91.5 198.5t5.5 176.5z" />
    <glyph glyph-name="thai_eight" unicode="&#xf8;" horiz-adv-x="1014" 
d="M847 377q-47 107 -118 90t-99 -83q-17 -38 65 -65q26 -9 69.5 -10t52 30t30.5 38zM775.5 7.5q-35.5 -0.5 -89.5 14t-88 38.5t-60.5 41t-29.5 19l-72 68q2 -4 -5 4t-18 16q-5 -9 -8 -15.5t-11 -18.5q-33 -50 -132 -148t-151 109q-88 337 -11 456q11 16 38 60t88.5 66
t126.5 29t129 6.5t108 2.5q115 8 207.5 41t97 112.5t20 90.5t29.5 9.5t25 -13t9 -33.5t-5 -43t-7 -43t-17 -40t-27 -42t-42.5 -43.5t-110.5 -50t-289.5 -28.5t-271.5 -65q-96 -101 -69 -226t34 -156t10.5 -49t9.5 -36t9 -25q4 -8 7 -15q28 14 37 23q18 23 51 55t57 96t75 27
q31 -27 130 -119.5t188.5 -92.5t106 69t15.5 111q-3 -3 -6 -4.5t-21 -11.5q-46 -26 -102.5 -22t-100.5 25q-43 21 -58 37t-29.5 47.5t2.5 77.5q17 45 56 74q80 61 143 59t133 -82t58 -206.5t-25 -148.5t-23 -41t-27.5 -28t-37.5 -23t-55.5 -14.5z" />
    <glyph glyph-name="thai_eight" unicode="&#xe58;" horiz-adv-x="1014" 
d="M847 377q-47 107 -118 90t-99 -83q-17 -38 65 -65q26 -9 69.5 -10t52 30t30.5 38zM775.5 7.5q-35.5 -0.5 -89.5 14t-88 38.5t-60.5 41t-29.5 19l-72 68q2 -4 -5 4t-18 16q-5 -9 -8 -15.5t-11 -18.5q-33 -50 -132 -148t-151 109q-88 337 -11 456q11 16 38 60t88.5 66
t126.5 29t129 6.5t108 2.5q115 8 207.5 41t97 112.5t20 90.5t29.5 9.5t25 -13t9 -33.5t-5 -43t-7 -43t-17 -40t-27 -42t-42.5 -43.5t-110.5 -50t-289.5 -28.5t-271.5 -65q-96 -101 -69 -226t34 -156t10.5 -49t9.5 -36t9 -25q4 -8 7 -15q28 14 37 23q18 23 51 55t57 96t75 27
q31 -27 130 -119.5t188.5 -92.5t106 69t15.5 111q-3 -3 -6 -4.5t-21 -11.5q-46 -26 -102.5 -22t-100.5 25q-43 21 -58 37t-29.5 47.5t2.5 77.5q17 45 56 74q80 61 143 59t133 -82t58 -206.5t-25 -148.5t-23 -41t-27.5 -28t-37.5 -23t-55.5 -14.5z" />
    <glyph glyph-name="th_nine" unicode="&#xf9;" horiz-adv-x="719" 
d="M255 107q1 -1 3 -1q-1 1 -3 1zM805 721q-2 4 -3 9v-3q1 -3 3 -6zM340 103h10q6 11 19 15q14 59 -19 73q-32 14 -83 -18q-25 -15 -15 -38t12 -26l3 -6q13 -1 28 -1h32q7 1 13 1zM366 494q-136 0 -209 -120q-46 -75 -37 -144q8 -70 47 -96l1 -1v9q2 43 31 75t69 47t84 10
t66 -27q37 -38 34 -107q-2 -70 -41 -93q-30 -26 -68 -25t-74 2q-92 3 -144 40t-85 144t107 279q18 22 44 35t51 28t57 17t63 7t64 -11l27 -15q-16 47 -3 88t28 59q15 17 43 23t57 -6q28 -12 56 -30q28 -19 54 -39t52 -30q6 31 -3 63q-9 33 -15 52q-6 20 -4 38q1 18 12 28
t24 10q31 1 41 -34q3 -22 7 -36q18 -51 21 -113t-35 -80q-38 -17 -59 -10q-27 10 -93 55q-66 46 -98 50q-30 -28 22 -161q12 -29 25 -57q28 -35 55 -71q47 -63 65 -72q-1 -2 3 -9t2 -21t-15 -29q-14 -15 -45 0q-76 55 -129 155q-87 123 -155 123z" />
    <glyph glyph-name="th_nine" unicode="&#xe59;" horiz-adv-x="719" 
d="M255 107q1 -1 3 -1q-1 1 -3 1zM805 721q-2 4 -3 9v-3q1 -3 3 -6zM340 103h10q6 11 19 15q14 59 -19 73q-32 14 -83 -18q-25 -15 -15 -38t12 -26l3 -6q13 -1 28 -1h32q7 1 13 1zM366 494q-136 0 -209 -120q-46 -75 -37 -144q8 -70 47 -96l1 -1v9q2 43 31 75t69 47t84 10
t66 -27q37 -38 34 -107q-2 -70 -41 -93q-30 -26 -68 -25t-74 2q-92 3 -144 40t-85 144t107 279q18 22 44 35t51 28t57 17t63 7t64 -11l27 -15q-16 47 -3 88t28 59q15 17 43 23t57 -6q28 -12 56 -30q28 -19 54 -39t52 -30q6 31 -3 63q-9 33 -15 52q-6 20 -4 38q1 18 12 28
t24 10q31 1 41 -34q3 -22 7 -36q18 -51 21 -113t-35 -80q-38 -17 -59 -10q-27 10 -93 55q-66 46 -98 50q-30 -28 22 -161q12 -29 25 -57q28 -35 55 -71q47 -63 65 -72q-1 -2 3 -9t2 -21t-15 -29q-14 -15 -45 0q-76 55 -129 155q-87 123 -155 123z" />
    <glyph glyph-name="angkhankhu" unicode="&#xfa;" horiz-adv-x="766" 
d="M157 648q6 0 17.5 -2t33.5 -4t29 7q14 16 4 57t-36 35t-46 -35t-14 -60q6 2 12 2zM456 703.5q0 51.5 2 71.5v2q8 34 38.5 35.5t40.5 -33.5q5 -48 3.5 -97.5t-2.5 -138.5t-3 -217.5t-2 -258.5q-1 -21 -12.5 -32t-37 -12t-29.5 40q0 117 1.5 231.5t2.5 230.5
q-20 -26 -59.5 -47.5t-73.5 -23.5q-76 -3 -156 43.5t-104 124.5t46.5 153.5t148.5 37.5q47 -21 61 -102.5t-21 -112.5q-35 -32 -89 -32q113 -73 179 6.5t66 131zM604 66l14 702q6 36 37.5 37.5t41.5 -33.5q-1 -131 -6.5 -320.5t-7.5 -381.5q-1 -21 -12.5 -32t-37 -12
t-29.5 40z" />
    <glyph glyph-name="angkhankhu" unicode="&#xe5a;" horiz-adv-x="766" 
d="M157 648q6 0 17.5 -2t33.5 -4t29 7q14 16 4 57t-36 35t-46 -35t-14 -60q6 2 12 2zM456 703.5q0 51.5 2 71.5v2q8 34 38.5 35.5t40.5 -33.5q5 -48 3.5 -97.5t-2.5 -138.5t-3 -217.5t-2 -258.5q-1 -21 -12.5 -32t-37 -12t-29.5 40q0 117 1.5 231.5t2.5 230.5
q-20 -26 -59.5 -47.5t-73.5 -23.5q-76 -3 -156 43.5t-104 124.5t46.5 153.5t148.5 37.5q47 -21 61 -102.5t-21 -112.5q-35 -32 -89 -32q113 -73 179 6.5t66 131zM604 66l14 702q6 36 37.5 37.5t41.5 -33.5q-1 -131 -6.5 -320.5t-7.5 -381.5q-1 -21 -12.5 -32t-37 -12
t-29.5 40z" />
    <glyph glyph-name="khomut" unicode="&#xfb;" horiz-adv-x="1351" 
d="M301 464q0 -15 5.5 -28.5t15.5 -21t21 -7.5t21 7.5t16 21t6 28.5t-6 29t-16 21.5t-21 7.5t-21 -7.5t-15.5 -21.5t-5.5 -29zM346 350q-44 0 -70 35t-27 80q0 45 26.5 79t62.5 34t60 -20q0 61 -29.5 96.5t-79.5 35.5t-93 -66t-39 -190t56 -194t133 -70t147 108t61 299
q-1 37 29 37q20 0 30 -24l74 -165l43 138q10 27 30 27t29 -26l41 -114q46 116 64 116t71 -113q49 87 64 87t63 -69q20 42 39 42h94q31 0 31 -31t-31 -31h-74q-35 -76 -51 -76t-67 73q-55 -98 -71 -98t-65 102q-52 -129 -75 -129q-14 0 -24 28l-36 104q-49 -157 -73 -157
q-13 0 -25 27l-55 123q-21 -165 -99 -253t-172 -88q-96 0 -167 87t-76 239q0 154 60 242q57 75 133 75t126 -51q48 -51 48 -138q8 -107 -32 -159t-84 -52z" />
    <glyph glyph-name="khomut" unicode="&#xe5b;" horiz-adv-x="1351" 
d="M301 464q0 -15 5.5 -28.5t15.5 -21t21 -7.5t21 7.5t16 21t6 28.5t-6 29t-16 21.5t-21 7.5t-21 -7.5t-15.5 -21.5t-5.5 -29zM346 350q-44 0 -70 35t-27 80q0 45 26.5 79t62.5 34t60 -20q0 61 -29.5 96.5t-79.5 35.5t-93 -66t-39 -190t56 -194t133 -70t147 108t61 299
q-1 37 29 37q20 0 30 -24l74 -165l43 138q10 27 30 27t29 -26l41 -114q46 116 64 116t71 -113q49 87 64 87t63 -69q20 42 39 42h94q31 0 31 -31t-31 -31h-74q-35 -76 -51 -76t-67 73q-55 -98 -71 -98t-65 102q-52 -129 -75 -129q-14 0 -24 28l-36 104q-49 -157 -73 -157
q-13 0 -25 27l-55 123q-21 -165 -99 -253t-172 -88q-96 0 -167 87t-76 239q0 154 60 242q57 75 133 75t126 -51q48 -51 48 -138q8 -107 -32 -159t-84 -52z" />
    <glyph glyph-name="sara_u_low" unicode="&#xfc;" 
d="M-211 -522q-20 0 -37 -4t-24.5 -6.5t-13 -5.5t-10.5 -7.5t-13 -10.5q29 -29 60 -31t68 6q1 3 1 11t8 19q-19 29 -39 29zM-72 -641l-4 -220q-1 -21 -12.5 -32t-37 -12t-29.5 40l1 203v6q-77 -34 -151.5 -2t-86 79.5t20.5 75.5q11 9 19 17t26 18q51 30 143.5 21.5
t101.5 -100t9 -94.5z" />
    <glyph glyph-name="sara_u_low" unicode="&#xf718;" 
d="M-211 -522q-20 0 -37 -4t-24.5 -6.5t-13 -5.5t-10.5 -7.5t-13 -10.5q29 -29 60 -31t68 6q1 3 1 11t8 19q-19 29 -39 29zM-72 -641l-4 -220q-1 -21 -12.5 -32t-37 -12t-29.5 40l1 203v6q-77 -34 -151.5 -2t-86 79.5t20.5 75.5q11 9 19 17t26 18q51 30 143.5 21.5
t101.5 -100t9 -94.5z" />
    <glyph glyph-name="sara_uu_low" unicode="&#xfd;" 
d="M-352 -612l28 5v6q-2 7 -10 15t-19 12t-21 2t-19 -9q-16 -14 8 -23q23 -8 33 -8zM-337 -819q3 32 9 64t10 64q-64 -11 -122 28t-34 103q12 32 44 48t66 17t66 -14t44 -45t14 -60q4 -30 2 -60t-6 -62q-5 -30 -9 -60q13 -2 27 -5t26 7t18 28q6 20 10 45q2 25 2 53t-2 53
q-2 27 -4 49t0 38t12 26q11 10 24 10q31 1 41 -34q1 -26 5 -66t4 -110q1 -70 -21 -105q-38 -63 -96 -74q-57 -12 -113 28q-14 16 -17 34z" />
    <glyph glyph-name="sara_uu_low" unicode="&#xf719;" 
d="M-352 -612l28 5v6q-2 7 -10 15t-19 12t-21 2t-19 -9q-16 -14 8 -23q23 -8 33 -8zM-337 -819q3 32 9 64t10 64q-64 -11 -122 28t-34 103q12 32 44 48t66 17t66 -14t44 -45t14 -60q4 -30 2 -60t-6 -62q-5 -30 -9 -60q13 -2 27 -5t26 7t18 28q6 20 10 45q2 25 2 53t-2 53
q-2 27 -4 49t0 38t12 26q11 10 24 10q31 1 41 -34q1 -26 5 -66t4 -110q1 -70 -21 -105q-38 -63 -96 -74q-57 -12 -113 28q-14 16 -17 34z" />
    <glyph glyph-name="pintu_low" unicode="&#xfe;" 
d="M-202 -479q49 22 83 -24q20 -16 34 -42q46 -56 5 -127q-25 -42 -92 -49q-47 -19 -87 -3q-41 16 -51 34t-12 38q-6 66 25 104q7 7 15 17q8 9 16 15t12 10q18 21 52 27z" />
    <glyph glyph-name="pintu_low" unicode="&#xf71a;" 
d="M-202 -479q49 22 83 -24q20 -16 34 -42q46 -56 5 -127q-25 -42 -92 -49q-47 -19 -87 -3q-41 16 -51 34t-12 38q-6 66 25 104q7 7 15 17q8 9 16 15t12 10q18 21 52 27z" />
    <glyph glyph-name="Naipol" unicode="&#xff;" horiz-adv-x="1275" 
d="M847 561.5q7 -12.5 10 -17.5t6 -24q2 -19 -15 -37q-36 17 -27 78q19 13 26 0.5zM838 628.5q0 29.5 2 41.5q41 -29 36 -75q-38 4 -38 33.5zM788 646q-2 -4 -8 10q-14 29 -5 66q89 -39 13 -76zM499 915q-7 -17 -2 -46v8q25 -79 55 -37t21 67q-34 40 -74 8zM434 935
q0 -38 6 -58q2 -18 6 -6.5t10 49.5q12 82 -22 15zM380 973q-3 7 -17 13t-19 38q18 -6 31 -19q5 -13 11 -13q3 -4 30 22t94 29h11q122 -12 107 -155v-11q-26 -59 -87 -78q-98 -4 -130 55q-31 59 -31 119zM518 228q0 -3 -2 -16v-48l5 -49q0 -22 3 -33q33 -9 66 9
q-43 129 -58 290l-14 -119v-34zM559 1414q55 0 55 2q33 96 24 184q0 -17 -65.5 -82t-119.5 -104v-6q51 6 106 6zM798 57q175 0 232 74q35 44 47 79q-23 10 -54 -3q-32 -13 -33 -13q0 5 2 8q60 34 77 117q3 12 3 33q7 51 -36 128q-35 94 -84 73q-14 -23 -16 -30
q-95 -136 -44 -348q-5 0 -5 2q-54 98 -50 249q6 28 32 73t37 96q17 30 -39 86h3q-58 69 -114 110q65 83 57 233q-12 149 -126 118q151 60 194 234v24q-211 -40 -379 -133q-3 41 58 68h5q-159 36 -283 -47q-24 -16 -35 -41q-22 -32 -28 -55.5t-11 -41.5t-8 -38l-3 -23
q0 -131 50 -223q2 -2 5 -14q7 -25 54 -51q8 -2 16.5 -5t15.5 -4q8 0 4 -18q-8 -39 -66 -33q13 -27 79 -38l11 -3l235 16v-5q-38 -162 -22 -381v-8q57 47 85.5 54.5t33.5 9.5t9 3q0 -5 -22 -20t-60 -66l-16 -22q0 -12 -3 -21q0 -46 16 -85q35 -63 88 -91q44 -27 88 -27z
M486 96v79q-3 12 -3 32v50q2 14 5 58t33 119q0 6 11 30v2l3 25q15 122 36 201h-8q-192 -69 -335 30q17 69 13 98q-17 30 -29 46t-34.5 45t-39.5 47t-17 28t11 9q30 -51 39.5 -44.5t-1.5 59.5q-14 67 -14 113t6 64t16.5 47.5t43.5 62.5q14 20 60 46l35 22q123 76 215 185
q33 35 65.5 71.5t50.5 54.5t18 19.5t2 1.5h8v-2q0 -2 3 -3v-6q28 -138 -11 -261q33 -21 114 17t208 51q-26 -176 -153 -294q-3 -3 -3 -8q84 -197 -27 -382q-2 -5 -2 -10q92 -94 114 -125t30 -39q26 29 38.5 39t7.5 -1q31 -57 37 -69l62 -124q46 -93 16 -161v-3l-38 -76
q4 -2 8 -5t10 -5t12 -17q5 -15 -9 -44q-15 -29 -16.5 -31t-1.5 -7q-30 -50 -80 -78t-97 -36q-58 -18 -139 -9q-82 16 -129 44q-4 -6 -13 -6l-88 -8h-5q-38 9 -38 58z" />
    <glyph glyph-name="def___Copyright__C__2005_http___webnaipol.atspace.com_All_Rights_Reserved." unicode="&#xe3e;" 
 />
  </font>
</defs>
</svg>
