<?xml version="1.0" standalone="no"?>
<!DOCTYPE svg PUBLIC "-//W3C//DTD SVG 1.1//EN" "http://www.w3.org/Graphics/SVG/1.1/DTD/svg11.dtd" >
<svg xmlns="http://www.w3.org/2000/svg">
<metadata>
Created by FontPrep 20130207 at Fri Dec 20 12:51:21 2013
 By Sappawish Siripon
Copyright (c) ReEncode by P-chanSoft, 2001. All rights reserved.
</metadata>
<defs>
<font id="e53d4e2710bb72e19af5b25ba7323389" horiz-adv-x='1024' >
  <font-face 
    font-family="JSNoklae-Normal"
    font-weight="400"
    font-stretch="normal"
    units-per-em="2048"
    panose-1="0 0 0 0 0 0 0 0 0 0"
    ascent="1638"
    descent="-410"
    x-height="680"
    cap-height="922"
    bbox="-879 -635 1628 1577"
    underline-thickness="34"
    underline-position="-14"
    unicode-range="U+0020-F71A"
  />
<missing-glyph horiz-adv-x="1024" 
 />
    <glyph glyph-name=".notdef" horiz-adv-x="1024" 
 />
    <glyph glyph-name=".null" 
 />
    <glyph glyph-name="nonmarkingreturn" horiz-adv-x="1024" 
 />
    <glyph glyph-name="space" unicode=" " horiz-adv-x="600" 
 />
    <glyph glyph-name="exclam" unicode="!" horiz-adv-x="350" 
d="M72 362v447q0 53 28.5 83t69.5 30t71 -30t29 -83v-447q0 -53 -29.5 -83.5t-69.5 -30.5q-39 0 -69 30t-30 84zM169 -18q-48 0 -82 28t-34 85q0 56 33 85t84 29t81 -33t30 -82t-32 -80.5t-80 -31.5z" />
    <glyph glyph-name="quotedbl" unicode="&#x22;" horiz-adv-x="602" 
d="M88 819q0 37 25.5 59.5t59.5 22.5t59.5 -22.5t25.5 -59.5v-229q0 -39 -24.5 -60.5t-60.5 -21.5t-58 20q-27 20 -27 62v229zM340 819q0 37 23.5 59.5t58.5 22.5t60.5 -22.5t25.5 -59.5v-229q0 -37 -25.5 -59.5t-60.5 -22.5t-55 20q-27 20 -27 62v229z" />
    <glyph glyph-name="numbersign" unicode="#" horiz-adv-x="790" 
d="M430 381l21 139h-111l-18 -139h108zM160 520q-29 0 -45.5 18.5t-16.5 45t18.5 47t53.5 20.5h59l31 197q0 29 20.5 44t45 15t45 -15t20.5 -38v-6l-29 -197h109l29 197q10 59 63 59q25 0 45.5 -14t20.5 -37v-8l-29 -197h51q29 0 47.5 -21.5t18.5 -47.5t-19.5 -44t-56.5 -18
h-63l-19 -139h51q29 0 44.5 -19.5t15.5 -45.5t-18 -46t-52 -20h-61l-29 -197q-4 -29 -24.5 -45t-46.5 -16q-60 0 -60 51l33 207h-113l-29 -197q-4 -29 -24 -45t-46 -16t-43.5 13t-17.5 38l31 207h-49q-27 0 -43.5 20t-16.5 44t18.5 45.5t51.5 21.5h59l19 139h-49z" />
    <glyph glyph-name="dollar" unicode="$" horiz-adv-x="821" 
d="M295 668v-17q10 -31 24 -45q23 -18 58 -28v153q-82 -25 -82 -63zM455 190q59 0 59 70t-59 92v-162zM86 650q0 114 85 189t206 89v43q0 51 39 51t39 -51v-43q27 0 77 -10q103 -31 122.5 -68.5t19.5 -67.5t-25.5 -64t-53.5 -34t-43 11q-51 36 -97 36v-172q137 -47 174 -74
q106 -76 106 -204q0 -127 -84 -213t-196 -86v-39q0 -51 -39 -51.5t-39 51.5v39q-183 0 -250 71q-49 37 -49 79t31.5 76t62.5 34t84 -26t121 -26v183q-150 33 -220.5 98t-70.5 179z" />
    <glyph glyph-name="percent" unicode="%" horiz-adv-x="886" 
d="M709 178q0 22 -16.5 36.5t-33.5 14.5q-53 0 -53 -49q0 -25 14.5 -38t35 -13t37 13.5t16.5 35.5zM266 709q0 25 -15 38t-34 13q-49 0 -49 -49q0 -25 14.5 -38.5t35 -13.5t34.5 12.5t14 37.5zM457 189q0 89 55 145.5t140 56.5t144.5 -62t59.5 -150q0 -87 -53 -147t-149 -60
t-147 64q-50 64 -50 153zM20 707q0 96 58 153q58 58 137 58t141 -56t62 -152q0 -98 -62 -154t-140 -56q-76 0 -136 56t-60 151zM659 922q40 0 61 -19.5t21 -42.5t-14 -61l-461 -787q-18 -37 -70 -37q-24 0 -46.5 18.5t-22.5 49.5t23 68l446 768q23 43 63 43z" />
    <glyph glyph-name="ampersand" unicode="&#x26;" horiz-adv-x="886" 
d="M479 699q0 71 -71 71q-31 0 -49.5 -17t-18.5 -43q0 -52 68 -120q71 38 71 109zM219 258q0 -35 38 -75t84 -40t89 19.5t68 46.5l-168 182q-111 -63 -111 -133zM135 712q0 88 82 146q82 60 198 60q117 0 185 -64t68 -141q0 -165 -150 -242l121 -139q10 10 19.5 22.5
t16.5 19.5t14 18t25 38t58 27t65 -22.5t25 -61.5q-4 -9 -4 -21t-5.5 -37t-20.5 -39l-74 -75q6 -13 28 -35t34 -42q14 -20 14 -54q0 -33 -30 -57.5t-66 -24.5t-55 20t-42 44t-25 30q-35 -35 -120 -70q-98 -35 -188 -35t-158 43q-80 47 -121 150q-11 32 -11 88t41 127
q54 86 158 143q-82 96 -82 184z" />
    <glyph glyph-name="quotesingle" unicode="'" horiz-adv-x="350" 
d="M223 922q33 0 62.5 -24t29.5 -54t-16 -53l-129 -222q-12 -25 -38 -40t-54 -15t-55 26.5t-27 58.5t16 71l109 188q31 64 102 64z" />
    <glyph glyph-name="parenleft" unicode="(" horiz-adv-x="350" 
d="M311 840q1 -34 -25 -96q-26 -64 -47.5 -169t-21.5 -213q0 -220 92 -458q6 -24 6 -49t-24.5 -49.5t-50.5 -24.5q-65 0 -99 74q-94 183 -94 539q0 272 94 464q29 64 91 64q28 0 53.5 -24t25.5 -58z" />
    <glyph glyph-name="parenright" unicode=")" horiz-adv-x="350" 
d="M89 922q65 0 91 -54q105 -210 105 -513t-105 -511q-20 -53 -86 -53q-31 0 -52.5 21.5t-21.5 55.5t20 92t42 176q22 116 20 231q-1 242 -79 424q-35 68 0.5 99.5t65.5 31.5z" />
    <glyph glyph-name="asterisk" unicode="*" horiz-adv-x="509" 
d="M18 753q0 24 17.5 45t50.5 21t55 -20l39 -29l-10 78l-2 6q0 25 21.5 38t47.5 13t49 -13t23 -36v-8l-10 -78l41 29q20 20 50 20t48.5 -23.5t18.5 -58.5t-35 -47l-49 -20l57 -41q31 -18 31 -46t-17.5 -46.5t-39.5 -18.5t-64 21l-41 30l10 -80q0 -25 -20.5 -38t-48.5 -13
t-49 13.5t-21 37.5l10 80l-39 -30q-25 -21 -53 -21q-27 0 -45 20.5t-18 47.5t28 43l58 41l-50 20q-43 13 -43 63z" />
    <glyph glyph-name="plus" unicode="+" horiz-adv-x="839" 
d="M317 528v201q0 41 30 63.5t70 22.5t66.5 -21.5t26.5 -64.5v-201h201q41 0 69.5 -28.5t28.5 -66.5q0 -39 -23 -67t-63 -28h-213v-193q0 -41 -28.5 -68.5t-67.5 -27.5t-68 23t-29 63v203h-188q-43 0 -65.5 29.5t-22.5 67.5t22.5 65.5t65.5 27.5h188z" />
    <glyph glyph-name="comma" unicode="," horiz-adv-x="350" 
d="M192 203q32 0 62.5 -25.5t30.5 -57.5t-15 -48l-129 -217q-30 -54 -88 -54q-33 0 -70.5 38t-0.5 114l110 188q30 62 100 62z" />
    <glyph glyph-name="hyphen" unicode="-" horiz-adv-x="839" 
d="M129 338q-43 0 -65.5 29.5t-22.5 69.5q1 40 23 71t65 31h582q41 0 69.5 -33t28.5 -72q0 -40 -23 -68t-63 -28h-594z" />
    <glyph glyph-name="period" unicode="." horiz-adv-x="350" 
d="M158 -18q-49 0 -82 28t-33 85q0 56 33 85t82 29t84 -35q28 -33 28 -81t-31.5 -79.5t-80.5 -31.5z" />
    <glyph glyph-name="slash" unicode="/" horiz-adv-x="602" 
d="M507 922q24 0 47.5 -23t23.5 -45t-11 -45l-417 -797q-23 -37 -57 -37t-54 21q-47 38 -10 115l399 757q24 54 79 54z" />
    <glyph glyph-name="zero" unicode="0" horiz-adv-x="821" 
d="M236 441q0 -97 42 -181t119 -90l9 -2q59 0 108 70t49 192t-28 188q-33 82 -119 93h-13q-82 0 -129 -97q-38 -76 -38 -173zM422 -29h-16q-188 0 -289 154q-88 131 -88 326l-4 20q-1 69 33 175t112 177q100 95 242 95t224 -88q81 -88 115 -204t33 -196q0 -201 -102 -330
t-260 -129z" />
    <glyph glyph-name="one" unicode="1" horiz-adv-x="446" 
d="M150 721h-101q-29 0 -45 26.5t-16 66.5t18.5 66.5t52.5 26.5h217q24 1 48 -23t24 -44v-729q0 -53 -30.5 -86t-71.5 -33t-71 32.5t-30 92.5l5 14v590z" />
    <glyph glyph-name="two" unicode="2" horiz-adv-x="667" 
d="M370 576q18 34 17 65q0 31 -8 39q-8 41 -72 41q-35 0 -52 -12t-52 -105q-27 -70 -94 -76h-13q-43 0 -63.5 32t-20.5 87t34 125t106 112t174 42t191 -79t89 -208q0 -30 -12 -95q-14 -79 -186 -256q-77 -80 -89 -98h238q33 0 52.5 -29.5t19.5 -67.5t-18.5 -63.5
t-53.5 -25.5h-469q-37 0 -60.5 23.5t-23.5 57.5q0 68 74 134q220 219 292 357z" />
    <glyph glyph-name="three" unicode="3" horiz-adv-x="667" 
d="M578 676q0 -102 -91 -176q70 -39 106 -98.5t36 -125.5q0 -114 -89 -204t-221 -90q-96 0 -196 57q-121 65 -124 119.5t-3 60.5q0 49 24.5 76t57.5 27t61.5 -14.5t42.5 -45.5t50 -54.5t73 -23.5t65.5 22.5t37.5 63.5v17q0 41 -25 67.5t-64 26.5l-12 -2q-47 0 -80.5 33.5
t-33.5 70.5t26.5 64t77.5 31q82 32 82 88q0 27 -22.5 47t-55.5 20q-61 0 -123 -74q-27 -41 -68 -41t-68.5 30t-27.5 58t6 44q10 50 91 114t180 64h18q123 0 201 -78q68 -72 68 -174z" />
    <glyph glyph-name="four" unicode="4" horiz-adv-x="790" 
d="M422 391v320l-193 -320h193zM618 780v-389h52q41 0 66.5 -32.5t25.5 -70.5q0 -89 -72 -87h-72v-90q0 -51 -29.5 -81t-68.5 -30q-38 0 -68 29t-30 82v90h-361q-39 0 -60 25.5t-21 51.5t12 74l119 168l180 299q51 96 173 96q58 0 106 -37.5t48 -97.5z" />
    <glyph glyph-name="five" unicode="5" horiz-adv-x="667" 
d="M209 907h319q41 0 64.5 -26.5t23.5 -65.5t-23.5 -66.5t-64.5 -27.5h-252l-10 -103q55 16 96 17q109 0 187 -90t78 -213v-23q-15 -153 -113 -231t-220 -78t-216 53q-74 42 -74 113q0 41 27.5 73.5t61.5 32.5t85 -36t105 -35q55 1 90 31t35 93t-36 101t-74 37t-62 -25
t-67 -24q-44 0 -72 20t-27 55l8 121l31 219q0 41 29.5 59.5t70.5 18.5z" />
    <glyph glyph-name="six" unicode="6" horiz-adv-x="698" 
d="M442 297q0 47 -35.5 76.5t-83 30t-79.5 -31.5t-31 -91q12 -45 41 -74t61 -29l19 2q39 0 69.5 29t38.5 82v6zM653 270q0 -156 -110 -229q-76 -47 -199 -59h-35q-129 0 -217 88t-88 221v31q0 90 59 204q63 112 121 191l99 123q68 86 135 86q37 0 63.5 -30t26.5 -73l-4 -43
l-180 -211l73 9q111 0 184 -86t72 -205v-17z" />
    <glyph glyph-name="seven" unicode="7" horiz-adv-x="602" 
d="M70 721q-41 0 -61.5 25.5t-20.5 63.5t19.5 67.5t51.5 29.5h449q36 0 62 -43t26 -73v-11l-330 -719q-25 -65 -96 -65q-37 0 -66.5 26.5t-29.5 65.5t14 72l270 561h-288z" />
    <glyph glyph-name="eight" unicode="8" horiz-adv-x="727" 
d="M479 301q0 51 -39 84t-86 33q-48 0 -82 -32t-34 -87q20 -109 122 -109q46 0 82.5 30t36.5 81zM358 578q32 0 56 24.5t24 62.5t-26.5 57t-58.5 19t-57.5 -20.5t-27.5 -58.5t28 -61t62 -23zM692 281q0 -79 -37 -148t-115 -107t-180 -38q-100 0 -186 44t-125 128
q-29 75 -29 129q0 55 32 115.5t87 95.5q-39 35 -59.5 86t-20.5 104t29 109q39 57 113.5 90t153.5 33t147 -29t94 -70q48 -73 47 -167q0 -94 -65 -146q114 -96 114 -229z" />
    <glyph glyph-name="nine" unicode="9" horiz-adv-x="698" 
d="M442 614q0 53 -32.5 81t-77.5 28t-84 -29.5t-39 -77.5l4 -6q6 -51 43 -81q37 -29 81 -29t74.5 30.5t30.5 83.5zM258 332q-121 0 -190 94q-64 78 -64 184q0 170 117 254q90 66 219 66l53 -2q137 -27 201 -106q64 -78 65 -188q-1 -222 -215 -494q-110 -140 -202 -140
q-37 0 -63.5 22.5t-26.5 60.5t32 77q6 10 78 82t72 98q-56 -8 -76 -8z" />
    <glyph glyph-name="colon" unicode=":" horiz-adv-x="350" 
d="M159 4q-48 0 -82 28t-34 83t31.5 84.5t81.5 29.5t86 -34q28 -35 28 -82t-31.5 -78t-79.5 -31zM158 391q-49 0 -82 29t-33 84t33 84.5t82 29.5t84 -34q28 -35 28 -83t-31.5 -79t-80.5 -31z" />
    <glyph glyph-name="semicolon" unicode=";" horiz-adv-x="350" 
d="M186 213q42 0 70.5 -27.5t28.5 -53.5t-4 -40l-129 -237q-8 -18 -33 -30.5t-57 -12.5t-56 22t-24 52q0 28 4 43.5t6 23.5l119 217q33 43 75 43zM169 381q-48 0 -82 29t-34 85t33 85.5t82 29.5t84 -37q29 -35 29 -83t-32 -78.5t-80 -30.5z" />
    <glyph glyph-name="less" unicode="&#x3c;" horiz-adv-x="790" 
d="M35 352.5q0 42.5 26.5 71.5t69.5 47l447 209q34 12 64 12t56.5 -25.5t26.5 -54.5q0 -59 -66 -84l-378 -155l378 -172q35 -14 54.5 -39.5t19.5 -51.5t-20.5 -44.5t-50.5 -18.5t-72 14l-281 119l-188 90q-86 40 -86 82.5z" />
    <glyph glyph-name="equal" unicode="=" horiz-adv-x="839" 
d="M129 162q-41 0 -69.5 28.5t-28.5 66.5t23.5 67.5t64.5 29.5h592q43 0 65.5 -29.5t22.5 -68.5t-22.5 -66.5t-65.5 -27.5h-582zM119 485q-41 0 -70 29t-29 67t24 66.5t65 28.5h591q41 0 64.5 -29t23.5 -67.5t-22 -66.5t-66 -28h-581z" />
    <glyph glyph-name="greater" unicode="&#x3e;" horiz-adv-x="790" 
d="M29 618q0 28 21.5 49t62.5 21t77 -18l469 -219q35 -14 55 -39q20 -24 19 -48q0 -24 -23.5 -51.5t-50.5 -42.5l-499 -227q-12 -4 -24 -9t-36 -5t-47.5 24.5t-23.5 52.5q0 60 63 84l387 172l-170 78l-198 80q-39 14 -60.5 42t-21.5 56z" />
    <glyph glyph-name="question" unicode="?" horiz-adv-x="667" 
d="M284 938q106 0 189 -49q121 -74 133 -230v-18q0 -92 -59 -170q-66 -80 -158 -80v-12q0 -55 -32.5 -87t-71.5 -32t-68 25.5t-29 66.5v127q0 59 94 77t97 54v21q0 45 -24.5 65.5t-55.5 20.5t-58.5 -8.5t-31.5 -18.5q-18 -37 -51 -58.5t-69 -21.5q-37 0 -63 28t-26 79v24
q4 12 10 24.5t10 27.5q35 61 86 94q72 51 178 51zM285 -18q-51 0 -84 28t-33 85q0 56 33 85t85 29t82 -34t30 -82t-31 -79.5t-82 -31.5z" />
    <glyph glyph-name="at" unicode="@" horiz-adv-x="1044" 
d="M606 457q0 45 -31.5 70.5t-74.5 25.5t-76 -29q-35 -35 -35 -92t21.5 -87t54.5 -30l22 7q45 8 78 42.5t41 86.5v6zM804 176q34 0 34 -41q0 -21 -23 -43q-43 -49 -140 -75t-157 -25q-339 0 -450 272q-39 93 -39 197q0 177 139 327t342 150h18q184 0 299 -103.5t131 -295.5
v-31q0 -137 -116 -242q-106 -90 -201 -90q-31 0 -52.5 17.5t-21.5 48.5q-47 -34 -95 -46t-54 -12q-60 0 -118 69t-58 159q0 13 6 49q14 102 89 171q75 68 160 68t142 -71q6 31 26.5 48t40.5 17t36 -11t16 -32v-26q0 -47 -20 -156t-21 -137q14 -6 18 -6q45 0 79 61t34 123
q0 125 -84 212t-217 87h-23q-152 0 -242 -84t-104 -197l-4 -86q0 -78 21 -127q20 -59 81 -114q112 -92 242 -92q129 0 219 51q33 16 67 16z" />
    <glyph glyph-name="A" unicode="A" horiz-adv-x="821" 
d="M285 373h219l-107 327zM387 932q45 0 87 -34t61 -79l249 -649q31 -84 -8 -127t-72 -43q-32 0 -64 24t-46 68l-31 88h-338l-20 -78q-10 -49 -44 -77.5t-72 -28.5t-58 24q-27 26 -27 74t25 107l217 618q57 113 141 113z" />
    <glyph glyph-name="B" unicode="B" horiz-adv-x="761" 
d="M397 180q99 0 99 72v18q0 31 -20.5 61.5t-49.5 30.5h-180v-182h151zM377 549q53 0 53 75q0 32 -17.5 59.5t-45.5 27.5h-121v-162h131zM426 907q84 0 146 -76t62 -179t-99 -163q74 -12 125 -80t51 -154q0 -87 -56 -151q-61 -76 -180 -100h-358q-31 0 -55.5 19.5
t-24.5 48.5v737q8 45 29.5 71.5t50.5 26.5h309z" />
    <glyph glyph-name="C" unicode="C" horiz-adv-x="761" 
d="M8 451q0 211 125 345t307 134q59 0 113 -12q174 -37 174 -138v-12q0 -44 -35 -70q-14 -14 -32 -14t-37 4l-50 12q-66 21 -124 21q-59 0 -109 -31q-61 -43 -94 -121q-2 -12 -6 -34.5t-4 -60.5t12 -101.5t37 -102.5q69 -77 168 -77q49 0 106 20t93 20q36 -1 63 -27t27 -62
t-20 -66.5t-56 -44.5q-81 -43 -146 -43l-65 2h-23q-170 0 -291 114q-133 134 -133 345z" />
    <glyph glyph-name="D" unicode="D" horiz-adv-x="856" 
d="M242 711v-521h131q101 8 157 84t56 176q0 99 -46 174t-126 87h-172zM393 907q203 0 322 -137q119 -138 119 -322t-111 -314t-309 -130h-279q-33 0 -67 18t-33 60v727q18 100 78 98h280z" />
    <glyph glyph-name="E" unicode="E" horiz-adv-x="602" 
d="M49 72v747q0 45 29 67t61 21h328q41 0 68 -32q27 -33 27 -71t-22 -66q-20 -28 -53 -27h-239v-162h219q37 0 58.5 -30.5t21.5 -66.5t-17.5 -63t-50.5 -27h-231v-172h219q53 0 82 -28q25 -29 25 -65t-22 -64.5t-54 -28.5h-379q-23 0 -46.5 22.5t-23.5 45.5z" />
    <glyph glyph-name="F" unicode="F" horiz-adv-x="573" 
d="M45 819q-1 51 19 69t61 19h348q43 0 67 -31q24 -30 24 -68t-19 -62.5t-51 -24.5h-252v-162h221q35 0 54.5 -26.5t19.5 -63.5t-20.5 -66.5t-53.5 -29.5h-221v-291q0 -35 -30 -58.5t-66 -23.5t-64.5 21.5t-36.5 60.5v737z" />
    <glyph glyph-name="G" unicode="G" horiz-adv-x="950" 
d="M463 928h16q102 0 187 -25t143 -104q14 -25 14 -61t-28.5 -65.5t-69.5 -29t-73 26.5q-75 63 -181 63q-142 0 -201 -155q-23 -61 -22 -121q0 -109 57 -188t174 -79q160 0 191 162h-142q-35 0 -56 29t-21 65.5t21.5 64.5t55.5 28h271q47 0 64 -31t18 -82v-49q-2 -6 -2 -15
q-37 -197 -135.5 -283.5t-272.5 -86.5h-31q-166 0 -289 129t-122 287l1 8l-1 59q0 195 129 324t305 129z" />
    <glyph glyph-name="H" unicode="H" horiz-adv-x="886" 
d="M135 918q61 0 103 -70v-289h391v281q0 35 26.5 54t66.5 19t72.5 -24.5t32.5 -69.5v-727q-1 -45 -31 -71q-30 -25 -71 -25t-69 22t-27 64v291h-391v-291q0 -39 -31 -64.5t-68 -25.5t-65.5 24.5t-34.5 65.5v758q0 27 28.5 52.5t67.5 25.5z" />
    <glyph glyph-name="I" unicode="I" horiz-adv-x="321" 
d="M47 829q0 45 28.5 69t67.5 24t71 -21.5t32 -60.5v-748q0 -45 -30 -71q-30 -25 -68 -25t-68 26q-31 26 -33 70v737z" />
    <glyph glyph-name="J" unicode="J" horiz-adv-x="538" 
d="M266 291v538q0 37 32 60.5t74 23.5t72.5 -21.5t30.5 -62.5v-579q0 -126 -84 -188t-187 -62q-102 0 -148 26q-84 49 -85 117q0 41 31 73t70 32t67 -22t54 -23q27 0 49 18q24 25 24 70z" />
    <glyph glyph-name="K" unicode="K" horiz-adv-x="761" 
d="M47 82v758q0 39 28.5 60.5t68.5 21.5t71 -21.5t31 -60.5v-281l307 338q23 29 65 29t78.5 -30t36.5 -72t-26 -74l-252 -250l290 -320q31 -35 31 -78t-39 -74.5t-81 -31.5t-62 27l-338 378v-319q0 -39 -31.5 -60.5t-73.5 -21.5t-73 21.5t-31 60.5z" />
    <glyph glyph-name="L" unicode="L" horiz-adv-x="573" 
d="M35 82v737q0 51 29.5 79t70.5 28t74 -23.5t33 -62.5v-639h241q37 0 58.5 -29t21 -70.5t-20.5 -69.5t-59 -28h-358q-43 0 -72 35q-18 25 -18 43z" />
    <glyph glyph-name="M" unicode="M" horiz-adv-x="1110" 
d="M258 928q45 0 83 -25.5t50 -73.5l137 -438l152 438q14 47 55 74t87 27t82 -31t46 -90l111 -668v-35q0 -49 -25.5 -77.5t-64.5 -28.5t-73 33t-40 88l-67 418l-140 -457q-12 -39 -42.5 -60.5t-67.5 -21.5t-68 21.5t-43 60.5l-149 446l-62 -417q0 -53 -33 -82
q-34 -29 -76 -29t-74 28t-32 59t8 54l109 668q10 55 51 87t86 32z" />
    <glyph glyph-name="N" unicode="N" horiz-adv-x="886" 
d="M39 840q0 35 32.5 56.5t82.5 21.5t84 -50l391 -487v459q0 39 30.5 60.5t69.5 21.5t68.5 -19.5t29.5 -54.5v-776q0 -31 -31.5 -53.5t-66.5 -22.5q-72 0 -100 57l-391 496v-467q0 -39 -32 -62.5t-70 -23.5t-64 22t-33 64v758z" />
    <glyph glyph-name="O" unicode="O" horiz-adv-x="950" 
d="M242 451q0 -129 57 -200t161 -71t162 75t58 209t-53.5 205.5t-147.5 71.5h-16q-98 0 -161.5 -75t-63.5 -193q4 -20 4 -22zM454 938q183 0 302 -107q141 -127 141 -360v-20q0 -106 -41 -211t-139 -182t-256 -76q-78 0 -152 26q-121 41 -192 127q-94 113 -94 295l-3 23
q0 237 126 361t308 124z" />
    <glyph glyph-name="P" unicode="P" horiz-adv-x="727" 
d="M238 721v-242h131q51 0 78.5 36t27.5 84q-1 48 -29 85t-77 37h-131zM29 829q-1 33 27 55t53 23h280q147 0 224 -89t77 -216t-70 -219t-192 -92h-190v-209q0 -41 -32 -66.5t-73 -25.5t-73 26t-31 76v737z" />
    <glyph glyph-name="Q" unicode="Q" horiz-adv-x="950" 
d="M537 383q68 0 114 -61q23 74 23 167t-58 168q-61 84 -163 84h-23q-76 -8 -117.5 -42.5t-70.5 -120.5q-15 -78 -15 -121q-1 -119 59 -194t189 -75l35 2q-64 48 -64 94t27 72.5t64 26.5zM461 938h14q147 0 285 -126t137 -333q0 -92 -12 -140t-66 -159l99 -98q14 -20 14 -53
t-26 -57.5t-56 -24.5t-51 6l-119 100q-96 -61 -229 -61q-213 0 -336 145q-104 125 -105 299l2 25l-2 24q0 92 40 195t130 174q115 84 281 84z" />
    <glyph glyph-name="R" unicode="R" horiz-adv-x="727" 
d="M471 625q0 77 -82 96h-151v-193h151q35 0 58.5 30t23.5 67zM29 829q0 23 22.5 50.5t46.5 27.5h340q102 0 171 -77q69 -76 69 -190t-64 -179l-135 -80v-8l199 -213q20 -20 20 -54t-36.5 -68t-79.5 -34t-74 39l-270 330v-271q0 -43 -33 -72.5t-71 -29.5t-68 26t-37 76v727z
" />
    <glyph glyph-name="S" unicode="S" horiz-adv-x="698" 
d="M4 651q0 137 113 213q90 63 209 64h28q61 0 133 -27t84 -72q2 -10 3 -22t4 -23q0 -43 -28 -68.5t-67 -25.5t-80 21q-35 14 -75 14t-71.5 -19.5t-33.5 -46.5l-4 -10q0 -37 125 -69t182 -70q109 -74 109 -206t-83 -222t-230 -90h-21q-55 0 -134 15t-122 46q-49 22 -49 90
q0 33 8 58q33 49 66 49t50 -7t29.5 -13.5t69.5 -21.5t94 -15q86 0 101 67l2 21q0 63 -111 90q-46 13 -117 36t-118 70q-66 61 -66 158v16z" />
    <glyph glyph-name="T" unicode="T" horiz-adv-x="602" 
d="M188 82v639h-149q-35 0 -55.5 27.5t-20.5 66.5t21.5 65.5t64.5 26.5h449q55 1 82 -27t26.5 -65t-22 -67.5t-47.5 -30.5l-9 4h-139v-619q0 -50 -31 -74q-30 -24 -70 -24t-70 20.5t-30 57.5z" />
    <glyph glyph-name="U" unicode="U" horiz-adv-x="886" 
d="M29 362v457q0 45 31.5 70.5t73.5 25.5t73 -22.5t31 -63.5v-477q0 -78 61 -123q53 -45 126 -45t122 41t49 115v479q0 41 33 67.5t73.5 26t72.5 -22.5t32 -61v-507q0 -152 -123 -244q-112 -86 -268 -86t-264 90q-123 100 -123 280z" />
    <glyph glyph-name="V" unicode="V" horiz-adv-x="727" 
d="M57 907q37 0 69 -15t42 -44l180 -475l180 475q20 67 109 67q39 0 71.5 -23.5t32.5 -62.5q0 -10 -4 -30l-280 -717q-10 -35 -43 -58.5t-68 -23.5q-66 0 -98 82l-170 428l-107 281q-8 13 -8 44t28.5 51.5t65.5 20.5z" />
    <glyph glyph-name="W" unicode="W" horiz-adv-x="1167" 
d="M-18 823q0 35 36.5 62.5t74.5 27.5t65.5 -18t31.5 -55l109 -500l141 451q16 61 53 100t77 39t76 -36t54 -114l129 -440l109 500q6 41 36 63.5t68 22.5t72.5 -29t34.5 -78l-170 -727q-8 -43 -48 -70q-40 -26 -85 -26t-81 21.5t-44 54.5l-152 456l-139 -436
q-12 -43 -54 -69.5t-87 -26.5t-81 24.5t-48 71.5l-178 717v14z" />
    <glyph glyph-name="X" unicode="X" horiz-adv-x="790" 
d="M149.5 922q43.5 0 59.5 -25l172 -227l168 227q19 29 64 29q44 0 77 -28t33 -71t-12 -67l-211 -271l231 -299q39 -51 39 -97t-34 -72t-80 -25t-56 27l-219 299l-201 -279q-41 -47 -87 -47t-69.5 26.5t-23.5 77.5t33 90l227 310l-199 250q-24 43 -24 80q0 36 34.5 64t78 28
z" />
    <glyph glyph-name="Y" unicode="Y" horiz-adv-x="698" 
d="M-45 831q0 33 36 65t83 32t69 -39l181 -260l170 250q26 47 77 47q50 0 86.5 -33t36.5 -66t-10 -47l-262 -358v-350q0 -37 -30 -58.5t-68.5 -21.5t-69.5 24t-31 66v340l-258 358q-10 18 -10 51z" />
    <glyph glyph-name="Z" unicode="Z" horiz-adv-x="698" 
d="M113 721q-59 0 -88 26.5t-29 65.5t22.5 66.5t55.5 27.5h469q127 0 127 -98q0 -42 -17 -78l-401 -541h350q41 0 70 -30q23 -29 22.5 -64t-22 -61.5t-62.5 -30.5h-508q-51 0 -81.5 29.5t-30.5 66.5t14 70l410 551h-301z" />
    <glyph glyph-name="bracketleft" unicode="[" horiz-adv-x="446" 
d="M406 858q0 -67 -58 -67h-100v-848h100q66 0 66 -62q0 -32 -27 -73q-8 -12 -29 -13h-208q-36 9 -54 27t-18 61v975q0 80 72 80h190q31 0 48.5 -23.5t17.5 -56.5z" />
    <glyph glyph-name="backslash" unicode="\" horiz-adv-x="602" 
d="M0 888q0 24 22.5 45t49.5 21q58 0 88 -65l397 -778q10 -27 10 -49t-22.5 -42t-58.5 -20t-58 43l-219 408l-199 397q-10 16 -10 40z" />
    <glyph glyph-name="bracketright" unicode="]" horiz-adv-x="446" 
d="M49 791q-53 0 -53 52t14.5 73.5t38.5 21.5h209q29 0 50.5 -22.5t21.5 -47.5v-1013q0 -23 -22.5 -41.5t-41.5 -18.5h-207q-29 0 -46 20.5t-17 51.5t19.5 53.5t54.5 22.5h90v848h-111z" />
    <glyph glyph-name="asciicircum" unicode="^" horiz-adv-x="790" 
d="M154 416q-72 0 -72 49q0 10 10 35l98 200l109 189q29 51 66 51q73 0 106 -72l199 -379q6 -9 6 -29t-23.5 -33t-49.5 -13q-55 0 -75 37l-147 290l-162 -301q-4 -10 -24.5 -17t-40.5 -7z" />
    <glyph glyph-name="underscore" unicode="_" horiz-adv-x="659" 
d="M57 -156q-57 0 -57 31q0 39 51 39h557q53 0 54 -37q0 -33 -50 -33h-555z" />
    <glyph glyph-name="grave" unicode="`" horiz-adv-x="350" 
d="M-12 599q0 32 14 52l129 221q31 56 91 56q28 0 55.5 -27t27.5 -59t-16 -70l-109 -188q-35 -64 -85 -64t-78.5 23.5t-28.5 55.5z" />
    <glyph glyph-name="a" unicode="a" horiz-adv-x="727" 
d="M467 356q0 70 -42 114t-93 44t-94 -43t-43 -109q0 -6 4 -10q0 -61 32 -108q39 -64 101 -64t99 54q36 52 36 122zM294 -10q-106 0 -200 101t-94 261v15q0 117 93 231t204 113h22q73 0 160 -70q20 61 82 61q39 0 73 -26.5t34 -65.5v-528q0 -31 -28 -54.5t-73 -23.5l-14 -4
q-36 0 -82 53h-4q-67 -63 -173 -63z" />
    <glyph glyph-name="b" unicode="b" horiz-adv-x="727" 
d="M356.5 510q-55.5 0 -97.5 -38t-42 -114t35 -127t96 -51l14 -2q60 0 98 56t38 126t-43 110t-98.5 40zM217 61q-29 -61 -101 -61q-30 0 -58.5 23.5t-28.5 58.5v786q-1 57 29 87t66 30t64.5 -23.5t28.5 -64.5v-246q94 49 176 49q131 0 218 -108t87 -248t-81 -238
q-81 -100 -179 -114l-57 -4q-113 0 -164 73z" />
    <glyph glyph-name="c" unicode="c" horiz-adv-x="602" 
d="M29 377q0 111 88 217t223 106h29q80 0 139 -20q39 -8 62 -41q24 -33 24 -70t-23.5 -63.5t-57.5 -26.5q-35 -1 -65 15t-78 16t-96 -41q-49 -47 -49 -115l2 -14q0 -57 23 -98q33 -63 123 -64l35 2q10 0 49.5 16.5t63.5 16.5q25 0 49 -27t24 -60t-8 -44q-25 -41 -86.5 -66.5
t-132.5 -25.5q-137 0 -228 82q-111 94 -110 274v31z" />
    <glyph glyph-name="d" unicode="d" horiz-adv-x="727" 
d="M195 324q0 -60 47 -102t102 -42t92 51.5t37 117.5q0 65 -35 113q-34 48 -100 48t-102.5 -46t-36.5 -124q-4 -12 -4 -16zM292 -10q-104 0 -198 108t-94 262q0 156 95 251t203 95t169 -55v238q0 47 30.5 73.5t70.5 26.5t70 -26.5t30 -73.5v-787q0 -98 -95 -98q-5 -4 -19 -4
t-38 18l-49 43q-71 -71 -175 -71z" />
    <glyph glyph-name="e" unicode="e" horiz-adv-x="727" 
d="M340 528q-79 0 -131 -106h258q-9 22 -17 38q-28 51 -92 68h-18zM0 356q0 140 102 242t238 102h18q131 0 213 -89t97 -238q0 -51 -12.5 -66.5t-49.5 -25.5h-389q0 -29 41 -71t96 -42q69 9 140 38t101 30t54 -35q10 -25 10 -45q0 -64 -91 -114t-210 -50q-176 0 -276 125
q-82 99 -82 239z" />
    <glyph glyph-name="f" unicode="f" horiz-adv-x="446" 
d="M49 500q-82 16 -82 93q0 34 20.5 60.5t51.5 26.5h49l-2 31q0 129 56.5 203.5t154.5 74.5h10q51 0 88 -34.5t37 -83.5t-63 -72q-82 0 -82 -29v-90h82q37 0 57 -26.5t20 -62.5t-22 -64t-66 -27h-71v-408q0 -45 -26.5 -68.5t-64.5 -23.5t-65 27q-33 27 -33 75v398h-49z" />
    <glyph glyph-name="g" unicode="g" horiz-adv-x="727" 
d="M209 346q0 -74 39 -121t92 -47t96 45t43 109q-1 64 -33 118q-32 53 -88 60h-18q-55 0 -93 -45t-38 -119zM309 711q119 0 170 -82q37 66 94 65q37 0 66 -26.5t29 -67.5l10 -547q0 -106 -76 -200q-92 -119 -244 -119h-28q-147 0 -206 33q-101 57 -101 122q0 31 29.5 56.5
t63.5 25.5t52 -18q56 -39 137 -39t113 18q16 6 37 58q25 49 24 80v12q-29 -42 -86 -60t-96 -18q-143 0 -225 129q-62 101 -62 199l-2 20q0 141 90 250q92 109 211 109z" />
    <glyph glyph-name="h" unicode="h" horiz-adv-x="727" 
d="M411 707q95 0 160 -58q78 -66 78 -170v-387q0 -45 -27.5 -70.5t-65.5 -25.5t-69 31t-30 84v311q0 47 -36 76.5t-79 29.5t-74 -24t-30 -74v-338q0 -45 -28 -68.5t-67 -23.5t-71 27t-33 65v787q0 53 27.5 81.5t65.5 28.5t68.5 -24.5t37.5 -67.5v-246q78 56 173 56z" />
    <glyph glyph-name="i" unicode="i" horiz-adv-x="286" 
d="M39 121v438q0 57 27.5 89t65.5 32t67 -29t28 -82v-458q0 -51 -28.5 -83t-65.5 -32t-65 32t-29 93zM137 741q-49 0 -83 28t-34 85t33 87t84 30t81 -36t30 -84t-31 -79t-80 -31z" />
    <glyph glyph-name="j" unicode="j" horiz-adv-x="286" 
d="M128 750q-48 0 -83 28t-35 85q0 56 33 86t83 30t85 -37q27 -33 27 -82t-31 -79.5t-79 -30.5zM29 590q1 51 29 80q28 28 69 28t70.5 -26.5t29.5 -71.5v-776q0 -49 -27.5 -77t-68.5 -28t-72 29t-30 76v766z" />
    <glyph glyph-name="k" unicode="k" horiz-adv-x="667" 
d="M39 889q0 47 27.5 73.5t68.5 26.5t72 -26.5t31 -73.5v-418l200 199q25 24 65 24t70.5 -25.5t30.5 -60.5t-18 -59l-158 -158l199 -239q16 -23 16 -56t-29.5 -62.5t-73.5 -29.5t-94 57l-208 261v-220q0 -45 -30 -73.5t-69 -28.5t-71 32t-31 87l2 12v758z" />
    <glyph glyph-name="l" unicode="l" horiz-adv-x="286" 
d="M20 879q0 53 29 80.5t70 27.5t69.5 -25.5t28.5 -72.5v-778q0 -47 -27.5 -77t-66.5 -30t-71 29.5t-32 77.5v768z" />
    <glyph glyph-name="m" unicode="m" horiz-adv-x="1110" 
d="M922 -4q-84 0 -103 106v310q0 51 -28.5 79.5t-66.5 28.5t-66.5 -31.5t-28.5 -87.5v-299q0 -47 -28.5 -74.5t-68.5 -27.5t-71 37t-31 104v281q0 45 -28.5 70.5t-67.5 25.5t-65.5 -24.5t-26.5 -71.5v-330q0 -45 -32 -71q-32 -25 -70 -25t-67.5 26.5t-29.5 69.5v508
q0 41 25.5 62.5t62.5 21.5t65.5 -18.5t32.5 -47.5q74 74 170 74t191 -74q41 33 69 53q29 20 62 19l43 2h12q100 0 172 -59.5t72 -138.5v-392q0 -47 -28.5 -76.5t-69.5 -29.5z" />
    <glyph glyph-name="n" unicode="n" horiz-adv-x="727" 
d="M39 102v457q0 57 26.5 91t63.5 34q61 0 98 -74q20 35 71.5 57.5t129.5 22.5t137 -45q74 -53 84 -156v-397q0 -49 -28.5 -75.5t-67.5 -26.5t-72 28q-35 35 -35 93v290q0 59 -30 91t-73 30q-42 0 -73.5 -27.5t-31.5 -72.5v-320q0 -51 -30 -78.5t-69 -27.5t-69 29t-31 77z
" />
    <glyph glyph-name="o" unicode="o" horiz-adv-x="727" 
d="M348 510h-14q-57 0 -87 -51t-30 -116t38 -109t96 -44t97 43t39 113q-1 70 -37 116q-36 48 -102 48zM20 341q0 161 98 265t230 105h14q134 -1 230 -109t96 -254t-91 -252t-241 -104h-16q-111 0 -207 88q-113 100 -113 261z" />
    <glyph glyph-name="p" unicode="p" horiz-adv-x="727" 
d="M494 334q0 62 -39 114q-39 51 -97 52q-141 0 -141 -178q6 -68 45 -105t96 -37q66 6 101 49t35 105zM379 -8q-82 0 -162 51v-209q0 -49 -25.5 -74.5t-65.5 -25.5t-73 32t-33 89v684q0 73 31 111t70 38q61 0 88 -70q68 80 170 80q63 0 125.5 -32.5t101.5 -87.5
q78 -96 78 -238t-79 -245q-79 -104 -216 -103h-10z" />
    <glyph glyph-name="q" unicode="q" horiz-adv-x="727" 
d="M209 350q0 -72 42 -121t98 -49t93 38t37 116v28q0 63 -34.5 101.5t-96.5 46.5q-47 0 -93 -44t-46 -116zM678 -156q0 -49 -32 -79.5t-71 -30.5t-63.5 28.5t-24.5 81.5v115q-2 29 -3 50.5t-5 33.5q-88 -53 -164 -53q-121 0 -213 110q-84 106 -84 215l2 17l-2 24
q0 137 91 240q92 102 200 102t178 -69q43 55 105 55t86 -84v-756z" />
    <glyph glyph-name="r" unicode="r" horiz-adv-x="446" 
d="M365 700h18q31 0 57.5 -34.5t26.5 -79.5t-39 -66q-47 -16 -80 -29.5t-53 -21.5q-68 -31 -68 -96v-252q0 -57 -25.5 -89t-62.5 -32t-69 34t-31 87v469q0 47 28.5 73.5t67.5 26.5q70 0 92 -72q65 82 138 82z" />
    <glyph glyph-name="s" unicode="s" horiz-adv-x="538" 
d="M8 472q0 106 82 169q72 59 189 59t176 -71q39 -41 39 -76t-25 -54.5t-67 -19.5q-42 1 -77 21q-34 20 -60 20t-44 -10t-18 -26t26.5 -34t98.5 -34t127 -82t55 -138t-55 -128q-68 -61 -181 -76q-143 0 -206 41q-78 34 -78 102q0 35 24.5 59.5t72.5 24.5t89 -29
q74 -42 104.5 -19.5t30.5 39.5t-26 32l-172 67q-105 57 -105 163z" />
    <glyph glyph-name="t" unicode="t" horiz-adv-x="446" 
d="M-37 592q0 37 16.5 62.5t49.5 25.5h59v129q0 45 28.5 70.5t66.5 25.5t65.5 -22.5t27.5 -63.5v-139h103q29 0 45 -26.5t16 -63.5t-18.5 -63.5t-52.5 -26.5h-82v-379q0 -59 -31 -92t-70 -33q-38 0 -68 31t-30 84v389h-49l-10 -2q-29 0 -47.5 28.5t-18.5 65.5z" />
    <glyph glyph-name="u" unicode="u" horiz-adv-x="727" 
d="M348 -18q-289 0 -289 278v330q0 45 28 69.5t67 24.5t66.5 -23.5t27.5 -70.5v-309q0 -47 35 -82q35 -29 77 -29t74.5 29.5t32.5 81.5v297q0 51 29.5 80.5t68.5 29.5t71 -29.5t32 -80.5v-336q0 -102 -82 -181t-217 -79h-21z" />
    <glyph glyph-name="v" unicode="v" horiz-adv-x="602" 
d="M-10 598q0 40 27.5 65t62.5 25t62.5 -18.5t35.5 -51.5l109 -309l102 301q10 39 40 60.5t66 21.5t63.5 -25.5t27.5 -65.5t-8 -62l-189 -486q-6 -27 -36.5 -44t-63.5 -17q-75 0 -101 61l-118 279l-70 196q-10 30 -10 70z" />
    <glyph glyph-name="w" unicode="w" horiz-adv-x="978" 
d="M77 690q34 0 61.5 -20.5t37.5 -59.5l98 -311l103 291q14 53 40.5 78.5t57.5 25.5t59.5 -26.5t38.5 -67.5l103 -309l90 327q6 37 35.5 56.5t65.5 19.5t63.5 -23.5t27.5 -51.5t-4 -50l-149 -458q-17 -53 -59 -86t-80 -33t-69.5 23.5t-43.5 66.5l-78 258l-88 -268
q-8 -31 -42 -56.5t-67 -25.5q-65 0 -112 71l-98 271l-72 227l-4 37q0 41 25.5 67.5t59.5 26.5z" />
    <glyph glyph-name="x" unicode="x" horiz-adv-x="667" 
d="M20 579q0 40 32 72.5t75 32.5t72 -33l120 -141l119 149q25 31 65 31t73.5 -31t33.5 -61q0 -60 -32 -88l-140 -158l178 -192q29 -22 29 -66q0 -45 -37 -79.5t-72 -34.5t-49 24l-168 197l-159 -189q-29 -30 -66 -30t-67.5 30.5t-30.5 70.5t24 77l179 202l-150 148
q-29 29 -29 69z" />
    <glyph glyph-name="y" unicode="y" horiz-adv-x="667" 
d="M0 610q0 30 26.5 54t61.5 24t63.5 -18.5t36.5 -51.5l109 -319l131 311q12 37 39 57.5t59 20.5t61 -27.5t29 -64.5t-10 -68l-309 -733q-31 -80 -102 -80q-37 0 -67 28t-30 54t11 47l90 209q-12 71 -56.5 161.5t-54.5 117.5l-78 207q-10 41 -10 71z" />
    <glyph glyph-name="z" unicode="z" horiz-adv-x="602" 
d="M98 489q-49 0 -75.5 26t-26.5 65q0 40 32 70t91 30h379q35 0 57.5 -26t22.5 -50t-11 -45l-291 -379h222q43 0 67.5 -28.5t24.5 -63.5t-24.5 -59.5t-67.5 -24.5h-459q-16 0 -32.5 19.5t-16.5 45.5t10 52l276 368h-178z" />
    <glyph glyph-name="braceleft" unicode="{" horiz-adv-x="446" 
d="M430 861q0 -42 -56 -42q-34 0 -55 -6q-33 -8 -32 -43v-281q0 -92 -109 -116q43 -16 78 -41q31 -29 31 -72v-278q0 -68 75 -68h17q25 0 38 -16.5t13 -39t-13.5 -38t-37.5 -15.5h-162q-29 0 -59 36t-39 102q-2 70 -2 130t-3 142t-26 84q-37 2 -59 10q-39 12 -39 44
q0 54 15.5 66.5t82.5 20.5q25 25 25 123v35l-7 164l3 37q16 83 58 111t109 28h93q31 0 46 -17.5t15 -59.5z" />
    <glyph glyph-name="bar" unicode="|" horiz-adv-x="286" 
d="M49 92v805q0 47 22.5 73.5t56.5 26.5q34 1 58 -23t23 -67v-825q0 -39 -24.5 -62.5t-57.5 -23.5t-55 26t-23 70z" />
    <glyph glyph-name="braceright" unicode="}" horiz-adv-x="446" 
d="M139 586q0 183 -20 205q-29 25 -35 23q-22 -6 -42 -5q-20 0 -35 18.5t-15 42.5t13 41t34 17q137 0 190 -17q80 -29 80 -120v-302q16 -65 76 -65q36 0 41.5 -17.5t5.5 -37.5q0 -72 -57 -72t-66 -68v-297q-10 -72 -51 -104q-23 -20 -70 -33h-149q-20 0 -31.5 16.5t-11.5 56
t43 46.5h70q36 4 36 96q0 16 -6 121q-1 143 15 177t94 54q-16 8 -34.5 15.5t-37.5 15.5q-41 35 -41 135l4 31v27z" />
    <glyph glyph-name="asciitilde" unicode="~" horiz-adv-x="790" 
d="M244 324q-29 0 -73.5 -39t-62.5 -39t-36.5 14t-18.5 62t19 79q26 64 82.5 81.5t78.5 17.5h17q36 -7 141 -48q106 -40 130 -40t69 34q43 37 63 37l17 -4q37 -14 37 -71.5t-49 -113.5t-126 -56l-32 4q-20 0 -124 41q-103 41 -132 41z" />
    <glyph glyph-name="nonbreakingspace" unicode="&#xa0;" horiz-adv-x="894" 
 />
    <glyph glyph-name="afii59681" unicode="&#xe01;" horiz-adv-x="724" 
d="M395 549q0 63 -73.5 63t-71.5 -77v-463q0 -35 -34 -55.5t-75 -20.5t-75.5 23.5t-34.5 56.5v483q0 115 89 186t214 71t206 -62t81 -181v-487q0 -39 -37 -65q-36 -25 -64 -25q-49 1 -87 27.5t-38 58.5v467z" />
    <glyph glyph-name="afii59682" unicode="&#xe02;" horiz-adv-x="712" 
d="M254 369v-117q0 -35 15.5 -45t52 -10t51 16t14.5 57v459q0 33 33 59.5t74 26.5t77.5 -29.5t36.5 -70.5v-486q0 -106 -81 -170.5t-210 -64.5h-14q-98 0 -186 57.5t-88 132.5v222q0 22 44 62t44 73v39q0 18 -32 24t-51.5 29.5t-19.5 52.5v4q0 55 37 90t103 35t127 -47
q61 -53 61 -141v-9q0 -58 -44 -122t-44 -127z" />
    <glyph glyph-name="afii59683" unicode="&#xe03;" horiz-adv-x="720" 
d="M20 723q0 88 62 88q27 0 40 -14t14 -15l20 -20q12 8 33.5 25t46.5 18h8q31 0 57.5 -20.5t26.5 -43.5v-153q0 -42 -36 -100t-36 -91v-131q0 -33 19.5 -52t68.5 -19t49 84v446q0 33 24.5 61.5t63.5 28.5h29q43 0 71.5 -29.5t28.5 -68.5v-477q0 -98 -85 -174t-181 -76h-37
q-94 0 -186 78t-92 174v120q0 38 52 90t52 68v68q0 30 -61 30q-23 0 -37.5 22t-14.5 52v31z" />
    <glyph glyph-name="afii59684" unicode="&#xe04;" horiz-adv-x="743" 
d="M518 -4q-106 0 -104 98v451q0 29 -22.5 47t-55.5 18t-58.5 -17.5t-25.5 -47.5v-135q41 0 75.5 -26t34.5 -64t-32 -64q-32 -27 -70 -33v-137q0 -43 -33 -67.5t-81 -24.5t-81.5 25.5t-33.5 70.5v514q0 100 90 156t220 55q130 0 215 -61.5t85 -155.5v-498q0 -104 -113 -104
h-10z" />
    <glyph glyph-name="afii59685" unicode="&#xe05;" horiz-adv-x="1089" 
d="M983 90q-1 -94 -109 -94t-108 94v479q0 25 -21.5 43.5t-48.5 18.5h-6q-33 0 -91 -31t-90 -31q-32 -1 -65 13t-59.5 26.5t-54.5 24.5h-13q-20 0 -43.5 -17.5t-23.5 -40.5v-346q0 -23 22.5 -35t50.5 -12q66 0 68 35l10 164q8 76 74 76h137q27 0 47.5 -27t20.5 -53v-8
q-13 -80 -68 -99l-20 -172q-15 -98 -150 -98h-243q-72 0 -120 41t-48 98v445q-1 117 71 173t191 56h20q69 0 176 -70q67 34 110 53q42 18 87 17q135 0 216 -68.5t81 -187.5v-467z" />
    <glyph glyph-name="afii59686" unicode="&#xe06;" horiz-adv-x="804" 
d="M416 201q61 0 61 67v453q0 43 36 65t79 22.5t74.5 -23t31.5 -62.5v-508q0 -98 -76.5 -156.5t-205.5 -58.5t-234 80q-26 -80 -80 -80q-35 0 -53 23.5t-18 56.5v303q0 80 96 92v143q-37 4 -56.5 34t-19.5 65t27.5 63.5t75.5 28.5h10q32 0 50.5 -13.5t29.5 -21.5
q10 6 21 12.5t28 17.5t45 11q28 1 56 -23t28 -69t-23 -68q-20 -16 -55 -22v-365q0 -67 62 -67h10z" />
    <glyph glyph-name="afii59687" unicode="&#xe07;" horiz-adv-x="491" 
d="M4 96q0 97 86 97q41 0 47 2q31 6 31 53v370q-39 12 -60.5 44t-21.5 71v8q0 29 22.5 51.5t55.5 22.5h135q49 0 67 -34t19 -66v-559q0 -68 -43 -112t-117 -44h-139q-41 0 -61.5 26.5t-20.5 63.5v6z" />
    <glyph glyph-name="afii59688" unicode="&#xe08;" horiz-adv-x="681" 
d="M575 578v-500q0 -39 -31.5 -63.5t-85.5 -24.5t-83 26.5t-29 59.5v108h-147q-39 0 -69 27t-30 69t31 66q31 22 66 23h151v180q0 70 -59 69q-35 0 -80 -43q-48 -32 -85 -32q-71 0 -93 43q-32 66 3 118t103.5 81.5t138.5 29.5h33q123 0 194.5 -65.5t71.5 -171.5z" />
    <glyph glyph-name="afii59689" unicode="&#xe09;" horiz-adv-x="851" 
d="M465 555q0 68 -84 68h-240q-43 0 -72.5 25.5t-29.5 68.5v14q0 37 30.5 60.5t67.5 23.5h381q78 0 124 -35t46 -96v-229q2 -2 8 -8.5t28 -20.5t21 -43v-293q0 -47 -23.5 -72.5t-59.5 -25.5t-54 18t-39 60q-97 -78 -184 -76h-27q-104 0 -188 68t-84 180v20q-70 25 -70 103
q0 47 30 75.5t67 28.5h22q82 0 129 -35t47 -96v-80q0 -31 21.5 -52.5t57.5 -20.5t55 15t20 52v303z" />
    <glyph glyph-name="afii59690" unicode="&#xe0a;" horiz-adv-x="708" 
d="M154 813q43 0 71.5 -29.5t28.5 -68.5v-455q0 -25 19.5 -42t47.5 -17t47 18.5t19 46.5v105q0 18 -4 26.5t-34 24.5t-40 33q-18 20 -18 61v14q0 27 21.5 52.5t45.5 27.5l21 2q12 2 12 50v143q0 37 34 61.5t76 24.5t74.5 -26.5t32.5 -57.5v-199q0 -70 -55 -88
q31 -16 40 -36.5t9 -63.5v-191q0 -93 -83 -161t-199 -68t-203 71q-88 71 -88 171v467q0 47 33.5 75.5t74.5 28.5h17z" />
    <glyph glyph-name="afii59691" unicode="&#xe0b;" horiz-adv-x="765" 
d="M106 819q45 0 89 -39q23 18 41 25q23 14 38 14h5q43 0 70.5 -26.5t27.5 -68.5t-19.5 -76t-50.5 -46v-348q0 -57 67 -57t66 57v164q-33 16 -58.5 46t-25.5 52v14q0 42 26 64t37 33.5t15 15.5v158q0 41 36 65.5t80 24.5t78 -26.5t34 -63.5v-178q0 -62 -74 -80
q69 -18 69 -72v-235q0 -102 -86 -170t-209 -68q-124 0 -202 76t-78 188v346q-14 10 -26.5 19.5t-26.5 19.5q-21 19 -21 67t26.5 76.5t71.5 28.5z" />
    <glyph glyph-name="afii59692" unicode="&#xe0c;" horiz-adv-x="1083" 
d="M692 -2q-107 0 -200 80q-24 -33 -35 -53q-23 -29 -51 -29t-52 24.5t-24 47.5v362q0 39 14 50t47 14v84q0 68 -72 67q-29 0 -48 -21.5t-19 -56.5v-368q29 -16 40 -28.5t11 -31.5l-2 -22q0 -45 -41.5 -83t-96.5 -38q-56 0 -94 38t-38 83v456q0 117 75.5 179.5t194.5 62.5h8
q143 0 226 -60.5t83 -166.5v-316q0 -35 22 -58.5t50 -23.5q68 0 68 78v449q0 41 31.5 69.5t74.5 28.5h4q51 0 80 -28.5t29 -69.5v-467q0 -90 -80 -171t-188 -81h-17z" />
    <glyph glyph-name="afii59693" unicode="&#xe0d;" horiz-adv-x="1071" 
d="M352 86v-16q0 -78 -151 -78q-76 0 -124 31.5t-48 87.5v467q0 109 87 173t220 64t204.5 -56.5t71.5 -156.5v-358q0 -47 45 -47h45q41 0 43 49v473q0 35 29 65t74 29h4q111 0 111 -102v-750q0 -66 -37 -114t-111 -48h-346q-45 -1 -65 17t-21 69q0 90 82 90h227q49 0 49 41
v13h-227q-121 0 -121 125v407q0 43 -16.5 58.5t-57.5 15.5q-69 0 -69 -57v-383q0 -14 51 -40t51 -69z" />
    <glyph glyph-name="afii59694" unicode="&#xe0e;" horiz-adv-x="784" 
d="M381 631q-31 0 -52.5 -22.5t-21.5 -59.5v-438q0 -51 -48 -80t-115 -29q-66 0 -100 19t-34 69v4q0 41 23 63t59 52v383q0 96 82.5 156.5t210.5 60.5q127 0 209 -63.5t82 -174.5v-745q-16 -127 -121 -127h-238q-19 0 -57.5 21.5t-51.5 21.5t-47 -24t-59 -25h-4
q-55 0 -91 28.5t-36 71.5q0 68 80 105q66 33 160 32h8q31 0 89 -28t79 -29l10 -2q49 0 49 59v623q2 6 3 20q0 56 -56 58h-12z" />
    <glyph glyph-name="afii59695" unicode="&#xe0f;" horiz-adv-x="757" 
d="M12 89q0 67 64 114v375q0 96 88 165.5t207 69.5t199 -70t79 -165v-721q0 -76 -46 -112t-116 -36h-419q-37 0 -56.5 27.5t-19.5 71.5t15 69t65 25h299l30 4q14 0 15 18v629q0 33 -8 50t-37 18h-11q-29 0 -44 -19.5t-15 -48.5v-430q0 -55 -52 -91q-51 -36 -109 -36
t-93 27.5t-35 65.5z" />
    <glyph glyph-name="afii59696" unicode="&#xe10;" horiz-adv-x="735" 
d="M464 -324q-46 0 -117 28t-103 28h-11q-8 0 -23 -6.5t-47 -17.5t-53 -11q-20 0 -48.5 27.5t-28.5 52.5q0 63 62 95t130 32q19 0 59 -20t60 -21h66q2 0 18 30q16 29 67 29t85 -40t34 -83v-8q-6 -47 -55 -81t-95 -34zM346 481h154q55 0 91 -43t36 -104v-172
q0 -59 -49.5 -110.5t-110.5 -51.5h-311q-16 0 -28 42t-38 46q-74 14 -74 96q0 35 23.5 56.5t50.5 21.5h148q39 0 63 -45q27 -43 57 -43t41 20.5t11 65.5v8q0 23 -10.5 32t-43.5 9h-153q-66 0 -101.5 60.5t-35.5 148.5q0 154 90 227t211 72h16q84 0 155 -46t70 -112v-10
q0 -98 -96 -98h-6q-43 0 -82 32t-64 31q-63 0 -71 -57q0 -76 57 -76z" />
    <glyph glyph-name="afii59697" unicode="&#xe11;" horiz-adv-x="790" 
d="M248 811q41 0 69 -53l62 37q35 20 76 20h10q84 0 149 -57q68 -55 68 -133v-527q0 -45 -29 -75.5t-82 -30.5q-118 0 -116 104v428q0 33 -19.5 55.5t-46.5 22.5t-47 -16q-23 -23 -23 -62v-426q0 -47 -31.5 -75.5t-79.5 -28.5t-80 29.5t-32 78.5v516q-78 27 -78 91v8
q0 45 27 69.5t63 24.5t76 -41q8 8 15.5 14.5t17.5 16.5t31 10z" />
    <glyph glyph-name="afii59698" unicode="&#xe12;" horiz-adv-x="1392" 
d="M709 592q0 51 -41 51t-82 -47t-68 -47h-84q-26 14 -56 52t-62 38t-49 -20.5t-17 -53.5v-334q0 -41 35 -47h12q25 0 40 15.5t15 38.5v4q0 12 -24.5 45.5t-24.5 64.5v15q0 25 19.5 52t46.5 27h127q37 0 65.5 -32.5t28.5 -81.5q0 -8 -8 -39l-68 -217q-23 -76 -145 -76h-224
q-53 0 -83.5 27.5t-30.5 81.5v464q0 84 85 161t179 77q59 0 101 -16t89 -54q76 72 171 72q96 0 184 -71t88 -162v-353q0 -25 18.5 -41t48.5 -18h4q27 0 47.5 16.5t20.5 46.5v478q0 45 27.5 72.5t76.5 27.5h5q47 0 76.5 -24.5t29.5 -73.5v-492q0 -75 -74 -151t-182 -76h-20
q-95 0 -207 74q-51 -72 -76 -72l-18 -2q-33 0 -47.5 17.5t-14.5 43.5v332q0 46 66 55v152z" />
    <glyph glyph-name="afii59699" unicode="&#xe13;" horiz-adv-x="1173" 
d="M666 -6q-116 0 -194.5 69t-78.5 181v307q0 27 -19.5 45t-47.5 18t-49 -19.5t-21 -41.5v-354q45 0 74.5 -28t29.5 -67v-8q0 -47 -51 -73q-45 -27 -108 -27h-13q-68 0 -113.5 45t-45.5 104v449q0 84 90 149q88 68 190 68h4q127 0 214 -71t87 -156v-320q0 -39 21.5 -56.5
t52.5 -17.5h10q70 0 70 68v473q0 37 29.5 60.5t62.5 23.5h25q41 0 71 -19t31 -63v-235q0 -4 39 -17q41 -10 41 -67v-328q0 -84 -78 -84q-27 0 -48 14.5t-48 59.5q-124 -84 -217 -82h-10z" />
    <glyph glyph-name="afii59700" unicode="&#xe14;" horiz-adv-x="731" 
d="M328 74q0 -37 -44 -60.5t-99.5 -23.5t-104.5 28t-49 74v494q1 94 79 162t197 67h15q129 1 215 -67t86 -164v-500q0 -39 -34 -66.5t-79 -27.5h-10q-43 0 -73 27.5t-30 66.5v481q0 20 -24.5 35.5t-50.5 15.5t-49 -13t-23 -38v-393q78 -12 78 -88v-10z" />
    <glyph glyph-name="afii59701" unicode="&#xe15;" horiz-adv-x="1038" 
d="M317 356q0 100 82 101h144q25 0 48 -18.5t23 -49.5v-129l-79 -188q-25 -72 -111 -72h-256q-57 0 -97 35t-40 94v459q0 94 75 157q76 68 189 68h4q39 0 105 -38t77 -40q57 39 93 59t77 21h27q90 -1 171 -69t81 -168v-496q0 -37 -30 -62.5t-77 -25.5q-104 0 -104 90v489
q0 57 -55 58q-29 0 -109 -62q-41 -29 -66 -28q-51 0 -97 43t-72 43t-47 -18.5t-21 -45.5v-321q0 -29 9 -40.5t38 -11.5h53q47 0 47 58q0 20 -41 52t-41 56z" />
    <glyph glyph-name="afii59702" unicode="&#xe16;" horiz-adv-x="729" 
d="M449 815q172 0 174 -180v-553q0 -39 -36 -64.5t-80 -25.5t-79 24t-35 64v457q0 39 -10 52t-41 13h-82v-393q44 0 64 -28t20 -68v-4q0 -49 -46 -82t-113 -33t-111 34t-43 93v694h418z" />
    <glyph glyph-name="afii59703" unicode="&#xe17;" horiz-adv-x="729" 
d="M623 659v-575q0 -45 -42 -70q-82 -49 -147 2q-39 27 -39 70v442q0 37 -20.5 62.5t-53.5 25.5t-50 -20.5t-17 -52.5v-461q0 -33 -32 -61.5t-72 -28.5h-17q-47 0 -75 31t-27 63v629q0 39 33.5 67.5t82.5 28.5q76 0 111 -72q104 80 174 79t123 -40q68 -47 68 -119z" />
    <glyph glyph-name="afii59704" unicode="&#xe18;" horiz-adv-x="731" 
d="M330 608q-62 0 -62 -61q0 -33 13.5 -42t50.5 -9h157q59 0 96.5 -38t37.5 -91v-240q0 -71 -38 -99t-110 -28h-334q-57 0 -84.5 12.5t-27.5 44.5v125q0 54 82 54h39q26 -4 62 -27t50 -23h90q45 0 45 33v47q0 33 -43 33h-198q-53 0 -83 30t-30 62v219q0 94 86 150t202 55
q117 0 197 -44t80 -132v-10q0 -35 -32 -57t-72 -23h-15q-39 -1 -78 29t-55 30h-26z" />
    <glyph glyph-name="afii59705" unicode="&#xe19;" horiz-adv-x="790" 
d="M147 817q43 0 74 -23.5t31 -66.5v-434q0 -78 59 -84h13q31 0 51 27.5t20 58.5v430q0 39 30 65.5t77 26.5h12q45 0 72 -30t26 -62v-229q70 0 70 -80v-326q0 -35 -24.5 -64.5t-59.5 -29.5h-12q-30 0 -46 22t-32 48q-104 -64 -217 -64t-186.5 61.5t-73.5 153.5v508
q0 41 30.5 66.5t73.5 25.5h12z" />
    <glyph glyph-name="afii59706" unicode="&#xe1a;" horiz-adv-x="724" 
d="M334 199q55 0 55 63v467q0 33 21 53q25 31 77 31h11q49 0 84.5 -22.5t35.5 -65.5v-487q0 -115 -90 -183q-90 -67 -214 -67t-203.5 72.5t-79.5 183.5v475q0 41 29.5 67.5t70.5 26.5h23q45 0 76.5 -25.5t31.5 -62.5v-451q0 -77 60 -75h12z" />
    <glyph glyph-name="afii59707" unicode="&#xe1b;" horiz-adv-x="735" 
d="M252 270q0 -82 70 -82h10q29 0 48 21.5t19 56.5v697q0 43 29 69.5t77 26.5t85 -26t37 -79v-743q-1 -103 -93 -161t-209 -58t-205 64t-89 163v512q0 37 29.5 59.5t74.5 22.5h15q45 0 73.5 -21.5t28.5 -60.5v-461z" />
    <glyph glyph-name="afii59708" unicode="&#xe1c;" horiz-adv-x="1054" 
d="M295 -8q-106 0 -186 72t-80 178l2 432q1 45 35 91t108 46h66q48 1 82 -21t34 -66t-69 -77q-35 -16 -35 -49v-338q0 -39 16.5 -51t56.5 -12t57 12t17 57v445q0 104 103 104q43 0 71.5 -28.5t28.5 -65.5v-447q0 -47 15.5 -62t54.5 -15t49 18q8 10 8 53v455q-1 92 109 92
t110 -98v-512q0 -94 -67.5 -153.5t-178.5 -59.5h-8q-71 0 -196 61q-102 -61 -193 -61h-10z" />
    <glyph glyph-name="afii59709" unicode="&#xe1d;" horiz-adv-x="1040" 
d="M932 231q0 -91 -77 -165t-186 -74t-190 59q-96 -59 -170 -59h-33q-106 0 -176 75t-69 179v442q0 63 44 95t103 32h23q49 1 87 -21t38 -66t-37 -62q-37 -16 -37 -45v-353q0 -27 18.5 -48t46.5 -21q68 0 68 65v434q0 47 27.5 79t74.5 32t75 -28.5t28 -73.5v-461
q0 -23 16.5 -41.5t42.5 -18.5h8q59 0 60 62v698q0 40 33 62t71.5 22t74.5 -24.5t36 -59.5v-715z" />
    <glyph glyph-name="afii59710" unicode="&#xe1e;" horiz-adv-x="1064" 
d="M956 233q0 -91 -68 -165t-160 -74q-91 0 -222 69q-82 -37 -125 -53t-102 -14q-92 0 -170 77t-78 169v477q0 39 26.5 64.5t71.5 25.5h23q47 0 75.5 -24.5t28.5 -63.5v-457q0 -29 18.5 -47t47.5 -18h10q66 0 65 80v448q0 39 34 63.5t76 24.5t73.5 -24.5t31.5 -63.5v-463
q0 -27 15.5 -45t58.5 -18t43 67v443q0 100 115 100q45 0 78.5 -25.5t33.5 -68.5v-484z" />
    <glyph glyph-name="afii59711" unicode="&#xe1f;" horiz-adv-x="1056" 
d="M287 -6q-94 0 -176 75t-82 164v494q0 39 36.5 62.5t80.5 23.5t78 -19.5t34 -60.5v-459q0 -66 59 -65q57 0 58 57v453q0 41 29.5 67.5t72.5 26.5h6q43 0 77 -24.5t34 -69.5v-434q0 -76 63 -76h17q53 0 53 74v669q0 45 30.5 68.5t80.5 23.5t79 -25.5t29 -68.5v-737
q0 -75 -72 -147t-176 -72h-6q-74 0 -192 65q-117 -65 -201 -65h-12z" />
    <glyph glyph-name="afii59712" unicode="&#xe20;" horiz-adv-x="751" 
d="M385 602q-68 0 -68 -65v-433q0 -57 -49 -84q-41 -27 -100 -26h-8q-50 0 -97 28.5t-47 59.5v8q0 37 38 61t38 42v395q0 104 68.5 164.5t191.5 60.5h21q139 0 213 -78q57 -59 57 -151v-506q0 -35 -29.5 -61.5t-72.5 -26.5t-70 25.5t-27 66.5v446q0 34 -20 54t-39 20z" />
    <glyph glyph-name="afii59713" unicode="&#xe21;" horiz-adv-x="749" 
d="M174 76q-50 -80 -80 -80q-31 0 -47 22.5t-16 49.5v317q0 47 12 64.5t45 17.5v260q0 33 32 59t82 27q50 0 79.5 -23.5t29.5 -60.5v-461q0 -33 10.5 -49t45.5 -16q59 0 59 59v471q0 35 25.5 57.5t70.5 22.5h21q29 0 57 -16q41 -25 41 -66v-504q0 -104 -64.5 -168.5
t-183.5 -64.5h-10q-68 0 -130.5 32.5t-78.5 49.5z" />
    <glyph glyph-name="afii59714" unicode="&#xe22;" horiz-adv-x="722" 
d="M43 610v117q-1 86 115 86t116 -80v-90q80 -80 79 -124t-44 -84t-49 -54v-131q0 -20 16.5 -35.5t49.5 -15.5t47 13t14 44v469q0 35 28.5 62.5t71.5 27.5h27q41 0 69.5 -26.5t28.5 -73.5v-477q0 -96 -80 -170t-215 -74t-215 74q-74 63 -73 159v195q0 33 26 54t70 44
q-82 51 -82 90z" />
    <glyph glyph-name="afii59715" unicode="&#xe23;" horiz-adv-x="528" 
d="M422 721q0 -86 -75 -86q-83 0 -83 -64v-8q0 -41 35 -86l56 -72t55 -73t34 -94v-7q0 -100 -85 -168t-183 -67q-55 0 -96 26t-41 74v17q0 55 84 77.5t84 47.5v14q-10 43 -55 104l-80 105q-43 57 -43 108v13q0 106 79 170t173 65h14q51 0 89 -27.5t38 -68.5z" />
    <glyph glyph-name="afii59716" unicode="&#xe24;" horiz-adv-x="731" 
d="M403 545q0 63 -69 63q-35 0 -59.5 -18.5t-24.5 -52.5v-361q49 -6 70.5 -23.5t21.5 -52.5v-12q0 -45 -49 -71q-49 -25 -105 -25t-107.5 43t-51.5 92v451q0 113 85 174q86 61 206 61t210 -59q92 -66 93 -168v-715q0 -43 -34 -69.5t-85 -26.5q-100 0 -101 98v672z" />
    <glyph glyph-name="afii59717" unicode="&#xe25;" horiz-adv-x="733" 
d="M250 78q0 -40 -33 -62t-80 -22t-77.5 29.5t-30.5 60.5v158q0 72 88 120q102 45 166 76q96 47 104 107v10q0 20 -15.5 34.5t-43.5 14.5h-6q-23 0 -65 -28t-67 -29h-10q-49 0 -77.5 25.5t-28.5 66.5v10q0 74 76 118t167 44h7q129 0 215 -59.5t86 -157.5v-496
q0 -39 -31 -69.5t-80 -30.5h-10q-41 0 -74 24.5t-33 61.5v199q-1 8 -29 8t-73 -24.5t-45 -49.5v-139z" />
    <glyph glyph-name="afii59718" unicode="&#xe26;" horiz-adv-x="755" 
d="M147 -10q-128 0 -135 84q0 27 28 49t28 41v434q0 98 78 158t180 59h30q144 0 218 -61t73 -142v-784q0 -41 -33.5 -61.5t-78.5 -20.5q-117 0 -117 82v725q0 25 -19.5 39t-45.5 14q-60 0 -60 -65v-443q0 -53 -41 -80.5t-105 -27.5z" />
    <glyph glyph-name="afii59719" unicode="&#xe27;" horiz-adv-x="661" 
d="M156 815q182 0 296 -120t113 -259v-8q0 -174 -123 -305t-276 -131h-10q-53 0 -88 26t-35 74v10q0 29 24.5 56.5t65.5 38.5h6q144 0 180.5 86t36.5 132q0 84 -68 140.5t-172 56.5h-8q-33 0 -58.5 36t-25.5 69v6q0 41 35 66.5t90 25.5h17z" />
    <glyph glyph-name="afii59720" unicode="&#xe28;" horiz-adv-x="710" 
d="M334 317q0 -35 -27 -61q-14 -10 -28.5 -19.5t-28.5 -19.5v-147q0 -29 -36 -53.5t-78 -24.5t-73.5 25.5t-31.5 52.5v540q1 76 65 141t148 64h24q74 0 115 -35v92q0 37 31.5 61.5t74.5 24.5t78 -21.5t35 -59.5v-801q0 -33 -30.5 -58.5t-78 -25.5t-79 27.5t-31.5 60.5v473
q0 57 -72 57h-6q-61 0 -61 -53v-141q90 -34 90 -99z" />
    <glyph glyph-name="afii59721" unicode="&#xe29;" horiz-adv-x="770" 
d="M156 815q46 0 70 -29t24 -67v-457q0 -33 20.5 -51t53.5 -18q74 0 73 65v156q-47 0 -74.5 28.5t-27.5 69.5q0 70 88 92v127q0 37 28.5 60.5t72.5 23.5q44 1 81 -19t37 -61v-131q80 -30 80 -84v-14q0 -37 -19.5 -60.5t-44.5 -27.5v-168q0 -102 -80 -178t-206 -76h-19
q-113 0 -197 68t-85 176v475q0 41 31.5 70.5t74.5 29.5h19z" />
    <glyph glyph-name="afii59722" unicode="&#xe2a;" horiz-adv-x="704" 
d="M293 815q41 0 72 -16v78q1 29 29 55t73 26h6q61 0 92 -25.5t31 -68.5v-772q0 -49 -32 -75q-32 -25 -82 -25t-77.5 27.5t-27.5 68.5v199q0 37 -31 37h-10q-29 -4 -59 -33t-29 -60v-161q0 -31 -34 -53.5t-73 -22.5h-8q-104 0 -102 96v201q0 59 86 112q57 25 159 76
q86 45 86 99q0 20 -12 26t-43 6h-24q-31 0 -60 -26q-63 -57 -88 -58h-6q-39 0 -64.5 29t-25.5 83t75.5 115.5t168.5 61.5h10z" />
    <glyph glyph-name="afii59723" unicode="&#xe2b;" horiz-adv-x="727" 
d="M473 578q-125 0 -135 108v6q0 47 38 82t96 35t91 -38t33 -84t-38 -77.5t-85 -31.5zM316 381q-24 0 -72 -6v-301q0 -29 -33 -55.5t-79 -26.5t-74.5 28.5t-28.5 63.5l2 649q0 33 27.5 57.5t77.5 24.5t82 -20.5t32 -59.5v-198q112 0 188 -18t128 -79t52 -182v-188
q0 -25 -34.5 -52.5t-76.5 -27.5t-76 27.5t-34 60.5v213q0 70 -45 86q-12 4 -36 4z" />
    <glyph glyph-name="afii59724" unicode="&#xe2c;" horiz-adv-x="1050" 
d="M283 -8q-94 0 -174 74q-78 74 -78 153v510q0 33 34.5 59.5t71.5 26.5h15q38 1 70 -19t32 -59v-471q0 -71 63 -71q84 0 82 69v453q0 41 26 68.5t100.5 27.5t74.5 -96v-451q0 -71 57 -71h5q37 0 51 18t14 53v516q0 39 -15.5 57.5t-37.5 18.5h-35q-27 0 -41 14
q-20 14 -20 46v6q0 25 18 40t39 15h92q25 0 53 31t56 30q102 0 102 -59v-12q0 -18 -19.5 -33.5t-33.5 -28.5q8 -10 17 -22.5t20 -24.5q18 -29 18 -61v-598q0 -93 -82 -151t-170 -58h-18q-39 0 -91.5 21.5t-89.5 49.5q-94 -71 -194 -71h-12z" />
    <glyph glyph-name="afii59725" unicode="&#xe2d;" horiz-adv-x="921" 
d="M332 492q48 0 72 -33t24 -68t-25.5 -61.5t-62.5 -26.5h-96q29 -51 75 -80.5t95 -29.5h10q86 0 134 61t48 152v6q0 86 -41 139q-45 63 -141 63q-31 0 -84 -26.5t-90 -26.5h-4q-45 0 -83 30t-38 68v9q0 63 94 106t205 43q152 0 276 -123t125 -295q0 -172 -122 -290
q-121 -117 -283 -117t-283 106t-121 242q0 59 39.5 105.5t81.5 46.5h195z" />
    <glyph glyph-name="afii59726" unicode="&#xe2e;" horiz-adv-x="917" 
d="M422 391q0 -45 -21 -67q-23 -31 -67 -31h-76q0 -41 48 -67t102 -25h18q172 0 172 213v10q0 78 -43 138t-129 61h-4q-45 0 -117 -44t-104 -44h-13q-39 0 -69.5 30.5t-30.5 59.5l2 4q0 86 115 139q92 45 211 45h10q41 0 92 -14.5t80 -42.5v196q0 35 30.5 52.5t69.5 17.5h27
q35 0 59 -19t25 -61v-602q0 -162 -111 -255t-286 -93h-13q-135 0 -257 97t-122 233q0 84 42 120t102 37h151q51 1 79 -25t28 -59v-4z" />
    <glyph glyph-name="afii59727" unicode="&#xe2f;" horiz-adv-x="628" 
d="M518 750v-682q0 -37 -35 -60q-35 -18 -77 -18t-78 20q-35 20 -35 62v432h-84q-88 0 -137 63t-49 140v8q0 37 26.5 65.5t74.5 27.5t89 -49t69 -48t32.5 7t9.5 46q16 55 98 55q96 -11 96 -69z" />
    <glyph glyph-name="afii59728" unicode="&#xe30;" horiz-adv-x="348" 
d="M135 301q43 0 74 -29.5t31 -73.5t-31 -76t-74 -32t-74.5 32t-31.5 75t31.5 73.5t74.5 30.5zM138 678q46 0 81 -32t35 -79t-34 -79.5t-81 -32.5t-78.5 31.5t-31.5 79.5t31.5 80t77.5 32z" />
    <glyph glyph-name="afii59729" unicode="&#xe31;" 
d="M4 1087q0 -86 -70 -86h-292q-43 0 -69 28t-26 73v12q0 57 31 88t84 31h4q67 0 98 -70h156q37 0 60.5 -23.5t23.5 -52.5z" />
    <glyph glyph-name="afii59730" unicode="&#xe32;" horiz-adv-x="434" 
d="M211 809q115 0 115 -117v-614q0 -43 -33 -68q-29 -18 -71 -18t-70.5 23.5t-28.5 58.5v514q0 27 -55.5 51.5t-55.5 70.5q0 99 94 99h105z" />
    <glyph glyph-name="afii59731" unicode="&#xe33;" horiz-adv-x="434" 
d="M211 809q115 0 115 -117v-614q0 -43 -33 -68q-29 -18 -71 -18t-70.5 23.5t-28.5 58.5v514q0 27 -55.5 51.5t-55.5 70.5q0 99 94 99h105zM-316 1122q0 53 34 90t88 37q54 -1 88 -37t34 -84t-30 -86q-36 -36 -90 -36t-89 28q-35 35 -35 88z" />
    <glyph glyph-name="afii59732" unicode="&#xe34;" 
d="M-94 1079q0 -96 -88 -96h-428q-99 0 -99 86q0 45 27 72.5t76 27.5h424q41 0 64.5 -24.5t23.5 -59.5v-6z" />
    <glyph glyph-name="afii59733" unicode="&#xe35;" 
d="M-213 1247q47 0 81 -34.5t34 -88.5v-10q0 -51 -20 -93t-54 -42h-455q-29 0 -54.5 27.5t-25.5 65.5t22.5 65.5t57.5 27.5h303q14 39 35 60q29 22 76 22z" />
    <glyph glyph-name="afii59734" unicode="&#xe36;" 
d="M-80 1126.5q0 -53.5 -30.5 -95.5t-77.5 -42h-443q-35 0 -57.5 31t-22.5 74q16 74 82 82h254q39 34 69 58t86 24t98 -39t42 -92.5z" />
    <glyph glyph-name="afii59735" unicode="&#xe37;" 
d="M-412 1217q34 0 93 -52h45q8 12 20 31t51 20t63.5 -17.5t24.5 -41.5v-108q0 -27 -24.5 -43.5t-59.5 -16.5h-419q-78 0 -78 96v7q0 27 21.5 51t51.5 24h127q4 10 24 30t52 20h8z" />
    <glyph glyph-name="afii59736" unicode="&#xe38;" 
d="M-143 -346q0 -74 -103 -74q-49 0 -77.5 23.5t-28.5 64.5v119q0 35 29.5 58.5t72.5 23.5h8q98 -12 99 -74v-141z" />
    <glyph glyph-name="afii59737" unicode="&#xe39;" 
d="M-406 -444q-100 0 -162 61t-87 141q-4 16 -10.5 35t-10.5 37q0 37 30 63.5t70 26.5t66 -22q2 -4 43 -56q28 -104 70 -104q68 0 67 63q42 100 88 101q41 0 79 -28t44 -81q0 -96 -82 -167t-200 -70h-5z" />
    <glyph glyph-name="afii59738" unicode="&#xe3a;" 
d="M-235 -98q45 0 75 -30t29.5 -71t-30 -73.5t-75.5 -32.5q-46 1 -76 27q-28 26 -28 70t29 79q31 31 76 31z" />
    <glyph glyph-name="afii59743" unicode="&#xe3f;" horiz-adv-x="761" 
d="M377 549q53 0 53 75q0 32 -17.5 59.5t-45.5 27.5h-121v-162h131zM397 180q99 0 99 72v18q0 31 -20.5 61.5t-49.5 30.5h-180v-182h151zM383 0v-119h-102v119h-158q-31 0 -58.5 21.5t-27.5 50.5v737q8 45 30.5 74.5t51.5 29.5h162v119h102v-119q119 0 185.5 -65.5
t66.5 -169.5q0 -68 -23.5 -112t-76.5 -77q73 -11 117 -79t44 -154q-12 -117 -87 -176t-142.5 -69.5t-83.5 -10.5z" />
    <glyph glyph-name="afii59744" unicode="&#xe40;" horiz-adv-x="366" 
d="M151 811q44 0 76.5 -19.5t32.5 -50.5v-671q0 -37 -31.5 -58.5t-74.5 -21.5t-77 22t-34 62v659q0 37 32 57.5t76 20.5z" />
    <glyph glyph-name="afii59745" unicode="&#xe41;" horiz-adv-x="677" 
d="M459 809q43 0 76.5 -21.5t33.5 -54.5v-659q0 -39 -30.5 -61.5t-73.5 -22.5t-78 22t-35 64v657q0 37 32 56.5t75 19.5zM153 813q44 0 75.5 -20.5t31.5 -51.5v-671q0 -37 -34 -58.5t-78 -21.5t-74 22t-31 62v659q0 37 33 58.5t77 21.5z" />
    <glyph glyph-name="afii59746" unicode="&#xe42;" horiz-adv-x="382" 
d="M274 96q0 -106 -106 -106h-10q-45 0 -78 29.5t-33 68.5v971q0 158 168 158t168 -109v-6q0 -35 -20.5 -61.5t-45.5 -26.5q-43 0 -43 -53v-865z" />
    <glyph glyph-name="afii59747" unicode="&#xe43;" horiz-adv-x="575" 
d="M252 926q0 31 -18.5 50t-49.5 19h-10q-29 -4 -67 -51t-62 -47h-8q-41 0 -69.5 25.5t-28.5 58.5l-2 4q-1 89 71 151t180 62t194 -63q85 -63 85 -144v-913q0 -41 -32 -64.5t-76 -23.5t-75.5 23.5t-31.5 60.5v852z" />
    <glyph glyph-name="afii59748" unicode="&#xe44;" horiz-adv-x="430" 
d="M98 1210q224 0 224 -147v-981q0 -43 -36 -68q-36 -24 -82 -24q-106 1 -106 94v877q0 25 -13 38t-54 13h-4q-37 0 -56.5 29.5t-19.5 72.5t44 69.5t93 26.5h10z" />
    <glyph glyph-name="afii59749" unicode="&#xe45;" horiz-adv-x="434" 
d="M326 -139q0 -86 -107 -86q-39 0 -67.5 22.5t-28.5 59.5v731q0 27 -55.5 51.5t-55.5 70.5q0 99 94 99h105q115 0 115 -117v-831z" />
    <glyph glyph-name="afii59750" unicode="&#xe46;" horiz-adv-x="634" 
d="M317 604q-21 -20 -39 -20t-35.5 7t-36 14t-35.5 14.5t-34 7.5h-41q-39 0 -61.5 27.5t-22.5 65.5t23.5 66.5t66.5 28.5h121l37 -43h43q52 43 94 43q127 0 127 -84v-674q0 -31 -28.5 -48t-67.5 -17t-73 19t-33 50v541z" />
    <glyph glyph-name="afii59751" unicode="&#xe47;" 
d="M-184 1108q31 0 44 -9t13 -40q0 -70 -123 -70q-41 0 -83 13t-73 22h-16q-12 0 -41 -18t-82 -17q-53 0 -100 29t-47 63v140q0 102 151 102h371q59 0 59 -59q0 -29 -8 -39q-10 -18 -43 -19h-373q-14 0 -24 -15t-10 -36v-12q0 -18 9 -31.5t21 -13.5l121 39q44 0 90 -29h144z
" />
    <glyph glyph-name="afii59752" unicode="&#xe48;" 
d="M-211 1577q43 0 70.5 -20.5t27.5 -53.5v-135q0 -74 -100 -74q-51 0 -80 23.5t-29 64.5v113q0 37 31 59.5t74 22.5h6z" />
    <glyph glyph-name="afii59753" unicode="&#xe49;" 
d="M-295 1294q-30 0 -41 54q-6 -2 -24 -2t-47 18t-29 60t34.5 73t79.5 31l46 -2h6q63 0 96 -70h158q37 0 59.5 -22.5t22.5 -53.5v-4q0 -33 -15 -53q-18 -29 -55 -29h-291z" />
    <glyph glyph-name="afii59754" unicode="&#xe4a;" 
d="M-391 1327q0 -41 -60 -41h-8q-20 0 -41.5 11.5t-31.5 29.5v107q0 49 47 81.5t112 32.5q20 0 63 -12t48 -12q67 16 96 24h10q72 0 109 -18t59 -86q52 0 72 -18t27 -50v-8q0 -31 -18.5 -50.5t-55.5 -19.5h-119q-57 0 -57 68v43q0 31 -27 31q-10 0 -19.5 -9.5t-9.5 -21.5
v-78q0 -20 -19 -32.5t-46 -12.5h-6q-27 0 -48.5 11.5t-21.5 33.5v70q0 12 -9 20.5t-20 8.5q-27 0 -26 -29v-74z" />
    <glyph glyph-name="afii59755" unicode="&#xe4b;" 
d="M-225 1577q59 0 84 -74q31 0 62 -33t-7 -88q-23 -27 -55 -34q-8 -33 -37 -52.5t-66 -19.5q-70 0 -86 63q-33 0 -52 26t-19 56v11q0 35 17 53t60 33q4 27 28 43t56 16h15z" />
    <glyph glyph-name="afii59756" unicode="&#xe4c;" 
d="M-242 1245q-123 0 -123 109v20q0 43 30 73t75 30h291q37 0 54 -28t17 -56v-4q0 -31 -23.5 -52.5t-60.5 -21.5h-157q-33 -70 -97 -70h-6z" />
    <glyph glyph-name="afii59757" unicode="&#xe4d;" 
d="M-316 1122q0 53 34 90t88 37q54 -1 88 -37t34 -84t-30 -86q-36 -36 -90 -36t-89 28q-35 35 -35 88z" />
    <glyph glyph-name="afii59758" unicode="&#xe4e;" 
d="M-181 1278h-22q-88 0 -88 -49q0 -10 2 -12q7 -13 31 -19t33.5 -8t19.5 -6l10 -49q0 -2 -30 -6t-61 -10q-30 -6 -68 -11q-20 -6 -35 -37q-6 -10 -6 -18q0 -29 55 -29h16q15 0 60 12t45 31q0 2 -1 3l30 -38l-21 -20q-53 -45 -125 -45t-127 18q-72 23 -72 66q0 55 72 90
q74 31 90 24q-26 10 -45 23q-47 29 -47 53q6 43 95 74t158 31q70 0 98 -4t39.5 -5.5t25.5 -5.5l10 -69q-10 2 -13 2l-110 12q-10 2 -19 2zM-220 1070l-5 7q4 -4 5 -7z" />
    <glyph glyph-name="afii59759" unicode="&#xe4f;" horiz-adv-x="751" 
d="M174 412q0 62 46 105q46 42 106 42t102.5 -45t42.5 -105t-44 -103.5t-105 -43.5t-104.5 44t-43.5 106zM469 575q-66 59 -158 59t-155 -68q-64 -69 -64 -160t69 -154q69 -64 161 -64t154 68t62 160t-69 159zM330 719q86 0 174 -66q123 -94 123 -245q-1 -104 -55 -175
q-105 -137 -257 -137q-107 0 -177 54q-134 104 -134 256q0 104 66 188q96 125 260 125z" />
    <glyph glyph-name="afii59760" unicode="&#xe50;" horiz-adv-x="722" 
d="M348 186q36 0 64 64t28 134t-24 130t-66 60q-41 0 -65.5 -59.5t-24.5 -123.5v-12q0 -106 27 -154q18 -39 55 -39h6zM365 772q272 0 272 -379q0 -172 -64 -274q-71 -119 -209 -119t-221.5 95t-83.5 281q1 186 87 292q86 104 219 104z" />
    <glyph glyph-name="afii59761" unicode="&#xe51;" horiz-adv-x="483" 
d="M110 530q-20 0 -45.5 28t-25.5 60v13q0 143 176 143h27q61 0 93 -22.5t32 -53.5v-602q0 -53 -32 -80.5t-78 -27.5t-76 28t-29 82v447q-22 -15 -42 -15z" />
    <glyph glyph-name="afii59762" unicode="&#xe52;" horiz-adv-x="708" 
d="M188 377q-66 0 -102 56t-35 135q0 79 77.5 151t195.5 72t204 -63t86 -185v-4q0 -79 -32 -141t-85 -116q-52 -54 -112 -110h143q31 0 50.5 -24.5t19.5 -57.5t-12 -57q-14 -33 -49 -33h-422q-37 0 -57.5 28.5t-20.5 61.5v8q0 37 22 70q23 29 100 81t166 142t89 137v11
q0 37 -22.5 60.5t-57.5 23.5t-61.5 -19.5t-26.5 -50.5q3 -21 16.5 -49t13.5 -56t-26 -53q-23 -18 -53 -18h-9z" />
    <glyph glyph-name="afii59763" unicode="&#xe53;" horiz-adv-x="579" 
d="M59 655v7q-1 53 53 85t121 31h11q110 0 180 -50t70 -153v-14q0 -87 -74 -168q16 -25 45 -70t29 -118v-6q0 -90 -70 -155q-70 -64 -163 -64t-163 38q-68 39 -67 95v4q0 33 19.5 55.5t47.5 22.5t62 -20t53 -19h8q76 0 76 72t-70 79q-74 33 -73.5 78t65.5 74q49 25 63.5 39
t14.5 44t-10 44t-51 14l-91 -20q-86 0 -86 75z" />
    <glyph glyph-name="afii59764" unicode="&#xe54;" horiz-adv-x="686" 
d="M373 403q0 78 92 78h6q37 0 64.5 -21.5t27.5 -66.5v-96l4 -2q27 0 41.5 -25.5t14.5 -64.5v-8q0 -29 -21 -52t-55 -22v-82q0 -33 -27.5 -53.5t-70.5 -20.5t-73 18.5t-30 51.5v86h-153q-70 0 -104 27.5t-34 62.5t6 53l129 443q20 45 42 61t64 16t65.5 -19t23.5 -48v-14
l-102 -361q-2 -6 -11.5 -21.5t-9.5 -22.5t53 -7h58v110z" />
    <glyph glyph-name="afii59765" unicode="&#xe55;" horiz-adv-x="630" 
d="M88 678q0 84 90 84h260q33 0 61.5 -30.5t28.5 -64.5t-16 -61q-23 -31 -63 -31h-142q-12 0 -18 -5t-6 -25v-35q0 -25 43 -25q111 0 164 -78t53 -180v-10q0 -109 -65 -179t-222 -71q-70 0 -127 33q-70 37 -70 88q0 33 24 64t60 30h4q19 0 57.5 -14t53.5 -14q86 0 86 96
q0 70 -100 69h-66q-90 0 -90 89v270z" />
    <glyph glyph-name="afii59766" unicode="&#xe56;" horiz-adv-x="694" 
d="M336 369q-90 0 -90 -88q0 -39 25.5 -68t64.5 -29h6q82 0 82 90v15q-10 80 -88 80zM631 274v-6q0 -140 -88 -204t-224 -64h-4q-115 0 -196.5 76t-81.5 186v8q-1 148 267 392q109 100 177 100q101 0 101 -84q0 -26 -27 -51l-106 -92q86 -41 134 -110t48 -151z" />
    <glyph glyph-name="afii59767" unicode="&#xe57;" horiz-adv-x="643" 
d="M43 666v8q0 35 19.5 61.5t54.5 26.5h387q82 0 94 -78q0 -14 -10 -41l-326 -614q-14 -39 -108 -39q-37 0 -66 26t-29 48t4 30l263 441q6 2 6 13t-10 21q-16 10 -31 11l-162 -2q-35 0 -60.5 29.5t-25.5 58.5z" />
    <glyph glyph-name="afii59768" unicode="&#xe58;" horiz-adv-x="626" 
d="M369 536.5q0 30.5 -17.5 51t-50.5 20.5t-54.5 -21.5t-21.5 -50t20.5 -49t51.5 -20.5t51.5 19.5t20.5 50zM375 226q0 30 -20.5 51.5t-49.5 21.5t-49 -21.5t-20 -50.5t20 -48t49 -19t49.5 18t20.5 48zM55 520v45q-2 2 -2 13q0 60 66 124t164 64h16q88 0 156 -62t67 -143
v-39q0 -48 -12 -64t-23.5 -30t-31.5 -39q41 -29 67.5 -71t26.5 -76v-31q0 -72 -62 -135q-74 -80 -188 -80h-8q-115 0 -175 62t-61 153v6q0 85 76 172q-76 68 -76 131z" />
    <glyph glyph-name="afii59769" unicode="&#xe59;" horiz-adv-x="716" 
d="M352 389q92 0 92 65.5t-25.5 92t-66.5 26.5h-6q-39 0 -59.5 -27.5t-20.5 -64.5v-10q0 -41 24.5 -61.5t61.5 -20.5zM61 485v4q1 137 87 205t221 68h8q109 0 191 -80t83 -188v-7q0 -82 -75 -184t-168 -184t-138 -107q-16 -12 -49 -12t-52 3t-39 24t-20 53t23 51l111 94
q-86 35 -134.5 104.5t-48.5 155.5z" />
    <glyph glyph-name="afii59770" unicode="&#xe5a;" horiz-adv-x="952" 
d="M621 705q0 106 102 106q70 0 94.5 -17.5t30.5 -70.5v-655q0 -37 -33 -57.5t-77 -20.5t-80.5 24.5t-36.5 61.5v629zM539 741v-673q0 -37 -35 -60q-35 -18 -78 -18t-78 20t-35 62v424h-84q-88 0 -137 65t-49 146v8q0 37 25.5 65.5t74.5 27.5t89 -52t69 -51t34 7t9 46
q6 25 35 40t63 15q97 -15 97 -72z" />
    <glyph glyph-name="afii59771" unicode="&#xe5b;" horiz-adv-x="1769" 
d="M351 539q-42 0 -58 -2q-70 -9 -106 -57q-35 -48 -35 -118t44 -128q44 -59 121 -60q177 0 261 229q26 74 34 74t56 -89t62 -89q13 0 53 89t57 89q12 0 48 -81l52 -117l20 46t34 81t39 57q15 1 57 -103t77 -98q2 0 86 117q37 51 86 61h13q25 0 71.5 -34.5t62.5 -34.5
q48 0 70 35q4 6 21 45l51 -142q-18 -33 -51 -58.5t-62 -25.5q-28 0 -92 37t-84 23q-43 0 -94 -64q-53 -61 -93 -61t-75 53t-35 72q-87 -112 -109 -122q-23 -11 -45 24t-34 58t-27 46q-19 -27 -60 -79q-42 -53 -50 -48q-23 8 -46 43t-40 59q-8 -14 -14.5 -26.5t-14.5 -26.5
q-33 -74 -88 -123q-76 -70 -184 -70t-200 64t-112 172q-8 54 -8 94q0 135 67.5 226.5t196.5 117.5q8 2 62 3q55 1 141 -48l-6 -151q-2 6 -40 24t-80 17z" />
    <glyph glyph-name="quoteleft" unicode="&#x2018;" horiz-adv-x="436" 
d="M84 553q-35 0 -65.5 25.5t-30.5 55.5t14 58l137 236q34 57 92 57q35 0 64 -26.5t29 -56.5t-17 -83l-114 -201q-35 -65 -109 -65z" />
    <glyph glyph-name="quoteright" unicode="&#x2019;" horiz-adv-x="436" 
d="M84 553q-35 0 -65.5 25.5t-30.5 55.5t14 58l137 236q34 57 92 57q35 0 64 -26.5t29 -56.5t-17 -83l-114 -201q-35 -65 -109 -65z" />
    <glyph glyph-name="quotedblleft" unicode="&#x201c;" horiz-adv-x="765" 
d="M412 539q-34 0 -65.5 25.5t-31.5 61.5t17 54l137 235q12 27 39.5 42.5t57.5 15.5t57.5 -29.5t27.5 -61.5t-16 -75l-115 -199q-32 -69 -108 -69zM84 553q-35 0 -65.5 25.5t-30.5 55.5t14 58l137 236q34 57 92 57q35 0 64 -26.5t29 -56.5t-17 -83l-114 -201
q-35 -65 -109 -65z" />
    <glyph glyph-name="quotedblright" unicode="&#x201d;" horiz-adv-x="765" 
d="M412 539q-34 0 -65.5 25.5t-31.5 61.5t17 54l137 235q12 27 39.5 42.5t57.5 15.5t57.5 -29.5t27.5 -61.5t-16 -75l-115 -199q-32 -69 -108 -69zM84 553q-35 0 -65.5 25.5t-30.5 55.5t14 58l137 236q34 57 92 57q35 0 64 -26.5t29 -56.5t-17 -83l-114 -201
q-35 -65 -109 -65z" />
    <glyph glyph-name="bullet" unicode="&#x2022;" horiz-adv-x="575" 
d="M214 627q46 0 91 -18t77 -67.5t32 -99.5t-19 -92q-19 -43 -67 -74.5t-98 -31.5t-92 18t-75.5 68.5t-33.5 96.5q1 46 19 90t69 77t97 33z" />
    <glyph glyph-name="f700;" unicode="&#xf700;" horiz-adv-x="735" 
d="M627 334v-172q0 -59 -49.5 -110.5t-110.5 -51.5h-311q-16 0 -28 42t-38 46q-74 12 -74 100q0 35 22.5 54.5t51.5 19.5h148q39 0 63 -45q27 -43 57 -43t41 20.5t11 65.5v27q0 22 -33 22h-187q-63 1 -94 61t-30 148q0 154 90 227t211 72h16q84 0 155 -46t70 -112v-10
q0 -98 -96 -98h-6q-43 0 -82 32t-64 31q-63 0 -71 -57q0 -76 57 -76l154 2q47 0 87 -44t40 -105z" />
    <glyph glyph-name="f701;" unicode="&#xf701;" 
d="M-422 1167q41 0 64.5 -24.5t23.5 -59.5v-6q0 -45 -23.5 -70.5t-64.5 -25.5h-356q-99 0 -99 86q0 45 27 72.5t76 27.5h352z" />
    <glyph glyph-name="f702;" unicode="&#xf702;" 
d="M-426 1262q47 0 81 -35t34 -88v-11q0 -53 -19 -90q-20 -45 -55 -45h-399q-29 0 -62 27.5t-33 65.5t33 66t68 28h241q16 46 40 64t71 18z" />
    <glyph glyph-name="f703;" unicode="&#xf703;" 
d="M-309 1122.5q0 -53.5 -31 -95.5t-78 -42h-381q-35 0 -57.5 31t-22.5 74q16 74 82 81h193q84 84 148 83q65 -1 106 -39.5t41 -92z" />
    <glyph glyph-name="f704;" unicode="&#xf704;" 
d="M-780 995q-99 0 -99 80v19q0 27 32 53.5t63 26.5h82q18 29 26 34q14 15 45 15h13q33 0 92 -52h45q8 10 20.5 30t51.5 21q38 1 62.5 -17.5t24.5 -41.5v-108q0 -29 -24.5 -44.5t-59.5 -15.5h-374z" />
    <glyph glyph-name="f705;" unicode="&#xf705;" 
d="M-379 1217v-142q0 -74 -102 -74q-47 0 -76 24t-29 65v118q0 35 29 58.5t74 23.5h6q98 -12 98 -73z" />
    <glyph glyph-name="f706;" unicode="&#xf706;" 
d="M-565 1305q69 0 96 -72h158q37 0 60.5 -21.5t23.5 -52.5v-6q0 -31 -17 -53q-18 -29 -57 -29h-289q-20 -1 -28 17t-11 38q-3 -2 -23 -2t-49.5 19.5t-29.5 60.5t34.5 72t82.5 31l43 -2h6z" />
    <glyph glyph-name="f707;" unicode="&#xf707;" 
d="M-580 1120q0 -41 -59 -41h-8q-23 0 -44.5 11.5t-29.5 29.5v107q0 49 47 81.5t113 32.5q20 0 63 -12t47 -12q63 15 97 24h10q72 1 108 -19t60 -85q55 0 78 -18q14 -14 20 -50v-8q0 -29 -19.5 -49t-54.5 -20h-118q-58 0 -58 67v43q0 31 -26 31q-10 0 -19.5 -9.5t-9.5 -21.5
v-78q0 -20 -19.5 -32.5t-46.5 -12.5h-6q-25 -1 -47 11t-22 34v70q0 12 -9.5 20.5t-19.5 8.5q-27 0 -27 -29v-74z" />
    <glyph glyph-name="f708;" unicode="&#xf708;" 
d="M-471 1286q39 0 58 -20t30 -54q33 0 54.5 -22.5t21.5 -44.5q-4 -66 -76 -88q-8 -33 -37.5 -52.5t-65.5 -19.5q-75 0 -94 64q-35 0 -54 25.5t-19 55.5l2 13q0 35 17.5 52t60.5 32q13 59 88 59h14z" />
    <glyph glyph-name="f709;" unicode="&#xf709;" 
d="M-512 1028q-123 0 -123 109v24q0 43 30 71t75 28h288q36 0 54 -24t18 -56v-9q0 -33 -23.5 -53t-60.5 -20h-158q-27 -70 -94 -70h-6z" />
    <glyph glyph-name="f70a;" unicode="&#xf70a;" 
d="M-102 1073q0 -74 -103 -74q-49 0 -77.5 24t-28.5 67v116q0 35 29.5 58.5t72.5 23.5h8q98 -12 99 -74v-141z" />
    <glyph glyph-name="f70b;" unicode="&#xf70b;" 
d="M-356 1016q-28 0 -39 53q-6 -2 -25 -2t-48.5 21t-29.5 58q0 38 28 66t45 32.5t42 4.5h51q61 0 96 -71h156q37 0 61.5 -22.5t24.5 -53.5v-8q0 -31 -17 -55t-55 -23h-290z" />
    <glyph glyph-name="f70c;" unicode="&#xf70c;" 
d="M-6 1135q92 0 96 -68v-8q0 -31 -18.5 -50.5t-55.5 -19.5h-116q-60 0 -60 68v43q0 31 -24 30q-10 0 -19.5 -10t-9.5 -20v-78q0 -20 -19.5 -32.5t-43.5 -12.5h-11q-25 0 -46 11t-21 34v70q0 12 -9.5 20t-19.5 8q-29 0 -29 -28v-74q0 -41 -57 -41h-8q-51 0 -76 41v106
q0 49 47 82t95 33t128 -25l99 25h10q70 1 108 -19t60 -85z" />
    <glyph glyph-name="f70d;" unicode="&#xf70d;" 
d="M-193 1294q35 0 62 -22q16 -18 27 -51q31 0 53 -22.5t20 -50.5q-5 -68 -73 -83q-22 -72 -101 -72q-80 0 -96 64q-33 0 -53.5 26.5t-20.5 55.5v12q0 35 17.5 52.5t62.5 31.5q4 27 28.5 43t59.5 16h14z" />
    <glyph glyph-name="f70e;" unicode="&#xf70e;" 
d="M-250 946h-6q-123 0 -123 109v20q0 43 30 73t75 30h288q74 0 74 -80v-8q0 -31 -23.5 -52.5t-60.5 -21.5h-158q-33 -70 -96 -70z" />
    <glyph glyph-name="f70f;" unicode="&#xf70f;" horiz-adv-x="1071" 
d="M352 86v-16q0 -80 -118.5 -80t-161.5 32.5t-43 88.5v467q0 109 87 173t220 64t204.5 -56.5t71.5 -156.5v-158q0 -47 45 -47h45q41 0 43 49v273q0 43 24 68.5t73 25.5h10q111 0 111 -102v-576q0 -63 -38 -99t-114 -36h-328q-49 0 -75 17t-25 61q0 44 30.5 71t73.5 27h205
q49 0 49 41v12h-235q-113 0 -113 125v207q0 43 -16.5 58.5t-57.5 15.5q-69 0 -69 -57v-383q0 -14 51 -40t51 -69z" />
    <glyph glyph-name="f710;" unicode="&#xf710;" 
d="M-352 1208q35 0 59.5 -23t24.5 -55t-16 -58t-54 -25h-293q-43 0 -68.5 28.5t-25.5 71.5v14q0 57 30.5 87t84.5 30h4q67 0 98 -70h156z" />
    <glyph glyph-name="f711;" unicode="&#xf711;" 
d="M-423 1237q52 0 88 -36t36 -86t-35 -86t-87 -36t-89 31q-35 35 -35 87t31 87q39 39 91 39z" />
    <glyph glyph-name="f712;" unicode="&#xf712;" 
d="M-281 1315q60 0 60 -58t-51 -59h-373q-14 0 -24.5 -14.5t-10.5 -36.5v-12q0 -18 9 -31.5t22 -13.5l121 38q49 0 90 -28h61q31 0 44.5 -9t13.5 -40q0 -70 -123 -70q-35 0 -46 16t-28 19h-16q-12 0 -41 -18t-83 -17q-54 0 -100.5 28.5t-46.5 63.5v139q0 102 152 103h370z
" />
    <glyph glyph-name="f713;" unicode="&#xf713;" 
d="M-408 1577q45 0 72 -19.5t27 -54.5v-133q0 -74 -103 -74q-49 0 -77.5 23.5t-28.5 66.5v109q0 35 29.5 58.5t72.5 23.5h8z" />
    <glyph glyph-name="f714;" unicode="&#xf714;" 
d="M-591 1376q-20 0 -49.5 20t-29.5 59q0 40 34 74t79 27h51q66 0 98 -71h156q39 0 61.5 -21.5t22.5 -52.5v-6q0 -33 -14 -53q-23 -29 -58 -29h-288q-25 0 -33 27q-2 8 -6 28q-4 -2 -24 -2z" />
    <glyph glyph-name="f715;" unicode="&#xf715;" 
d="M-121 1440q94 0 98 -68v-8q0 -31 -18 -50.5t-55 -19.5h-117q-59 0 -59 68v43q0 29 -27 31q-8 0 -18.5 -9.5t-10.5 -21.5v-78q0 -20 -18.5 -32.5t-44.5 -12.5h-8q-27 0 -48.5 11.5t-21.5 33.5v70q0 29 -29 28q-27 0 -26 -28v-74q0 -41 -60 -41h-8q-49 0 -74 41v107
q0 49 47.5 81.5t112.5 32.5q20 0 63 -12t48 -12q50 12 96 24h10q72 0 109 -18t59 -86z" />
    <glyph glyph-name="f716;" unicode="&#xf716;" 
d="M-406 1575q64 0 89 -74q33 0 54 -22.5t19 -48.5q-5 -65 -73 -84q-8 -33 -38 -52.5t-69 -19.5q-74 0 -90 63q-33 0 -53.5 27t-20.5 55v13q0 35 17.5 51t62.5 33q4 27 28.5 43t59.5 16h14z" />
    <glyph glyph-name="f717;" unicode="&#xf717;" 
d="M-428 1241q-123 0 -123 109v22q0 43 29.5 72t72.5 29h291q33 0 56 -29q14 -20 14 -53t-22.5 -56.5t-59.5 -23.5h-158q-31 -70 -96 -70h-4z" />
    <glyph glyph-name="f718;" unicode="&#xf718;" 
d="M-145 -496q0 -61 -103 -61q-49 0 -77.5 19.5t-28.5 52.5v98q0 29 29.5 48.5t72.5 19.5h8q98 -12 99 -62v-115z" />
    <glyph glyph-name="f719;" unicode="&#xf719;" 
d="M-408 -635q-182 0 -243 246q0 33 26.5 57.5t66.5 24.5t64 -29t31 -41q8 -33 17 -47q23 -47 45 -47q61 0 61 57q39 90 79 90q41 0 73 -26t38 -72q0 -88 -72 -150.5t-181 -62.5h-5z" />
    <glyph glyph-name="f71a;" unicode="&#xf71a;" 
d="M-254 -336q43 0 71 -28t27.5 -66.5t-28.5 -67.5q-25 -30 -69 -30t-71 26t-27 68q0 40 25 69q29 29 72 29z" />
  </font>
</defs>
</svg>
